<svg width="24" height="21" viewBox="0 0 24 21" fill="none" xmlns="http://www.w3.org/2000/svg">
<path d="M0.625 19.9358H23.375" stroke="#1F2428" stroke-linecap="round" stroke-linejoin="round"/>
<path d="M13.6244 19.9358V2.06079C13.6244 1.8453 13.5388 1.63864 13.3864 1.48627C13.234 1.33389 13.0274 1.24829 12.8119 1.24829H3.06189C2.8464 1.24829 2.63974 1.33389 2.48737 1.48627C2.33499 1.63864 2.24939 1.8453 2.24939 2.06079V19.9358" stroke="#1F2428" stroke-linecap="round" stroke-linejoin="round"/>
<path d="M21.7494 19.9358V8.56079C21.7494 8.3453 21.6638 8.13864 21.5114 7.98627C21.359 7.83389 21.1524 7.74829 20.9369 7.74829H13.6244" stroke="#1F2428" stroke-linecap="round" stroke-linejoin="round"/>
<path d="M5.49939 5.31079H8.74939" stroke="#1F2428" stroke-linecap="round" stroke-linejoin="round"/>
<path d="M7.12439 11.8108H10.3744" stroke="#1F2428" stroke-linecap="round" stroke-linejoin="round"/>
<path d="M5.49939 15.8733H8.74939" stroke="#1F2428" stroke-linecap="round" stroke-linejoin="round"/>
<path d="M16.8744 15.8733H18.4994" stroke="#1F2428" stroke-linecap="round" stroke-linejoin="round"/>
<path d="M16.8744 11.8108H18.4994" stroke="#1F2428" stroke-linecap="round" stroke-linejoin="round"/>
</svg>
