<svg width="22" height="22" viewBox="0 0 22 22" fill="none" xmlns="http://www.w3.org/2000/svg">
<path d="M11 20.75C16.3848 20.75 20.75 16.3848 20.75 11C20.75 5.61522 16.3848 1.25 11 1.25C5.61522 1.25 1.25 5.61522 1.25 11C1.25 16.3848 5.61522 20.75 11 20.75Z" stroke="#1F2428" stroke-linecap="round" stroke-linejoin="round"/>
<path d="M19.7511 15.3036L14.2377 11.9126C14.141 11.8531 14.033 11.8146 13.9206 11.7994L11.603 11.487C11.429 11.4636 11.2521 11.4971 11.0987 11.5827C10.9454 11.6682 10.8238 11.8011 10.7524 11.9615L9.36107 15.0834C9.29637 15.2285 9.27568 15.3895 9.30154 15.5463C9.32741 15.7032 9.39871 15.849 9.50661 15.9657L11.416 18.0309C11.5025 18.1245 11.5659 18.2372 11.6008 18.3598C11.6357 18.4825 11.6413 18.6116 11.6171 18.7368L11.2282 20.7474" stroke="#1F2428" stroke-linecap="round" stroke-linejoin="round"/>
<path d="M4.59668 3.64746L3.68828 5.79548C3.60729 5.98701 3.60281 6.2023 3.67577 6.39703L4.84281 9.51177C4.8906 9.63931 4.96969 9.7528 5.07281 9.84179C5.17592 9.93079 5.29976 9.99243 5.43292 10.021L7.6094 10.4888C7.73017 10.5148 7.84343 10.5679 7.94057 10.6443C8.03771 10.7206 8.11618 10.818 8.17 10.9292L8.55651 11.7277C8.62302 11.8651 8.7269 11.981 8.85625 12.0621C8.9856 12.1432 9.13517 12.1862 9.28783 12.1862H10.6521" stroke="#1F2428" stroke-linecap="round" stroke-linejoin="round"/>
<path d="M13.4841 1.56982L14.432 3.26779C14.5216 3.4283 14.5542 3.61446 14.5243 3.79586C14.4944 3.97725 14.4039 4.14316 14.2676 4.26647L11.5345 6.73825C11.4881 6.7802 11.437 6.81665 11.3822 6.84689L10.1389 7.53348C10.0187 7.5999 9.88355 7.63473 9.74617 7.63473H7.57828C7.41841 7.63473 7.26209 7.68189 7.1289 7.77031C6.99571 7.85874 6.89156 7.98448 6.8295 8.13181L5.98376 10.1395" stroke="#1F2428" stroke-linecap="round" stroke-linejoin="round"/>
</svg>
