<svg width="26" height="16" viewBox="0 0 26 16" fill="none" xmlns="http://www.w3.org/2000/svg">
<path d="M8.9375 0.6875H6.5C6.05127 0.6875 5.6875 1.05127 5.6875 1.5V14.5C5.6875 14.9487 6.05127 15.3125 6.5 15.3125H8.9375C9.38623 15.3125 9.75 14.9487 9.75 14.5V1.5C9.75 1.05127 9.38623 0.6875 8.9375 0.6875Z" stroke="#1F2428" stroke-linecap="round" stroke-linejoin="round"/>
<path d="M19.5 0.6875H17.0625C16.6138 0.6875 16.25 1.05127 16.25 1.5V14.5C16.25 14.9487 16.6138 15.3125 17.0625 15.3125H19.5C19.9487 15.3125 20.3125 14.9487 20.3125 14.5V1.5C20.3125 1.05127 19.9487 0.6875 19.5 0.6875Z" stroke="#1F2428" stroke-linecap="round" stroke-linejoin="round"/>
<path d="M20.3125 3.125H22.75C22.9655 3.125 23.1722 3.2106 23.3245 3.36298C23.4769 3.51535 23.5625 3.72201 23.5625 3.9375V12.0625C23.5625 12.278 23.4769 12.4847 23.3245 12.637C23.1722 12.7894 22.9655 12.875 22.75 12.875H20.3125" stroke="#1F2428" stroke-linecap="round" stroke-linejoin="round"/>
<path d="M5.6875 12.875H3.25C3.03451 12.875 2.82785 12.7894 2.67548 12.637C2.5231 12.4847 2.4375 12.278 2.4375 12.0625V3.9375C2.4375 3.72201 2.5231 3.51535 2.67548 3.36298C2.82785 3.2106 3.03451 3.125 3.25 3.125H5.6875" stroke="#1F2428" stroke-linecap="round" stroke-linejoin="round"/>
<path d="M9.75 8H16.25" stroke="#1F2428" stroke-linecap="round" stroke-linejoin="round"/>
<path d="M23.5625 8H25.1875" stroke="#1F2428" stroke-linecap="round" stroke-linejoin="round"/>
<path d="M0.8125 8H2.4375" stroke="#1F2428" stroke-linecap="round" stroke-linejoin="round"/>
</svg>
