<svg width="300" height="295" viewBox="0 0 300 295" fill="none" xmlns="http://www.w3.org/2000/svg">
<g clip-path="url(#clip0_32_3680)">
<path d="M264.351 253.198C256.638 261.149 249.735 265.822 244.454 269.349C192.925 303.756 134.021 293.838 115.811 290.45C86.4282 284.981 61.6259 281.123 40.316 261.871C-8.10585 218.123 -5.75078 126.863 31.2499 70.3308C35.6368 63.6279 72.5819 8.86547 131.608 1.14872C133.049 0.959327 134.13 0.852279 135.072 0.752436C144.204 -0.214087 200.793 -5.3205 246.936 33.3404C253.541 38.874 264.171 48.8563 274.027 64.0787C310.073 119.742 310.187 205.953 264.351 253.198Z" fill="#F4F7FA"/>
<path d="M73.1737 149.093C70.4203 155.039 73.044 160.986 75.5627 164.99C76.1638 164.99 76.5128 165.16 77.119 165.308C82.596 166.64 85.1652 165.962 90.7327 166.365C91.9318 166.452 95.4922 165.56 96.922 165.093L99.5745 164.178C99.5745 164.178 104.282 149.714 96.8849 145.72C89.4883 141.725 92.3209 127.326 92.9406 119.478C94.6235 98.1767 71.604 100.114 71.5783 72.5664C71.571 65.2418 74.0074 51.2679 67.8316 45.4328C60.7942 38.7844 55.6569 45.3062 51.132 39.7468C44.0606 31.0574 32.5838 27.9407 25.744 36.8833C18.9918 45.7086 27.1954 63.2769 47.5891 77.397C61.0731 89.1836 61.279 92.7131 60.2219 101.306C59.4787 107.325 53.7372 123.006 61.9068 129.267C70.0765 135.528 76.3213 142.294 73.1737 149.093Z" fill="url(#paint0_linear_32_3680)"/>
<g style="mix-blend-mode:soft-light" opacity="0.5">
<g style="mix-blend-mode:soft-light" opacity="0.5">
<path d="M87.8343 166.59L88.2409 166.539C87.9382 164.117 87.6037 161.678 87.2465 159.29C84.5971 141.609 80.3944 124.814 74.7528 109.374C69.9716 96.2901 64.0942 83.9919 57.2833 72.8238C51.8063 63.842 45.7015 55.5376 39.1283 48.1409C34.5098 42.9408 29.7122 38.24 24.8703 34.1732C24.0262 33.4629 23.1204 32.7846 22.2507 32.1289C21.0876 31.2551 19.8833 30.3503 18.8128 29.3663L18.5359 29.6679C19.6228 30.6663 20.8333 31.5762 22.0047 32.4563C22.8734 33.1089 23.771 33.7841 24.6068 34.4861C29.4332 38.5446 34.2164 43.2352 38.8216 48.4157C45.3752 55.7887 51.4656 64.0757 56.9333 73.0369C63.7268 84.1833 69.5938 96.4558 74.3678 109.514C80.0002 124.929 84.1967 141.696 86.841 159.351C87.1982 161.735 87.5327 164.175 87.8343 166.59Z" fill="#FCFDFE"/>
</g>
<g style="mix-blend-mode:soft-light" opacity="0.5">
<path d="M64.6572 86.9665L65.0288 86.7926C57.5602 70.8743 64.1179 41.4658 64.1858 41.1714L63.7854 41.0798C63.7144 41.3783 57.1268 70.9196 64.6572 86.9665Z" fill="#FCFDFE"/>
</g>
<g style="mix-blend-mode:soft-light" opacity="0.5">
<path d="M81.646 133.327L82.0361 133.193C78.2276 121.781 56.8622 112.972 56.6471 112.885L56.4927 113.264C56.7047 113.356 77.8962 122.094 81.646 133.327Z" fill="#FCFDFE"/>
</g>
<g style="mix-blend-mode:soft-light" opacity="0.5">
<path d="M83.2487 139.986L83.6543 139.928C82.522 132.155 85.1344 120.953 91.0056 108.384C91.301 107.752 91.301 107.752 91.2907 107.675L90.8841 107.729L91.09 107.702L90.8924 107.651C90.878 107.696 90.7668 107.934 90.6371 108.211C84.7299 120.854 82.1062 132.139 83.2487 139.986Z" fill="#FCFDFE"/>
</g>
<g style="mix-blend-mode:soft-light" opacity="0.5">
<path d="M87.2207 162.177L87.5922 162.004C83.9495 154.159 71.4989 151.063 71.3734 151.033L71.2766 151.43C71.4001 151.46 83.6613 154.511 87.2207 162.177Z" fill="#FCFDFE"/>
</g>
<g style="mix-blend-mode:soft-light" opacity="0.5">
<path d="M88.4529 166.622C89.9969 159.819 93.5439 153.241 99.2978 146.501L98.989 146.235C93.1919 153.029 89.616 159.663 88.0566 166.531L88.4529 166.622Z" fill="#FCFDFE"/>
</g>
<g style="mix-blend-mode:soft-light" opacity="0.5">
<path d="M42.6198 52.8325L42.9801 52.638C38.3338 44.0196 35.4517 33.888 34.5047 30.5582C34.2752 29.7523 34.1959 29.4692 34.1475 29.3755L33.7791 29.5546C33.813 29.6267 33.9448 30.0878 34.1105 30.6704C35.0605 34.0105 37.9529 44.174 42.6198 52.8325Z" fill="#FCFDFE"/>
</g>
<g style="mix-blend-mode:soft-light" opacity="0.5">
<path d="M52.2458 65.7288L52.533 65.4365C45.9897 58.995 27.6288 59.2019 26.8496 59.2132L26.8568 59.625C27.0452 59.6198 45.8239 59.4078 52.2458 65.7288Z" fill="#FCFDFE"/>
</g>
</g>
<path d="M105.665 200.613L81.7933 208.095C81.7933 208.095 73.461 197.258 76.6025 186.782C83.011 165.408 63.839 161.287 56.0739 158.36C44.3562 153.945 37.2282 145.73 46.6042 136.011C57.2185 125.015 40.1072 109.97 20.1561 105.562C0.637218 101.249 -2.97155 64.0582 40.1432 69.5022C65.8904 72.7528 69.8461 97.7311 74.8424 109.869C79.8387 122.006 98.7224 117.223 97.1476 134.458C95.8033 149.177 88.4715 161.905 99.1444 168.391C109.817 174.878 113.775 184.659 105.665 200.613Z" fill="url(#paint1_linear_32_3680)"/>
<g style="mix-blend-mode:soft-light" opacity="0.5">
<g style="mix-blend-mode:soft-light" opacity="0.5">
<path d="M96.0275 206.062L95.5026 206.126C95.4635 205.802 91.3452 173.311 77.5524 142.333C64.8466 113.793 41.085 80.7351 0.0586707 85.3165L0 84.7916C18.2631 82.7566 34.6806 87.8723 48.7976 100.01C60.0747 109.706 69.9129 123.877 78.0393 142.127C91.8619 173.178 95.9874 205.737 96.0275 206.062Z" fill="#BEB8F2"/>
</g>
<g style="mix-blend-mode:soft-light" opacity="0.5">
<path d="M54.4783 105.337L53.9636 105.431C50.818 88.1389 37.0664 66.4802 36.9275 66.264L37.3639 65.9789C37.507 66.1971 51.3142 87.9413 54.4783 105.337Z" fill="#BEB8F2"/>
</g>
<g style="mix-blend-mode:soft-light" opacity="0.5">
<path d="M44.8502 97.5077C24.5727 92.2581 10.3116 102.295 10.1706 102.397L9.86182 101.969C10.0049 101.866 24.4564 91.6756 44.9829 96.9961L44.8502 97.5077Z" fill="#BEB8F2"/>
</g>
<g style="mix-blend-mode:soft-light" opacity="0.5">
<path d="M85.4667 163.077C72.3842 141.083 38.242 145.384 37.9126 145.454L37.7695 144.947C38.0866 144.844 72.7218 140.617 85.9207 162.807L85.4667 163.077Z" fill="#BEB8F2"/>
</g>
<g style="mix-blend-mode:soft-light" opacity="0.5">
<path d="M82.4663 152.956L81.9403 153.007C80.3315 136.757 93.59 121.073 93.7238 120.916L94.1252 121.26C93.9925 121.42 80.8791 136.937 82.4663 152.956Z" fill="#BEB8F2"/>
</g>
<g style="mix-blend-mode:soft-light" opacity="0.5">
<path d="M94.7432 201.024C91.1179 192.005 75.6186 188.82 75.4622 188.789L75.5651 188.274C76.2136 188.403 91.4998 191.545 95.2321 200.832L94.7432 201.024Z" fill="#BEB8F2"/>
</g>
<g style="mix-blend-mode:soft-light" opacity="0.5">
<path d="M93.8732 193.321L93.3493 193.391C92.32 185.774 100.722 174.294 103.484 170.523C103.874 169.99 104.211 169.529 104.255 169.435L104.737 169.652C104.677 169.786 104.453 170.092 103.913 170.835C101.181 174.564 92.8676 185.914 93.8732 193.321Z" fill="#BEB8F2"/>
</g>
</g>
<path d="M83.0655 206.654L83.3331 206.778C88.6433 209.223 94.8768 210.957 102.207 211.425L106.512 211.396C107.805 208.024 108.431 204.585 104.102 203.145C97.3791 200.908 97.5788 188.97 99.5726 184.806C102.035 179.651 107.52 167.53 97.1815 163.911C88.5744 160.896 82.4036 160.709 82.137 149.5C81.8705 138.291 75.9756 131.123 65.807 131.479C55.1022 131.853 46.7833 117.369 37.889 121.857C22.3907 129.68 35.4485 154.758 53.7713 162.469C72.0941 170.179 61.2544 176.535 60.4742 185.677C59.4088 198.159 76.3925 196.005 80.7073 201.052C82.1669 202.761 82.8432 204.72 83.0655 206.654Z" fill="url(#paint2_linear_32_3680)"/>
<g style="mix-blend-mode:soft-light" opacity="0.5">
<g style="mix-blend-mode:soft-light" opacity="0.5">
<path d="M93.4079 210.116L93.9051 210.03C87.6036 173.689 63.6958 140.584 31.5113 123.635L31.2766 124.081C63.3252 140.959 87.1332 173.926 93.4079 210.116Z" fill="#FCFDFE"/>
</g>
<g style="mix-blend-mode:soft-light" opacity="0.5">
<path d="M88.2756 190.598L88.78 190.611C89.1722 176.121 101.883 165.162 102.012 165.054L101.684 164.669C101.555 164.779 88.674 175.879 88.2756 190.598Z" fill="#FCFDFE"/>
</g>
<g style="mix-blend-mode:soft-light" opacity="0.5">
<path d="M92.0666 203.463L92.5175 203.236C85.8918 190.114 59.2501 187.564 58.9794 187.541L58.9331 188.043C59.2018 188.067 85.5676 190.595 92.0666 203.463Z" fill="#FCFDFE"/>
</g>
<g style="mix-blend-mode:soft-light" opacity="0.5">
<path d="M71.2149 158.725L71.6832 158.537C67.3354 147.72 74.7588 131.458 74.8339 131.295L74.3769 131.083C74.2997 131.248 66.7868 147.706 71.2149 158.725Z" fill="#FCFDFE"/>
</g>
<g style="mix-blend-mode:soft-light" opacity="0.5">
<path d="M55.5899 141.273L55.8658 140.851C44.741 133.591 27.1151 136.957 26.9421 136.993L27.0451 137.488C27.2108 137.453 44.6381 134.126 55.5899 141.273Z" fill="#FCFDFE"/>
</g>
</g>
<path d="M208.659 23.1224V268.183C208.659 271.848 205.528 272.637 201.978 272.753L80.2934 279.046L78.4499 279.106C77.5555 279.138 76.6637 278.989 75.8283 278.668C74.9928 278.347 74.2308 277.861 73.588 277.238C72.9453 276.615 72.435 275.869 72.0879 275.044C71.7408 274.219 71.5639 273.332 71.5679 272.437V18.8693C71.5639 17.9743 71.7408 17.0876 72.0879 16.2626C72.435 15.4376 72.9452 14.6912 73.588 14.0682C74.2307 13.4453 74.9927 12.9587 75.8282 12.6375C76.6637 12.3164 77.5554 12.1673 78.4499 12.1994L80.9522 12.2817L203.083 21.7802C206.631 21.8965 208.659 19.454 208.659 23.1224Z" fill="url(#paint3_linear_32_3680)"/>
<path d="M212.45 23.1224V268.183C212.45 271.848 209.549 274.941 205.999 275.058L82.2419 279.106C81.3475 279.138 80.4557 278.989 79.6203 278.668C78.7848 278.347 78.0228 277.861 77.38 277.238C76.7373 276.615 76.227 275.869 75.8799 275.044C75.5327 274.219 75.3559 273.332 75.3599 272.437V18.8693C75.3559 17.9743 75.5327 17.0876 75.8799 16.2626C76.227 15.4376 76.7372 14.6912 77.38 14.0682C78.0227 13.4453 78.7847 12.9587 79.6202 12.6375C80.4556 12.3164 81.3474 12.1673 82.2419 12.1994L206 16.2487C209.549 16.366 212.45 19.454 212.45 23.1224Z" fill="url(#paint4_linear_32_3680)"/>
<path d="M208.444 36.5941V263.615C208.444 267.036 205.734 269.92 202.416 270.024L86.0504 273.68C85.2169 273.709 84.3864 273.568 83.6085 273.268C82.8306 272.967 82.1213 272.513 81.5231 271.932C80.9249 271.351 80.45 270.656 80.1269 269.887C79.8039 269.118 79.6392 268.292 79.6429 267.458V33.0409C79.6396 32.2065 79.8043 31.3799 80.1274 30.6105C80.4504 29.8412 80.925 29.1447 81.5229 28.5627C82.1209 27.9807 82.8299 27.525 83.6078 27.2229C84.3856 26.9208 85.2163 26.7785 86.0504 26.8043L202.421 30.201C205.734 30.2947 208.444 33.1727 208.444 36.5941Z" fill="url(#paint5_linear_32_3680)"/>
<path d="M147.372 21.8513C147.376 22.1527 147.319 22.4517 147.204 22.7305C147.09 23.0093 146.92 23.262 146.705 23.4736C146.491 23.6851 146.235 23.851 145.955 23.9614C145.674 24.0718 145.374 24.1243 145.073 24.1158C143.803 24.0777 142.773 22.9979 142.773 21.7051C142.769 21.4036 142.826 21.1043 142.94 20.8254C143.055 20.5465 143.225 20.2936 143.44 20.0821C143.655 19.8705 143.91 19.7046 144.191 19.5944C144.472 19.4842 144.772 19.4319 145.073 19.4406C145.693 19.469 146.278 19.7355 146.706 20.1846C147.135 20.6337 147.373 21.2308 147.372 21.8513Z" fill="#DE8BDF"/>
<path d="M197.682 140.768L91.0456 140.636C89.5282 140.631 88.0749 140.024 87.0046 138.948C85.9343 137.872 85.3346 136.416 85.3371 134.899V38.2739C85.3316 37.529 85.4765 36.7907 85.7632 36.1032C86.0498 35.4156 86.4723 34.793 87.0054 34.2727C87.5384 33.7523 88.171 33.3449 88.8652 33.0749C89.5595 32.8049 90.3011 32.6778 91.0456 32.7012L197.682 35.6605C200.667 35.7439 203.081 38.3017 203.081 41.3752V135.209C203.083 138.283 200.666 140.772 197.682 140.768Z" fill="#F4F7FA"/>
<path d="M164.765 129.633L125.187 129.474C124.936 129.471 124.696 129.369 124.52 129.19C124.344 129.011 124.246 128.77 124.247 128.519V116.888C124.246 116.764 124.27 116.641 124.317 116.526C124.364 116.412 124.433 116.307 124.52 116.219C124.608 116.132 124.711 116.062 124.826 116.014C124.94 115.967 125.063 115.943 125.187 115.943L164.765 116.234C165.013 116.238 165.25 116.34 165.424 116.518C165.597 116.695 165.694 116.935 165.691 117.183V128.695C165.693 128.817 165.67 128.939 165.624 129.053C165.578 129.167 165.51 129.27 165.424 129.357C165.338 129.444 165.235 129.514 165.122 129.561C165.009 129.608 164.888 129.633 164.765 129.633Z" fill="#C281E8"/>
<path d="M193.659 84.876L98.4021 83.4175V45.686L193.659 48.0287V84.876Z" fill="#D8DEE8"/>
<path d="M193.659 105.002L98.4021 104.026V90.7102L193.659 91.9979V105.002Z" fill="#D8DEE8"/>
<path d="M197.682 260.59L91.0456 263.678C90.3014 263.702 89.5599 263.576 88.8656 263.307C88.1713 263.038 87.5386 262.631 87.0055 262.111C86.4723 261.592 86.0497 260.969 85.763 260.282C85.4763 259.595 85.3314 258.857 85.3371 258.112V161.492C85.3351 159.974 85.9348 158.517 87.0048 157.44C88.0747 156.364 89.5277 155.755 91.0456 155.747L197.682 155.483C200.667 155.475 203.081 157.961 203.081 161.034V254.868C203.083 257.945 200.666 260.503 197.682 260.59Z" fill="#F4F7FA"/>
<path d="M182.87 225.37L106.552 226.898C106.309 226.903 106.067 226.86 105.84 226.769C105.614 226.679 105.408 226.545 105.235 226.374C105.062 226.202 104.924 225.998 104.831 225.773C104.738 225.548 104.691 225.307 104.693 225.063V169.599C104.692 169.103 104.886 168.626 105.235 168.274C105.583 167.921 106.057 167.72 106.552 167.715L182.87 167.303C183.107 167.305 183.342 167.353 183.56 167.446C183.779 167.539 183.977 167.673 184.143 167.843C184.309 168.012 184.44 168.213 184.529 168.433C184.617 168.653 184.661 168.889 184.659 169.126V223.497C184.659 224.511 183.858 225.35 182.87 225.37Z" fill="#D8DEE8"/>
<path d="M164.765 249.68L125.187 250.709C125.064 250.713 124.941 250.691 124.827 250.645C124.712 250.6 124.608 250.532 124.52 250.446C124.433 250.359 124.363 250.256 124.316 250.142C124.269 250.028 124.246 249.906 124.247 249.783V238.152C124.247 237.899 124.345 237.657 124.52 237.475C124.695 237.293 124.934 237.187 125.187 237.178L164.765 236.282C164.887 236.279 165.008 236.301 165.121 236.346C165.235 236.391 165.338 236.459 165.424 236.545C165.511 236.631 165.579 236.734 165.625 236.847C165.671 236.96 165.693 237.081 165.691 237.203V248.716C165.692 248.965 165.596 249.205 165.423 249.385C165.25 249.565 165.014 249.671 164.765 249.68Z" fill="#C281E8"/>
<path d="M145.073 201.024C144.685 201.027 144.308 200.898 144.003 200.659L102.232 168.807C101.282 168.087 100.997 166.563 101.606 165.41C102.216 164.258 103.468 163.916 104.418 164.641L145.111 195.726L187.989 164.207C188.916 163.526 190.113 163.898 190.666 165.041C191.218 166.183 190.908 167.659 189.981 168.342L146.093 200.662C145.8 200.888 145.443 201.015 145.073 201.024Z" fill="#F4F7FA"/>
<g style="mix-blend-mode:multiply" opacity="0.5">
<path d="M212.45 38.2081C207.405 38.8296 202.421 39.8718 197.55 41.3238C188.707 43.9619 166.537 50.5752 154.647 69.2181C140.809 90.9119 148.563 116.875 150.435 123.132C156.627 143.863 172.239 162.282 181.182 172.835C191.664 185.201 196.21 187.592 197.188 195.48C198.759 208.116 188.613 214.301 188.018 234.378C187.898 238.399 187.781 243.964 189.934 250.611C194.145 263.617 203.933 271.146 208.734 274.334C209.972 195.623 211.211 116.914 212.45 38.2081Z" fill="#D8DEE8"/>
</g>
<path d="M226.88 129.254C237.116 124.254 257.084 142.363 266.801 159.708C270.673 166.62 275.219 174.736 274.104 184.383C272.126 201.486 253.153 216.489 227.038 221.498C226.303 218.872 225.568 216.246 224.833 213.62C227.688 210.647 231.958 206.353 237.416 201.434C245.799 193.878 247.521 193.374 247.923 190.989C249.24 183.174 229.144 176.632 221.997 162.889C215.852 151.08 219.015 133.09 226.88 129.254Z" fill="url(#paint6_linear_32_3680)"/>
<path d="M240.329 266.722C240.329 266.722 238.648 270.869 239.484 272.493C240.361 274.197 242.898 273.69 250.039 273.959C257.348 274.233 259.007 274.82 259.303 274.085C259.888 272.617 254.205 267.954 247.558 266.722C245.168 266.288 242.719 266.288 240.329 266.722Z" fill="url(#paint7_linear_32_3680)"/>
<path d="M241.835 260.524L245.811 266.722C245.811 266.722 243.979 268.531 240.865 267.855L236.49 261.983L241.835 260.524Z" fill="url(#paint8_linear_32_3680)"/>
<path style="mix-blend-mode:multiply" opacity="0.3" d="M221.997 162.893C215.852 151.08 219.012 133.094 226.88 129.254C228.938 128.247 231.402 128.19 234.091 128.864C232.676 132.952 232.959 135.908 233.655 138.002C236.77 147.34 250.241 146.278 254.447 156.906C257.107 163.626 252.877 166.959 256.652 172.346C260.564 177.928 266.964 176.992 268.94 182.433C270.413 186.484 267.509 188.788 268.625 192.2C268.934 193.151 269.552 194.106 270.581 195.013C263.66 207.46 247.555 217.568 227.036 221.503C226.301 218.876 225.566 216.251 224.83 213.625C227.686 210.652 231.956 206.358 237.414 201.439C245.796 193.883 247.518 193.379 247.921 190.994C249.239 183.174 229.144 176.63 221.997 162.893Z" fill="url(#paint9_linear_32_3680)"/>
<path d="M233.865 132.96C233.422 150.863 233.67 170.221 234.967 190.827C236.489 215.032 239.341 239.134 243.51 263.025L238.462 264.636C221.142 247.755 215.959 232.915 214.54 222.236C213.537 214.688 215.055 214.038 213.701 204.591C211.128 186.6 204.398 180.438 199.675 163.596C197.903 157.274 195.929 147.724 196.055 135.274L233.865 132.96Z" fill="url(#paint10_linear_32_3680)"/>
<path d="M246.272 100.893C245.958 100.965 244.592 101.419 244.053 107.124C242.751 120.878 249.912 126.447 248.149 133.905C246.456 141.065 237.824 144.539 228.939 148.11C223.002 150.5 204.637 157.888 193.956 149.58C189.461 146.08 188.969 141.86 185.763 126.34C177.615 86.9058 174.459 83.5204 177.886 74.9771C183.77 60.3176 199.526 54.2468 202.147 53.237C230.099 42.4756 263.106 62.2733 276.149 85.0108C277.867 88.0051 288.123 105.888 280.917 114.371C276.557 119.502 266.538 120.331 259.926 116.831C251.092 112.156 249.216 100.219 246.272 100.893Z" fill="url(#paint11_linear_32_3680)"/>
<path d="M276.821 111.324C276.911 111.324 277 111.305 277.082 111.268C277.234 111.197 277.351 111.07 277.409 110.914C277.467 110.757 277.46 110.584 277.391 110.433C277.151 109.909 271.382 97.5252 258.048 92.6391C257.97 92.6075 257.886 92.592 257.802 92.5935C257.717 92.5951 257.634 92.6135 257.557 92.6479C257.48 92.6822 257.41 92.7317 257.353 92.7934C257.295 92.8551 257.25 92.9278 257.221 93.0071C257.192 93.0864 257.18 93.1708 257.184 93.2551C257.188 93.3394 257.209 93.4221 257.246 93.498C257.283 93.574 257.335 93.6419 257.398 93.6975C257.462 93.7531 257.536 93.7953 257.616 93.8217C270.44 98.5226 276.187 110.832 276.246 110.956C276.297 111.066 276.378 111.159 276.479 111.224C276.581 111.29 276.7 111.324 276.821 111.324Z" fill="url(#paint12_linear_32_3680)"/>
<path d="M224.476 97.1814C224.549 96.6122 225.127 92.6833 228.407 91.4245C230.039 90.7986 232.906 90.6154 234.023 92.4075C234.724 93.5325 234.663 95.3204 233.742 96.1984C232.578 97.307 231.061 95.9926 228.969 96.9004C226.455 97.9956 226.046 101.033 225.178 100.831C224.493 100.673 224.287 98.6842 224.476 97.1814Z" fill="url(#paint13_linear_32_3680)"/>
<path style="mix-blend-mode:multiply" opacity="0.3" d="M196.16 69.9448C197.924 74.7466 192.631 78.9091 194.9 84.1226C198.152 91.5964 211.075 87.7602 215.692 95.1506C221.168 103.91 208.628 118.276 213.801 123.193C216.159 125.434 218.883 122.564 225.774 124.138C235.59 126.38 238.538 134.137 243.104 132.96C244.54 132.591 246.28 131.287 247.745 127.274C248.383 129.501 248.687 131.614 248.145 133.905C246.453 141.065 237.82 144.539 228.935 148.11C222.997 150.5 204.633 157.888 193.953 149.58C189.458 146.08 188.966 141.86 185.76 126.34C177.612 86.9058 174.456 83.5204 177.882 74.9771C179.751 70.3226 182.617 66.5368 185.738 63.5013C192.473 64.9959 195.237 67.4302 196.16 69.9448Z" fill="url(#paint14_linear_32_3680)"/>
<path d="M224.271 93.48C223.517 94.1655 215.061 103.247 205.862 100.948C197.852 98.9446 192.933 91.1558 192.069 84.6022C190.02 69.0163 210.326 55.9338 207.818 52.7789C206.346 50.9262 198.506 54.3661 193.009 57.8226C188.503 60.6542 169.618 72.5211 170.124 92.4188C170.176 94.4373 170.501 107.233 178.969 113.623C190.406 122.247 208.081 122.018 226.964 101.168L224.271 93.48Z" fill="url(#paint15_linear_32_3680)"/>
<path d="M265.556 74.3832L256.452 103.466C256.306 103.931 256.02 104.338 255.633 104.633C255.246 104.928 254.777 105.096 254.29 105.113L242.385 106.845C242.027 106.857 241.67 106.788 241.342 106.642C241.015 106.496 240.725 106.277 240.495 106.001C240.265 105.726 240.1 105.402 240.014 105.054C239.929 104.705 239.923 104.342 239.999 103.991L248.028 74.2216C248.14 73.7085 248.42 73.2475 248.824 72.9119C249.227 72.5762 249.732 72.385 250.257 72.3688L263.238 71.3241C263.614 71.313 263.986 71.3918 264.325 71.554C264.664 71.7161 264.959 71.9569 265.186 72.2562C265.413 72.5556 265.565 72.9048 265.629 73.2748C265.693 73.6448 265.669 74.0248 265.556 74.3832Z" fill="url(#paint16_linear_32_3680)"/>
<path d="M265.12 75.3394L256.283 103.566C256.142 104.018 255.864 104.414 255.487 104.701C255.111 104.988 254.655 105.151 254.182 105.168L243.72 106.848C243.372 106.86 243.026 106.793 242.708 106.651C242.39 106.509 242.109 106.296 241.885 106.029C241.662 105.762 241.503 105.447 241.419 105.109C241.336 104.771 241.331 104.418 241.405 104.078L249.247 75.1696C249.355 74.6714 249.626 74.2236 250.018 73.8974C250.409 73.5712 250.899 73.3853 251.408 73.3693L262.865 72.3709C263.23 72.3595 263.592 72.4355 263.921 72.5926C264.251 72.7496 264.538 72.9832 264.758 73.2737C264.979 73.5642 265.127 73.9033 265.19 74.2627C265.253 74.622 265.229 74.9912 265.12 75.3394Z" fill="url(#paint17_linear_32_3680)"/>
<path style="mix-blend-mode:multiply" opacity="0.3" d="M241.405 104.078L248.897 76.4583C249.655 76.8164 250.365 77.2688 251.01 77.8046C253.961 80.3346 255.651 84.9161 254.676 88.5794C253.434 93.2525 248.667 93.3966 248.007 97.2843C247.493 100.328 249.963 103.55 251.998 105.519L243.72 106.849C243.372 106.861 243.026 106.794 242.708 106.652C242.39 106.51 242.108 106.297 241.885 106.03C241.661 105.762 241.502 105.448 241.419 105.109C241.336 104.771 241.331 104.418 241.405 104.078Z" fill="url(#paint18_linear_32_3680)"/>
<path d="M230.959 50.4435C230.835 50.8769 230.8 51.3309 230.856 51.7783C230.911 52.2256 231.057 52.6571 231.284 53.0468C231.51 53.4365 231.813 53.7764 232.175 54.0461C232.536 54.3158 232.948 54.5097 233.386 54.6163C235.624 55.1567 238.35 55.904 239.528 56.572C241.69 57.8072 232.94 56.3805 224.902 56.1911C219.88 56.0738 216.129 55.5097 214.017 55.1032C213.896 55.0792 213.786 55.0155 213.705 54.9222C213.624 54.8289 213.576 54.7113 213.569 54.5877C213.561 54.4642 213.596 54.3418 213.666 54.2399C213.736 54.1379 213.838 54.0621 213.956 54.0244C215.966 53.3708 219.233 52.4084 221.995 52.0605C225.414 51.6313 229.08 44.0864 229.08 44.0864L232.007 46.7534L230.959 50.4435Z" fill="url(#paint19_linear_32_3680)"/>
<path d="M260.063 95.1084L259.507 94.1995C259.269 93.2865 258.708 92.491 257.927 91.9609C257.147 91.4308 256.2 91.2021 255.264 91.3174L252.342 91.6777C252.126 91.7044 251.917 91.7758 251.73 91.8873C251.543 91.9989 251.381 92.1481 251.255 92.3255C251.128 92.5029 251.04 92.7046 250.996 92.9179C250.952 93.1312 250.952 93.3513 250.998 93.5644C251.269 94.8675 251.969 96.4279 253.764 96.3065C256.813 96.1006 258.763 100.545 258.763 100.545L259.932 98.8983C260.323 98.349 260.544 97.6968 260.567 97.023C260.59 96.3491 260.415 95.6833 260.063 95.1084Z" fill="url(#paint20_linear_32_3680)"/>
<path d="M237.49 46.5764C240.017 46.2017 242.847 44.0782 242.792 42.3222C242.717 39.9105 237.202 38.5889 234.417 37.9219C231.633 37.2549 230.439 37.4947 229.64 38.103C228.823 38.7258 228.287 39.8385 228.111 40.7988C228.015 41.3217 228.008 42.0412 228.099 43.475C228.18 44.7483 228.156 44.6917 228.189 45.0684C228.268 45.9711 228.515 47.5593 229.395 49.7621C229.843 49.2683 230.334 48.8147 230.861 48.4065C231.097 48.2243 232.03 47.5182 233.092 47.091C234.912 46.3592 235.955 46.8038 237.49 46.5764Z" fill="url(#paint21_linear_32_3680)"/>
<path d="M228.051 47.3082C228.051 47.3082 228.215 50.8284 231.531 52.3744C234.502 53.7578 238.443 47.5573 237.359 45.1888C236.997 44.3994 235.877 43.542 234.729 43.2743C234.051 43.1169 233.718 43.2517 232.615 42.9738C231.598 42.7175 231.4 42.4807 231.008 42.5621C230.516 42.665 229.89 43.2198 229.422 45.4071C229.179 44.5538 228.638 43.9815 228.053 43.9465C227.847 43.9451 227.644 44.0014 227.467 44.1091C226.664 44.6217 226.821 45.9279 228.051 47.3082Z" fill="url(#paint22_linear_32_3680)"/>
</g>
<defs>
<linearGradient id="paint0_linear_32_3680" x1="36.9208" y1="28.623" x2="109.477" y2="187.28" gradientUnits="userSpaceOnUse">
<stop stop-color="#AA80F9"/>
<stop offset="1" stop-color="#6165D7"/>
</linearGradient>
<linearGradient id="paint1_linear_32_3680" x1="21.6484" y1="75.052" x2="111.428" y2="194.584" gradientUnits="userSpaceOnUse">
<stop stop-color="#E38DDD"/>
<stop offset="1" stop-color="#9571F6"/>
</linearGradient>
<linearGradient id="paint2_linear_32_3680" x1="51.4729" y1="127.109" x2="102.193" y2="215.044" gradientUnits="userSpaceOnUse">
<stop stop-color="#FFC444"/>
<stop offset="1" stop-color="#F36F56"/>
</linearGradient>
<linearGradient id="paint3_linear_32_3680" x1="237.257" y1="231.478" x2="119.989" y2="131.443" gradientUnits="userSpaceOnUse">
<stop stop-color="#444B8C"/>
<stop offset="1" stop-color="#26264F"/>
</linearGradient>
<linearGradient id="paint4_linear_32_3680" x1="707511" y1="229330" x2="718518" y2="-346797" gradientUnits="userSpaceOnUse">
<stop stop-color="#444B8C"/>
<stop offset="1" stop-color="#26264F"/>
</linearGradient>
<linearGradient id="paint5_linear_32_3680" x1="79.6377" y1="150.242" x2="208.444" y2="150.242" gradientUnits="userSpaceOnUse">
<stop stop-color="#FF9085"/>
<stop offset="1" stop-color="#FB6FBB"/>
</linearGradient>
<linearGradient id="paint6_linear_32_3680" x1="274.275" y1="174.953" x2="218.764" y2="174.953" gradientUnits="userSpaceOnUse">
<stop stop-color="#444B8C"/>
<stop offset="1" stop-color="#3E4177"/>
</linearGradient>
<linearGradient id="paint7_linear_32_3680" x1="47366.3" y1="17936.8" x2="47635.9" y2="21916.1" gradientUnits="userSpaceOnUse">
<stop stop-color="#444B8C"/>
<stop offset="1" stop-color="#26264F"/>
</linearGradient>
<linearGradient id="paint8_linear_32_3680" x1="236.396" y1="234.585" x2="243.643" y2="279.955" gradientUnits="userSpaceOnUse">
<stop stop-color="#311944"/>
<stop offset="1" stop-color="#A03976"/>
</linearGradient>
<linearGradient id="paint9_linear_32_3680" x1="33193.6" y1="158350" x2="61139" y2="158350" gradientUnits="userSpaceOnUse">
<stop stop-color="#444B8C"/>
<stop offset="1" stop-color="#3E4177"/>
</linearGradient>
<linearGradient id="paint10_linear_32_3680" x1="44582" y1="254445" x2="66467.6" y2="254445" gradientUnits="userSpaceOnUse">
<stop stop-color="#444B8C"/>
<stop offset="1" stop-color="#3E4177"/>
</linearGradient>
<linearGradient id="paint11_linear_32_3680" x1="-131637" y1="39303" x2="-98135.6" y2="162917" gradientUnits="userSpaceOnUse">
<stop stop-color="#FFC444"/>
<stop offset="1" stop-color="#F36F56"/>
</linearGradient>
<linearGradient id="paint12_linear_32_3680" x1="-14014.2" y1="18146.6" x2="-15034.1" y2="21727.6" gradientUnits="userSpaceOnUse">
<stop stop-color="#FFC444"/>
<stop offset="1" stop-color="#F36F56"/>
</linearGradient>
<linearGradient id="paint13_linear_32_3680" x1="22045.3" y1="8232.44" x2="22843" y2="9611.13" gradientUnits="userSpaceOnUse">
<stop stop-color="#311944"/>
<stop offset="1" stop-color="#A03976"/>
</linearGradient>
<linearGradient id="paint14_linear_32_3680" x1="-102222" y1="39095.4" x2="-66077.7" y2="142022" gradientUnits="userSpaceOnUse">
<stop stop-color="#FFC444"/>
<stop offset="1" stop-color="#F36F56"/>
</linearGradient>
<linearGradient id="paint15_linear_32_3680" x1="218.267" y1="103.63" x2="134.505" y2="34.7867" gradientUnits="userSpaceOnUse">
<stop stop-color="#FFC444"/>
<stop offset="0.26" stop-color="#FFC145"/>
<stop offset="0.46" stop-color="#FDB747"/>
<stop offset="0.65" stop-color="#FBA64A"/>
<stop offset="0.82" stop-color="#F78F4F"/>
<stop offset="0.99" stop-color="#F37056"/>
<stop offset="1" stop-color="#F36F56"/>
</linearGradient>
<linearGradient id="paint16_linear_32_3680" x1="68009.3" y1="35608.9" x2="58896.6" y2="30637.7" gradientUnits="userSpaceOnUse">
<stop stop-color="#444B8C"/>
<stop offset="1" stop-color="#26264F"/>
</linearGradient>
<linearGradient id="paint17_linear_32_3680" x1="-18962.5" y1="27079.7" x2="-24493.9" y2="33984.6" gradientUnits="userSpaceOnUse">
<stop stop-color="#444B8C"/>
<stop offset="1" stop-color="#26264F"/>
</linearGradient>
<linearGradient id="paint18_linear_32_3680" x1="31844.4" y1="21610" x2="41164.6" y2="31708.6" gradientUnits="userSpaceOnUse">
<stop stop-color="#444B8C"/>
<stop offset="1" stop-color="#26264F"/>
</linearGradient>
<linearGradient id="paint19_linear_32_3680" x1="29926.6" y1="3574.27" x2="29675.5" y2="7911.23" gradientUnits="userSpaceOnUse">
<stop stop-color="#311944"/>
<stop offset="1" stop-color="#A03976"/>
</linearGradient>
<linearGradient id="paint20_linear_32_3680" x1="7643.04" y1="8717.04" x2="8539.26" y2="8717.04" gradientUnits="userSpaceOnUse">
<stop stop-color="#311944"/>
<stop offset="1" stop-color="#A03976"/>
</linearGradient>
<linearGradient id="paint21_linear_32_3680" x1="34703.3" y1="3222.65" x2="34159.8" y2="5171.08" gradientUnits="userSpaceOnUse">
<stop stop-color="#444B8C"/>
<stop offset="1" stop-color="#26264F"/>
</linearGradient>
<linearGradient id="paint22_linear_32_3680" x1="11802.7" y1="3216.99" x2="11448.5" y2="4150.84" gradientUnits="userSpaceOnUse">
<stop stop-color="#311944"/>
<stop offset="1" stop-color="#A03976"/>
</linearGradient>
<clipPath id="clip0_32_3680">
<rect width="300" height="294.408" fill="white"/>
</clipPath>
</defs>
</svg>
