<svg width="300" height="293" viewBox="0 0 300 293" fill="none" xmlns="http://www.w3.org/2000/svg">
<g clip-path="url(#clip0_32_3012)">
<path d="M268.939 55.3334C264.398 49.1033 225.519 -2.4208 162.499 0.094208C159.35 0.216601 97.8883 3.46597 75.2185 43.8556C58.4486 73.7324 76.2031 100.241 55.7451 120.596C37.9191 138.333 16.0129 126.593 5.05495 140.936C-11.6251 162.783 14.9417 221.789 55.77 254.696C97.9273 288.675 178.58 313.603 241.266 268.269C311.647 217.372 310.933 112.946 268.939 55.3334Z" fill="#F4F7FA"/>
<path d="M179.299 79.9561C179.772 79.9594 180.229 79.7866 180.582 79.4713C180.935 79.1559 181.157 78.7206 181.206 78.2502C182.882 60.9386 188.614 44.4892 197.345 31.9326C205.082 20.8089 214.291 14.1694 221.987 14.1694H222.013C250.043 14.2235 255.906 77.5905 255.962 78.2307C256.005 78.7362 256.248 79.204 256.635 79.531C257.023 79.8581 257.525 80.0176 258.031 79.9745C258.537 79.9314 259.004 79.6892 259.331 79.3013C259.658 78.9133 259.818 78.4113 259.775 77.9057C259.535 75.1513 253.534 10.4586 222.021 10.3979H221.987C212.894 10.3979 202.764 17.4664 194.188 29.7978C185.089 42.8721 179.132 59.9508 177.399 77.8884C177.376 78.1368 177.403 78.3873 177.477 78.6254C177.552 78.8635 177.673 79.0845 177.833 79.2758C177.993 79.4671 178.189 79.6248 178.411 79.7398C178.632 79.8549 178.874 79.9251 179.122 79.9463C179.177 79.9528 179.238 79.9561 179.299 79.9561Z" fill="url(#paint0_linear_32_3012)"/>
<path d="M296.072 248.17L259.173 272.025L236.817 184.417L273.654 66.9651L284.103 70.235L299.951 238.917C300.308 242.735 298.758 246.433 296.072 248.17Z" fill="url(#paint1_linear_32_3012)"/>
<path style="mix-blend-mode:multiply" opacity="0.3" d="M236.817 184.417L273.654 66.9651L279.815 68.8941C280.518 81.5471 280.484 94.2302 279.713 106.879C277.245 146.868 269.043 157.996 273.016 185.893C276.32 209.088 283.533 212.237 282.903 227.842C282.216 244.84 272.933 259.073 261.89 270.265L259.167 272.025L236.817 184.417Z" fill="url(#paint2_linear_32_3012)"/>
<path d="M273.654 66.9651L134.702 75.9593L90.5447 254.675L259.173 272.025L273.654 66.9651Z" fill="url(#paint3_linear_32_3012)"/>
<g style="mix-blend-mode:multiply" opacity="0.3">
<path style="mix-blend-mode:multiply" opacity="0.3" d="M134.703 75.9593L207.163 71.2683C208.386 73.5548 210.006 77.2786 210.305 82.0291C212.088 110.126 163.324 119.222 158.956 153.711C155.63 179.969 176.096 210.266 194.358 223.764C213.597 237.986 226.635 230.784 239.646 246.573C245.364 253.505 248.845 262.184 250.911 271.176L90.5491 254.675L134.703 75.9593Z" fill="url(#paint4_linear_32_3012)"/>
</g>
<path d="M231.03 83.0539C231.459 83.0557 231.875 82.9132 232.213 82.6493C232.551 82.3854 232.79 82.0155 232.892 81.5992C233.283 79.9572 242.321 41.1738 229.576 22.1412C225.923 16.6855 220.819 13.3549 214.413 12.2415C181.466 6.52477 161.181 76.2042 160.334 79.1785C160.266 79.4181 160.248 79.6686 160.278 79.9155C160.308 80.1625 160.388 80.401 160.511 80.6171C160.634 80.8333 160.799 81.0229 160.996 81.1749C161.193 81.327 161.418 81.4384 161.658 81.5028C162.143 81.6402 162.663 81.5808 163.105 81.3375C163.547 81.0942 163.875 80.6866 164.018 80.2031C164.217 79.5088 184.184 10.8226 213.748 15.9631C219.163 16.9022 223.293 19.6046 226.387 24.2252C238.234 41.918 229.262 80.3623 229.17 80.7479C229.115 80.9896 229.109 81.2399 229.151 81.4842C229.193 81.7285 229.283 81.9621 229.415 82.1716C229.548 82.3811 229.72 82.5624 229.923 82.705C230.126 82.8477 230.355 82.9489 230.597 83.003C230.739 83.0364 230.884 83.0534 231.03 83.0539V83.0539Z" fill="url(#paint5_linear_32_3012)"/>
<path d="M231.021 90.2511C233.975 90.2511 236.37 87.1937 236.37 83.4221C236.37 79.6505 233.975 76.593 231.021 76.593C228.067 76.593 225.673 79.6505 225.673 83.4221C225.673 87.1937 228.067 90.2511 231.021 90.2511Z" fill="url(#paint6_linear_32_3012)"/>
<path d="M161.276 89.6175C164.23 89.6175 166.624 86.56 166.624 82.7884C166.624 79.0168 164.23 75.9594 161.276 75.9594C158.322 75.9594 155.927 79.0168 155.927 82.7884C155.927 86.56 158.322 89.6175 161.276 89.6175Z" fill="url(#paint7_linear_32_3012)"/>
<path d="M133.888 74.3444L136.94 72.0103C137.831 72.2626 152.454 76.6579 155.353 89.52C155.752 91.2887 157.22 97.8091 153.648 102.001C147.661 109.027 130.286 106.26 122.129 96.4336C115.717 88.7077 114.919 76.5355 118.623 74.2545C123.103 71.4947 136.462 81.819 137.48 82.6053C139.521 84.1835 141.379 85.8634 141.704 85.5688C142.251 85.0673 137.865 79.3332 133.888 74.3444Z" fill="url(#paint8_linear_32_3012)"/>
<path d="M94.4481 68.8594C97.2643 69.7259 101.329 72.1543 107.005 71.2651C108.713 70.9975 114.765 70.0487 116.911 65.0339C118.801 60.619 116.112 56.1663 115.777 55.628C113.847 52.5227 110.87 51.2955 107.545 49.9882C103.233 48.2877 101.288 48.6343 98.0842 47.822C90.1579 45.816 90.0073 40.6311 82.8901 37.0655C73.7973 32.5088 69.3565 38.6208 61.8115 34.5992C53.3415 30.0837 56.3363 20.9941 48.8541 14.9676C38.4691 6.60699 14.1888 9.20648 6.54518 23.6315C2.13254 31.9629 2.9633 44.8195 9.19233 52.0364C12.823 56.2432 18.0339 58.481 17.7728 62.2318C17.5876 64.9017 14.4303 65.2646 12.5793 69.0555C10.1964 73.9458 12.4038 79.5618 12.7612 80.4651C16.0767 88.8842 31.1938 94.0637 44.5162 92.269C68.5301 89.0326 79.1523 64.1327 94.4481 68.8594Z" fill="url(#paint9_linear_32_3012)"/>
<path d="M87.4144 71.2489C94.9009 71.2196 104.168 71.302 113.639 72.3017C134.002 74.4506 133.201 84.5832 129.514 93.819C125.751 103.242 125.883 111.568 125.958 114.529C126.08 119.295 126.946 123.124 128.68 130.776C131.692 144.064 133.937 147.116 131.821 150.514C128.728 155.468 120.061 155.225 118.54 155.151C110.842 154.78 109.209 150.263 102.718 149.548C95.176 148.717 93.4333 154.381 82.9476 158.191C70.5708 162.689 54.6369 161.5 47.236 153.209C44.3787 150.009 42.545 145.589 43.77 144.197C45.4434 142.303 51.2619 147.754 57.4574 145.592C61.5613 144.159 61.1898 141.005 66.105 137.928C72.0189 134.224 75.4979 136.953 79.5076 134.56C85.7637 130.829 84.4185 119.953 84.9232 102.045C85.2205 91.7437 86.052 81.4644 87.4144 71.2489Z" fill="url(#paint10_linear_32_3012)"/>
<path d="M87.4146 71.2488C76.553 71.7785 72.6711 83.083 61.3319 85.3142C54.4627 86.666 44.2186 84.8106 29.5011 70.5188L23.2439 73.414C25.3874 86.2457 31.3424 93.4517 34.2657 96.4845C50.9653 113.814 82.6402 113.273 99.7947 98.4265C105.177 93.7691 108.211 88.4889 109.859 85.0207C104.435 78.274 96.5442 70.8037 87.4146 71.2488Z" fill="url(#paint11_linear_32_3012)"/>
<path d="M111.192 62.8871C111.035 62.7743 110.853 62.7003 110.661 62.6712C110.469 62.6421 110.274 62.6586 110.089 62.7196C109.905 62.7805 109.738 62.884 109.602 63.0218C109.466 63.1595 109.364 63.3275 109.304 63.5121C108.593 65.7119 107.123 69.4541 105.12 70.3899C102.236 71.7352 97.8938 71.1481 97.3446 71.6789C96.7955 72.2096 110.296 79.2152 119.288 76.0309C119.351 76.0083 119.412 75.9808 119.471 75.9485L119.983 75.6734C120.206 75.5536 120.387 75.3676 120.5 75.141C120.614 74.9145 120.654 74.6584 120.616 74.4079C120.579 74.1574 120.464 73.9247 120.289 73.7417C120.114 73.5588 119.886 73.4345 119.637 73.3859C117.904 73.0436 113.355 71.7384 112.215 69.7574C112.084 69.5299 112.046 67.7406 112.079 67.4828L112.449 64.5844C112.476 64.3647 112.444 64.1416 112.356 63.9386C112.267 63.7356 112.126 63.5602 111.946 63.4309L111.192 62.8871Z" fill="url(#paint12_linear_32_3012)"/>
<path d="M109.071 64.4036C109.071 64.4036 110.535 67.0161 113.403 66.3424C115.969 65.7391 115.26 59.2132 113.395 58.2568C112.775 57.9319 111.567 57.9016 110.709 58.3045C110.105 58.5883 108.384 60.2715 108.994 62.4626C108.395 62.2081 107.828 62.3066 107.655 62.598C107.438 62.9673 107.896 63.5609 108.001 63.6952C108.275 64.0374 108.649 64.2852 109.071 64.4036V64.4036Z" fill="url(#paint13_linear_32_3012)"/>
<path d="M27.7463 71.3312L26.7227 69.3122C26.7227 69.3122 31.9542 60.7555 27.6661 59.38C23.3781 58.0044 24.5868 60.4533 25.0732 61.6209C25.5595 62.7886 24.7764 66.5947 24.0312 67.7579C23.286 68.9212 24.5868 72.7955 24.5868 72.7955L27.7463 71.3312Z" fill="url(#paint14_linear_32_3012)"/>
<path style="mix-blend-mode:multiply" opacity="0.3" d="M64.8044 152.533C67.5122 150.692 65.6471 147.082 68.7091 144.165C71.5111 141.496 74.5774 143.082 79.5869 141.655C85.609 139.936 90.274 135.048 92.4175 130.776C93.9458 127.732 93.8256 125.738 92.4175 110.136C91.0788 95.2791 90.7008 91.6506 88.7913 91.1697C85.3177 90.2945 82.207 101.21 75.4028 101.211C71.5609 101.211 71.04 97.7302 66.1962 95.9116C57.9818 92.8236 52.1091 100.081 43.325 99.8163C41.0797 99.7469 38.3567 99.1664 35.2493 97.415C47.9056 109.627 68.2942 112.296 84.8238 106.762C84.5996 121.862 85.1866 131.172 79.5035 134.561C75.4959 136.951 72.0148 134.225 66.1009 137.929C61.1857 141.006 61.5572 144.16 57.4533 145.593C51.2578 147.76 45.4393 142.304 43.7659 144.198C42.6513 145.46 44.067 149.206 46.4737 152.279C47.9587 151.655 49.5332 151.27 51.1387 151.138C57.6222 150.633 61.6125 154.705 64.8044 152.533Z" fill="url(#paint15_linear_32_3012)"/>
<path d="M156.842 49.2821L157.209 47.1841L159.917 46.5212C160.212 46.4496 160.522 46.474 160.802 46.5909C161.082 46.7078 161.317 46.911 161.474 47.1711C163.185 49.9872 167.923 59.2057 164.458 70.0867C164.369 70.3653 164.197 70.61 163.964 70.7876C163.732 70.9652 163.451 71.0672 163.158 71.0799C162.399 71.1014 161.64 71.0779 160.884 71.0095L156.842 49.2821Z" fill="url(#paint16_linear_32_3012)"/>
<path d="M136.004 64.8412L133.673 71.0269C133.673 71.0269 132.759 72.6732 132.646 73.4541C131.508 73.9101 129.676 73.3556 129.676 73.3556L130.28 65.1553L135.829 64.7112L136.004 64.8412Z" fill="url(#paint17_linear_32_3012)"/>
<path d="M136.265 72.9505L135.464 70.4192C135.464 70.4192 134.498 68.331 131.774 67.9746C129.05 67.6183 129.079 69.0892 129.079 69.0892L130.856 69.6145C130.856 69.6145 132.007 69.947 132.794 71.6128C133.898 73.309 135.014 74.0867 135.014 74.0867L136.265 72.9505Z" fill="url(#paint18_linear_32_3012)"/>
<path d="M126.089 60.4231C126.089 60.4231 148.407 55.3475 157.209 47.1819C165.619 56.0072 160.892 71.003 160.892 71.003C160.892 71.003 136.622 65.4477 126.868 66.6326C124.801 64.6808 126.089 60.4231 126.089 60.4231Z" fill="url(#paint19_linear_32_3012)"/>
<path d="M169.249 75.1405C169.021 74.8656 168.872 74.5347 168.816 74.1825C168.761 73.8302 168.8 73.4695 168.931 73.1378C176.537 53.8484 165.961 43.7083 165.857 43.6108C165.665 43.4323 165.51 43.2177 165.401 42.9793C165.292 42.7409 165.231 42.4833 165.222 42.2213C165.212 41.9593 165.254 41.698 165.346 41.4523C165.437 41.2066 165.576 40.9813 165.754 40.7892C165.933 40.5972 166.148 40.4422 166.386 40.3331C166.624 40.224 166.882 40.163 167.144 40.1534C167.406 40.1439 167.667 40.186 167.913 40.2775C168.159 40.3689 168.384 40.5078 168.576 40.6863C169.1 41.1727 181.24 52.8054 172.645 74.6022C172.518 74.9253 172.309 75.2096 172.038 75.4271C171.767 75.6446 171.444 75.7877 171.102 75.8424C170.759 75.8971 170.407 75.8614 170.082 75.7389C169.757 75.6163 169.47 75.4112 169.249 75.1437V75.1405Z" fill="url(#paint20_linear_32_3012)"/>
<path d="M221.429 266.426C221.429 269.567 219.199 272.269 216.464 272.43L23.7356 284.203C20.0844 284.419 15.9631 281.329 15.9631 277.679V142.803C15.9631 139.153 20.1873 136.088 23.8353 136.235L216.464 144.481C219.199 144.589 221.429 147.256 221.429 150.397V266.426Z" fill="url(#paint21_linear_32_3012)"/>
<path d="M225.002 266.647C225.002 269.802 222.762 272.517 220.014 272.679L25.226 284.226C21.5574 284.443 18.542 281.627 18.542 277.954V142.431C18.5391 141.565 18.7122 140.709 19.0509 139.913C19.3896 139.117 19.8866 138.398 20.5119 137.8C21.1372 137.202 21.8776 136.738 22.688 136.436C23.4984 136.133 24.3619 135.998 25.226 136.04L220.014 144.118C222.762 144.226 225.002 146.906 225.002 150.062V266.647Z" fill="url(#paint22_linear_32_3012)"/>
<path d="M225.002 234.875L18.542 245.466V270.288L225.002 258.169V234.875Z" fill="url(#paint23_linear_32_3012)"/>
<g style="mix-blend-mode:multiply" opacity="0.15">
<path style="mix-blend-mode:multiply" opacity="0.15" d="M79.4753 180.851C79.2425 196.254 69.6092 204.258 58.8841 204.217C47.1983 204.172 37.8303 195.212 38.0535 180.497C38.2647 166.509 47.077 156.545 60.1698 157.523C72.8737 158.476 79.666 168.28 79.4753 180.851ZM51.7344 180.556C51.612 188.591 54.2418 194.431 59.378 194.529C64.3214 194.62 66.7855 189.583 66.9133 181.154C67.0292 173.532 65.072 167.521 59.6758 167.197C54.4227 166.88 51.8503 172.875 51.7344 180.556ZM62.5775 230.074L99.7958 162.685C100.144 162.054 100.666 161.537 101.299 161.194C101.933 160.851 102.652 160.697 103.37 160.75C103.998 160.797 104.604 161.001 105.133 161.343C105.662 161.684 106.097 162.153 106.398 162.706C106.699 163.26 106.857 163.879 106.856 164.509C106.856 165.139 106.697 165.758 106.395 166.311L69.5897 233.681C69.2787 234.25 68.8261 234.729 68.2759 235.072C67.7256 235.414 67.0962 235.609 66.4486 235.638L66.037 235.656C63.1028 235.787 61.1554 232.655 62.5775 230.074ZM126.259 211.084C126.042 225.349 117.775 233.155 108.598 233.558C98.73 233.991 90.768 226.122 90.8687 212.565C91.0637 199.676 98.5751 190.088 109.746 190.388C120.619 190.68 126.435 199.441 126.259 211.084V211.084ZM102.621 212.02C102.404 219.439 104.645 224.716 109.032 224.584C113.256 224.461 115.372 219.702 115.49 211.906C115.599 204.857 114.028 199.391 109.413 199.335C104.829 199.284 102.728 204.927 102.621 212.02V212.02Z" fill="url(#paint24_linear_32_3012)"/>
</g>
<path d="M81.2721 180.134C81.0392 195.536 71.4059 203.542 60.6809 203.5C48.995 203.455 39.6282 194.495 39.8513 179.78C40.0625 165.792 48.8737 155.828 61.9665 156.806C74.6705 157.759 81.4627 167.559 81.2721 180.134ZM53.5312 179.838C53.4099 187.874 56.0386 193.714 61.1748 193.811C66.1192 193.903 68.5833 188.866 68.7111 180.436C68.8259 172.815 66.8698 166.804 61.4726 166.48C56.2206 166.163 53.6471 172.158 53.5312 179.838ZM64.3754 229.357L101.597 161.972C101.945 161.342 102.467 160.824 103.101 160.481C103.734 160.138 104.453 159.984 105.171 160.037V160.037C105.799 160.084 106.406 160.287 106.935 160.629C107.464 160.971 107.898 161.44 108.199 161.993C108.5 162.547 108.657 163.167 108.657 163.797C108.656 164.426 108.497 165.046 108.195 165.599L71.3897 232.969C71.0789 233.538 70.6265 234.017 70.0762 234.36C69.5259 234.703 68.8964 234.898 68.2486 234.926L67.8371 234.945C64.8996 235.07 62.9532 231.931 64.3754 229.357V229.357ZM128.057 210.367C127.84 224.632 119.571 232.438 110.402 232.841C100.532 233.274 92.5713 225.405 92.6709 211.848C92.8659 198.959 100.377 189.371 111.55 189.671C122.416 189.964 128.232 198.724 128.057 210.367V210.367ZM104.418 211.303C104.202 218.723 106.442 224 110.828 223.867C115.053 223.744 117.169 218.985 117.287 211.188C117.395 204.141 115.825 198.674 111.211 198.618C106.626 198.566 104.521 204.213 104.418 211.303Z" fill="white"/>
<path style="mix-blend-mode:multiply" opacity="0.3" d="M220.014 144.111L27.4702 136.127C36.1601 161.863 48.6063 173.386 59.2945 179.034C79.6453 189.777 94.2415 179.517 111.686 193.426C129.583 207.696 122.771 225.312 141.624 237.184C155.793 246.105 164.927 239.481 179.622 247.546C190.506 253.521 197.306 263.636 201.656 273.77L220.014 272.687C222.762 272.524 225.003 269.81 225.003 266.655V150.056C225.003 146.899 222.762 144.225 220.014 144.111Z" fill="url(#paint25_linear_32_3012)"/>
<path style="mix-blend-mode:multiply" opacity="0.3" d="M208.113 205.793L203.416 201.335L198.958 206.034L194.26 201.576L189.802 206.273L185.106 201.816L180.649 206.513L175.95 202.056L171.492 206.754L166.794 202.296L162.336 206.994L157.639 202.536L153.181 207.235L148.483 202.777L144.025 207.475L139.326 203.017L134.869 207.715L128.866 202.02V272.393C128.866 272.393 128.621 276.424 123.748 277.484L206.839 271.393C207.759 271.323 208.655 271.068 209.473 270.642C210.353 269.497 210.83 268.092 210.828 266.647V202.935L208.113 205.793Z" fill="url(#paint26_linear_32_3012)"/>
<path d="M213.862 210.112L209.163 205.653L204.71 210.351L200.013 205.894L195.555 210.591L190.857 206.133L186.399 210.832L181.7 206.374L177.243 211.072L172.542 206.614L168.082 211.317L163.384 206.859L158.926 211.556L154.228 207.093L149.77 211.79L145.072 207.332L140.614 212.031L134.612 206.335V276.708C134.612 276.708 134.366 280.739 129.494 281.799L212.585 275.708C214.304 275.58 215.911 274.806 217.085 273.543C218.258 272.279 218.91 270.619 218.91 268.895V204.79L213.862 210.112Z" fill="white"/>
<path d="M209.498 242.021L199.222 242.485C198.89 242.501 198.577 242.644 198.347 242.885C198.117 243.125 197.988 243.445 197.986 243.777V248.494C197.986 248.67 198.022 248.844 198.092 249.006C198.162 249.168 198.264 249.313 198.392 249.434C198.52 249.555 198.671 249.649 198.836 249.709C199.002 249.769 199.177 249.795 199.353 249.785L209.629 249.206C209.959 249.187 210.269 249.043 210.496 248.803C210.723 248.563 210.85 248.245 210.849 247.915V243.315C210.849 243.14 210.813 242.967 210.744 242.807C210.675 242.647 210.574 242.502 210.448 242.381C210.322 242.26 210.173 242.166 210.01 242.104C209.846 242.043 209.672 242.014 209.498 242.021Z" fill="#F4F7FA"/>
<path d="M209.484 251.137L199.208 251.718C198.878 251.737 198.569 251.882 198.342 252.122C198.115 252.362 197.988 252.679 197.986 253.01V257.935C197.987 258.111 198.024 258.286 198.095 258.448C198.165 258.61 198.268 258.756 198.397 258.876C198.526 258.997 198.678 259.091 198.844 259.151C199.01 259.211 199.187 259.236 199.363 259.226L209.638 258.569C209.967 258.549 210.274 258.403 210.499 258.164C210.724 257.924 210.85 257.607 210.849 257.278V252.43C210.85 252.254 210.814 252.08 210.745 251.918C210.675 251.756 210.574 251.61 210.446 251.489C210.318 251.368 210.166 251.274 210.001 251.213C209.836 251.153 209.659 251.127 209.484 251.137V251.137Z" fill="#F4F7FA"/>
<path d="M210.849 228.95V220.512C210.849 220.338 210.815 220.166 210.747 220.006C210.679 219.846 210.579 219.701 210.454 219.581C210.329 219.46 210.181 219.366 210.019 219.303C209.856 219.241 209.683 219.212 209.51 219.219L199.234 219.588C198.9 219.601 198.583 219.743 198.351 219.984C198.118 220.225 197.988 220.546 197.986 220.881V229.413C197.987 229.588 198.023 229.761 198.092 229.921C198.161 230.082 198.262 230.226 198.388 230.347C198.514 230.468 198.664 230.562 198.827 230.624C198.99 230.685 199.165 230.714 199.339 230.706L209.615 230.243C209.947 230.226 210.26 230.083 210.49 229.842C210.719 229.602 210.848 229.282 210.849 228.95V228.95Z" fill="#F4F7FA"/>
<path d="M188.148 242.984L146.307 244.871C145.974 244.886 145.661 245.029 145.431 245.27C145.201 245.51 145.072 245.83 145.072 246.163V251.476C145.073 251.652 145.109 251.825 145.179 251.987C145.249 252.148 145.351 252.293 145.479 252.414C145.606 252.535 145.757 252.629 145.922 252.689C146.087 252.75 146.263 252.777 146.438 252.768L188.279 250.409C188.609 250.391 188.919 250.246 189.146 250.006C189.373 249.766 189.5 249.448 189.5 249.118V244.276C189.499 244.102 189.463 243.929 189.394 243.769C189.325 243.609 189.224 243.464 189.098 243.343C188.972 243.223 188.823 243.129 188.66 243.067C188.496 243.006 188.322 242.977 188.148 242.984V242.984Z" fill="#F4F7FA"/>
<path d="M188.139 252.34L146.299 254.698C145.968 254.717 145.658 254.861 145.431 255.101C145.204 255.342 145.078 255.66 145.078 255.991V261.31C145.078 261.487 145.114 261.662 145.184 261.824C145.254 261.986 145.357 262.132 145.486 262.253C145.615 262.374 145.767 262.467 145.934 262.527C146.1 262.587 146.277 262.612 146.453 262.601L188.295 259.93C188.623 259.909 188.931 259.764 189.156 259.524C189.38 259.284 189.506 258.968 189.506 258.639V253.631C189.505 253.455 189.47 253.281 189.4 253.12C189.33 252.958 189.228 252.812 189.1 252.691C188.972 252.57 188.821 252.477 188.656 252.417C188.49 252.356 188.314 252.33 188.139 252.34V252.34Z" fill="#F4F7FA"/>
<path d="M189.5 229.912V221.282C189.5 221.108 189.465 220.936 189.397 220.776C189.329 220.616 189.229 220.472 189.104 220.351C188.979 220.231 188.831 220.137 188.669 220.074C188.507 220.012 188.334 219.983 188.16 219.99L146.319 221.499C145.985 221.512 145.668 221.654 145.436 221.895C145.204 222.136 145.074 222.457 145.072 222.792V231.804C145.072 231.979 145.108 232.152 145.176 232.313C145.245 232.474 145.346 232.619 145.472 232.739C145.598 232.86 145.748 232.954 145.911 233.016C146.075 233.077 146.249 233.104 146.424 233.097L188.264 231.21C188.598 231.195 188.913 231.052 189.143 230.81C189.374 230.568 189.502 230.246 189.5 229.912Z" fill="#F4F7FA"/>
</g>
<defs>
<linearGradient id="paint0_linear_32_3012" x1="292.808" y1="49.177" x2="225.254" y2="46.2396" gradientUnits="userSpaceOnUse">
<stop stop-color="#AB316D"/>
<stop offset="1" stop-color="#792D3D"/>
</linearGradient>
<linearGradient id="paint1_linear_32_3012" x1="300" y1="169.496" x2="236.817" y2="169.496" gradientUnits="userSpaceOnUse">
<stop stop-color="#FFC444"/>
<stop offset="1" stop-color="#F36F56"/>
</linearGradient>
<linearGradient id="paint2_linear_32_3012" x1="124694" y1="320961" x2="144336" y2="320961" gradientUnits="userSpaceOnUse">
<stop stop-color="#FFC444"/>
<stop offset="1" stop-color="#F36F56"/>
</linearGradient>
<linearGradient id="paint3_linear_32_3012" x1="622064" y1="296448" x2="866026" y2="663489" gradientUnits="userSpaceOnUse">
<stop stop-color="#FFC444"/>
<stop offset="1" stop-color="#F36F56"/>
</linearGradient>
<linearGradient id="paint4_linear_32_3012" x1="542533" y1="251033" x2="759014" y2="658868" gradientUnits="userSpaceOnUse">
<stop stop-color="#FFC444"/>
<stop offset="1" stop-color="#F36F56"/>
</linearGradient>
<linearGradient id="paint5_linear_32_3012" x1="270739" y1="-4748.45" x2="254125" y2="146942" gradientUnits="userSpaceOnUse">
<stop stop-color="#AB316D"/>
<stop offset="1" stop-color="#792D3D"/>
</linearGradient>
<linearGradient id="paint6_linear_32_3012" x1="40730.9" y1="-5227.67" x2="26826.6" y2="15489.4" gradientUnits="userSpaceOnUse">
<stop stop-color="#AB316D"/>
<stop offset="1" stop-color="#792D3D"/>
</linearGradient>
<linearGradient id="paint7_linear_32_3012" x1="45701.7" y1="-820.426" x2="31797.3" y2="19896.5" gradientUnits="userSpaceOnUse">
<stop stop-color="#AB316D"/>
<stop offset="1" stop-color="#792D3D"/>
</linearGradient>
<linearGradient id="paint8_linear_32_3012" x1="131.844" y1="72.437" x2="148.483" y2="130.841" gradientUnits="userSpaceOnUse">
<stop stop-color="#AA80F9"/>
<stop offset="1" stop-color="#6165D7"/>
</linearGradient>
<linearGradient id="paint9_linear_32_3012" x1="41.2497" y1="-1.59181" x2="68.974" y2="83.1678" gradientUnits="userSpaceOnUse">
<stop stop-color="#444B8C"/>
<stop offset="1" stop-color="#26264F"/>
</linearGradient>
<linearGradient id="paint10_linear_32_3012" x1="63750.6" y1="65398.5" x2="96569.4" y2="180260" gradientUnits="userSpaceOnUse">
<stop stop-color="#AA80F9"/>
<stop offset="1" stop-color="#6165D7"/>
</linearGradient>
<linearGradient id="paint11_linear_32_3012" x1="53722" y1="29573.8" x2="60554.5" y2="82826.4" gradientUnits="userSpaceOnUse">
<stop stop-color="#AA80F9"/>
<stop offset="1" stop-color="#6165D7"/>
</linearGradient>
<linearGradient id="paint12_linear_32_3012" x1="-13026.6" y1="10691.1" x2="-11480.4" y2="5462.94" gradientUnits="userSpaceOnUse">
<stop stop-color="#FFC444"/>
<stop offset="1" stop-color="#F36F56"/>
</linearGradient>
<linearGradient id="paint13_linear_32_3012" x1="-4153.54" y1="3845.03" x2="-1740.95" y2="6117.03" gradientUnits="userSpaceOnUse">
<stop stop-color="#FFC444"/>
<stop offset="1" stop-color="#F36F56"/>
</linearGradient>
<linearGradient id="paint14_linear_32_3012" x1="1426.07" y1="6615.87" x2="527.169" y2="13229.2" gradientUnits="userSpaceOnUse">
<stop stop-color="#FFC444"/>
<stop offset="1" stop-color="#F36F56"/>
</linearGradient>
<linearGradient id="paint15_linear_32_3012" x1="18999.8" y1="70073.8" x2="50346" y2="70073.8" gradientUnits="userSpaceOnUse">
<stop stop-color="#AA80F9"/>
<stop offset="1" stop-color="#6165D7"/>
</linearGradient>
<linearGradient id="paint16_linear_32_3012" x1="12976.9" y1="13400.5" x2="13700.7" y2="13400.5" gradientUnits="userSpaceOnUse">
<stop stop-color="#AA80F9"/>
<stop offset="1" stop-color="#6165D7"/>
</linearGradient>
<linearGradient id="paint17_linear_32_3012" x1="28914.8" y1="33523.3" x2="27222.9" y2="33724" gradientUnits="userSpaceOnUse">
<stop stop-color="#AB316D"/>
<stop offset="1" stop-color="#792D3D"/>
</linearGradient>
<linearGradient id="paint18_linear_32_3012" x1="4006.65" y1="6402.96" x2="4215.31" y2="6773.32" gradientUnits="userSpaceOnUse">
<stop stop-color="#FFC444"/>
<stop offset="1" stop-color="#F36F56"/>
</linearGradient>
<linearGradient id="paint19_linear_32_3012" x1="52619.4" y1="10569.4" x2="46239.7" y2="24916" gradientUnits="userSpaceOnUse">
<stop stop-color="#444B8C"/>
<stop offset="1" stop-color="#26264F"/>
</linearGradient>
<linearGradient id="paint20_linear_32_3012" x1="16170.6" y1="19168.5" x2="17187" y2="19168.5" gradientUnits="userSpaceOnUse">
<stop stop-color="#AA80F9"/>
<stop offset="1" stop-color="#6165D7"/>
</linearGradient>
<linearGradient id="paint21_linear_32_3012" x1="-17.7458" y1="192.25" x2="14.4955" y2="197.431" gradientUnits="userSpaceOnUse">
<stop stop-color="#FF9085"/>
<stop offset="1" stop-color="#FB6FBB"/>
</linearGradient>
<linearGradient id="paint22_linear_32_3012" x1="119792" y1="196641" x2="283752" y2="469353" gradientUnits="userSpaceOnUse">
<stop stop-color="#FF9085"/>
<stop offset="1" stop-color="#FB6FBB"/>
</linearGradient>
<linearGradient id="paint23_linear_32_3012" x1="131327" y1="77355.9" x2="214909" y2="231237" gradientUnits="userSpaceOnUse">
<stop stop-color="#444B8C"/>
<stop offset="1" stop-color="#26264F"/>
</linearGradient>
<linearGradient id="paint24_linear_32_3012" x1="30357.9" y1="142550" x2="102562" y2="143994" gradientUnits="userSpaceOnUse">
<stop stop-color="#FF9085"/>
<stop offset="1" stop-color="#FB6FBB"/>
</linearGradient>
<linearGradient id="paint25_linear_32_3012" x1="179217" y1="144940" x2="329332" y2="402156" gradientUnits="userSpaceOnUse">
<stop stop-color="#FF9085"/>
<stop offset="1" stop-color="#FB6FBB"/>
</linearGradient>
<linearGradient id="paint26_linear_32_3012" x1="99611.5" y1="168519" x2="169621" y2="168519" gradientUnits="userSpaceOnUse">
<stop stop-color="#FF9085"/>
<stop offset="1" stop-color="#FB6FBB"/>
</linearGradient>
<clipPath id="clip0_32_3012">
<rect width="300" height="292.881" fill="white"/>
</clipPath>
</defs>
</svg>
