<svg width="300" height="276" viewBox="0 0 300 276" fill="none" xmlns="http://www.w3.org/2000/svg">
<g clip-path="url(#clip0_32_3448)">
<path d="M255.615 75.1534C262.653 11.0505 200.506 -11.2199 156.449 5.19308C112.033 21.7391 101.736 -5.68934 39.2813 2.15224C-23.9569 10.0831 8.15063 109.351 8.15063 109.351C8.15063 109.351 18.213 195.672 30.134 235.461C41.9905 275.034 155.483 260.716 183.092 259.536C210.541 258.361 234.394 260.628 258.277 217.176C282.115 173.803 248.6 139.044 255.615 75.1534Z" fill="#F4F7FA"/>
<path d="M174.884 242.254C176.372 241.55 178.989 238.709 179.365 237.692C181.873 230.891 187.395 218.464 184.611 211.325C184.136 210.106 178.208 210.749 177.061 209.86C173.182 209.353 171.805 209.418 168.353 207.124C158.166 200.353 169.138 177.897 147.983 178.096C132.487 178.243 122.171 186.934 116.617 164.603C111.063 142.271 80.8654 108.071 62.7306 130.773C52.3224 143.8 71.7695 158.028 69.3919 173.932C67.1322 189.042 76.1189 197.974 92.4776 201.316C108.836 204.658 103.389 213.049 103.375 226.717C103.355 243.141 127.07 238.377 137.83 235.244C146.495 232.72 170.262 232.143 174.884 242.254Z" fill="url(#paint0_linear_32_3448)"/>
<g style="mix-blend-mode:soft-light" opacity="0.8">
<g style="mix-blend-mode:soft-light" opacity="0.8">
<path d="M182 225.172C168.353 223.254 155.088 219.218 142.687 213.208C130.808 207.445 119.724 199.858 109.73 190.658C90.3271 172.799 75.3557 149.141 66.429 122.244L66.7197 122.149C85.5558 178.918 128.667 217.319 182.043 224.872L182 225.172Z" fill="#FCFDFE"/>
</g>
<g style="mix-blend-mode:soft-light" opacity="0.8">
<path d="M102.571 233.524L102.391 233.277C114.349 224.559 136.685 217.2 152.185 216.872L152.191 217.178C136.743 217.505 114.487 224.838 102.571 233.524Z" fill="#FCFDFE"/>
</g>
<g style="mix-blend-mode:soft-light" opacity="0.8">
<path d="M171.547 223.571C164.135 220.245 158.689 213.321 155.366 202.982C152.941 195.437 151.681 186.278 151.619 175.761H151.925C151.986 186.248 153.242 195.375 155.657 202.891C158.953 213.143 164.341 220.009 171.672 223.295L171.547 223.571Z" fill="#FCFDFE"/>
</g>
<g style="mix-blend-mode:soft-light" opacity="0.8">
<path d="M107.069 188.012C93.6702 181.161 77.9652 183.251 67.1474 186.207L67.0667 185.911C77.9367 182.938 93.7253 180.842 107.209 187.738L107.069 188.012Z" fill="#FCFDFE"/>
</g>
<g style="mix-blend-mode:soft-light" opacity="0.8">
<path d="M84.9989 161.277C78.5372 145.356 83.2666 127.977 86.6562 119.034L86.9413 119.143C83.5659 128.043 78.8641 145.338 85.2802 161.162L84.9989 161.277Z" fill="#FCFDFE"/>
</g>
</g>
<path d="M140.121 241.717C150.521 240.45 160.907 238.986 171.281 237.326C171.449 237.453 174.858 218.743 164.121 208.931C142.887 189.925 157.19 172.862 161.27 162.754C167.732 148.509 164.334 133.084 146.818 132.856C127.39 132.286 123.869 105.679 127.389 81.4651C130.112 69.6581 116.651 55.3329 103.22 52.0583C89.508 48.4311 75.8242 55.8594 71.6307 79.3898C65.2829 106.64 89.3056 123.071 98.2067 136.733C106.961 150.145 86.5964 160.996 102.987 172.88C116.775 183.438 134.156 191.03 127.795 204.291C121.264 217.404 122.827 228.125 140.121 241.717Z" fill="#D8DEE8"/>
<g style="mix-blend-mode:soft-light" opacity="0.8">
<g style="mix-blend-mode:soft-light" opacity="0.8">
<path d="M154.048 242.827C153.92 241.615 143.434 201.837 127.002 165.102C124.626 158.886 122.06 152.631 119.573 146.583C112.91 130.37 106.02 113.609 102.745 96.8965C99.0801 78.1982 100.388 61.3567 106.742 45.4027L107.107 45.4977C92.9965 80.9207 106.083 112.764 119.935 146.476C122.422 152.526 124.993 158.782 127.363 164.993C144.505 203.315 154.434 242.652 154.43 242.82L154.05 242.814H154.24L154.048 242.827Z" fill="#FCFDFE"/>
</g>
<g style="mix-blend-mode:soft-light" opacity="0.8">
<path d="M107.535 115.156C95.9309 104.484 81.9354 89.3248 74.4169 81.182C71.2032 77.7012 68.6641 74.9511 68.3638 74.7848L68.4464 74.6822L68.4094 74.4845C68.6669 74.4541 68.9121 74.6955 74.722 80.9881C82.2376 89.129 96.2264 104.281 107.821 114.943L107.535 115.156Z" fill="#FCFDFE"/>
</g>
<g style="mix-blend-mode:soft-light" opacity="0.8">
<path d="M103.893 100.968L103.618 100.492C105.453 91.1456 109.772 82.7595 116.11 76.2416C121.139 71.0674 125.932 68.5863 127.214 68.1254C127.489 68.0304 127.608 68.0123 127.708 68.0674L127.494 68.3316C127.52 68.3468 127.551 68.3544 127.581 68.3535C127.106 68.3962 122.369 70.578 117.172 75.6705C112.487 80.265 106.294 88.7357 103.893 100.968Z" fill="#FCFDFE"/>
</g>
<g style="mix-blend-mode:soft-light" opacity="0.8">
<path d="M137.175 190.043C135.529 178.608 138.745 166.314 146.73 153.506C150.888 146.835 156.192 140.297 162.491 134.084C162.822 133.758 163.082 133.502 163.117 133.45L163.45 133.609C163.4 133.681 163.221 133.859 162.785 134.288C154.031 142.925 134.051 165.647 137.554 190.006L137.175 190.043Z" fill="#FCFDFE"/>
</g>
<g style="mix-blend-mode:soft-light" opacity="0.8">
<path d="M132.486 178.068C120.174 161.605 94.3611 160.444 93.9202 160.444L93.9031 160.287L93.8423 160.438L93.7102 160.282L93.8537 160.133C94.0761 160.082 120.349 161.23 132.814 177.903L132.486 178.068Z" fill="#FCFDFE"/>
</g>
<g style="mix-blend-mode:soft-light" opacity="0.8">
<path d="M152.312 236.407C152.09 231.402 154.241 222.881 165.748 210.715C166.019 210.43 166.252 210.183 166.284 210.135L166.425 210.196L166.651 210.17C166.666 210.265 166.666 210.265 166.051 210.912C154.615 223.002 152.476 231.443 152.697 236.395L152.312 236.407Z" fill="#FCFDFE"/>
</g>
<g style="mix-blend-mode:soft-light" opacity="0.8">
<path d="M149.671 227.08C146.646 218.441 131.95 212.075 123.458 209.048C123.173 208.946 122.983 208.878 122.916 208.851L123.091 208.566C123.155 208.592 123.333 208.656 123.609 208.756C132.162 211.804 146.971 218.226 150.04 226.989L149.671 227.08Z" fill="#FCFDFE"/>
</g>
</g>
<path d="M165.078 254.658L115.794 250.909V112.224L165.078 108.574V254.658Z" fill="url(#paint1_linear_32_3448)"/>
<path d="M119.604 244.848V118.294L165.078 115.237V247.995L119.604 244.848Z" fill="white"/>
<path d="M198.693 246.689H256.171V116.736H198.693V246.689Z" fill="url(#paint2_linear_32_3448)"/>
<path d="M251.512 240.753V122.583H198.694V240.753H251.512Z" fill="white"/>
<path d="M198.693 246.689L165.078 254.658V108.574L198.693 116.736V246.689Z" fill="url(#paint3_linear_32_3448)"/>
<path d="M165.078 247.995V115.237L198.693 122.663V240.762L165.078 247.995Z" fill="#D8DEE8"/>
<path d="M179.554 83.4437C179.554 101.332 202.323 144.287 211.762 159.261C213.367 161.807 219.967 161.334 221.572 158.786C231.009 143.814 256.761 101.332 256.761 83.4437C256.761 61.5382 239.479 43.7806 218.16 43.7806C196.84 43.7806 179.554 61.5382 179.554 83.4437Z" fill="url(#paint4_linear_32_3448)"/>
<path d="M175.364 83.4437C175.364 101.332 201.109 143.814 210.549 158.788C210.908 159.372 211.41 159.853 212.008 160.188C212.606 160.522 213.28 160.697 213.965 160.697C214.65 160.697 215.324 160.522 215.922 160.188C216.52 159.853 217.022 159.372 217.381 158.788C226.821 143.814 252.567 101.332 252.567 83.4437C252.567 61.5382 235.284 43.7806 213.965 43.7806C192.646 43.7806 175.364 61.5382 175.364 83.4437Z" fill="url(#paint5_linear_32_3448)"/>
<path opacity="0.7" d="M213.965 101.63C225.707 101.63 235.226 91.8491 235.226 79.7842C235.226 67.7192 225.707 57.9386 213.965 57.9386C202.223 57.9386 192.704 67.7192 192.704 79.7842C192.704 91.8491 202.223 101.63 213.965 101.63Z" fill="white"/>
<path opacity="0.7" d="M213.965 100.329C225.008 100.329 233.96 91.1306 233.96 79.7841C233.96 68.4375 225.008 59.2394 213.965 59.2394C202.923 59.2394 193.971 68.4375 193.971 79.7841C193.971 91.1306 202.923 100.329 213.965 100.329Z" fill="white"/>
<path d="M56.1369 258.478C55.4613 259.857 55.6513 260.449 55.8195 260.709C56.3127 261.47 57.4996 260.752 60.5993 261.119C61.239 261.216 61.8912 261.194 62.5227 261.053C63.2639 260.878 64.1381 260.482 64.1011 260.284C64.0877 260.212 63.9557 260.183 63.911 260.172C63.0501 259.988 57.6659 258.337 57.6659 258.337L56.1369 258.478Z" fill="url(#paint6_linear_32_3448)"/>
<path d="M55.7234 255.449L56.2042 258.53C56.2042 258.53 57.5279 259.465 57.8757 258.329C58.1256 257.513 58.119 255.311 58.119 255.311L55.7234 255.449Z" fill="url(#paint7_linear_32_3448)"/>
<path d="M71.3515 256.974L70.0525 260.521L68.1643 260.221L68.6014 256.936L71.3515 256.974Z" fill="url(#paint8_linear_32_3448)"/>
<path d="M69.4642 262.475C68.5501 261.391 67.7338 261.49 67.5694 260.745C67.4402 260.158 67.7984 259.44 68.3401 259.167C69.1003 258.787 70.0211 259.383 70.2292 259.518C71.6432 260.437 71.2574 261.875 72.5906 262.497C72.8586 262.622 73.2843 262.755 73.7309 263.175C73.921 263.354 74.3961 263.796 74.2821 264.1C74.1547 264.452 73.3147 264.439 72.5155 264.428C71.5567 264.414 71.0768 264.407 70.615 264.119C69.9783 263.721 70.1693 263.312 69.4642 262.475Z" fill="url(#paint9_linear_32_3448)"/>
<path d="M45.6211 181.746C45.9128 187.902 46.7637 194.018 48.1631 200.019C49.4193 205.384 50.1035 206.301 50.5387 210.02C51.489 218.114 48.8976 219.333 48.6144 228.508C48.3018 238.641 51.1659 246.628 52.2891 249.674C53.0824 251.826 54.0026 253.929 55.0449 255.972C55.9952 256.761 57.4034 256.42 58.8925 256.084C59.247 246.892 59.7478 238.237 60.1032 229.044C61.5837 215.195 63.0648 201.346 64.5466 187.496L45.6211 181.746Z" fill="url(#paint10_linear_32_3448)"/>
<path style="mix-blend-mode:multiply" opacity="0.3" d="M58.8944 256.084C59.2488 246.892 59.7496 238.237 60.105 229.044C61.5855 215.195 63.0667 201.346 64.5484 187.496L45.6211 181.746C45.6439 182.221 45.6772 182.679 45.7066 183.144C54.66 190.589 56.5102 196.599 56.513 200.724C56.513 205.729 53.8333 208.267 54.5232 215.509C55.0173 220.687 56.5957 221.567 56.6955 226.247C56.8237 232.273 54.3103 235.717 53.1253 239.226C51.985 242.618 51.6486 247.398 54.1459 254.124C54.4699 254.818 54.775 255.438 55.0468 255.97C55.9923 256.761 57.4053 256.421 58.8944 256.084Z" fill="url(#paint11_linear_32_3448)"/>
<path d="M56.8618 188.416C61.635 196.095 64.3242 202.162 65.7943 205.912C66.6913 208.2 67.5105 210.586 67.7566 213.732C67.9871 216.798 67.6416 219.88 66.7379 222.819C65.7061 225.777 64.9695 228.83 64.539 231.933C62.9977 243.086 65.8 252.332 67.9514 257.637L71.3182 258.802C74.53 249.16 76.9377 239.268 78.5164 229.228C79.5835 222.46 80.396 217.153 80.2601 210.438C80.1176 203.356 78.8718 192.172 72.7901 178.91L56.8618 188.416Z" fill="url(#paint12_linear_32_3448)"/>
<path d="M58.1201 127.05C65.2272 128.115 70.6446 129.264 73.1343 132.921C75.7608 136.784 71.7821 139.82 70.867 148.438C69.4672 161.631 77.1387 166.385 75.2448 179.68C74.7399 183.165 73.7001 186.551 72.1622 189.719C69.9148 191.634 66.3323 194.259 61.4356 196.086C54.3086 198.752 50.7356 197.368 41.0876 198.127C25.3056 199.369 23.0383 204.003 15.8391 201.337C8.56295 198.644 3.1759 191.06 4.63551 187.739C5.50975 185.749 8.42706 186.917 12.5227 184.413C17.7986 181.182 16.8103 176.949 21.0675 173.206C27.1815 167.833 33.2859 172.996 38.5143 168.325C43.8025 163.599 44.2054 152.376 41.7718 145.751C40.183 141.425 40.0537 136.685 38.8478 132.236C38.6988 131.699 38.7094 131.13 38.8782 130.599C39.7059 128.009 44.3993 127.414 47.9476 126.998C53.3555 126.362 57.5357 126.955 58.1201 127.05Z" fill="url(#paint13_linear_32_3448)"/>
<path style="mix-blend-mode:multiply" opacity="0.3" d="M16.5584 196.331C18.7146 194.826 17.4412 190.719 20.6341 188.455C23.598 186.354 26.0002 188.967 30.4028 187.514C36.0502 185.648 35.6359 180.182 41.0458 178.319C44.9361 176.978 46.1715 179.453 51.8246 179.44C57.4777 179.427 64.808 176.939 69.3693 170.857C71.0995 168.53 72.3069 165.857 72.909 163.021C74.5245 167.861 76.2606 172.536 75.2448 179.672C74.7398 183.157 73.7 186.544 72.1621 189.712C69.9147 191.626 66.3323 194.251 61.4355 196.078C54.3086 198.744 50.7356 197.36 41.0876 198.119C25.3056 199.361 23.0383 203.995 15.8391 201.329C11.1885 199.609 7.32091 195.891 5.50781 192.564C11.847 196.982 14.9933 197.423 16.5584 196.331Z" fill="url(#paint14_linear_32_3448)"/>
<path d="M60.1422 114.682C60.1422 114.682 62.4228 118.15 62.7811 120.7C63.1393 123.249 60.2334 123.328 60.2334 123.328L60.491 124.933C60.5986 125.604 60.8981 126.229 61.3534 126.733C61.8088 127.237 62.4004 127.598 63.0567 127.773L64.236 128.087C64.236 128.087 56.9417 130.368 52.6133 127.87L53.7745 127.648C54.5715 127.494 55.2909 127.07 55.8105 126.446C56.3301 125.823 56.618 125.039 56.6253 124.227L56.6357 123.534C56.6357 123.534 54.6069 115.672 60.1422 114.682Z" fill="url(#paint15_linear_32_3448)"/>
<path d="M73.8269 155.307L83.0654 134.687C83.121 134.563 83.2149 134.46 83.3333 134.393C83.4516 134.327 83.5882 134.3 83.7229 134.317L99.8774 136.354C99.9774 136.367 100.073 136.403 100.156 136.46C100.239 136.517 100.308 136.593 100.355 136.682C100.403 136.77 100.43 136.869 100.432 136.97C100.434 137.07 100.412 137.17 100.368 137.261L89.4749 159.542C89.4113 159.672 89.3051 159.776 89.1738 159.838C89.0426 159.899 88.8943 159.914 88.7536 159.879L74.3714 156.318L73.8269 155.307Z" fill="url(#paint16_linear_32_3448)"/>
<path d="M76.3689 152.811L83.8494 136.116C83.8943 136.015 83.9705 135.932 84.0665 135.878C84.1625 135.824 84.2732 135.802 84.3824 135.816L97.4618 137.465C97.5428 137.475 97.6201 137.505 97.6874 137.551C97.7547 137.597 97.81 137.659 97.8488 137.73C97.8876 137.802 97.9088 137.882 97.9106 137.964C97.9124 138.045 97.8947 138.126 97.8591 138.2L89.0397 156.239C88.9884 156.345 88.9025 156.43 88.7963 156.479C88.6901 156.529 88.57 156.54 88.4562 156.512L76.8108 153.633L76.3689 152.811Z" fill="#F4F7FA"/>
<path d="M86.5614 136.015L87.1543 134.676C87.1941 134.586 87.2616 134.511 87.3471 134.462C87.4326 134.412 87.5315 134.392 87.6295 134.403L94.3516 135.194C94.4242 135.202 94.4937 135.228 94.5544 135.268C94.6152 135.309 94.6656 135.363 94.7014 135.427C94.7373 135.49 94.7576 135.562 94.7607 135.635C94.7638 135.708 94.7497 135.78 94.7194 135.847L94.0542 137.304C94.013 137.394 93.9436 137.47 93.8563 137.518C93.769 137.566 93.6684 137.585 93.5696 137.571L86.9177 136.662C86.8469 136.652 86.7793 136.625 86.7204 136.585C86.6616 136.544 86.6129 136.49 86.5784 136.427C86.5439 136.365 86.5243 136.295 86.5214 136.223C86.5184 136.152 86.5321 136.08 86.5614 136.015Z" fill="url(#paint17_linear_32_3448)"/>
<path d="M95.7295 140.529C95.7194 140.53 95.7092 140.53 95.6991 140.529L83.8513 139.008C83.781 138.999 83.7172 138.962 83.6738 138.906C83.6303 138.85 83.6108 138.779 83.6194 138.709C83.6296 138.639 83.6666 138.576 83.7227 138.533C83.7788 138.489 83.8494 138.47 83.9197 138.478L95.7666 139.998C95.8334 140.008 95.894 140.043 95.9364 140.095C95.9787 140.148 95.9996 140.215 95.995 140.282C95.9903 140.349 95.9603 140.413 95.9111 140.459C95.8619 140.505 95.797 140.531 95.7295 140.531V140.529Z" fill="#D8DEE8"/>
<path d="M95.1215 141.725H95.0882L83.305 140.09C83.2374 140.077 83.1774 140.039 83.1373 139.983C83.0972 139.927 83.08 139.858 83.0894 139.79C83.0988 139.722 83.134 139.66 83.1878 139.617C83.2415 139.574 83.3097 139.553 83.3781 139.559L95.1614 141.195C95.2284 141.205 95.2893 141.24 95.3316 141.293C95.374 141.345 95.3947 141.412 95.3897 141.48C95.3846 141.548 95.3541 141.611 95.3044 141.657C95.2546 141.703 95.1893 141.728 95.1215 141.728V141.725Z" fill="#D8DEE8"/>
<path d="M89.1908 143.606C89.1772 143.607 89.1635 143.607 89.1499 143.606L82.7224 142.535C82.6877 142.529 82.6546 142.517 82.6248 142.498C82.595 142.48 82.5691 142.455 82.5487 142.427C82.5283 142.398 82.5137 142.366 82.5057 142.332C82.4978 142.298 82.4966 142.262 82.5024 142.227C82.5081 142.193 82.5206 142.16 82.5392 142.13C82.5577 142.1 82.582 142.074 82.6105 142.054C82.6391 142.033 82.6714 142.019 82.7055 142.011C82.7397 142.003 82.7752 142.002 82.8098 142.008L89.2374 143.078C89.3049 143.088 89.3662 143.123 89.4086 143.177C89.451 143.23 89.4714 143.298 89.4654 143.366C89.4594 143.434 89.4276 143.497 89.3766 143.542C89.3255 143.588 89.259 143.612 89.1908 143.61V143.606Z" fill="#D8DEE8"/>
<path d="M92.1414 154.089C92.1414 154.089 94.7736 152.299 95.0805 151.037C95.3875 149.775 95.3105 147.399 95.3105 147.399L93.7758 150.745C93.7758 150.745 93.0346 150.532 92.7153 149.43C92.396 148.328 91.8601 149.335 92.0739 150.17C92.2877 151.005 92.1414 154.089 92.1414 154.089Z" fill="url(#paint18_linear_32_3448)"/>
<path d="M71.8723 131.673C73.9265 132.911 75.7363 134.515 77.2119 136.406C82.4839 143.23 80.4285 150.501 84.7902 153.072C86.037 153.808 88.2264 154.403 92.1785 153.008L93.6933 153.813C93.6933 153.813 95.5444 163.221 84.1155 163.576C72.6867 163.932 66.9937 149.722 66.9937 149.722L71.8723 131.673Z" fill="url(#paint19_linear_32_3448)"/>
<path d="M59.3145 118.416C58.9268 118.416 58.5647 117.962 58.3148 118.131C58.0649 118.3 58.1485 119.016 58.4346 119.493C58.6183 119.79 58.8843 120.028 59.2005 120.177C58.8385 120.775 58.6136 121.445 58.5419 122.14C58.3642 124.022 59.4846 125.419 59.973 126.251C62.1777 130.005 59.878 136.473 57.0272 139.896C54.7048 142.678 53.4162 141.764 52.0859 143.982C49.4869 148.305 53.9987 152.376 52.9648 157.966C51.3912 166.466 38.537 170.137 38.0039 170.282C37.7939 170.339 37.6523 170.377 37.4337 170.433C31.6514 171.905 22.8871 174.139 16.1792 169.9C11.1609 166.728 8.43267 160.654 8.27873 155.097C8.23786 153.636 8.16944 148.079 12.2489 143.162C12.8961 142.382 16.7313 137.771 22.4357 137.193C25.4566 136.887 26.1646 137.896 28.4158 137.024C31.4984 135.831 33.1832 132.773 34.2285 130.876C36.1509 127.387 35.1788 126.769 36.6336 125.006C39.4787 121.552 43.3881 123.698 46.4812 120.596C49.5296 117.539 47.1929 113.988 50.1606 111.312C53.2233 108.551 59.5929 108.829 61.2036 111.631C62.5815 114.043 60.5023 118.403 59.3145 118.416Z" fill="url(#paint20_linear_32_3448)"/>
<path d="M131.833 201.242L102.135 197.611V153.812L131.833 148.188V201.242Z" fill="url(#paint21_linear_32_3448)"/>
<path d="M168.056 198.935L131.833 201.242V148.188L168.056 153.188V198.935Z" fill="url(#paint22_linear_32_3448)"/>
<g style="mix-blend-mode:soft-light">
<path d="M145.487 150.073V157.512L157.546 158.638V151.738L145.487 150.073Z" fill="white"/>
</g>
<path d="M175.18 259.166L126.498 262.59V191.288L175.18 194.712V259.166Z" fill="url(#paint23_linear_32_3448)"/>
<path d="M126.498 262.59L86.5862 257.711V195.84L126.498 191.288V262.59Z" fill="url(#paint24_linear_32_3448)"/>
<g style="mix-blend-mode:soft-light">
<path d="M143.732 192.5V203.648L160.043 204.476V193.648L143.732 192.5Z" fill="white"/>
</g>
<path d="M145.739 62.8057C145.584 62.8067 145.431 62.7657 145.298 62.6871C145.164 62.6085 145.054 62.4951 144.979 62.3591L138.969 51.4092C138.868 51.2098 138.848 50.9786 138.914 50.7647C138.98 50.5507 139.126 50.3709 139.322 50.2632C139.519 50.1555 139.749 50.1286 139.965 50.188C140.181 50.2474 140.365 50.3886 140.479 50.5815L146.493 61.5343C146.565 61.6653 146.601 61.8128 146.599 61.9622C146.597 62.1116 146.555 62.2579 146.479 62.3866C146.403 62.5152 146.295 62.6219 146.165 62.6961C146.035 62.7702 145.889 62.8093 145.739 62.8095V62.8057Z" fill="#CFD8E5"/>
<path d="M132.657 62.8057C132.502 62.8057 132.351 62.7642 132.218 62.6857C132.086 62.6071 131.976 62.4943 131.902 62.3591L125.892 51.4092C125.837 51.3102 125.803 51.2015 125.791 51.0892C125.778 50.9769 125.788 50.8633 125.82 50.7548C125.852 50.6464 125.904 50.5452 125.975 50.4571C126.046 50.369 126.133 50.2957 126.232 50.2414C126.331 50.187 126.44 50.1527 126.552 50.1404C126.664 50.1281 126.778 50.138 126.886 50.1696C126.995 50.2012 127.096 50.2538 127.184 50.3245C127.272 50.3952 127.345 50.4825 127.4 50.5815L133.417 61.5305C133.489 61.6615 133.525 61.809 133.523 61.9584C133.521 62.1079 133.479 62.2541 133.403 62.3828C133.327 62.5115 133.219 62.6181 133.089 62.6923C132.96 62.7664 132.813 62.8055 132.663 62.8057H132.657Z" fill="#CFD8E5"/>
<path d="M210.268 11.3927H210.139C208.904 11.3927 207.902 12.3942 207.902 13.6296V19.0186C207.902 20.254 208.904 21.2555 210.139 21.2555H210.268C211.503 21.2555 212.504 20.254 212.504 19.0186V13.6296C212.504 12.3942 211.503 11.3927 210.268 11.3927Z" fill="#BFC8D6"/>
<path d="M213.436 17.6388H206.315C204.831 17.6388 203.629 18.8411 203.629 20.3242V25.4737C203.629 26.9568 204.831 28.1592 206.315 28.1592H213.436C214.919 28.1592 216.121 26.9568 216.121 25.4737V20.3242C216.121 18.8411 214.919 17.6388 213.436 17.6388Z" fill="#CFD8E5"/>
<path d="M213.061 13.0785L213.536 12.4133C213.76 12.0924 214.058 11.8316 214.407 11.6539C214.755 11.4762 215.141 11.3871 215.532 11.3946H238.136C238.198 11.3946 238.25 11.4022 238.259 11.463C238.26 11.4766 238.26 11.4903 238.256 11.5036C238.253 11.5168 238.247 11.5292 238.238 11.5401C238.23 11.5509 238.22 11.56 238.208 11.5669C238.196 11.5737 238.183 11.5781 238.169 11.5799C234.669 12.5549 221.569 16.0955 218.214 15.5796C215.343 15.1386 213.78 14.1608 213.16 13.6847C213.07 13.6151 213.009 13.5137 212.991 13.4011C212.973 13.2885 212.998 13.1732 213.061 13.0785V13.0785Z" fill="#BFC8D6"/>
<path d="M206.843 13.0785L206.368 12.4133C206.145 12.0924 205.846 11.8316 205.498 11.6539C205.15 11.4762 204.763 11.3871 204.372 11.3946H181.774C181.712 11.3946 181.66 11.4022 181.652 11.463C181.65 11.4766 181.651 11.4903 181.654 11.5036C181.658 11.5168 181.664 11.5292 181.672 11.5401C181.68 11.5509 181.691 11.56 181.702 11.5669C181.714 11.5737 181.727 11.5781 181.741 11.5799C185.24 12.5549 198.341 16.0955 201.696 15.5796C204.566 15.1386 206.13 14.1608 206.749 13.6847C206.839 13.6147 206.899 13.5129 206.916 13.4003C206.934 13.2876 206.907 13.1725 206.843 13.0785V13.0785Z" fill="#CFD8E5"/>
<path d="M36.0283 24.2146H35.9C34.6646 24.2146 33.6631 25.2161 33.6631 26.4515V31.8405C33.6631 33.0759 34.6646 34.0774 35.9 34.0774H36.0283C37.2637 34.0774 38.2652 33.0759 38.2652 31.8405V26.4515C38.2652 25.2161 37.2637 24.2146 36.0283 24.2146Z" fill="#BFC8D6"/>
<path d="M39.1966 30.7896H32.0753C30.5922 30.7896 29.3899 31.9919 29.3899 33.475V38.6245C29.3899 40.1076 30.5922 41.3099 32.0753 41.3099H39.1966C40.6797 41.3099 41.882 40.1076 41.882 38.6245V33.475C41.882 31.9919 40.6797 30.7896 39.1966 30.7896Z" fill="#CFD8E5"/>
<path d="M38.9276 26.06L39.4027 25.3131C39.6215 24.9821 39.9175 24.7093 40.2651 24.5179C40.6127 24.3266 41.0015 24.2225 41.3982 24.2146H63.9965C64.0582 24.2146 64.1105 24.302 64.119 24.3628C64.1235 24.3952 64.1171 24.428 64.101 24.4564C64.0848 24.4847 64.0598 24.507 64.0297 24.5196C60.5309 25.4946 47.4296 29.0552 44.0742 28.5402C41.2034 28.0983 39.6403 27.131 39.0216 26.6549C38.9325 26.5868 38.873 26.4871 38.8555 26.3763C38.8379 26.2655 38.8638 26.1522 38.9276 26.06V26.06Z" fill="#BFC8D6"/>
<path d="M32.7081 26.06L32.233 25.3131C32.0141 24.9821 31.7182 24.7093 31.3706 24.5179C31.023 24.3266 30.6341 24.2225 30.2374 24.2146H7.63919C7.57743 24.2146 7.52516 24.302 7.51661 24.3628C7.51254 24.3943 7.51864 24.4262 7.53404 24.4539C7.54943 24.4816 7.5733 24.5036 7.60213 24.5168C11.102 25.4918 24.2023 29.0524 27.5577 28.5374C30.4284 28.0955 31.9916 27.1281 32.6112 26.652C32.6998 26.5843 32.7592 26.4853 32.7772 26.3753C32.7952 26.2652 32.7705 26.1524 32.7081 26.06V26.06Z" fill="#CFD8E5"/>
<path d="M27.1586 40.6076L27.17 40.9544L27.1918 41.6861C27.2479 43.2655 28.5441 44.5968 30.1243 44.5968H102.048L98.912 28.4043L29.7015 37.6361C28.983 37.7243 28.3236 38.0781 27.853 38.6281C27.3824 39.178 27.1347 39.8842 27.1586 40.6076V40.6076Z" fill="url(#paint25_linear_32_3448)"/>
<path style="mix-blend-mode:multiply" opacity="0.3" d="M27.1699 40.9564L27.1918 41.6881C27.2478 43.2674 28.544 44.5987 30.1243 44.5987H101.132L99.9591 38.0305C99.9591 38.0305 87.7226 36.2744 77.875 39.5585C68.0274 42.8426 55.1941 39.6887 46.2417 39.5386C38.8059 39.4112 31.6799 38.9608 27.1699 40.9564Z" fill="url(#paint26_linear_32_3448)"/>
<path d="M124.015 47.8848H121.825C120.341 47.8848 119.139 49.0871 119.139 50.5702V60.6506C119.139 62.1337 120.341 63.336 121.825 63.336H124.015C125.498 63.336 126.7 62.1337 126.7 60.6506V50.5702C126.7 49.0871 125.498 47.8848 124.015 47.8848Z" fill="url(#paint27_linear_32_3448)"/>
<path d="M93.0945 26.0886L100.015 50.8306C100.15 51.3084 100.437 51.729 100.833 52.0282C101.229 52.3273 101.712 52.4884 102.208 52.4869H141.392C141.912 52.4882 142.417 52.3108 142.822 51.9844C143.227 51.658 143.508 51.2024 143.618 50.6938L149.386 23.8517C122.743 6.02379 99.7577 20.9952 94.3146 25.1155C93.5155 25.7151 93.0945 26.0886 93.0945 26.0886Z" fill="url(#paint28_linear_32_3448)"/>
<path style="mix-blend-mode:multiply" opacity="0.3" d="M122.639 52.4869C122.639 51.5005 119.841 23.3965 119.841 23.3965L149.386 23.8412L143.231 52.4869H122.639Z" fill="url(#paint29_linear_32_3448)"/>
<path d="M144.465 39.4055C144.775 39.7349 145.158 39.9882 145.583 40.1458C146.007 40.3033 146.462 40.3609 146.913 40.314L217.977 32.9285C219.718 32.7489 221.261 31.3977 221.493 29.7052C221.518 29.537 221.712 29.3669 221.712 29.1921V29.0201C221.712 26.977 219.895 25.3074 217.852 25.2646L149.595 23.8877C147.475 23.845 145.604 25.3692 145.263 27.4645L144.183 34.0194L143.707 36.9139C143.634 37.3595 143.664 37.8159 143.796 38.248C143.927 38.68 144.156 39.076 144.465 39.4055V39.4055Z" fill="url(#paint30_linear_32_3448)"/>
<path style="mix-blend-mode:multiply" opacity="0.3" d="M144.465 39.4056C144.776 39.735 145.158 39.9883 145.583 40.1458C146.007 40.3034 146.462 40.3609 146.913 40.314L217.977 32.9286C218.813 32.8421 219.596 32.4774 220.201 31.893C220.805 31.3085 221.195 30.5382 221.31 29.7053C219.669 28.9707 215.725 28.2504 208.028 30.341C197.732 33.1386 181.058 33.2507 174.119 31.3483C167.695 29.5865 151.962 27.6328 144.16 34.0157L143.694 36.9102C143.622 37.3574 143.654 37.8152 143.788 38.2479C143.922 38.6807 144.153 39.0769 144.465 39.4056V39.4056Z" fill="url(#paint31_linear_32_3448)"/>
<path d="M129.932 60.7057H110.318C108.835 60.7057 107.633 61.908 107.633 63.3911V77.7458C107.633 79.2289 108.835 80.4313 110.318 80.4313H129.932C131.416 80.4313 132.618 79.2289 132.618 77.7458V63.3911C132.618 61.908 131.416 60.7057 129.932 60.7057Z" fill="url(#paint32_linear_32_3448)"/>
<path d="M137.822 60.7057H118.208C116.725 60.7057 115.522 61.908 115.522 63.3911V77.7458C115.522 79.2289 116.725 80.4313 118.208 80.4313H137.822C139.305 80.4313 140.508 79.2289 140.508 77.7458V63.3911C140.508 61.908 139.305 60.7057 137.822 60.7057Z" fill="url(#paint33_linear_32_3448)"/>
<path d="M125.435 70.7405C125.435 67.6531 127.438 65.1463 129.977 65.1102H132.616V66.1004C133.931 67.1162 134.677 68.8163 134.677 70.7424C134.677 72.6686 133.903 74.3696 132.682 75.3854L132.758 76.3851L130.013 76.3737C127.481 76.3357 125.435 73.8289 125.435 70.7405Z" fill="url(#paint34_linear_32_3448)"/>
<path d="M132.767 76.3736C135.332 76.3736 137.411 73.8516 137.411 70.7405C137.411 67.6293 135.332 65.1073 132.767 65.1073C130.202 65.1073 128.123 67.6293 128.123 70.7405C128.123 73.8516 130.202 76.3736 132.767 76.3736Z" fill="#F4F7FA"/>
<path d="M133.131 75.1173C135.001 75.1173 136.517 73.1271 136.517 70.672C136.517 68.2169 135.001 66.2267 133.131 66.2267C131.261 66.2267 129.745 68.2169 129.745 70.672C129.745 73.1271 131.261 75.1173 133.131 75.1173Z" fill="url(#paint35_linear_32_3448)"/>
<g style="mix-blend-mode:soft-light">
<path d="M132.208 69.8833C132.94 69.8833 133.533 69.2903 133.533 68.5587C133.533 67.8271 132.94 67.234 132.208 67.234C131.477 67.234 130.884 67.8271 130.884 68.5587C130.884 69.2903 131.477 69.8833 132.208 69.8833Z" fill="#F4F7FA"/>
</g>
<path d="M123.741 63.5004C123.741 63.3925 123.72 63.2857 123.679 63.186C123.638 63.0862 123.577 62.9956 123.501 62.9193C123.425 62.8429 123.334 62.7824 123.235 62.7411C123.135 62.6997 123.028 62.6785 122.92 62.6785H117.66C117.442 62.6785 117.233 62.7651 117.078 62.9192C116.924 63.0734 116.838 63.2824 116.838 63.5004C116.838 63.7184 116.924 63.9275 117.078 64.0817C117.233 64.2358 117.442 64.3224 117.66 64.3224H122.92C123.028 64.3224 123.135 64.3012 123.235 64.2598C123.334 64.2185 123.425 64.158 123.501 64.0816C123.577 64.0053 123.638 63.9147 123.679 63.8149C123.72 63.7152 123.741 63.6083 123.741 63.5004Z" fill="url(#paint36_linear_32_3448)"/>
<path d="M124.07 63.5004C124.07 63.2824 123.984 63.0734 123.829 62.9192C123.675 62.7651 123.466 62.6785 123.248 62.6785H117.988C117.77 62.6785 117.561 62.7651 117.407 62.9192C117.253 63.0734 117.167 63.2824 117.167 63.5004C117.167 63.7184 117.253 63.9275 117.407 64.0817C117.561 64.2358 117.77 64.3224 117.988 64.3224H123.249C123.357 64.3224 123.464 64.3012 123.564 64.2599C123.663 64.2185 123.754 64.158 123.83 64.0817C123.907 64.0053 123.967 63.9147 124.009 63.815C124.05 63.7153 124.071 63.6084 124.071 63.5004H124.07Z" fill="#F4F7FA"/>
<path d="M127.402 55.4459H118.438C118.099 55.4459 117.824 55.7208 117.824 56.0598V56.1472C117.824 56.4862 118.099 56.7611 118.438 56.7611H127.402C127.741 56.7611 128.016 56.4862 128.016 56.1472V56.0598C128.016 55.7208 127.741 55.4459 127.402 55.4459Z" fill="#F4F7FA"/>
<path style="mix-blend-mode:multiply" opacity="0.3" d="M93.0945 26.0885L100.015 50.8305C100.15 51.3083 100.437 51.729 100.833 52.0281C101.229 52.3272 101.712 52.4883 102.208 52.4868H122.639C120.041 48.8711 105.354 46.0735 105.779 37.2731C106.142 29.766 97.5598 26.1902 94.3146 25.1097C93.5155 25.7132 93.0945 26.0885 93.0945 26.0885Z" fill="url(#paint37_linear_32_3448)"/>
<path d="M89.9443 15.667H89.816C88.5806 15.667 87.5791 16.6685 87.5791 17.9039V23.2929C87.5791 24.5283 88.5806 25.5298 89.816 25.5298H89.9443C91.1797 25.5298 92.1812 24.5283 92.1812 23.2929V17.9039C92.1812 16.6685 91.1797 15.667 89.9443 15.667Z" fill="#BFC8D6"/>
<path d="M94.098 22.5707H86.9767C85.4936 22.5707 84.2913 23.773 84.2913 25.2561V30.4056C84.2913 31.8887 85.4936 33.0911 86.9767 33.0911H94.098C95.5811 33.0911 96.7834 31.8887 96.7834 30.4056V25.2561C96.7834 23.773 95.5811 22.5707 94.098 22.5707Z" fill="#CFD8E5"/>
<path d="M93.4041 17.5799L93.9211 16.7988C94.4057 16.1336 95.2125 15.6652 96.0753 15.6652H120.48C120.547 15.6652 120.604 15.7868 120.613 15.8486C120.617 15.8838 120.611 15.9196 120.593 15.9508C120.576 15.982 120.55 16.007 120.518 16.0225C116.739 16.9974 102.589 20.5676 98.9679 20.0516C95.8672 19.6097 94.1786 18.6471 93.5106 18.171C93.4633 18.1404 93.4229 18.1004 93.3917 18.0536C93.3605 18.0067 93.3392 17.9539 93.3293 17.8985C93.3193 17.8431 93.3208 17.7863 93.3337 17.7315C93.3465 17.6767 93.3705 17.6251 93.4041 17.5799Z" fill="#BFC8D6"/>
<path d="M86.6869 17.5799L86.17 16.7988C85.6863 16.1336 84.8786 15.6652 84.0157 15.6652H59.6111C59.5436 15.6652 59.4876 15.7868 59.4781 15.8486C59.4737 15.8838 59.4806 15.9196 59.4976 15.9508C59.5147 15.982 59.5411 16.007 59.5731 16.0225C63.3523 16.9974 77.5026 20.5676 81.1231 20.0516C84.2238 19.6097 85.9125 18.6471 86.5805 18.171C86.6279 18.1405 86.6684 18.1006 86.6997 18.0537C86.731 18.0069 86.7523 17.9541 86.7622 17.8986C86.7722 17.8432 86.7707 17.7863 86.7577 17.7314C86.7448 17.6766 86.7207 17.6251 86.6869 17.5799Z" fill="#CFD8E5"/>
<path d="M83.8597 36.0255C91.5103 37.792 110.906 41.8743 119.432 40.0394C124.302 38.9941 125.538 35.556 125.435 32.1161C125.372 30.0436 124.824 27.9729 124.294 26.4145C124.038 25.6685 123.538 25.0305 122.875 24.6031C122.212 24.1756 121.424 23.9836 120.639 24.0578L84.4555 27.4788C83.5823 27.5612 82.7655 27.9468 82.1468 28.5685C81.5282 29.1903 81.1468 30.009 81.0687 30.8826L80.9642 32.042C80.9642 32.0486 80.9642 32.0553 80.9642 32.0619C80.8906 32.9601 81.1427 33.8548 81.6743 34.5826C82.2059 35.3103 82.9816 35.8225 83.8597 36.0255Z" fill="url(#paint38_linear_32_3448)"/>
<path style="mix-blend-mode:multiply" opacity="0.3" d="M83.8597 36.0255C91.5103 37.792 110.906 41.8743 119.432 40.0394C124.302 38.9941 125.538 35.556 125.435 32.1161C125.278 32.3308 120.414 38.9152 114.582 36.3837C108.65 33.8104 104.845 31.0119 97.2356 33.1386C90.9705 34.889 84.6275 31.4062 80.9624 32.0572C80.8877 32.9564 81.1394 33.8525 81.6715 34.5813C82.2036 35.31 82.9804 35.8227 83.8597 36.0255V36.0255Z" fill="url(#paint39_linear_32_3448)"/>
<path d="M94.574 98.0899L148.606 99.0573L116.14 93.4926L94.574 98.0899Z" fill="url(#paint40_linear_32_3448)"/>
<path d="M119.139 57.6145V97.6225L94.4829 98.0901V59.325L119.139 57.6145Z" fill="url(#paint41_linear_32_3448)"/>
<path d="M148.727 59.3183V99.0574L119.139 97.6225V57.6145L129.86 58.2341L139.767 58.8014L148.727 59.3183Z" fill="url(#paint42_linear_32_3448)"/>
<g style="mix-blend-mode:soft-light">
<path d="M129.804 58.2332V76.3404L139.724 76.6692V58.8033L129.804 58.2332Z" fill="white"/>
</g>
<path d="M110.101 93.9098H100.948C98.5728 93.9098 96.7844 91.9038 96.7844 89.5272V59.0769C96.7844 58.8289 96.8186 58.5923 97.0068 58.4288L105.258 51.2011C105.341 51.127 105.439 51.0703 105.544 51.0343C105.65 50.9983 105.762 50.9837 105.873 50.9914C105.984 50.9991 106.093 51.0289 106.193 51.0791C106.292 51.1293 106.381 51.1989 106.453 51.2838C106.53 51.367 106.589 51.4646 106.628 51.5708C106.666 51.6771 106.683 51.79 106.678 51.9029C106.673 52.0158 106.645 52.1266 106.597 52.2288C106.548 52.331 106.48 52.4226 106.396 52.4982L98.4284 59.4684V89.5272C98.4284 90.9526 99.5212 92.2659 100.948 92.2659H110.101C111.509 92.2659 112.667 91.0457 112.69 89.6384L113.132 58.1637C113.133 57.9638 113.2 57.7699 113.322 57.6116L119.171 50.4561C119.242 50.3688 119.329 50.2963 119.428 50.2428C119.527 50.1892 119.636 50.1558 119.748 50.1443C119.86 50.1328 119.973 50.1434 120.081 50.1756C120.189 50.2079 120.29 50.261 120.377 50.3321C120.464 50.4032 120.537 50.4907 120.59 50.5898C120.644 50.6889 120.677 50.7976 120.689 50.9096C120.7 51.0216 120.69 51.1348 120.658 51.2427C120.625 51.3506 120.572 51.4511 120.501 51.5385L114.842 58.4516L114.403 89.6203C114.378 91.9675 112.444 93.9098 110.101 93.9098Z" fill="#F4F7FA"/>
<path d="M97.4968 59.9379C97.2741 59.9358 97.0609 59.8474 96.9019 59.6914C96.743 59.5354 96.6507 59.3239 96.6444 59.1012C96.6381 58.8786 96.7184 58.6622 96.8683 58.4975C97.0182 58.3327 97.2261 58.2325 97.4484 58.2179L113.942 57.279C114.055 57.2728 114.168 57.2888 114.274 57.3262C114.381 57.3636 114.479 57.4217 114.563 57.497C114.648 57.5724 114.716 57.6636 114.765 57.7654C114.814 57.8673 114.842 57.9777 114.849 58.0906C114.855 58.2034 114.839 58.3163 114.801 58.4229C114.764 58.5295 114.706 58.6277 114.631 58.7119C114.555 58.7961 114.464 58.8646 114.362 58.9135C114.26 58.9625 114.15 58.9909 114.037 58.9971L97.5444 59.936L97.4968 59.9379Z" fill="#F4F7FA"/>
</g>
<defs>
<linearGradient id="paint0_linear_32_3448" x1="55.8445" y1="158.727" x2="314.723" y2="289.009" gradientUnits="userSpaceOnUse">
<stop stop-color="#AA80F9"/>
<stop offset="1" stop-color="#6165D7"/>
</linearGradient>
<linearGradient id="paint1_linear_32_3448" x1="115.794" y1="181.616" x2="165.078" y2="181.616" gradientUnits="userSpaceOnUse">
<stop stop-color="#FF9085"/>
<stop offset="1" stop-color="#FB6FBB"/>
</linearGradient>
<linearGradient id="paint2_linear_32_3448" x1="129865" y1="202607" x2="244628" y2="333353" gradientUnits="userSpaceOnUse">
<stop stop-color="#FF9085"/>
<stop offset="1" stop-color="#FB6FBB"/>
</linearGradient>
<linearGradient id="paint3_linear_32_3448" x1="53688.6" y1="279179" x2="75764.3" y2="279210" gradientUnits="userSpaceOnUse">
<stop stop-color="#FF9085"/>
<stop offset="1" stop-color="#FB6FBB"/>
</linearGradient>
<linearGradient id="paint4_linear_32_3448" x1="246.745" y1="98.9871" x2="211.946" y2="102.854" gradientUnits="userSpaceOnUse">
<stop stop-color="#893976"/>
<stop offset="1" stop-color="#311944"/>
</linearGradient>
<linearGradient id="paint5_linear_32_3448" x1="-258905" y1="48912.6" x2="-152773" y2="194837" gradientUnits="userSpaceOnUse">
<stop stop-color="#FF9085"/>
<stop offset="1" stop-color="#FB6FBB"/>
</linearGradient>
<linearGradient id="paint6_linear_32_3448" x1="62.4295" y1="269.117" x2="56.1285" y2="247.257" gradientUnits="userSpaceOnUse">
<stop stop-color="#444B8C"/>
<stop offset="1" stop-color="#26264F"/>
</linearGradient>
<linearGradient id="paint7_linear_32_3448" x1="56.7963" y1="264.8" x2="57.2786" y2="229.826" gradientUnits="userSpaceOnUse">
<stop stop-color="#FFC444"/>
<stop offset="1" stop-color="#F36F56"/>
</linearGradient>
<linearGradient id="paint8_linear_32_3448" x1="6366.38" y1="10188.9" x2="6366.38" y2="8869.21" gradientUnits="userSpaceOnUse">
<stop stop-color="#FFC444"/>
<stop offset="1" stop-color="#F36F56"/>
</linearGradient>
<linearGradient id="paint9_linear_32_3448" x1="13592.1" y1="15264.3" x2="13283.9" y2="13990.4" gradientUnits="userSpaceOnUse">
<stop stop-color="#444B8C"/>
<stop offset="1" stop-color="#26264F"/>
</linearGradient>
<linearGradient id="paint10_linear_32_3448" x1="54.8154" y1="189.292" x2="50.6073" y2="261.515" gradientUnits="userSpaceOnUse">
<stop stop-color="#311944"/>
<stop offset="1" stop-color="#893976"/>
</linearGradient>
<linearGradient id="paint11_linear_32_3448" x1="34281" y1="147799" x2="24592.6" y2="203032" gradientUnits="userSpaceOnUse">
<stop stop-color="#311944"/>
<stop offset="1" stop-color="#893976"/>
</linearGradient>
<linearGradient id="paint12_linear_32_3448" x1="54470.7" y1="183891" x2="39933.9" y2="183697" gradientUnits="userSpaceOnUse">
<stop stop-color="#311944"/>
<stop offset="1" stop-color="#893976"/>
</linearGradient>
<linearGradient id="paint13_linear_32_3448" x1="97419" y1="187217" x2="132755" y2="118406" gradientUnits="userSpaceOnUse">
<stop stop-color="#FF9085"/>
<stop offset="1" stop-color="#FB6FBB"/>
</linearGradient>
<linearGradient id="paint14_linear_32_3448" x1="4847.53" y1="49253.8" x2="-9658.95" y2="78775.3" gradientUnits="userSpaceOnUse">
<stop stop-color="#FF9085"/>
<stop offset="1" stop-color="#FB6FBB"/>
</linearGradient>
<linearGradient id="paint15_linear_32_3448" x1="21878.5" y1="16236.6" x2="20747.5" y2="17917.6" gradientUnits="userSpaceOnUse">
<stop stop-color="#FFC444"/>
<stop offset="1" stop-color="#F36F56"/>
</linearGradient>
<linearGradient id="paint16_linear_32_3448" x1="58242" y1="37035.6" x2="54226.9" y2="43789" gradientUnits="userSpaceOnUse">
<stop stop-color="#444B8C"/>
<stop offset="1" stop-color="#26264F"/>
</linearGradient>
<linearGradient id="paint17_linear_32_3448" x1="17787.6" y1="4908.08" x2="17847.1" y2="4610.5" gradientUnits="userSpaceOnUse">
<stop stop-color="#AA80F9"/>
<stop offset="1" stop-color="#6165D7"/>
</linearGradient>
<linearGradient id="paint18_linear_32_3448" x1="7405.63" y1="10479.2" x2="7126.17" y2="10701.8" gradientUnits="userSpaceOnUse">
<stop stop-color="#FFC444"/>
<stop offset="1" stop-color="#F36F56"/>
</linearGradient>
<linearGradient id="paint19_linear_32_3448" x1="41829.2" y1="82220" x2="57739.7" y2="54560.3" gradientUnits="userSpaceOnUse">
<stop stop-color="#FF9085"/>
<stop offset="1" stop-color="#FB6FBB"/>
</linearGradient>
<linearGradient id="paint20_linear_32_3448" x1="78961.6" y1="105758" x2="98785.3" y2="64133.3" gradientUnits="userSpaceOnUse">
<stop stop-color="#444B8C"/>
<stop offset="1" stop-color="#26264F"/>
</linearGradient>
<linearGradient id="paint21_linear_32_3448" x1="132.203" y1="151.825" x2="99.6114" y2="206.869" gradientUnits="userSpaceOnUse">
<stop stop-color="#FFC444"/>
<stop offset="0.31" stop-color="#FBA94A"/>
<stop offset="1" stop-color="#F36F56"/>
</linearGradient>
<linearGradient id="paint22_linear_32_3448" x1="171378" y1="85659.6" x2="150069" y2="110231" gradientUnits="userSpaceOnUse">
<stop stop-color="#FFC444"/>
<stop offset="0.31" stop-color="#FBA94A"/>
<stop offset="1" stop-color="#F36F56"/>
</linearGradient>
<linearGradient id="paint23_linear_32_3448" x1="233525" y1="146968" x2="193678" y2="192916" gradientUnits="userSpaceOnUse">
<stop stop-color="#FFC444"/>
<stop offset="0.31" stop-color="#FBA94A"/>
<stop offset="1" stop-color="#F36F56"/>
</linearGradient>
<linearGradient id="paint24_linear_32_3448" x1="173783" y1="147097" x2="136358" y2="182478" gradientUnits="userSpaceOnUse">
<stop stop-color="#FFC444"/>
<stop offset="0.31" stop-color="#FBA94A"/>
<stop offset="1" stop-color="#F36F56"/>
</linearGradient>
<linearGradient id="paint25_linear_32_3448" x1="-293118" y1="6248.1" x2="-352140" y2="6248.1" gradientUnits="userSpaceOnUse">
<stop stop-color="#AA80F9"/>
<stop offset="1" stop-color="#6165D7"/>
</linearGradient>
<linearGradient id="paint26_linear_32_3448" x1="-290189" y1="3079.6" x2="-347756" y2="3079.6" gradientUnits="userSpaceOnUse">
<stop stop-color="#AA80F9"/>
<stop offset="1" stop-color="#6165D7"/>
</linearGradient>
<linearGradient id="paint27_linear_32_3448" x1="126.7" y1="55.6104" x2="119.139" y2="55.6104" gradientUnits="userSpaceOnUse">
<stop stop-color="#40447E"/>
<stop offset="1" stop-color="#3C3B6B"/>
</linearGradient>
<linearGradient id="paint28_linear_32_3448" x1="-192235" y1="13276.1" x2="-225580" y2="13276.1" gradientUnits="userSpaceOnUse">
<stop stop-color="#AA80F9"/>
<stop offset="1" stop-color="#6165D7"/>
</linearGradient>
<linearGradient id="paint29_linear_32_3448" x1="-100740" y1="11638.3" x2="-109925" y2="11638.3" gradientUnits="userSpaceOnUse">
<stop stop-color="#AA80F9"/>
<stop offset="1" stop-color="#6165D7"/>
</linearGradient>
<linearGradient id="paint30_linear_32_3448" x1="-207315" y1="5579.81" x2="-271410" y2="5579.81" gradientUnits="userSpaceOnUse">
<stop stop-color="#AA80F9"/>
<stop offset="1" stop-color="#6165D7"/>
</linearGradient>
<linearGradient id="paint31_linear_32_3448" x1="-206604" y1="4173.14" x2="-270060" y2="4173.14" gradientUnits="userSpaceOnUse">
<stop stop-color="#AA80F9"/>
<stop offset="1" stop-color="#6165D7"/>
</linearGradient>
<linearGradient id="paint32_linear_32_3448" x1="-89535.1" y1="14709.3" x2="-96104.5" y2="14709.3" gradientUnits="userSpaceOnUse">
<stop stop-color="#AA80F9"/>
<stop offset="1" stop-color="#6165D7"/>
</linearGradient>
<linearGradient id="paint33_linear_32_3448" x1="-87468.5" y1="14709.3" x2="-94037.9" y2="14709.3" gradientUnits="userSpaceOnUse">
<stop stop-color="#AA80F9"/>
<stop offset="1" stop-color="#6165D7"/>
</linearGradient>
<linearGradient id="paint34_linear_32_3448" x1="33180.5" y1="8459.03" x2="34079.4" y2="8459.03" gradientUnits="userSpaceOnUse">
<stop stop-color="#40447E"/>
<stop offset="1" stop-color="#3C3B6B"/>
</linearGradient>
<linearGradient id="paint35_linear_32_3448" x1="24217.5" y1="6678.3" x2="24699.9" y2="6678.3" gradientUnits="userSpaceOnUse">
<stop stop-color="#40447E"/>
<stop offset="1" stop-color="#3C3B6B"/>
</linearGradient>
<linearGradient id="paint36_linear_32_3448" x1="25602.5" y1="1161.24" x2="26104.1" y2="1161.24" gradientUnits="userSpaceOnUse">
<stop stop-color="#40447E"/>
<stop offset="1" stop-color="#3C3B6B"/>
</linearGradient>
<linearGradient id="paint37_linear_32_3448" x1="-109029" y1="11202.9" x2="-118214" y2="11202.9" gradientUnits="userSpaceOnUse">
<stop stop-color="#AA80F9"/>
<stop offset="1" stop-color="#6165D7"/>
</linearGradient>
<linearGradient id="paint38_linear_32_3448" x1="-163047" y1="5614.53" x2="-183878" y2="5614.53" gradientUnits="userSpaceOnUse">
<stop stop-color="#AA80F9"/>
<stop offset="1" stop-color="#6165D7"/>
</linearGradient>
<linearGradient id="paint39_linear_32_3448" x1="-163055" y1="3284.31" x2="-183887" y2="3284.31" gradientUnits="userSpaceOnUse">
<stop stop-color="#AA80F9"/>
<stop offset="1" stop-color="#6165D7"/>
</linearGradient>
<linearGradient id="paint40_linear_32_3448" x1="53869.4" y1="5731.36" x2="84591.9" y2="5731.36" gradientUnits="userSpaceOnUse">
<stop stop-color="#FFC444"/>
<stop offset="0.31" stop-color="#FBA94A"/>
<stop offset="1" stop-color="#F36F56"/>
</linearGradient>
<linearGradient id="paint41_linear_32_3448" x1="30692.4" y1="25488" x2="17684.1" y2="38871.1" gradientUnits="userSpaceOnUse">
<stop stop-color="#FFC444"/>
<stop offset="0.31" stop-color="#FBA94A"/>
<stop offset="1" stop-color="#F36F56"/>
</linearGradient>
<linearGradient id="paint42_linear_32_3448" x1="45223.7" y1="26171.2" x2="31951" y2="42174.6" gradientUnits="userSpaceOnUse">
<stop stop-color="#FFC444"/>
<stop offset="0.31" stop-color="#FBA94A"/>
<stop offset="1" stop-color="#F36F56"/>
</linearGradient>
<clipPath id="clip0_32_3448">
<rect width="300" height="275.811" fill="white"/>
</clipPath>
</defs>
</svg>
