<svg width="300" height="294" viewBox="0 0 300 294" fill="none" xmlns="http://www.w3.org/2000/svg">
<g clip-path="url(#clip0_32_3054)">
<path d="M272.105 229.954C211.601 307.339 69.9205 308.582 30.6976 265.597C15.0441 248.444 10.9104 218.982 4.83485 175.707C1.91012 154.875 1.49184 138.083 1.24283 126.561C0.386597 87.3706 -0.0393344 67.7756 6.26882 54.4428C24.3403 16.2804 87.1161 1.42743 127.692 0.739391C130.524 0.690609 133.381 0.709175 136.262 0.79509C183.77 2.21486 237.386 21.989 270.451 64.248C273.907 68.6571 277.098 73.2671 280.008 78.0536C310.189 127.688 305.11 187.738 272.105 229.954Z" fill="#F4F7FA"/>
<path d="M126.268 233.013C136.959 225.464 138.87 205.687 136.252 192.415C133.194 176.919 125.192 176.51 123.754 164.273C121.074 141.491 147.721 133.571 146.84 110.382C146.121 91.4247 128.039 89.5222 128.198 68.4954C128.312 53.3213 137.782 47.0164 133.528 33.7754C133.165 32.6439 129.068 20.4929 118.691 17.6533C108.216 14.7865 97.4695 23.0823 92.1519 29.764C82.3227 42.116 89.5996 50.7963 83.3263 69.712C74.787 95.4656 56.2513 94.6181 53.8825 114.88C51.9265 131.613 64.1147 136.05 61.5765 154.559C59.2208 171.747 47.855 174.166 47.3788 185.881C46.2823 212.831 104.46 248.412 126.268 233.013Z" fill="url(#paint0_linear_32_3054)"/>
<g style="mix-blend-mode:soft-light" opacity="0.7">
<g style="mix-blend-mode:soft-light" opacity="0.7">
<path d="M110.851 245.673C110.786 245.673 110.722 245.655 110.666 245.622C100.63 239.724 92.2675 231.992 85.8108 222.63C79.6872 213.749 73.3551 204.568 73.8662 193.085C74.255 184.348 78.3199 179.68 83.4671 173.77C88.374 168.137 94.4812 161.124 98.7569 148.138C101.196 140.726 104.232 131.5 101.891 120.456C100.533 114.046 98.0252 110.418 95.8115 107.218C93.4863 103.862 91.4877 100.972 91.8711 96.006C92.4837 88.0509 96.7321 82.9703 101.651 77.0881C104.635 73.5201 107.72 69.8309 110.425 65.0397C118.03 51.5716 118.232 33.44 111.025 11.1474C111.01 11.1014 111.004 11.053 111.008 11.0048C111.012 10.9567 111.025 10.9098 111.047 10.8668C111.069 10.8238 111.1 10.7855 111.137 10.7542C111.173 10.7229 111.216 10.6991 111.262 10.6843C111.308 10.6695 111.356 10.6638 111.404 10.6677C111.453 10.6716 111.499 10.6849 111.542 10.7069C111.585 10.7289 111.624 10.7592 111.655 10.796C111.686 10.8327 111.71 10.8753 111.725 10.9213C118.997 33.4192 118.776 51.7474 111.07 65.4012C108.331 70.2514 105.225 73.9668 102.223 77.5588C97.3841 83.3471 93.2056 88.3415 92.6126 96.0617C92.25 100.768 94.0903 103.429 96.4209 106.8C98.6728 110.057 101.226 113.749 102.615 120.303C104.996 131.542 101.926 140.871 99.4603 148.371C95.1409 161.498 88.9758 168.575 84.0285 174.254C78.9763 180.054 74.9856 184.637 74.6077 193.117C74.1086 204.354 80.3687 213.431 86.4235 222.211C92.819 231.486 101.103 239.149 111.046 244.988C111.115 245.029 111.169 245.092 111.199 245.167C111.23 245.241 111.234 245.324 111.213 245.402C111.192 245.48 111.146 245.548 111.082 245.597C111.018 245.646 110.939 245.673 110.859 245.673H110.851Z" fill="white"/>
</g>
</g>
<g style="mix-blend-mode:soft-light" opacity="0.7">
<g style="mix-blend-mode:soft-light" opacity="0.7">
<path d="M102.996 126.075C102.921 126.074 102.848 126.052 102.787 126.009C102.726 125.967 102.679 125.907 102.653 125.838C102.626 125.768 102.621 125.692 102.639 125.62C102.656 125.547 102.695 125.482 102.751 125.432C119.756 110.238 127.747 96.1404 131.454 86.9894C135.471 77.0794 135.469 70.6785 135.468 70.6151C135.467 70.5668 135.477 70.5189 135.495 70.4742C135.513 70.4294 135.54 70.3887 135.573 70.3543C135.607 70.3199 135.648 70.2925 135.692 70.2737C135.737 70.255 135.784 70.2452 135.833 70.2449C135.93 70.2446 136.023 70.2827 136.092 70.3508C136.161 70.4189 136.2 70.5116 136.201 70.6086C136.201 70.8729 136.211 77.1854 132.152 87.2177C128.417 96.4517 120.369 110.672 103.238 125.981C103.171 126.04 103.085 126.073 102.996 126.075Z" fill="white"/>
</g>
</g>
<g style="mix-blend-mode:soft-light" opacity="0.7">
<g style="mix-blend-mode:soft-light" opacity="0.7">
<path d="M94.8155 158.928C94.7307 158.928 94.6486 158.899 94.5829 158.845C85.0901 151.091 77.8733 142.293 73.1302 132.699C69.3506 125.081 67.1017 116.796 66.5107 108.313C65.4983 93.8394 69.6375 83.3724 69.6779 83.2687C69.696 83.2239 69.7227 83.1832 69.7565 83.1488C69.7903 83.1143 69.8306 83.0869 69.875 83.068C69.9195 83.0492 69.9671 83.0393 70.0154 83.0388C70.0637 83.0384 70.1115 83.0475 70.1563 83.0656C70.201 83.0836 70.2418 83.1103 70.2762 83.1442C70.3106 83.178 70.338 83.2182 70.3569 83.2627C70.3758 83.3071 70.3857 83.3548 70.3861 83.403C70.3866 83.4513 70.3775 83.4992 70.3594 83.5439C70.3179 83.6466 66.2366 93.9836 67.2457 108.297C68.1762 121.497 73.7549 140.882 95.0449 158.276C95.1052 158.324 95.1491 158.389 95.1705 158.463C95.1918 158.537 95.1894 158.615 95.1638 158.687C95.1381 158.76 95.0903 158.822 95.0273 158.866C94.9642 158.91 94.889 158.933 94.8123 158.932L94.8155 158.928Z" fill="white"/>
</g>
</g>
<g style="mix-blend-mode:soft-light" opacity="0.7">
<g style="mix-blend-mode:soft-light" opacity="0.7">
<path d="M79.2799 213.209C79.1916 213.209 79.1063 213.177 79.0397 213.119C78.973 213.061 78.9294 212.981 78.9168 212.894C78.9043 212.806 78.9235 212.717 78.9711 212.643C79.0187 212.568 79.0915 212.514 79.1762 212.488C104.25 205.132 117.327 191.765 123.88 181.848C130.972 171.117 132.158 162.031 132.17 161.94C132.186 161.848 132.238 161.765 132.313 161.709C132.389 161.653 132.483 161.628 132.577 161.639C132.67 161.651 132.756 161.698 132.816 161.77C132.876 161.843 132.906 161.936 132.899 162.03C132.887 162.123 131.678 171.381 124.49 182.253C117.868 192.273 104.667 205.775 79.3793 213.194C79.347 213.203 79.3136 213.209 79.2799 213.209Z" fill="white"/>
</g>
</g>
<g style="mix-blend-mode:soft-light" opacity="0.7">
<g style="mix-blend-mode:soft-light" opacity="0.7">
<path d="M111.584 63.0368C111.533 63.0367 111.483 63.0261 111.436 63.0056C111.39 62.9851 111.348 62.9552 111.313 62.9178C96.9725 47.3669 95.2262 31.1367 96.2855 20.2656C97.4345 8.48808 102.042 0.267596 102.089 0.185686C102.141 0.109345 102.22 0.0552904 102.31 0.0342375C102.399 0.0131846 102.494 0.0266711 102.574 0.0720231C102.655 0.117375 102.715 0.191281 102.744 0.279089C102.772 0.366897 102.767 0.462195 102.728 0.546089C102.682 0.626907 98.1411 8.73708 97.0151 20.3639C95.9754 31.081 97.7064 47.0753 111.854 62.411C111.903 62.4634 111.935 62.5289 111.947 62.5994C111.959 62.67 111.95 62.7425 111.922 62.8081C111.893 62.8737 111.846 62.9295 111.786 62.9685C111.726 63.0076 111.656 63.0283 111.584 63.0281V63.0368Z" fill="white"/>
</g>
</g>
<path d="M98.5945 286.633C101.31 287.019 107.555 285.463 109.017 284.386C118.737 277.219 137.816 264.983 140.485 252.495C140.941 250.363 132.1 245.825 131.318 243.54C126.384 239.281 124.408 238.107 121.707 231.752C113.735 212.989 149.587 191.792 119.96 172.68C98.2581 158.681 75.9338 161.322 88.6725 125.152C101.411 88.9814 90.7246 13.6986 44.6803 28.6706C18.2507 37.2635 32.2813 74.8886 14.3955 94.8451C-2.60137 113.809 1.7191 134.479 21.4277 154.118C41.1363 173.758 25.8629 180.455 13.3077 199.47C-1.77353 222.311 35.6036 237.415 53.4468 242.917C67.8215 247.347 101.429 268.326 98.5945 286.633Z" fill="url(#paint1_linear_32_3054)"/>
<g style="mix-blend-mode:soft-light" opacity="0.7">
<g style="mix-blend-mode:soft-light" opacity="0.7">
<path d="M124.131 269.41L124.516 268.973C57.1589 209.551 32.3555 116.605 58.167 20.3421L57.6034 20.1903C45.3715 65.812 44.5273 112.469 55.1647 155.116C66.3481 199.951 90.197 239.473 124.131 269.41Z" fill="#FCFDFE"/>
</g>
<g style="mix-blend-mode:soft-light" opacity="0.7">
<path d="M5.94991 208.245C30.4901 207.075 68.1818 217.267 89.9709 230.961L90.2811 230.467C68.4057 216.717 30.5633 206.486 5.92261 207.659L5.94991 208.245Z" fill="#FCFDFE"/>
</g>
<g style="mix-blend-mode:soft-light" opacity="0.7">
<path d="M111.042 257.593L111.534 257.279C104.348 245.996 103.141 231.514 107.95 214.233C111.475 201.564 118.091 187.712 127.617 173.06L127.128 172.742C117.57 187.44 110.929 201.345 107.388 214.072C102.534 231.523 103.762 246.167 111.042 257.593Z" fill="#FCFDFE"/>
</g>
<g style="mix-blend-mode:soft-light" opacity="0.7">
<path d="M53.8901 149.004L54.398 148.716C41.9477 126.751 18.042 115.194 0.181294 109.367L0 109.922C17.7624 115.717 41.5316 127.201 53.8901 149.004Z" fill="#FCFDFE"/>
</g>
<g style="mix-blend-mode:soft-light" opacity="0.7">
<path d="M47.6726 91.5404L48.2449 91.6496C53.8148 63.7555 76.2034 44.0032 89.0535 34.7113L88.7116 34.2384C75.7939 43.5849 53.2807 63.4529 47.6726 91.5404Z" fill="#FCFDFE"/>
</g>
</g>
<path d="M297.842 269.049L8.9314 266.537V273.982C8.9314 276.004 10.1906 277.722 11.8976 278.023L93.5891 292.684C94.5559 292.858 95.5415 292.905 96.5204 292.822L294.699 276.106C296.468 275.957 297.839 274.233 297.839 272.157L297.842 269.049Z" fill="url(#paint2_linear_32_3054)"/>
<path d="M204.837 256.979L12.1106 270.601C8.66166 270.845 5.85815 268.255 5.85815 264.813V127.039C5.86278 125.385 6.52388 123.8 7.69622 122.633C8.86857 121.466 10.4563 120.811 12.1106 120.814H204.837C207.677 120.814 209.97 123.335 209.97 126.443V250.989C209.976 254.098 207.679 256.78 204.837 256.979Z" fill="url(#paint3_linear_32_3054)"/>
<path d="M207.91 256.979L15.1807 270.601C11.7317 270.845 8.92822 268.255 8.92822 264.813V127.039C8.93285 125.385 9.59395 123.8 10.7663 122.633C11.9386 121.466 13.5264 120.811 15.1807 120.814H207.91C210.75 120.814 213.043 123.335 213.043 126.443V250.989C213.049 254.098 210.752 256.78 207.91 256.979Z" fill="url(#paint4_linear_32_3054)"/>
<path d="M201.907 248.2L22.4019 260.03C19.5951 260.216 17.3147 258.09 17.3147 255.283V134.66C17.3167 133.31 17.8528 132.015 18.8058 131.059C19.7589 130.103 21.0517 129.562 22.4019 129.555L201.907 128.813C204.251 128.803 206.147 130.868 206.147 133.425V243.293C206.147 245.848 204.251 248.045 201.907 248.2Z" fill="url(#paint5_linear_32_3054)"/>
<path d="M118.353 124.581C118.353 125.861 117.362 126.901 116.136 126.906C114.911 126.91 113.915 125.871 113.915 124.589C113.915 123.307 114.91 122.265 116.136 122.264C117.363 122.263 118.353 123.302 118.353 124.581Z" fill="white"/>
<g style="mix-blend-mode:soft-light" opacity="0.48">
<path d="M161.476 219.191C146.623 211.197 134.937 221.326 123.662 211.328C116.826 205.268 120.183 200.75 111.772 191.695C102.456 181.666 96.3915 185.033 87.0298 176.012C75.1922 164.6 81.1126 155.72 70.9165 147.525C58.5459 137.587 45.2066 146.786 33.4312 137.253C28.3528 133.141 25.5678 127.162 24.1109 120.805H12.5889C11.6193 120.805 10.6893 121.19 10.0034 121.876C9.31758 122.561 8.93198 123.491 8.9314 124.461V267.284C8.9314 269.303 10.5696 270.823 12.5889 270.679L209.01 256.737C209.973 256.669 210.828 256.106 211.377 255.29C196.999 254.766 188.165 249.946 182.518 244.963C171.472 235.215 173.388 225.603 161.476 219.191Z" fill="white"/>
</g>
<path d="M203.102 256.363L8.9314 270.699L93.5957 285.892C94.5625 286.066 95.5481 286.113 96.527 286.029L297.845 269.049L206.195 256.46C205.17 256.319 204.133 256.287 203.102 256.363Z" fill="url(#paint6_linear_32_3054)"/>
<path style="mix-blend-mode:multiply" opacity="0.3" d="M37.2637 271.06L198.917 258.947L248.946 265.763L88.6867 278.711L37.2637 271.06Z" fill="url(#paint7_linear_32_3054)"/>
<path d="M198.172 53.6325V240.038C198.172 244.813 194.391 248.775 189.501 249.089L187.929 249.185L29.4121 258.945C33.489 258.289 36.428 254.857 36.428 250.826V50.9065L144.793 52.7314L198.172 53.6325Z" fill="white"/>
<path d="M181.309 114.949L57.1753 116.052V94.3493L181.309 94.3154V114.949Z" fill="#D8DEE8"/>
<path d="M147.196 133.041L65.0093 134.373V122.112L147.196 121.182V133.041Z" fill="#D8DEE8"/>
<path d="M174.185 132.603L153.99 132.931V121.104L174.185 120.876V132.603Z" fill="#D8DEE8"/>
<path d="M115.721 150.156L65.0093 151.32V139.06L115.721 138.144V150.156Z" fill="#D8DEE8"/>
<path d="M174.185 148.815L153.99 149.278V137.452L174.185 137.088V148.815Z" fill="#D8DEE8"/>
<path d="M129.219 166.361L65.0093 168.268V156.009L129.219 154.414V166.361Z" fill="#D8DEE8"/>
<path d="M174.185 165.026L153.99 165.626V153.8L174.185 153.298V165.026Z" fill="#D8DEE8"/>
<path d="M93.0563 184.195L65.0093 185.217V172.957L93.0563 172.071V184.195Z" fill="#D8DEE8"/>
<path d="M174.185 181.237L153.99 181.974V170.148L174.185 169.51V181.237Z" fill="#D8DEE8"/>
<path d="M57.1753 110.265V208.448L119.432 205.614L181.309 202.794V109.446L57.1753 110.265ZM177.856 199.506L118.133 202.143L60.9879 204.666V113.849L177.854 112.912L177.856 199.506Z" fill="#D8DEE8"/>
<path d="M115.975 213.387L59.1564 216.152C58.0643 216.205 57.1753 217.09 57.1753 218.126V232.094C57.1753 233.132 58.0632 233.923 59.1564 233.863L115.975 230.695C117.019 230.638 117.864 229.77 117.864 228.758V215.128C117.864 214.116 117.019 213.337 115.975 213.387Z" fill="#D8DEE8"/>
<path d="M179.516 210.295L125.627 212.917C124.59 212.967 123.75 213.826 123.75 214.837V228.436C123.75 229.445 124.59 230.217 125.627 230.159L179.516 227.163C179.997 227.133 180.45 226.922 180.782 226.572C181.115 226.223 181.303 225.761 181.309 225.278V211.994C181.311 211.762 181.265 211.533 181.175 211.319C181.084 211.106 180.95 210.914 180.782 210.755C180.614 210.595 180.415 210.472 180.197 210.393C179.979 210.314 179.747 210.281 179.516 210.295Z" fill="#D8DEE8"/>
<path d="M181.309 86.8354L57.1753 86.1746V71.7869L181.309 72.5677V86.8354Z" fill="#D8DEE8"/>
<path d="M236.077 103.321L232.711 103.994C232.711 103.994 215.039 126.547 217.564 135.13C220.089 143.714 232.711 137.151 232.711 137.151L236.077 103.321Z" fill="url(#paint8_linear_32_3054)"/>
<path d="M258.257 263.902C258.825 264.364 258.929 265.516 258.998 266.27C259.028 266.607 259.044 266.775 259.005 266.894C258.731 267.762 257.049 267.852 254.412 268.122C250.243 268.548 249.003 268.877 248.676 268.256C248.37 267.674 249.113 266.727 249.194 266.618C249.642 266.053 250.192 265.848 251.255 265.499C253.221 264.851 254.55 264.497 254.953 264.389C257.464 263.718 257.884 263.598 258.257 263.902Z" fill="url(#paint9_linear_32_3054)"/>
<path d="M255.777 260.094L255.36 264.844C255.478 265.074 256.889 265.762 258.012 265.172L259.083 260.503L255.777 260.094Z" fill="url(#paint10_linear_32_3054)"/>
<path d="M224.173 260.118C224.854 260.87 225.009 262.254 224.417 262.936C223.825 263.619 222.961 263.104 220.485 263.178C217.827 263.258 217.132 263.886 215.327 263.386C214.598 263.184 213.309 262.696 213.333 262.174C213.35 261.808 214.006 261.619 216.197 260.884C219.308 259.842 219.295 259.786 219.954 259.676C221.608 259.401 223.274 259.126 224.173 260.118Z" fill="url(#paint11_linear_32_3054)"/>
<path d="M222.467 255.783L221.134 260.217C221.234 260.455 222.59 261.249 223.755 260.747L225.735 256.443L222.467 255.783Z" fill="url(#paint12_linear_32_3054)"/>
<path d="M234.315 158.663C234.101 175.343 232.883 191.994 230.667 208.527C228.475 224.883 225.31 241.094 221.189 257.074L226.292 258.447C230.607 254.423 236.05 248.089 238.677 239.139C240.307 233.583 239.763 230.729 240.798 223.896C242.445 213.016 245.779 207.316 249.227 198.542C252.324 190.659 255.985 179.089 257.948 163.623L234.315 158.663Z" fill="url(#paint13_linear_32_3054)"/>
<path style="mix-blend-mode:multiply" opacity="0.3" d="M233.048 230.221C234.755 225.507 236.833 224.054 237.76 219.113C238.57 214.804 237.459 213.404 237.424 209.014C237.355 200.267 241.7 197.371 243.147 190.164C243.931 186.258 238.8 176.393 234.093 167.872C234.204 164.729 234.276 161.658 234.311 158.659L257.945 163.62C255.979 179.086 252.321 190.656 249.223 198.539C245.776 207.312 242.441 213.013 240.794 223.892C239.76 230.725 240.304 233.58 238.673 239.135C236.047 248.085 230.604 254.42 226.289 258.443L225.806 258.313C230.156 252.644 231.507 247.829 231.703 244.023C231.9 240.092 230.915 236.119 233.048 230.221Z" fill="url(#paint14_linear_32_3054)"/>
<path d="M250.694 160.415C251.735 179.369 252.584 198.672 253.24 218.324C253.728 233.069 254.088 247.625 254.323 261.992L259.534 262.635C261.921 258.202 263.748 253.489 264.971 248.605C266.828 241.167 266.396 236.749 267.21 229.04C268.123 220.392 269.449 218.508 271.797 207.601C276.564 185.463 278.948 174.394 273.629 167.509C271.904 165.273 266.492 159.67 250.694 160.415Z" fill="url(#paint15_linear_32_3054)"/>
<path d="M274.754 103.901C268.507 102.143 262.087 101.071 255.608 100.703C243.715 100.031 237.766 99.7336 234.276 102.467C223.447 110.946 233.709 141.254 229.85 157.183C226.603 170.582 226.484 170.815 226.484 170.815C225.72 172.313 224.472 174.395 224.969 176.874C225.359 178.825 226.835 181.066 228.84 181.756C233.008 183.189 235.393 176.527 242.305 174.518C249.527 172.418 257.608 176.593 267.826 181.864C274.33 185.221 276.55 187.362 278.828 186.3C283.215 184.254 282.011 173.039 281.521 168.459C279.575 150.259 277.385 128.954 274.754 103.901Z" fill="url(#paint16_linear_32_3054)"/>
<path d="M244.914 134.794C245.228 134.724 245.788 132.633 244.409 132.017C238.184 129.24 233.362 134.738 232.723 136.43L232.079 138.122C232.079 138.122 235.171 138.363 237.09 137.719C239.009 137.074 242.356 135.364 244.914 134.794Z" fill="url(#paint17_linear_32_3054)"/>
<path d="M227.9 142.669L238.856 143.222C239.275 143.243 239.777 142.723 239.673 142.369L234.555 125.814C234.507 125.677 234.415 125.559 234.293 125.48C234.172 125.401 234.027 125.365 233.882 125.377L223.375 125.607C223.033 125.628 222.845 126.302 222.938 126.635L227.292 142.196C227.334 142.327 227.414 142.442 227.522 142.527C227.631 142.611 227.762 142.661 227.9 142.669Z" fill="url(#paint18_linear_32_3054)"/>
<path d="M228.098 142.316L239.114 142.834C239.536 142.853 239.827 142.551 239.724 142.197L234.809 125.349C234.761 125.211 234.668 125.093 234.546 125.014C234.423 124.935 234.278 124.899 234.133 124.912L223.61 125.534C223.53 125.539 223.451 125.562 223.381 125.601C223.311 125.64 223.25 125.695 223.204 125.761C223.157 125.827 223.127 125.902 223.113 125.982C223.1 126.061 223.106 126.143 223.128 126.22L227.497 141.848C227.539 141.977 227.618 142.091 227.725 142.174C227.833 142.258 227.962 142.307 228.098 142.316Z" fill="url(#paint19_linear_32_3054)"/>
<path style="mix-blend-mode:multiply" opacity="0.3" d="M233.66 132.27C233.332 133.799 231.955 133.472 230.831 135.328C229.403 137.683 230.771 139.761 229.462 140.624C229.064 140.887 228.389 141.045 227.176 140.733L227.488 141.851C227.53 141.982 227.61 142.097 227.719 142.181C227.828 142.266 227.96 142.315 228.097 142.322L239.114 142.84C239.536 142.86 239.827 142.557 239.724 142.203L234.808 125.349C234.76 125.211 234.668 125.093 234.545 125.014C234.423 124.935 234.278 124.899 234.132 124.912L232.551 125.006C232.341 125.646 232.238 126.318 232.247 126.992C232.297 129.527 234.044 130.476 233.66 132.27Z" fill="url(#paint20_linear_32_3054)"/>
<path d="M223.077 131.034C223.016 130.769 223.147 130.496 223.343 130.481C224.145 130.423 226.005 130.4 227.031 131.289C228.365 132.445 230.089 134.553 228.637 135.617L227.28 136.61C227.253 136.632 227.22 136.647 227.186 136.654C227.152 136.66 227.116 136.659 227.083 136.649C226.601 136.499 224.571 135.862 224.352 135.705C224.149 135.561 223.376 132.315 223.077 131.034Z" fill="url(#paint21_linear_32_3054)"/>
<path style="mix-blend-mode:multiply" opacity="0.3" d="M232.207 175.356C233.381 173.319 233.332 170.244 235.909 168.792C237.412 167.946 238.583 168.342 240.622 168.288C246.7 168.125 247.863 164.302 252.067 164.08C258.578 163.736 261.706 172.593 265.363 171.317C267.752 170.484 269.288 165.708 268.056 162.06C266.338 156.974 260.452 157.671 252.74 150.783C249.441 147.834 244.709 142.52 246.008 140.181C247.373 137.722 253.85 141.328 258.631 137.656C261.42 135.512 261.064 132.863 263.344 128.062C264.579 125.46 269.1 118.695 275.827 114.134C277.989 134.815 279.846 152.796 281.521 168.456C282.011 173.035 283.215 184.25 278.828 186.297C276.55 187.359 274.33 185.218 267.826 181.861C257.608 176.587 249.527 172.415 242.305 174.515C235.396 176.523 233.008 183.185 228.84 181.753C227.539 181.305 226.467 180.201 225.763 178.949C229.48 178.281 231.321 176.89 232.207 175.356Z" fill="url(#paint22_linear_32_3054)"/>
<path d="M249.542 91.6519C249.535 92.5561 251.784 97.0852 254.816 99.2815C257.874 101.497 261.726 101.376 262.873 101.661C265.532 102.316 265.874 102.302 265.931 102.567C266.217 103.854 258.965 108.246 251.473 107.184C246.886 106.538 242.716 103.921 242.971 102.547C243.227 101.173 247.809 101.907 249.174 99.4049C250.125 97.6651 249.065 95.1947 247.802 93.1492C249.023 90.8655 248.324 93.9344 249.542 91.6519Z" fill="url(#paint23_linear_32_3054)"/>
<path d="M241.494 93.7453C239.901 92.9098 238.764 90.6698 239.213 88.7029C239.599 87.009 241.041 86.1101 241.904 85.5717C244.407 84.0111 248.271 83.5338 250.587 85.4199C251.96 86.5372 251.893 90.2428 251.914 90.8926C251.94 91.6276 251.561 92.0645 251.336 92.735C251.025 93.6655 250.546 95.1377 249.784 97.5819C249.344 97.037 248.857 96.5312 248.33 96.0704C247.645 95.4713 246.887 94.9622 246.073 94.5556C243.896 93.5268 243.005 94.5371 241.494 93.7453Z" fill="url(#paint24_linear_32_3054)"/>
<path d="M251.343 95.0919C251.343 95.0919 250.956 98.7713 247.384 100.188C244.185 101.456 240.434 94.714 241.716 92.2993C242.144 91.4933 243.371 90.6611 244.591 90.4525C245.31 90.3291 245.651 90.4919 246.824 90.268C247.906 90.0605 248.128 89.8311 248.534 89.9316C249.043 90.0659 249.666 90.6906 250.022 93.0114C250.33 92.1377 250.932 91.5654 251.551 91.5643C251.767 91.5759 251.976 91.6474 252.155 91.7707C252.962 92.3605 252.719 93.7191 251.343 95.0919Z" fill="url(#paint25_linear_32_3054)"/>
<path d="M248.478 89.4455C248.382 89.629 249.103 89.9697 249.512 90.7441C250.305 92.2457 249.621 94.8221 248.115 95.7285C247.223 96.2648 246.695 95.8225 245.072 96.3925C244.281 96.673 243.54 97.0786 242.877 97.5939C243.187 99.5062 244.44 100.966 245.935 101.211C247.543 101.475 248.848 100.235 249.393 99.7159C249.759 99.3686 250.929 98.259 251.052 96.6459C251.178 94.964 250.06 94.5163 250.506 93.2112C250.724 92.5559 251.209 92.0841 251.352 90.945C251.383 90.7002 251.396 90.4534 251.388 90.2067C250.179 89.7404 248.619 89.1845 248.478 89.4455Z" fill="url(#paint26_linear_32_3054)"/>
<path d="M265.531 109.043C267.347 106.288 270.961 103.582 274.283 103.826C283.988 104.526 295.95 130.667 287.748 141.022C281.487 148.925 262.146 149.309 244.493 135.636V131.092C253.179 132.611 260.381 133.619 265.699 134.29C269.017 134.707 272.322 135.084 272.937 133.784C273.867 131.818 267.223 129.006 264.69 121.661C264.341 120.654 262.119 114.218 265.531 109.043Z" fill="url(#paint27_linear_32_3054)"/>
<g style="mix-blend-mode:multiply" opacity="0.7">
<g style="mix-blend-mode:multiply" opacity="0.7">
<path d="M198.172 48.4906V88.9629L173.265 88.8853L168.546 94.3187L161.588 102.317C161.271 102.69 160.835 102.941 160.355 103.027L160.315 103.068C158.326 105.313 155.898 104.322 155.898 102.288V88.7281L152.67 88.6986C150.757 88.6804 148.918 87.9517 147.512 86.6541C146.676 85.8949 146.009 84.9686 145.554 83.9352C145.099 82.9018 144.865 81.7843 144.869 80.655V47.571L198.172 48.4906Z" fill="#D8DEE8"/>
</g>
</g>
<path style="mix-blend-mode:multiply" opacity="0.1" d="M36.5864 194.694L37.2635 268.608L48.8041 267.972L36.5864 194.694Z" fill="url(#paint28_linear_32_3054)"/>
<path d="M170.959 263.268C171.229 265.151 170.042 266.791 168.315 266.912L52.1066 275.217C50.0032 275.364 47.3722 273.622 47.0828 271.534L36.5863 194.694C36.3035 192.619 38.4899 190.777 40.6032 190.769L157.008 188.366C158.744 188.36 160.378 189.882 160.647 191.752L170.959 263.268Z" fill="url(#paint29_linear_32_3054)"/>
<path d="M173.257 263.366C173.529 265.261 172.333 266.91 170.595 267.031L52.976 275.217C50.8606 275.365 48.8893 273.767 48.602 271.668L38.0389 194.417C37.7539 192.335 39.2654 190.627 41.3896 190.62L159.216 188.049C160.964 188.041 162.609 189.578 162.878 191.452L173.257 263.366Z" fill="url(#paint30_linear_32_3054)"/>
<g opacity="0.7">
<path opacity="0.7" d="M82.6122 248.318L62.5464 249.167C61.641 249.206 60.7542 248.552 60.5805 247.713L59.6074 243.116C59.4305 242.276 60.029 241.562 60.9366 241.529L81.0537 240.815C81.9274 240.783 82.7847 241.432 82.9551 242.254L83.89 246.763C84.0603 247.579 83.4859 248.281 82.6122 248.318Z" fill="#F4F7FA"/>
<path opacity="0.7" d="M108.403 247.226L89.2272 248.037C88.3633 248.075 87.5158 247.435 87.3465 246.618L86.4182 242.124C86.2478 241.302 86.8201 240.605 87.6873 240.574L106.909 239.886C107.746 239.856 108.563 240.491 108.727 241.296L109.621 245.704C109.787 246.504 109.237 247.191 108.403 247.226Z" fill="#F4F7FA"/>
<path opacity="0.7" d="M133.068 246.182L114.727 246.959C113.901 246.994 113.089 246.367 112.929 245.566L112.041 241.17C111.878 240.368 112.425 239.687 113.254 239.657L131.643 239.001C132.046 238.999 132.438 239.134 132.754 239.385C133.07 239.635 133.292 239.985 133.382 240.378L134.237 244.691C134.279 244.868 134.28 245.053 134.241 245.23C134.202 245.408 134.124 245.575 134.011 245.718C133.899 245.861 133.756 245.977 133.593 246.057C133.43 246.138 133.25 246.18 133.068 246.182Z" fill="#F4F7FA"/>
<path opacity="0.7" d="M156.683 245.184L139.121 245.926C138.722 245.93 138.333 245.797 138.02 245.549C137.706 245.3 137.488 244.952 137.4 244.562L136.55 240.263C136.395 239.477 136.917 238.811 137.711 238.783L155.318 238.153C156.082 238.124 156.834 238.734 156.983 239.504L157.802 243.726C157.951 244.494 157.447 245.15 156.683 245.184Z" fill="#F4F7FA"/>
</g>
<path d="M70.4425 229.975L60.8667 230.302C59.1193 230.362 57.4811 228.984 57.2397 227.238L55.9292 217.721C55.69 215.974 56.9317 214.52 58.6857 214.481L68.2691 214.276C69.9925 214.238 71.5936 215.616 71.8317 217.334L73.1324 226.732C73.3716 228.456 72.1615 229.916 70.4425 229.975Z" fill="url(#paint31_linear_32_3054)"/>
<path d="M69.6443 229.091L61.4183 229.37C59.7987 229.424 58.297 228.155 58.0742 226.542L56.9504 218.373C56.732 216.76 57.87 215.424 59.4918 215.382L67.7243 215.194C69.3199 215.158 70.7954 216.425 71.016 218.019L72.1332 226.101C72.3539 227.694 71.2388 229.037 69.6443 229.091ZM59.5475 215.787C58.1518 215.819 57.1689 216.975 57.3633 218.363L58.4871 226.529C58.6782 227.918 59.9713 229.01 61.3659 228.965L69.5919 228.688C70.9658 228.641 71.9268 227.487 71.7357 226.111L70.6185 218.029C70.4284 216.655 69.1572 215.563 67.7789 215.595L59.5475 215.787Z" fill="url(#paint32_linear_32_3054)"/>
<path d="M57.2944 219.38L70.9537 219.026L57.2944 219.38Z" fill="#F4F7FA"/>
<path d="M70.9821 219.227L57.3228 219.583L57.2671 219.177L70.9264 218.825L70.9821 219.227Z" fill="url(#paint33_linear_32_3054)"/>
<path d="M57.717 222.451L71.3687 222.063L57.717 222.451Z" fill="#F4F7FA"/>
<path d="M71.4015 222.264L57.7455 222.654L57.6887 222.248L71.3458 221.862L71.4015 222.264Z" fill="url(#paint34_linear_32_3054)"/>
<path d="M58.1396 225.525L71.7913 225.106L58.1396 225.525Z" fill="#F4F7FA"/>
<path d="M71.8218 225.304L58.168 225.725L58.1123 225.319L71.7661 224.902L71.8218 225.304Z" fill="url(#paint35_linear_32_3054)"/>
<path d="M67.2195 227.5L63.4036 227.625C62.9197 227.628 62.4505 227.458 62.0815 227.145C61.7124 226.832 61.4681 226.397 61.393 225.919L60.4101 218.803C60.3737 218.581 60.386 218.354 60.446 218.138C60.5061 217.921 60.6125 217.72 60.7579 217.548C60.9033 217.377 61.0842 217.239 61.2881 217.144C61.4921 217.049 61.7142 217 61.9391 216.999L65.7615 216.907C66.2431 216.908 66.7087 217.08 67.0746 217.393C67.4406 217.707 67.6828 218.14 67.7579 218.616L68.7409 225.69C68.7774 225.912 68.7656 226.139 68.7062 226.356C68.6468 226.572 68.5412 226.773 68.3966 226.945C68.2521 227.117 68.072 227.256 67.8688 227.352C67.6656 227.447 67.4441 227.498 67.2195 227.5Z" fill="#FEC045"/>
<path d="M67.2469 227.702L63.432 227.826C62.8921 227.832 62.3682 227.643 61.9563 227.293C61.5444 226.944 61.2719 226.459 61.1888 225.925L60.2059 218.809C60.1647 218.561 60.1778 218.308 60.2443 218.066C60.3108 217.825 60.4291 217.6 60.591 217.409C60.7529 217.217 60.9545 217.064 61.1818 216.958C61.4091 216.852 61.6567 216.797 61.9074 216.797L65.7299 216.705C66.8089 216.679 67.8049 217.534 67.9546 218.61L68.932 225.684C69.0794 226.762 68.3248 227.667 67.2469 227.702ZM61.9675 217.201C61.7682 217.201 61.5713 217.244 61.3904 217.328C61.2096 217.411 61.0491 217.533 60.9203 217.685C60.7914 217.837 60.6971 218.016 60.6441 218.208C60.5911 218.4 60.5805 218.601 60.6132 218.798L61.5962 225.912C61.662 226.335 61.8782 226.721 62.2051 226.998C62.532 227.275 62.9478 227.426 63.3763 227.421L67.1911 227.298C67.3893 227.295 67.5845 227.25 67.7633 227.165C67.9422 227.079 68.1006 226.957 68.2276 226.805C68.3546 226.652 68.4471 226.475 68.499 226.284C68.5508 226.092 68.5607 225.892 68.5279 225.697L67.545 218.621C67.4794 218.2 67.2653 217.816 66.9415 217.538C66.6177 217.261 66.2054 217.108 65.779 217.108L61.9675 217.201Z" fill="url(#paint36_linear_32_3054)"/>
<path style="mix-blend-mode:multiply" opacity="0.15" d="M90.872 253.283C81.0286 255.023 74.6112 255.457 66.9892 253.471C56.4239 250.717 48.7124 244.67 44.3591 240.639L48.5999 271.667C48.8871 273.766 50.8584 275.364 52.9739 275.216L170.591 267.026C172.329 266.906 173.525 265.257 173.253 263.362L171.608 251.908C153.385 241.97 139.904 241.284 130.751 242.654C119.578 244.332 113.86 249.225 90.872 253.283Z" fill="url(#paint37_linear_32_3054)"/>
<g style="mix-blend-mode:multiply" opacity="0.42">
<path style="mix-blend-mode:multiply" opacity="0.42" d="M90.5782 262.457L63.2094 264.138C62.9484 264.148 62.6928 264.062 62.4914 263.895C62.29 263.729 62.1568 263.495 62.1172 263.237L61.5188 258.885C61.4997 258.763 61.5067 258.639 61.5392 258.519C61.5717 258.4 61.629 258.289 61.7073 258.193C61.7856 258.098 61.8832 258.02 61.9938 257.964C62.1043 257.909 62.2253 257.877 62.3488 257.872L89.7253 256.323C89.9782 256.317 90.2247 256.403 90.4182 256.566C90.6116 256.729 90.7385 256.958 90.7748 257.208L91.3668 261.457C91.3874 261.576 91.3829 261.697 91.3534 261.814C91.324 261.93 91.2703 262.039 91.1959 262.133C91.1215 262.228 91.028 262.305 90.9216 262.361C90.8151 262.417 90.6981 262.449 90.5782 262.457Z" fill="url(#paint38_linear_32_3054)"/>
<path style="mix-blend-mode:multiply" opacity="0.42" d="M141.068 259.482L106.385 261.611C106.133 261.618 105.887 261.532 105.694 261.369C105.501 261.207 105.374 260.979 105.339 260.729L104.744 256.484C104.725 256.367 104.73 256.247 104.76 256.132C104.79 256.017 104.844 255.91 104.918 255.817C104.992 255.725 105.085 255.649 105.19 255.594C105.295 255.54 105.411 255.508 105.53 255.501L140.23 253.54C140.705 253.513 141.152 253.9 141.223 254.4L141.807 258.52C141.874 259.02 141.541 259.454 141.068 259.482Z" fill="url(#paint39_linear_32_3054)"/>
</g>
<path style="mix-blend-mode:multiply" opacity="0.26" d="M154.072 208.279C154.785 213.272 151.082 217.46 145.819 217.628C140.577 217.798 135.772 213.915 135.071 208.955C134.369 203.994 138.019 199.82 143.255 199.616C148.507 199.41 153.358 203.287 154.072 208.279Z" fill="url(#paint40_linear_32_3054)"/>
<g opacity="0.53">
<path opacity="0.53" d="M78.6258 222.658C78.0797 223.268 77.0597 223.314 76.3421 222.741C75.6246 222.169 75.4881 221.213 76.044 220.602C76.5999 219.992 77.621 219.97 78.3298 220.539C79.0386 221.108 79.1675 222.051 78.6258 222.658Z" fill="#F4F7FA"/>
<path opacity="0.53" d="M84.4784 228.388C84.3205 228.397 84.1648 228.347 84.0415 228.248C83.9806 228.204 83.9292 228.148 83.8906 228.083C83.8519 228.018 83.8267 227.946 83.8165 227.872C83.8063 227.797 83.8113 227.721 83.8312 227.648C83.8511 227.576 83.8855 227.508 83.9323 227.449C86.8811 223.991 86.1351 218.689 82.2547 215.455C81.9915 215.236 81.9413 214.877 82.1455 214.655C82.3498 214.434 82.7222 214.437 82.9832 214.655C87.3518 218.314 88.184 224.291 84.8792 228.198C84.8294 228.256 84.768 228.303 84.6989 228.335C84.6299 228.368 84.5547 228.386 84.4784 228.388Z" fill="#F4F7FA"/>
<path opacity="0.53" d="M82.5792 226.884C82.4181 226.891 82.2598 226.84 82.1336 226.74C82.0717 226.695 82.0195 226.639 81.9802 226.573C81.941 226.508 81.9154 226.436 81.9052 226.36C81.895 226.285 81.9003 226.208 81.9208 226.135C81.9413 226.061 81.9765 225.993 82.0244 225.934C84.2283 223.388 83.6779 219.456 80.7859 217.075C80.5194 216.857 80.4681 216.495 80.6767 216.271C80.8853 216.046 81.261 216.043 81.5264 216.262C84.912 219.07 85.5673 223.688 82.9855 226.694C82.9343 226.751 82.8719 226.798 82.802 226.831C82.7321 226.863 82.6563 226.881 82.5792 226.884Z" fill="#F4F7FA"/>
<path opacity="0.53" d="M80.6529 225.357C80.4893 225.364 80.3288 225.312 80.2007 225.21C80.1383 225.165 80.0856 225.108 80.046 225.042C80.0064 224.977 79.9807 224.904 79.9704 224.828C79.9602 224.752 79.9657 224.674 79.9865 224.6C80.0073 224.527 80.0431 224.458 80.0915 224.398C81.5233 222.771 81.1694 220.241 79.2986 218.719C79.0278 218.501 78.9776 218.136 79.1894 217.908C79.4013 217.679 79.7814 217.674 80.0489 217.893C81.2109 218.842 81.9514 220.114 82.1414 221.478C82.2414 222.134 82.197 222.804 82.0112 223.441C81.8254 224.079 81.5027 224.667 81.0657 225.167C81.0137 225.226 80.9502 225.273 80.8791 225.305C80.8081 225.338 80.7311 225.356 80.6529 225.357Z" fill="#F4F7FA"/>
</g>
<path d="M214.002 18.8786L155.049 15.2648C150.721 15.0409 147.195 18.4254 147.195 22.8245V77.8974C147.195 82.2965 150.721 85.8962 155.049 85.9366L158.325 85.9683V99.5304C158.325 101.563 160.734 102.554 162.723 100.307L175.06 86.1255L214.002 86.2435C217.644 86.2784 220.584 83.0556 220.584 79.0463V26.4777C220.584 22.4685 217.644 19.0665 214.002 18.8786Z" fill="url(#paint41_linear_32_3054)"/>
<path d="M215.871 84.8074L156.917 84.5005C152.589 84.4601 149.064 80.8604 149.064 76.4613V21.3884C149.064 16.9892 152.589 13.6047 156.917 13.8286L215.871 17.4425C219.513 17.6303 222.453 21.0323 222.453 25.0415V77.6102C222.453 81.6195 219.519 84.8423 215.871 84.8074Z" fill="url(#paint42_linear_32_3054)"/>
<path d="M151.309 77.9433V20.0428C151.309 17.7024 153.184 15.8927 155.491 16.0139L217.076 19.5787C219.015 19.6769 220.585 21.4888 220.585 23.6283V78.9087C220.585 81.0482 219.015 82.7651 217.076 82.7443L155.491 82.2277C153.184 82.2026 151.309 80.2848 151.309 77.9433Z" fill="url(#paint43_linear_32_3054)"/>
<path d="M190.905 57.1425C190.905 56.0912 190.654 55.2586 190.151 54.6448C189.649 54.0311 188.765 53.4391 187.501 52.869C186.234 52.2989 185.062 51.7237 183.986 51.1435C182.971 50.6078 182.034 49.9377 181.198 49.1514C180.432 48.4243 179.82 47.5498 179.4 46.5805C178.982 45.6151 178.773 44.4545 178.773 43.0988C178.773 40.8315 179.517 38.9917 181.004 37.5792C182.49 36.1667 184.462 35.3905 186.92 35.2507V31.0253L189.997 31.1552V35.4517C192.35 35.9038 194.195 36.9759 195.532 38.668C196.869 40.3601 197.537 42.4646 197.535 44.9816L191.039 44.7632C191.039 43.3798 190.782 42.3052 190.267 41.5392C189.752 40.7733 189.018 40.3728 188.063 40.3379C187.211 40.3059 186.548 40.5589 186.075 41.0969C185.603 41.635 185.367 42.3915 185.367 43.3664C185.367 44.3544 185.639 45.1484 186.182 45.7483C186.726 46.3483 187.6 46.9307 188.804 47.4957C190.003 48.0615 191.131 48.6439 192.189 49.2431C193.184 49.7939 194.105 50.4688 194.93 51.2516C195.691 51.9811 196.303 52.8507 196.734 53.8126C197.17 54.7803 197.389 55.9339 197.389 57.2736C197.389 59.5416 196.697 61.3764 195.314 62.7779C193.93 64.1795 192.033 64.9757 189.623 65.1664V69.1844L186.544 69.1265V65.0791C183.718 64.7114 181.546 63.6629 180.028 61.9337C178.51 60.2045 177.75 57.9474 177.747 55.1625L184.329 55.3416C184.329 56.8662 184.657 58.0344 185.312 58.8463C185.967 59.6581 186.895 60.0782 188.095 60.1066C188.973 60.1284 189.665 59.8754 190.17 59.3476C190.675 58.8197 190.92 58.0847 190.905 57.1425Z" fill="white"/>
<path d="M208.925 28.1607C209.095 28.1735 209.254 28.2506 209.369 28.3764C209.485 28.5022 209.548 28.6672 209.545 28.8378V72.7012C209.548 72.7841 209.533 72.8666 209.503 72.9439C209.473 73.0212 209.428 73.0917 209.37 73.1512C209.312 73.2107 209.243 73.2581 209.166 73.2905C209.09 73.323 209.008 73.3398 208.925 73.3401L165.895 72.6269C165.719 72.6218 165.552 72.5479 165.429 72.4212C165.307 72.2945 165.239 72.1249 165.24 71.9487V26.8884C165.238 26.8027 165.254 26.7176 165.287 26.6383C165.319 26.5591 165.368 26.4873 165.429 26.4276C165.491 26.3678 165.564 26.3213 165.644 26.2908C165.724 26.2604 165.809 26.2467 165.895 26.2506L208.925 28.1607ZM208.925 25.6739L165.895 23.6993C164.148 23.6196 162.728 24.9979 162.728 26.7802V71.9072C162.728 73.6895 164.148 75.1552 165.895 75.1836L208.925 75.8312C210.58 75.8563 211.916 74.4759 211.916 72.7459V28.9416C211.916 27.2116 210.58 25.7482 208.925 25.6728V25.6739Z" fill="white"/>
<path d="M160.198 98.0942V81.7417L179.311 81.9536L163.989 99.5598C162.668 101.079 160.198 100.127 160.198 98.0942Z" fill="url(#paint44_linear_32_3054)"/>
</g>
<defs>
<linearGradient id="paint0_linear_32_3054" x1="120.379" y1="105.168" x2="173.409" y2="-19.311" gradientUnits="userSpaceOnUse">
<stop stop-color="#FF9085"/>
<stop offset="1" stop-color="#FB6FBB"/>
</linearGradient>
<linearGradient id="paint1_linear_32_3054" x1="56.1684" y1="80.4366" x2="71.8373" y2="205.182" gradientUnits="userSpaceOnUse">
<stop stop-color="#6165D7"/>
<stop offset="1" stop-color="#AA80F9"/>
</linearGradient>
<linearGradient id="paint2_linear_32_3054" x1="130.965" y1="280.155" x2="110.67" y2="288.679" gradientUnits="userSpaceOnUse">
<stop stop-color="#40447E"/>
<stop offset="1" stop-color="#3C3B6B"/>
</linearGradient>
<linearGradient id="paint3_linear_32_3054" x1="194122" y1="261705" x2="157644" y2="282580" gradientUnits="userSpaceOnUse">
<stop stop-color="#40447E"/>
<stop offset="1" stop-color="#3C3B6B"/>
</linearGradient>
<linearGradient id="paint4_linear_32_3054" x1="16701.5" y1="268574" x2="398189" y2="268574" gradientUnits="userSpaceOnUse">
<stop stop-color="#40447E"/>
<stop offset="1" stop-color="#3C3B6B"/>
</linearGradient>
<linearGradient id="paint5_linear_32_3054" x1="137.877" y1="146.241" x2="-18.5599" y2="401.981" gradientUnits="userSpaceOnUse">
<stop stop-color="#FFC444"/>
<stop offset="1" stop-color="#F36F56"/>
</linearGradient>
<linearGradient id="paint6_linear_32_3054" x1="23636.3" y1="74123" x2="787923" y2="74123" gradientUnits="userSpaceOnUse">
<stop stop-color="#40447E"/>
<stop offset="1" stop-color="#3C3B6B"/>
</linearGradient>
<linearGradient id="paint7_linear_32_3054" x1="72263.4" y1="48909" x2="482557" y2="48909" gradientUnits="userSpaceOnUse">
<stop stop-color="#40447E"/>
<stop offset="1" stop-color="#3C3B6B"/>
</linearGradient>
<linearGradient id="paint8_linear_32_3054" x1="235.155" y1="128.75" x2="226.135" y2="119.018" gradientUnits="userSpaceOnUse">
<stop stop-color="#AA80F9"/>
<stop offset="1" stop-color="#6165D7"/>
</linearGradient>
<linearGradient id="paint9_linear_32_3054" x1="31636.5" y1="12718.5" x2="32628" y2="12748.2" gradientUnits="userSpaceOnUse">
<stop stop-color="#AA80F9"/>
<stop offset="1" stop-color="#6165D7"/>
</linearGradient>
<linearGradient id="paint10_linear_32_3054" x1="11455.5" y1="13089.5" x2="11763.3" y2="12741.5" gradientUnits="userSpaceOnUse">
<stop stop-color="#FFC444"/>
<stop offset="1" stop-color="#F36F56"/>
</linearGradient>
<linearGradient id="paint11_linear_32_3054" x1="35157.1" y1="17739.2" x2="36267.9" y2="18051.6" gradientUnits="userSpaceOnUse">
<stop stop-color="#AA80F9"/>
<stop offset="1" stop-color="#6165D7"/>
</linearGradient>
<linearGradient id="paint12_linear_32_3054" x1="12839.6" y1="12994.6" x2="13153.4" y2="12616.8" gradientUnits="userSpaceOnUse">
<stop stop-color="#FFC444"/>
<stop offset="1" stop-color="#F36F56"/>
</linearGradient>
<linearGradient id="paint13_linear_32_3054" x1="217.544" y1="242.033" x2="246.976" y2="175.688" gradientUnits="userSpaceOnUse">
<stop stop-color="#AB316D"/>
<stop offset="1" stop-color="#792D3D"/>
</linearGradient>
<linearGradient id="paint14_linear_32_3054" x1="-43290.1" y1="221294" x2="-77780.5" y2="196253" gradientUnits="userSpaceOnUse">
<stop stop-color="#AB316D"/>
<stop offset="1" stop-color="#792D3D"/>
</linearGradient>
<linearGradient id="paint15_linear_32_3054" x1="23929.6" y1="209183" x2="57864.7" y2="194873" gradientUnits="userSpaceOnUse">
<stop stop-color="#AB316D"/>
<stop offset="1" stop-color="#792D3D"/>
</linearGradient>
<linearGradient id="paint16_linear_32_3054" x1="-106934" y1="132515" x2="-81348" y2="114226" gradientUnits="userSpaceOnUse">
<stop stop-color="#AA80F9"/>
<stop offset="1" stop-color="#6165D7"/>
</linearGradient>
<linearGradient id="paint17_linear_32_3054" x1="21092.6" y1="8665.92" x2="19492.2" y2="8665.92" gradientUnits="userSpaceOnUse">
<stop stop-color="#FFC444"/>
<stop offset="1" stop-color="#F36F56"/>
</linearGradient>
<linearGradient id="paint18_linear_32_3054" x1="233.432" y1="131.956" x2="229.237" y2="136.681" gradientUnits="userSpaceOnUse">
<stop stop-color="#444B8C"/>
<stop offset="1" stop-color="#26264F"/>
</linearGradient>
<linearGradient id="paint19_linear_32_3054" x1="244.231" y1="136.643" x2="225.119" y2="132.241" gradientUnits="userSpaceOnUse">
<stop stop-color="#311944"/>
<stop offset="1" stop-color="#893976"/>
</linearGradient>
<linearGradient id="paint20_linear_32_3054" x1="-5241.27" y1="47932.4" x2="-3066.89" y2="47932.4" gradientUnits="userSpaceOnUse">
<stop stop-color="#311944"/>
<stop offset="1" stop-color="#893976"/>
</linearGradient>
<linearGradient id="paint21_linear_32_3054" x1="8852.1" y1="7380.36" x2="8287.18" y2="8087.98" gradientUnits="userSpaceOnUse">
<stop stop-color="#FFC444"/>
<stop offset="1" stop-color="#F36F56"/>
</linearGradient>
<linearGradient id="paint22_linear_32_3054" x1="-104067" y1="112609" x2="-81725.3" y2="93878.6" gradientUnits="userSpaceOnUse">
<stop stop-color="#AA80F9"/>
<stop offset="1" stop-color="#6165D7"/>
</linearGradient>
<linearGradient id="paint23_linear_32_3054" x1="38623.6" y1="13679.7" x2="36648" y2="9436.69" gradientUnits="userSpaceOnUse">
<stop stop-color="#FFC444"/>
<stop offset="1" stop-color="#F36F56"/>
</linearGradient>
<linearGradient id="paint24_linear_32_3054" x1="260.735" y1="105.063" x2="243.586" y2="88.6548" gradientUnits="userSpaceOnUse">
<stop stop-color="#311944"/>
<stop offset="1" stop-color="#6B3976"/>
</linearGradient>
<linearGradient id="paint25_linear_32_3054" x1="28985.2" y1="248.893" x2="30154.9" y2="3092.5" gradientUnits="userSpaceOnUse">
<stop stop-color="#FFC444"/>
<stop offset="1" stop-color="#F36F56"/>
</linearGradient>
<linearGradient id="paint26_linear_32_3054" x1="25859.3" y1="16223.3" x2="24691.4" y2="14095.8" gradientUnits="userSpaceOnUse">
<stop stop-color="#311944"/>
<stop offset="1" stop-color="#6B3976"/>
</linearGradient>
<linearGradient id="paint27_linear_32_3054" x1="-83713.4" y1="57340.4" x2="-81916.3" y2="40807.2" gradientUnits="userSpaceOnUse">
<stop stop-color="#AA80F9"/>
<stop offset="1" stop-color="#6165D7"/>
</linearGradient>
<linearGradient id="paint28_linear_32_3054" x1="4129.51" y1="156972" x2="5496.3" y2="156972" gradientUnits="userSpaceOnUse">
<stop stop-color="#40447E"/>
<stop offset="1" stop-color="#3C3B6B"/>
</linearGradient>
<linearGradient id="paint29_linear_32_3054" x1="142319" y1="205394" x2="-51787.8" y2="203116" gradientUnits="userSpaceOnUse">
<stop stop-color="#311944"/>
<stop offset="1" stop-color="#893976"/>
</linearGradient>
<linearGradient id="paint30_linear_32_3054" x1="47.5432" y1="231.779" x2="254.087" y2="212.447" gradientUnits="userSpaceOnUse">
<stop stop-color="#E38DDD"/>
<stop offset="1" stop-color="#9571F6"/>
</linearGradient>
<linearGradient id="paint31_linear_32_3054" x1="28.5666" y1="205.484" x2="106.822" y2="239.245" gradientUnits="userSpaceOnUse">
<stop stop-color="#F68252"/>
<stop offset="0.04" stop-color="#F99A4D"/>
<stop offset="0.08" stop-color="#FCAD49"/>
<stop offset="0.13" stop-color="#FEBA46"/>
<stop offset="0.2" stop-color="#FFC244"/>
<stop offset="0.32" stop-color="#FFC444"/>
<stop offset="0.45" stop-color="#FDB946"/>
<stop offset="0.69" stop-color="#F99C4C"/>
<stop offset="1" stop-color="#F36F56"/>
</linearGradient>
<linearGradient id="paint32_linear_32_3054" x1="-552.094" y1="32048" x2="1393.1" y2="31792.6" gradientUnits="userSpaceOnUse">
<stop stop-color="#FF9085"/>
<stop offset="1" stop-color="#FB6FBB"/>
</linearGradient>
<linearGradient id="paint33_linear_32_3054" x1="-3958.52" y1="2035.65" x2="-2261.64" y2="1812.86" gradientUnits="userSpaceOnUse">
<stop stop-color="#FF9085"/>
<stop offset="1" stop-color="#FB6FBB"/>
</linearGradient>
<linearGradient id="paint34_linear_32_3054" x1="-3943.63" y1="2135.37" x2="-2246.74" y2="1912.58" gradientUnits="userSpaceOnUse">
<stop stop-color="#FF9085"/>
<stop offset="1" stop-color="#FB6FBB"/>
</linearGradient>
<linearGradient id="paint35_linear_32_3054" x1="-3928.78" y1="2231.82" x2="-2232.04" y2="2009.02" gradientUnits="userSpaceOnUse">
<stop stop-color="#FF9085"/>
<stop offset="1" stop-color="#FB6FBB"/>
</linearGradient>
<linearGradient id="paint36_linear_32_3054" x1="873.975" y1="25143.3" x2="1490.79" y2="25062.3" gradientUnits="userSpaceOnUse">
<stop stop-color="#FF9085"/>
<stop offset="1" stop-color="#FB6FBB"/>
</linearGradient>
<linearGradient id="paint37_linear_32_3054" x1="51.6914" y1="258.068" x2="255.37" y2="239.005" gradientUnits="userSpaceOnUse">
<stop stop-color="#FB6FBB"/>
<stop offset="1" stop-color="#FF9085"/>
</linearGradient>
<linearGradient id="paint38_linear_32_3054" x1="-6976.3" y1="20734.9" x2="982.851" y2="19689.8" gradientUnits="userSpaceOnUse">
<stop stop-color="#FB6FBB"/>
<stop offset="1" stop-color="#FF9085"/>
</linearGradient>
<linearGradient id="paint39_linear_32_3054" x1="5560.41" y1="20925.6" x2="17880.6" y2="19307.8" gradientUnits="userSpaceOnUse">
<stop stop-color="#FB6FBB"/>
<stop offset="1" stop-color="#FF9085"/>
</linearGradient>
<linearGradient id="paint40_linear_32_3054" x1="15282.5" y1="36750" x2="18445.3" y2="35943.1" gradientUnits="userSpaceOnUse">
<stop stop-color="#FF9085"/>
<stop offset="1" stop-color="#FB6FBB"/>
</linearGradient>
<linearGradient id="paint41_linear_32_3054" x1="82541.2" y1="102493" x2="289297" y2="-123226" gradientUnits="userSpaceOnUse">
<stop stop-color="#AB316D"/>
<stop offset="1" stop-color="#792D3D"/>
</linearGradient>
<linearGradient id="paint42_linear_32_3054" x1="146.752" y1="99.5949" x2="192.858" y2="40.3805" gradientUnits="userSpaceOnUse">
<stop stop-color="#FCB148"/>
<stop offset="0.05" stop-color="#FDBA46"/>
<stop offset="0.14" stop-color="#FFC244"/>
<stop offset="0.32" stop-color="#FFC444"/>
<stop offset="0.48" stop-color="#FDB946"/>
<stop offset="0.78" stop-color="#F99C4D"/>
<stop offset="0.87" stop-color="#F8924F"/>
<stop offset="1" stop-color="#F8924F"/>
</linearGradient>
<linearGradient id="paint43_linear_32_3054" x1="125132" y1="48277.7" x2="107392" y2="1438.62" gradientUnits="userSpaceOnUse">
<stop stop-color="#FCB148"/>
<stop offset="0.05" stop-color="#FDBA46"/>
<stop offset="0.14" stop-color="#FFC244"/>
<stop offset="0.32" stop-color="#FFC444"/>
<stop offset="0.48" stop-color="#FDB946"/>
<stop offset="0.78" stop-color="#F99C4D"/>
<stop offset="0.87" stop-color="#F8924F"/>
<stop offset="1" stop-color="#F8924F"/>
</linearGradient>
<linearGradient id="paint44_linear_32_3054" x1="26540.7" y1="18145.1" x2="37443.3" y2="3729.97" gradientUnits="userSpaceOnUse">
<stop stop-color="#FCB148"/>
<stop offset="0.05" stop-color="#FDBA46"/>
<stop offset="0.14" stop-color="#FFC244"/>
<stop offset="0.32" stop-color="#FFC444"/>
<stop offset="0.48" stop-color="#FDB946"/>
<stop offset="0.78" stop-color="#F99C4D"/>
<stop offset="0.87" stop-color="#F8924F"/>
<stop offset="1" stop-color="#F8924F"/>
</linearGradient>
<clipPath id="clip0_32_3054">
<rect width="300" height="293.989" fill="white"/>
</clipPath>
</defs>
</svg>
