<svg width="300" height="299" viewBox="0 0 300 299" fill="none" xmlns="http://www.w3.org/2000/svg">
<g clip-path="url(#clip0_32_3551)">
<path d="M296.126 174.246C278.433 245.748 202.796 302.051 125.208 290.036C66.0139 280.876 15.6353 233.489 3.03104 174.246C-0.304437 158.599 -0.892129 142.491 1.29425 126.643C11.3464 53.5243 77.8692 -2.20287 154.668 0.0664134C232.737 2.3732 293.423 63.7746 299.494 131.531C300.799 146.084 299.542 160.452 296.126 174.246Z" fill="#F4F7FA"/>
<path d="M12.6665 69.9268L14.6229 70.8407L86.3851 64.2279L79.4658 61.4336L12.6665 69.9268Z" fill="url(#paint0_linear_32_3551)"/>
<path d="M286.916 174.246H209.93V65.3452L286.916 79.8609V174.246Z" fill="#AABBCC"/>
<path d="M278.118 174.247H220.928V131.032L278.118 135.367V174.247Z" fill="#EAEDF3"/>
<path d="M220.928 147.105V146.374L278.118 149.166V149.823L220.928 147.105Z" fill="#AABBCC"/>
<path d="M237.425 174.246H236.692V132.233L237.425 132.29V174.246Z" fill="#AABBCC"/>
<path d="M264.554 174.246H263.821V134.291L264.554 134.342V174.246Z" fill="#AABBCC"/>
<path d="M289.117 127.201L215.429 119.741V110.054L289.117 118.843V127.201Z" fill="url(#paint1_linear_32_3551)"/>
<path d="M289.117 85.7313L215.429 71.6785V61.9917L289.117 77.3731V85.7313Z" fill="url(#paint2_linear_32_3551)"/>
<path d="M24.0631 83.8415L21.1306 84.0237V65.0358L24.0631 64.8162V83.8415Z" fill="#97A6B7"/>
<path d="M49.3585 81.9621L47.1589 82.1517V62.7685L49.3585 62.5403V81.9621Z" fill="#97A6B7"/>
<path d="M75.7544 80.0024L73.1882 80.1995V60.4059L75.7544 60.167V80.0024Z" fill="#97A6B7"/>
<path d="M84.5528 31.2888V63.7841L12.6985 69.9277V39.2388L14.2103 39.0524L84.5528 31.2888Z" fill="url(#paint3_linear_32_3551)"/>
<path style="mix-blend-mode:multiply" opacity="0.2" d="M84.5528 55.0178V63.7843L12.6985 69.9278V39.2389L14.3796 39.0525C18.6246 39.1093 22.8781 39.6418 26.8167 41.3368C33.2956 44.1225 33.3663 53.8553 40.9199 55.1775C47.3956 56.31 53.6206 52.6328 59.8574 51.4778C67.9285 49.9843 77.5874 50.9903 84.5528 55.0178Z" fill="url(#paint4_linear_32_3551)"/>
<path d="M210.663 174.247H12.6985V80.7954L210.663 65.7236V174.247Z" fill="#BFC8D6"/>
<path d="M101.782 87.7371V174.247H24.0632V92.8521L32.4107 92.3078L101.782 87.7371Z" fill="#EAEDF3"/>
<path d="M215.429 71.6785L11.5991 86.3163V78.0138L215.429 61.9917V71.6785Z" fill="url(#paint5_linear_32_3551)"/>
<path d="M215.429 119.741L114.98 123.565V114.559L215.429 110.054V119.741Z" fill="url(#paint6_linear_32_3551)"/>
<path d="M42.3933 174.246H41.6604V91.6671L42.3933 91.6243V174.246Z" fill="#AABBCC"/>
<path d="M61.4571 174.246H60.7231V90.4262L61.4571 90.3823V174.246Z" fill="#AABBCC"/>
<path d="M81.6193 174.246H80.8865V89.1031L81.6193 89.0581V174.246Z" fill="#AABBCC"/>
<path d="M24.0632 107.043V106.398L101.782 102.137V102.823L24.0632 107.043Z" fill="#AABBCC"/>
<path d="M24.0632 116.72V116.075L101.782 112.423V113.109L24.0632 116.72Z" fill="#AABBCC"/>
<path d="M24.0632 149.943V149.298L101.782 147.736V148.422L24.0632 149.943Z" fill="#AABBCC"/>
<path d="M201.865 130.604V174.247H120.846V133.264L136.52 132.75L140.621 132.62L141.324 132.598L179.081 131.35L179.88 131.327L201.865 130.604Z" fill="#EAEDF3"/>
<path d="M120.846 148.504V147.811L201.865 146.098V146.835L120.846 148.504Z" fill="#AABBCC"/>
<path d="M141.376 132.59V174.247H140.642V132.613L141.376 132.59Z" fill="#AABBCC"/>
<path d="M179.869 131.32V174.247H179.503V131.342L179.869 131.32Z" fill="#AABBCC"/>
<path d="M160.805 174.247H160.073V146.982L160.805 146.974V174.247Z" fill="#AABBCC"/>
<g style="mix-blend-mode:soft-light" opacity="0.5">
<path d="M101.786 153.919V174.246H24.2647C24.1939 173.862 24.0632 173.509 24.0632 173.196V92.8521L32.3261 92.3079C37.0297 95.1204 41.7761 100.352 43.8011 110.054C48.4265 132.222 59.1825 138.182 74.8372 140.045C82.3308 140.936 94.0844 145.652 101.786 153.919Z" fill="white"/>
</g>
<path d="M84.5527 31.3821L86.3849 32.9314V64.2278L84.5527 63.7928V31.3821Z" fill="url(#paint7_linear_32_3551)"/>
<g style="mix-blend-mode:soft-light" opacity="0.5">
<path d="M201.865 164.516V174.247H120.846V133.264L136.52 132.75C138.202 134.412 139.678 136.439 140.592 138.909C140.601 138.935 140.652 138.961 140.661 138.987C140.876 139.549 141.109 140.098 141.344 140.626C147.015 153.685 159.13 157.31 176.473 158.476C177.303 158.532 178.187 158.61 179.096 158.711C179.31 158.738 179.666 158.763 179.887 158.789C186.438 159.583 194.702 161.513 201.865 164.516Z" fill="white"/>
</g>
<path d="M289.116 127.201L286.981 128.184L210.487 121.696L215.468 119.74L289.116 127.201Z" fill="url(#paint8_linear_32_3551)"/>
<path d="M115.135 123.564L117.862 124.832L210.487 121.696L215.468 119.74L115.135 123.564Z" fill="url(#paint9_linear_32_3551)"/>
<path d="M289.116 85.7313L286.981 86.7673L210.487 74.5349L215.468 71.6785L289.116 85.7313Z" fill="url(#paint10_linear_32_3551)"/>
<path d="M11.5991 86.3163L12.6663 86.9538L210.486 74.5349L215.467 71.6785L11.5991 86.3163Z" fill="url(#paint11_linear_32_3551)"/>
<g style="mix-blend-mode:multiply">
<path d="M296.126 174.247C278.433 245.748 202.796 302.051 125.208 290.036C66.0139 280.876 15.6353 233.489 3.03101 174.247H296.126Z" fill="#F4F7FA"/>
</g>
<path d="M78.1072 264.428L78.014 264.443C72.945 265.253 66.5936 264.688 62.489 261.315C60.3258 259.537 58.8611 257.193 58.4111 254.417C58.1443 252.77 57.9997 251.033 58.2568 249.376C58.5268 247.642 59.1975 245.967 60.0611 244.447C60.5484 243.597 61.0877 242.778 61.6758 241.995C63.3483 239.751 67.2975 236.601 65.4665 233.423C64.3586 231.501 61.8075 230.316 60.1222 228.97C56.519 226.088 53.9315 221.935 53.895 217.191C53.8661 213.465 56.2029 209.776 58.8386 207.271C69.5647 197.076 61.6629 179.542 76.8547 180.914C92.0464 182.285 95.3432 197.452 89.6529 211.608C87.7479 216.347 85.4293 221.191 84.1361 226.144C83.1172 230.043 84.5572 232.74 87.7318 235.043C89.4461 236.283 91.9372 237.128 93.4211 238.589C96.7361 241.851 99.3922 246.424 98.6004 251.21C97.8161 255.958 93.7693 259.445 89.5039 261.25C85.8214 262.814 82.0565 263.801 78.1072 264.428Z" fill="url(#paint12_linear_32_3551)"/>
<g style="mix-blend-mode:soft-light" opacity="0.8">
<g style="mix-blend-mode:soft-light" opacity="0.8">
<path d="M76.3222 260.357C76.272 260.357 76.2226 260.345 76.1781 260.321C76.1337 260.298 76.0955 260.264 76.0669 260.223C76.0382 260.182 76.0198 260.134 76.0134 260.085C76.0069 260.035 76.0125 259.984 76.0297 259.937C76.0929 259.761 82.3886 242.186 76.8772 228.101C71.2747 213.785 77.5414 198.459 77.6047 198.306C77.6395 198.234 77.7006 198.178 77.7755 198.15C77.8503 198.121 77.9332 198.123 78.0071 198.154C78.0809 198.185 78.1402 198.243 78.1725 198.316C78.2049 198.389 78.208 198.472 78.1811 198.547C78.1179 198.698 71.9507 213.797 77.4579 227.872C83.0572 242.18 76.6811 259.974 76.6157 260.151C76.5938 260.212 76.5538 260.264 76.5013 260.3C76.4488 260.337 76.3863 260.357 76.3222 260.357Z" fill="white"/>
</g>
</g>
<path d="M81.3151 238.033C80.0526 236.049 78.6323 234.169 77.068 232.413C71.9347 226.628 68.3315 220.481 66.0322 213.068C64.2108 207.228 64.2548 200.552 63.1276 194.523C62.3112 190.155 60.8315 185.926 59.2951 181.767C56.0165 172.909 51.1073 162.634 42.8573 157.316C39.0398 154.852 33.3783 154.609 29.1676 156.374C23.713 158.659 18.8894 163.112 18.5401 169.304C18.059 177.818 25.4958 187.362 19.3448 195.192C9.92797 207.18 14.3294 220.499 27.2733 227.013C31.5001 229.142 36.4405 231.107 39.9644 234.374C43.4883 237.641 41.3937 243.229 41.0005 247.375C40.6319 251.264 40.2248 255.783 42.704 259.109C46.8826 264.72 56.9851 267.165 63.5487 267.719C69.9001 268.255 77.1183 267.554 81.5669 262.469C88.2719 254.806 86.083 245.58 81.3151 238.033Z" fill="url(#paint13_linear_32_3551)"/>
<g style="mix-blend-mode:soft-light" opacity="0.8">
<g style="mix-blend-mode:soft-light" opacity="0.8">
<path d="M70.9778 262.441C70.9143 262.441 70.8522 262.422 70.8 262.385C70.7477 262.349 70.7077 262.298 70.6853 262.239C70.4796 261.693 49.9403 207.489 38.221 185.649C38.1819 185.576 38.1735 185.49 38.1975 185.411C38.2215 185.331 38.276 185.265 38.349 185.226C38.4221 185.187 38.5076 185.178 38.5869 185.202C38.6662 185.226 38.7327 185.281 38.7717 185.354C50.5103 207.232 71.0635 261.472 71.2692 262.018C71.2839 262.056 71.2908 262.097 71.2896 262.138C71.2884 262.179 71.2792 262.219 71.2623 262.257C71.2455 262.294 71.2215 262.328 71.1916 262.356C71.1617 262.384 71.1265 262.406 71.0882 262.421C71.0528 262.434 71.0155 262.44 70.9778 262.441Z" fill="white"/>
</g>
</g>
<path d="M62.0998 270.107C63.467 269.913 64.8298 269.689 66.1862 269.472C69.9791 268.863 74.6762 267.681 75.8687 263.45C76.2084 262.245 75.6234 260.093 75.483 258.843C75.3527 257.565 75.1452 256.295 74.8616 255.042C74.445 253.327 73.7992 251.677 72.9416 250.135C71.4641 247.441 69.7766 245.414 66.633 244.804C64.3412 244.36 61.802 244.256 59.4727 244.332C46.7752 244.748 45.2141 240.168 38.2402 230.385C31.2663 220.602 -14.6348 236.421 13.052 253.803C13.052 253.803 17.2156 256.51 32.4106 254.741C35.1909 254.419 38.7063 254.205 41.0623 256C45.2184 259.17 41.0398 265.89 45.2355 268.527C47.6827 270.063 51.6159 270.515 54.4263 270.623C56.9998 270.72 59.5552 270.467 62.0998 270.107Z" fill="url(#paint14_linear_32_3551)"/>
<g style="mix-blend-mode:soft-light" opacity="0.8">
<g style="mix-blend-mode:soft-light" opacity="0.8">
<path d="M70.576 264.869C70.5267 264.869 70.4781 264.857 70.4342 264.835C70.3903 264.812 70.3522 264.78 70.3232 264.74C70.2428 264.633 62.2039 253.705 50.7996 251.122C46.3393 250.113 42.4832 247.856 38.7546 245.672C32.4675 241.99 26.5286 238.512 17.7632 240.299C17.6821 240.315 17.5977 240.299 17.5287 240.253C17.4597 240.208 17.4116 240.136 17.3952 240.055C17.3787 239.974 17.3951 239.89 17.4408 239.821C17.4865 239.752 17.5578 239.704 17.6389 239.687C26.6389 237.852 32.9603 241.554 39.0675 245.133C42.7543 247.292 46.5675 249.526 50.9346 250.513C62.5725 253.145 70.7442 264.261 70.8246 264.374C70.8488 264.407 70.8662 264.444 70.8758 264.484C70.8855 264.524 70.8871 264.566 70.8808 264.606C70.8744 264.647 70.8601 264.685 70.8387 264.72C70.8173 264.755 70.7892 264.786 70.756 264.81C70.7033 264.847 70.6406 264.868 70.576 264.869Z" fill="white"/>
</g>
</g>
<path d="M170.893 33.2572L218.778 28.2268C222.224 27.899 225.023 30.5304 225.023 34.1036V78.8486C225.023 82.4229 222.224 85.5301 218.778 85.7883L216.161 85.9844V97.0415C216.161 98.699 214.232 99.644 212.643 97.9212L202.726 86.9926L170.893 89.1676C167.875 89.3936 165.428 86.8736 165.428 83.5383V39.8143C165.428 36.48 167.87 33.5443 170.893 33.2572Z" fill="url(#paint15_linear_32_3551)"/>
<path d="M163.903 38.6903V82.4399C163.903 85.7774 166.333 88.2996 169.353 88.0757L201.127 85.8492L214.55 84.9074L217.301 84.7146C220.752 84.4585 223.567 81.3492 223.567 77.7717V33C223.567 29.4225 220.751 26.7857 217.299 27.1146L210.301 27.8475L169.357 32.1278C166.337 32.4161 163.903 35.3571 163.903 38.6903Z" fill="url(#paint16_linear_32_3551)"/>
<path d="M165.421 37.4454V83.4236C165.421 85.2032 166.713 86.5479 168.322 86.4236L199.588 84.1521L201.12 85.845L211.57 97.38C212.629 98.5468 214.547 97.635 214.547 95.9754V83.07L218.404 82.7904C220.244 82.6511 221.833 80.9904 221.833 79.0864V31.9843C221.833 30.0804 220.301 28.6779 218.463 28.8514L209.083 29.8061L168.344 33.9493C166.729 34.1025 165.421 35.6657 165.421 37.4454Z" fill="url(#paint17_linear_32_3551)"/>
<g opacity="0.8">
<g style="mix-blend-mode:multiply" opacity="0.3">
<path style="mix-blend-mode:multiply" opacity="0.3" d="M171.721 63.0152L215.678 59.501C216.4 59.4431 217.05 58.781 217.128 58.0202L217.463 54.7567C217.544 53.9842 217.014 53.4067 216.285 53.471L171.821 57.2767C171.151 57.3345 170.6 57.9763 170.589 58.7092L170.543 61.8056C170.532 62.5267 171.059 63.0677 171.721 63.0152Z" fill="url(#paint18_linear_32_3551)"/>
<path style="mix-blend-mode:multiply" opacity="0.3" d="M173.28 64.0438L176.411 78.6302C176.492 79.055 176.725 79.4355 177.067 79.6996C177.41 79.9638 177.837 80.0934 178.268 80.0638L206.501 78.2938C207.452 78.2338 208.342 77.5202 208.658 76.5581L213.841 60.8467L173.28 64.0438ZM202.761 64.347C202.808 63.7235 203.328 63.1802 203.921 63.1342L204.947 63.0549C205.542 63.0088 205.984 63.4835 205.932 64.1049L204.949 75.9977C204.921 76.2909 204.793 76.5653 204.585 76.7741C204.378 76.983 204.104 77.1134 203.811 77.1431L202.815 77.2074C202.237 77.2438 201.806 76.7938 201.85 76.2002L202.761 64.347ZM197.082 64.7756C197.123 64.1563 197.632 63.6174 198.219 63.5713L199.233 63.4931C199.822 63.447 200.264 63.9152 200.22 64.5367L199.371 76.3567C199.347 76.6464 199.223 76.9186 199.019 77.1262C198.816 77.3338 198.546 77.4637 198.257 77.4935L197.27 77.5567C196.699 77.5931 196.268 77.1452 196.306 76.5549L197.082 64.7756ZM191.464 65.2042C191.497 64.5892 192 64.0535 192.576 64.0085L193.58 63.9302C194.162 63.8852 194.604 64.3502 194.567 64.9674L193.85 76.7156C193.83 77.0025 193.71 77.2733 193.51 77.4801C193.311 77.687 193.044 77.8165 192.758 77.846L191.782 77.9081C191.217 77.9445 190.786 77.4988 190.818 76.9117L191.464 65.2042ZM185.905 65.6327C185.932 65.022 186.42 64.4885 186.994 64.4445L187.987 64.3674C188.564 64.3224 189.006 64.7852 188.975 65.3992L188.387 77.0777C188.372 77.3621 188.255 77.6316 188.059 77.8378C187.862 78.0439 187.599 78.1729 187.315 78.2017L186.351 78.2627C185.792 78.2992 185.36 77.8556 185.387 77.2727L185.905 65.6327ZM180.407 66.0527C180.427 65.4452 180.904 64.916 181.478 64.8742L182.46 64.7981C183.03 64.7531 183.473 65.2127 183.448 65.8235L182.987 77.4281C182.963 78.0099 182.495 78.5092 181.94 78.5445L180.984 78.6056C180.431 78.641 179.998 78.2006 180.02 77.621L180.407 66.0527Z" fill="url(#paint19_linear_32_3551)"/>
<path style="mix-blend-mode:multiply" opacity="0.3" d="M209.661 52.3834C210.286 52.9587 211.327 52.7927 211.989 52.0116C212.651 51.2305 212.687 50.1194 212.059 49.5387C211.431 48.958 210.381 49.1295 209.72 49.9191C209.059 50.7087 209.036 51.808 209.661 52.3834Z" fill="url(#paint20_linear_32_3551)"/>
<path style="mix-blend-mode:multiply" opacity="0.3" d="M196.286 37.5323C196.534 37.2109 197.009 37.2109 197.345 37.5173L210.724 49.8666C211.052 50.1698 211.11 50.6616 210.854 50.9659C210.598 51.2702 210.125 51.2712 209.797 50.9659L196.446 38.6669C196.111 38.3573 196.04 37.8505 196.286 37.5323Z" fill="url(#paint21_linear_32_3551)"/>
<path style="mix-blend-mode:multiply" opacity="0.3" d="M178.154 55.1306C177.497 55.797 176.529 55.8088 175.992 55.1563C175.454 54.5038 175.545 53.4281 176.206 52.7552C176.867 52.0824 177.838 52.0652 178.379 52.7252C178.92 53.3852 178.814 54.4609 178.154 55.1306Z" fill="url(#paint22_linear_32_3551)"/>
<path style="mix-blend-mode:multiply" opacity="0.3" d="M192.92 37.8783C192.706 37.6083 192.231 37.6994 191.859 38.0797L177.428 52.8473C177.084 53.1998 176.975 53.6905 177.184 53.9444C177.393 54.1983 177.841 54.1201 178.186 53.7687L192.634 39.0547C193.001 38.6787 193.132 38.1429 192.92 37.8783Z" fill="url(#paint23_linear_32_3551)"/>
</g>
<path opacity="0.8" d="M171.074 62.4106L215.09 58.906C215.813 58.8492 216.463 58.186 216.541 57.4231L216.875 54.1542C216.955 53.3806 216.424 52.802 215.697 52.8685L171.172 56.6645C170.502 56.7224 169.95 57.3653 169.94 58.0992L169.896 61.201C169.881 61.921 170.411 62.4642 171.074 62.4106Z" fill="white"/>
<path opacity="0.8" d="M172.636 63.4417L175.783 78.0549C175.864 78.4804 176.098 78.8615 176.44 79.1264C176.783 79.3913 177.211 79.5216 177.643 79.4928L205.916 77.7292C206.868 77.6703 207.758 76.9545 208.075 75.9924L213.253 60.2542L172.636 63.4417ZM202.16 63.7567C202.208 63.132 202.728 62.5877 203.323 62.5417L204.349 62.4634C204.946 62.4174 205.387 62.892 205.336 63.5145L204.36 75.4288C204.332 75.7221 204.204 75.9968 203.996 76.2059C203.789 76.415 203.515 76.5455 203.222 76.5753L202.223 76.6385C201.646 76.676 201.214 76.2238 201.259 75.6292L202.16 63.7567ZM196.472 64.1852C196.513 63.5649 197.022 63.0238 197.61 62.9788L198.626 62.9006C199.215 62.8556 199.657 63.3238 199.613 63.9463L198.772 75.7867C198.75 76.0775 198.625 76.3511 198.422 76.5598C198.218 76.7685 197.947 76.8991 197.657 76.9288L196.669 76.992C196.098 77.0285 195.665 76.5795 195.705 75.9881L196.472 64.1852ZM190.845 64.6138C190.879 63.9967 191.381 63.4599 191.959 63.4149L192.963 63.3377C193.547 63.2927 193.99 63.7588 193.953 64.377L193.243 76.1456C193.224 76.4329 193.104 76.7041 192.904 76.9113C192.704 77.1184 192.437 77.248 192.151 77.277L191.174 77.3392C190.608 77.3756 190.175 76.9299 190.21 76.3417L190.845 64.6138ZM185.273 65.0359C185.3 64.4242 185.788 63.8906 186.363 63.8456L187.357 63.7695C187.935 63.7245 188.378 64.1884 188.347 64.8024L187.773 76.5003C187.743 77.0863 187.264 77.5899 186.702 77.6253L185.737 77.6863C185.177 77.7228 184.744 77.2781 184.773 76.6942L185.273 65.0359ZM179.766 65.4549C179.787 64.8452 180.265 64.3159 180.838 64.2763L181.821 64.2002C182.392 64.1563 182.836 64.617 182.812 65.2277L182.357 76.8517C182.335 77.4335 181.865 77.9338 181.31 77.9692L180.352 78.0303C179.798 78.0656 179.366 77.6242 179.388 77.0435L179.766 65.4549Z" fill="white"/>
<path opacity="0.8" d="M209.063 51.7738C209.689 52.3502 210.732 52.1852 211.394 51.4031C212.056 50.6209 212.092 49.5077 211.462 48.9259C210.832 48.3442 209.782 48.5134 209.119 49.3052C208.457 50.097 208.436 51.1974 209.063 51.7738Z" fill="white"/>
<path opacity="0.8" d="M195.659 36.8904C195.907 36.569 196.383 36.569 196.72 36.8754L210.127 49.2526C210.456 49.5568 210.514 50.0497 210.258 50.3551C210.002 50.6604 209.528 50.6604 209.201 50.3551L195.818 38.0251C195.482 37.7144 195.41 37.2087 195.659 36.8904Z" fill="white"/>
<path opacity="0.8" d="M177.51 54.5131C176.852 55.1817 175.883 55.1924 175.344 54.5388C174.805 53.8853 174.895 52.8074 175.551 52.1335C176.207 51.4595 177.186 51.4424 177.728 52.1035C178.271 52.7645 178.17 53.8435 177.51 54.5131Z" fill="white"/>
<path opacity="0.8" d="M192.286 37.2355C192.071 36.9644 191.596 37.0555 191.223 37.4369L176.777 52.2227C176.432 52.5752 176.323 53.068 176.533 53.3219C176.743 53.5759 177.19 53.4977 177.535 53.1462L192 38.4109C192.368 38.0359 192.499 37.5055 192.286 37.2355Z" fill="white"/>
</g>
<path style="mix-blend-mode:multiply" opacity="0.2" d="M163.903 75.75V82.4379C163.903 85.7754 166.333 88.2975 169.353 88.0736L201.127 85.8471L211.574 97.3832C212.632 98.55 214.547 97.6382 214.547 95.9786V84.9075L217.299 84.7146C220.751 84.4586 223.567 81.3493 223.567 77.7718V33C223.567 29.4225 220.751 26.7857 217.299 27.1146L210.301 27.8475C209.86 28.4776 209.453 29.1302 209.081 29.8028C207.676 32.2921 206.815 35.0504 206.553 37.8964C205.462 50.205 192.601 42.6289 185.446 60.7339C181.595 70.4839 172.237 72.0289 165.432 75.0161C164.901 75.2518 164.51 75.4875 163.903 75.75Z" fill="url(#paint24_linear_32_3551)"/>
<path d="M241.756 112.945C243.118 113.289 244.542 113.314 245.916 113.02C247.807 112.603 250.53 111.339 250.535 109.846C250.535 109.13 249.913 108.882 249.049 107.843C247.252 105.676 247.693 104.018 246.752 102.378C244.686 98.7676 237.56 98.0262 236.443 99.7919C235.977 100.528 236.55 101.699 237.614 103.858C238.702 106.07 239.474 106.574 240.392 108.428C241.089 109.849 241.549 111.375 241.756 112.945Z" fill="url(#paint25_linear_32_3551)"/>
<path d="M279.75 235.015L280.131 234.354C280.131 234.354 280.816 233.943 281.138 234.792C281.461 235.64 283.298 240.068 283.396 242.078C282.915 243.279 281.552 242.261 281.27 241.444C280.988 240.628 280.015 237.597 280.015 237.597L279.75 235.015Z" fill="url(#paint26_linear_32_3551)"/>
<path d="M275.412 238.178C275.981 238.17 276.547 238.178 277.12 238.148C278.165 238.103 279.214 238.027 280.269 237.922C280.093 236.825 279.917 235.729 279.74 234.633C279.202 234.427 278.677 234.221 278.163 234.015C277.902 233.908 277.65 233.801 277.394 233.693C277.138 233.586 276.905 233.494 276.669 233.395C276.321 233.247 275.986 233.099 275.65 232.95C275.516 232.892 275.377 232.833 275.245 232.774C274.85 232.597 274.467 232.421 274.088 232.244L273.895 232.154C273.484 231.961 273.086 231.767 272.693 231.573L272.607 231.531C272.195 231.327 271.792 231.122 271.4 230.915L271.383 230.907C270.585 230.489 269.827 230.07 269.108 229.649C260.197 224.441 257.251 219.149 256.343 214.996C253.788 203.298 266.296 195.786 263.066 183.102C260.631 173.542 250.355 165.357 244.027 167.266C236.881 169.422 235.761 183.273 235.072 191.802C234.297 201.399 233.432 212.091 239.572 221.668C245.385 230.737 255.885 236.318 267.965 237.803C268.252 237.839 268.546 237.855 268.835 237.885C269.536 237.96 270.236 238.037 270.946 238.084C271.267 238.106 271.602 238.107 271.927 238.123C272.621 238.156 273.311 238.193 274.01 238.201C274.475 238.203 274.946 238.178 275.412 238.178Z" fill="url(#paint27_linear_32_3551)"/>
<path style="mix-blend-mode:multiply" opacity="0.25" d="M275.412 238.178C275.981 238.17 276.547 238.178 277.12 238.148C278.165 238.103 279.214 238.027 280.269 237.922C280.093 236.825 279.917 235.729 279.74 234.633C279.202 234.427 278.677 234.221 278.163 234.015C277.902 233.908 277.65 233.801 277.394 233.693C277.138 233.586 276.905 233.494 276.669 233.395C276.321 233.247 275.986 233.099 275.65 232.95C275.516 232.892 275.377 232.833 275.245 232.774C274.85 232.597 274.467 232.421 274.088 232.244L273.895 232.154C273.484 231.961 273.086 231.767 272.693 231.573L272.607 231.531C272.195 231.327 271.792 231.122 271.4 230.915L271.383 230.907C270.585 230.489 269.827 230.07 269.108 229.649C260.197 224.441 257.251 219.149 256.343 214.996C253.788 203.298 266.296 195.786 263.066 183.102C260.631 173.542 250.355 165.357 244.027 167.266C236.881 169.422 235.761 183.273 235.072 191.802C234.297 201.399 233.432 212.091 239.572 221.668C245.385 230.737 255.885 236.318 267.965 237.803C268.252 237.839 268.546 237.855 268.835 237.885C269.536 237.96 270.236 238.037 270.946 238.084C271.267 238.106 271.602 238.107 271.927 238.123C272.621 238.156 273.311 238.193 274.01 238.201C274.475 238.203 274.946 238.178 275.412 238.178Z" fill="url(#paint28_linear_32_3551)"/>
<path d="M217.22 170.181C215.854 168.014 222.224 164.817 224.292 155.922C226.04 148.412 222.47 146.509 224.418 136.456C225.502 130.856 227.353 127.604 229.51 125.244C231.287 123.298 233.596 120.77 235.678 121.101C242.207 122.143 249.937 151.821 236.893 164.765C230.195 171.416 218.868 172.796 217.22 170.181Z" fill="url(#paint29_linear_32_3551)"/>
<path d="M251.476 264.169C251.179 263.485 249.547 265.204 248.024 267.021L248.612 274.865C248.076 274.522 247.391 274.146 246.622 273.97C245.698 273.755 244.102 274.089 243.979 274.53C243.223 277.256 250.018 277.851 250.762 276.994C250.981 276.741 251.145 276.445 251.244 276.125C251.343 275.806 251.374 275.469 251.337 275.136C250.647 271.21 250.738 268.55 251.066 266.714C251.295 265.424 251.64 264.546 251.476 264.169Z" fill="url(#paint30_linear_32_3551)"/>
<path d="M268.885 176.475C265.007 170.758 261.227 164.974 257.438 159.198C256.693 158.064 256.259 156.747 256.054 155.365C254.47 156.629 253.036 158.07 251.781 159.661C250.709 165.011 249.066 173.054 246.892 182.804C241.367 207.573 239.042 213.776 237.87 221.567C236.067 233.553 236.707 251.217 248.612 274.869L251.337 275.14C253.251 254.908 255.446 236.647 256.553 227.264C256.929 224.08 258.039 214.529 263.152 206.835C263.234 206.712 270.802 196.364 273.413 192.23C274.282 190.854 275.369 189.069 276.604 186.68C273.673 183.597 271.323 180.071 268.885 176.475Z" fill="url(#paint31_linear_32_3551)"/>
<path style="mix-blend-mode:multiply" opacity="0.25" d="M268.885 176.475C265.007 170.758 261.227 164.974 257.438 159.198C256.693 158.064 256.259 156.747 256.054 155.365C254.47 156.629 253.036 158.07 251.78 159.661C250.089 166.197 248.888 171.797 248.04 176.075C245.698 187.942 245.832 191.223 247.504 194.17C249.81 198.22 252.465 197.125 254.147 200.65C257.101 206.83 249.192 211.052 249.265 222.971C249.305 229.579 251.668 231.238 250.592 237.303C250.315 238.87 249.527 242.309 249.875 247.035C250.028 249.111 250.197 248.659 250.322 250.534C250.684 255.877 249.41 260.788 249.962 264.124C250.093 264.94 250.351 265.73 250.727 266.466C251.065 267.112 251.494 267.707 252.001 268.231C253.736 250.815 255.567 235.563 256.546 227.261C256.922 224.078 258.032 214.526 263.145 206.832C263.228 206.709 270.795 196.361 273.406 192.226C274.275 190.85 275.363 189.065 276.598 186.677C273.673 183.597 271.323 180.071 268.885 176.475Z" fill="url(#paint32_linear_32_3551)"/>
<path d="M229.179 126.087C226.741 130.557 227.019 135.009 227.285 136.958C228.088 142.817 231.512 146.723 232.662 148.2C236.519 153.151 239.519 162.945 234.737 184.414C237.416 183.986 241.839 183.57 246.986 184.644C260.077 187.373 265.307 197.094 271.585 195.322C273.903 194.668 277.049 192.253 279.249 183.236C281.167 178.547 287.148 162.279 281.017 143.146C276.632 129.462 268.197 121.009 264.018 117.333C260.426 116.123 249.209 112.853 238.536 118.021C235.879 119.308 231.75 121.379 229.179 126.087Z" fill="url(#paint33_linear_32_3551)"/>
<path d="M243.2 108.772C243.2 109.717 243.233 114.772 245.481 115.605C245.972 115.786 246.366 115.67 248.546 115.727C249.787 115.76 250.796 115.827 251.449 115.876C251.305 117.008 251.04 118.122 250.66 119.197C247.863 127.065 238.813 132.531 235.746 130.562C234.15 129.537 234.027 126.462 233.976 125.185C233.919 123.715 234.165 122.25 234.698 120.88C235.821 120.064 236.97 119.247 238.144 118.429C238.911 117.896 239.674 117.372 240.433 116.859C240.383 115.891 240.332 114.923 240.28 113.955C241.254 112.226 242.227 110.499 243.2 108.772Z" fill="url(#paint34_linear_32_3551)"/>
<path d="M244.014 112.166C244.014 112.166 241.311 115.331 237.907 114.193C234.859 113.175 236.448 105.332 238.817 104.379C239.608 104.057 241.077 104.151 242.073 104.736C242.774 105.148 245.306 107.294 244.323 109.886C245.073 109.442 245.844 109.399 246.284 109.769C246.432 109.908 246.538 110.085 246.591 110.28C246.813 111.189 245.82 112.011 244.014 112.166Z" fill="url(#paint35_linear_32_3551)"/>
<path style="mix-blend-mode:multiply" opacity="0.3" d="M280.597 143.541C277.169 132.835 271.263 125.345 266.852 120.827C261.796 124.169 256.651 128.699 257.081 133.556C257.569 139.082 264.952 141.365 264.259 144.86C263.261 149.926 247.179 148.007 245.301 153.582C243.09 160.151 262.158 172.505 261.139 173.905C260.41 174.905 251.639 167.835 241.683 169.483C239.755 169.804 238.022 170.554 236.48 171.547C236.126 175.387 235.437 179.774 234.314 184.811C236.998 184.382 241.415 183.966 246.563 185.04C259.654 187.769 264.884 197.49 271.161 195.718C273.48 195.064 276.626 192.649 278.825 183.632C280.747 178.942 286.728 162.673 280.597 143.541Z" fill="url(#paint36_linear_32_3551)"/>
<path d="M256.479 118.106C259.518 117.348 259.533 116.36 263.598 117.728C275.271 121.657 287.626 139.272 281.241 151.71C277.689 158.628 269.178 164.867 259.796 163.428C252.158 162.256 247.672 156.571 246.531 155.026C246.088 153.258 245.646 151.49 245.204 149.72C250.182 152.542 253.688 152.541 256.037 151.932C260.037 150.892 260.924 148.027 267.534 145.52C270.105 144.543 271.654 144.342 271.734 143.531C271.898 141.855 265.424 141.297 261.341 137.782C258.368 135.221 255.4 129.998 256.479 118.106Z" fill="url(#paint37_linear_32_3551)"/>
<path d="M245.363 150.356L243.593 149.845C243.593 149.845 241.329 148.258 239.872 147.619C239.349 147.373 238.776 147.25 238.198 147.261C238.198 147.261 232.948 145.089 234.084 146.347C234.787 147.121 235.611 147.777 236.523 148.289C236.514 148.327 236.497 148.364 236.474 148.396C236.453 148.426 236.442 148.45 236.421 148.481C236.302 148.657 236.221 148.856 236.184 149.066C235.862 150.06 235.925 151.762 239.398 152.69V152.679C240.234 152.893 241.283 152.915 242.192 152.867C243.142 152.817 246.264 153.956 246.264 153.956L245.363 150.356Z" fill="url(#paint38_linear_32_3551)"/>
<path d="M152.498 188.9C152.442 188.901 152.387 188.888 152.337 188.863C152.293 188.842 152.255 188.812 152.223 188.776C152.191 188.74 152.167 188.698 152.151 188.652C152.136 188.607 152.129 188.558 152.132 188.51C152.136 188.462 152.148 188.415 152.169 188.372C152.208 188.293 156.027 180.461 153.794 177.565C153.015 176.555 151.522 176.266 149.357 176.707C146.464 177.295 144.495 178.554 143.507 180.451C141.801 183.729 143.574 187.88 143.593 187.921C143.612 187.965 143.622 188.013 143.623 188.061C143.624 188.109 143.616 188.157 143.598 188.202C143.58 188.247 143.554 188.287 143.521 188.322C143.487 188.357 143.448 188.385 143.403 188.404C143.359 188.423 143.312 188.434 143.264 188.434C143.216 188.435 143.168 188.427 143.123 188.409C143.078 188.392 143.037 188.365 143.003 188.332C142.968 188.299 142.94 188.259 142.921 188.215C142.842 188.033 140.992 183.708 142.854 180.117C143.949 178.011 146.088 176.622 149.211 175.99C151.675 175.49 153.411 175.871 154.374 177.121C156.883 180.377 152.994 188.36 152.827 188.699C152.797 188.76 152.75 188.811 152.691 188.847C152.633 188.882 152.566 188.901 152.498 188.9Z" fill="#CBD0D8"/>
<path d="M104.983 277.412C104.983 280.388 103.149 282.802 100.885 282.802C98.6209 282.802 96.7866 280.388 96.7866 277.412C96.7866 274.436 98.622 272.022 100.885 272.022C103.148 272.022 104.983 274.435 104.983 277.412Z" fill="url(#paint39_linear_32_3551)"/>
<path d="M106.124 278.021C106.124 280.998 104.29 283.411 102.027 283.411C99.7638 283.411 97.9285 280.998 97.9285 278.021C97.9285 275.043 99.7628 272.63 102.027 272.63C104.291 272.63 106.124 275.043 106.124 278.021Z" fill="url(#paint40_linear_32_3551)"/>
<path d="M103.743 278.129C103.743 279.376 102.974 280.388 102.029 280.388C101.084 280.388 100.314 279.376 100.314 278.129C100.314 276.882 101.083 275.87 102.029 275.87C102.975 275.87 103.743 276.882 103.743 278.129Z" fill="url(#paint41_linear_32_3551)"/>
<path d="M100.885 271.441V277.36C100.885 277.777 101.051 278.177 101.346 278.472C101.641 278.768 102.041 278.933 102.459 278.933C102.706 278.934 102.95 278.876 103.171 278.764C103.392 278.652 103.583 278.49 103.729 278.291L109.053 271.005L100.885 271.441Z" fill="#CBD0D8"/>
<path d="M148.856 272.685C148.856 275.663 147.021 278.075 144.758 278.075C142.496 278.075 140.66 275.663 140.66 272.685C140.66 269.708 142.494 267.295 144.758 267.295C147.022 267.295 148.856 269.708 148.856 272.685Z" fill="url(#paint42_linear_32_3551)"/>
<path d="M150 273.293C150 276.271 148.166 278.684 145.902 278.684C143.638 278.684 141.803 276.271 141.803 273.293C141.803 270.316 143.639 267.903 145.902 267.903C148.165 267.903 150 270.321 150 273.293Z" fill="url(#paint43_linear_32_3551)"/>
<path d="M145.9 275.66C146.848 275.66 147.617 274.649 147.617 273.402C147.617 272.154 146.848 271.143 145.9 271.143C144.951 271.143 144.182 272.154 144.182 273.402C144.182 274.649 144.951 275.66 145.9 275.66Z" fill="url(#paint44_linear_32_3551)"/>
<path d="M144.758 266.714V272.633C144.758 272.839 144.799 273.044 144.878 273.235C144.957 273.426 145.073 273.599 145.219 273.745C145.365 273.892 145.538 274.008 145.729 274.087C145.92 274.166 146.125 274.206 146.331 274.206C146.579 274.207 146.823 274.149 147.044 274.037C147.265 273.925 147.456 273.763 147.603 273.564L153.034 265.616L144.758 266.714Z" fill="#CBD0D8"/>
<path d="M100.274 271.94C100.105 271.942 99.9425 271.879 99.8193 271.765C99.696 271.65 99.622 271.491 99.6126 271.323C99.6032 271.155 99.6592 270.989 99.7688 270.861C99.8784 270.733 100.033 270.653 100.201 270.636L152.158 264.781C153.649 264.516 155.033 263.833 156.15 262.81C157.267 261.787 158.069 260.468 158.463 259.006L180.228 177.975C180.771 175.954 181.931 174.154 183.547 172.825C185.162 171.495 187.153 170.703 189.24 170.56L206.178 169.393C206.351 169.382 206.521 169.441 206.651 169.556C206.781 169.671 206.859 169.833 206.87 170.006C206.88 170.179 206.821 170.349 206.706 170.479C206.591 170.609 206.429 170.687 206.256 170.698L189.328 171.868C187.513 171.994 185.784 172.683 184.38 173.839C182.976 174.996 181.967 176.561 181.496 178.318L159.731 259.348C159.268 261.056 158.328 262.597 157.02 263.79C155.712 264.982 154.09 265.776 152.346 266.078L100.352 271.939C100.326 271.941 100.3 271.942 100.274 271.94Z" fill="#BFC8D6"/>
<path d="M136.421 240.042C136.279 240.042 136.14 239.995 136.027 239.91C135.913 239.824 135.831 239.704 135.792 239.567L123.557 196.755C123.509 196.588 123.53 196.409 123.614 196.258C123.699 196.106 123.84 195.994 124.007 195.947C124.173 195.899 124.352 195.92 124.504 196.004C124.655 196.088 124.767 196.229 124.815 196.396L137.05 239.208C137.077 239.306 137.082 239.408 137.063 239.507C137.044 239.607 137.003 239.7 136.942 239.781C136.881 239.862 136.802 239.927 136.712 239.972C136.622 240.018 136.522 240.041 136.421 240.042Z" fill="#BFC8D6"/>
<path d="M148.938 238.253C148.785 238.252 148.638 238.199 148.52 238.101C148.403 238.003 148.323 237.867 148.295 237.717L140.748 195.308C140.726 195.141 140.769 194.972 140.868 194.836C140.967 194.699 141.115 194.607 141.281 194.577C141.447 194.548 141.618 194.583 141.759 194.677C141.899 194.77 141.998 194.915 142.034 195.079L149.581 237.488C149.596 237.572 149.595 237.659 149.576 237.743C149.558 237.827 149.523 237.906 149.474 237.977C149.425 238.047 149.362 238.107 149.29 238.153C149.217 238.2 149.136 238.231 149.052 238.246C149.014 238.251 148.976 238.253 148.938 238.253Z" fill="#C2C2C2"/>
<path d="M156.714 236.862H156.687C156.601 236.859 156.517 236.838 156.439 236.802C156.361 236.766 156.29 236.715 156.232 236.652C156.174 236.589 156.129 236.515 156.099 236.434C156.07 236.353 156.056 236.267 156.06 236.182L157.801 194.222C157.812 194.05 157.889 193.889 158.016 193.772C158.142 193.655 158.309 193.592 158.482 193.595C158.655 193.603 158.818 193.678 158.936 193.806C159.053 193.933 159.115 194.102 159.108 194.276L157.367 236.236C157.36 236.405 157.288 236.564 157.166 236.68C157.044 236.797 156.882 236.862 156.714 236.862Z" fill="#C2C2C2"/>
<path d="M119.348 241.607C119.211 241.607 119.078 241.564 118.966 241.484C118.855 241.404 118.772 241.291 118.728 241.161L104.362 198.331C104.331 198.249 104.318 198.161 104.321 198.073C104.325 197.985 104.347 197.899 104.385 197.82C104.422 197.741 104.476 197.67 104.542 197.612C104.607 197.553 104.684 197.509 104.767 197.481C104.851 197.453 104.939 197.442 105.026 197.449C105.114 197.456 105.199 197.48 105.277 197.521C105.355 197.561 105.424 197.617 105.48 197.685C105.536 197.753 105.578 197.831 105.603 197.915L119.968 240.75C119.995 240.831 120.006 240.917 120 241.003C119.994 241.088 119.972 241.172 119.933 241.249C119.895 241.326 119.842 241.394 119.777 241.45C119.713 241.507 119.638 241.55 119.556 241.577C119.489 241.598 119.419 241.608 119.348 241.607Z" fill="#BFC8D6"/>
<path d="M241.985 173.973C242.254 173.971 242.512 173.865 242.706 173.677C242.899 173.49 243.013 173.236 243.024 172.967C243.035 172.698 242.942 172.435 242.764 172.232C242.587 172.03 242.338 171.904 242.07 171.88L206.713 168.973C206.436 168.95 206.161 169.038 205.949 169.218C205.737 169.398 205.605 169.654 205.582 169.931C205.559 170.208 205.647 170.483 205.827 170.695C206.006 170.907 206.263 171.039 206.54 171.062L241.897 173.969C241.927 173.972 241.956 173.973 241.985 173.973Z" fill="url(#paint45_linear_32_3551)"/>
<path d="M143.475 292.114C143.475 295.091 141.641 297.505 139.377 297.505C137.113 297.505 135.28 295.091 135.28 292.114C135.28 289.138 137.114 286.723 139.377 286.723C141.64 286.723 143.475 289.137 143.475 292.114Z" fill="url(#paint46_linear_32_3551)"/>
<path d="M144.617 292.723C144.617 295.7 142.782 298.113 140.519 298.113C138.256 298.113 136.421 295.7 136.421 292.723C136.421 289.745 138.256 287.331 140.519 287.331C142.782 287.331 144.617 289.745 144.617 292.723Z" fill="url(#paint47_linear_32_3551)"/>
<path d="M142.235 292.831C142.235 294.078 141.467 295.09 140.521 295.09C139.575 295.09 138.807 294.078 138.807 292.831C138.807 291.584 139.575 290.573 140.521 290.573C141.467 290.573 142.235 291.584 142.235 292.831Z" fill="url(#paint48_linear_32_3551)"/>
<path d="M139.377 286.143V292.062C139.377 292.479 139.543 292.879 139.838 293.175C140.133 293.47 140.533 293.636 140.951 293.636C141.198 293.636 141.442 293.578 141.663 293.466C141.884 293.355 142.075 293.192 142.221 292.993L147.545 285.707L139.377 286.143Z" fill="#97A6B7"/>
<path d="M181.46 288.312C181.46 291.288 179.625 293.702 177.362 293.702C175.099 293.702 173.264 291.288 173.264 288.312C173.264 285.335 175.099 282.92 177.362 282.92C179.625 282.92 181.46 285.334 181.46 288.312Z" fill="url(#paint49_linear_32_3551)"/>
<path d="M182.601 288.92C182.601 291.897 180.767 294.311 178.504 294.311C176.241 294.311 174.406 291.897 174.406 288.92C174.406 285.944 176.24 283.529 178.504 283.529C180.768 283.529 182.601 285.943 182.601 288.92Z" fill="url(#paint50_linear_32_3551)"/>
<path d="M180.221 289.029C180.221 290.276 179.451 291.287 178.506 291.287C177.561 291.287 176.792 290.276 176.792 289.029C176.792 287.781 177.56 286.77 178.506 286.77C179.452 286.77 180.221 287.786 180.221 289.029Z" fill="url(#paint51_linear_32_3551)"/>
<path d="M177.362 282.34V288.259C177.362 288.466 177.403 288.671 177.482 288.862C177.561 289.052 177.677 289.226 177.823 289.372C177.969 289.518 178.143 289.634 178.334 289.713C178.525 289.792 178.73 289.833 178.936 289.833C179.184 289.833 179.428 289.775 179.648 289.664C179.869 289.552 180.061 289.39 180.207 289.19L186.133 281.204L177.362 282.34Z" fill="#97A6B7"/>
<path d="M84.107 199.758C83.9359 199.761 83.7706 199.696 83.6466 199.578C83.5226 199.46 83.4498 199.299 83.4438 199.128C83.4377 198.957 83.499 198.79 83.6144 198.664C83.7298 198.537 83.8901 198.461 84.0609 198.452L176.596 191.792C176.648 191.787 176.701 191.79 176.753 191.799L215.062 198.321C215.22 198.363 215.356 198.462 215.444 198.599C215.533 198.736 215.567 198.901 215.54 199.062C215.513 199.222 215.427 199.367 215.299 199.468C215.172 199.569 215.011 199.619 214.848 199.607L176.617 193.096L84.1562 199.757L84.107 199.758Z" fill="#BFC8D6"/>
<path d="M170.343 188.263C170.303 188.263 170.263 188.256 170.225 188.243C170.18 188.228 170.138 188.204 170.102 188.172C170.065 188.14 170.036 188.102 170.014 188.059C169.993 188.015 169.981 187.968 169.977 187.92C169.974 187.872 169.981 187.824 169.996 187.778C170.014 187.724 171.84 182.247 170.085 179.176C169.505 178.161 168.585 177.516 167.336 177.256C166.143 177.007 165.129 177.22 164.229 177.905C161.291 180.141 160.846 186.584 160.842 186.644C160.84 186.692 160.828 186.74 160.807 186.783C160.786 186.827 160.756 186.866 160.72 186.898C160.684 186.93 160.641 186.954 160.596 186.969C160.55 186.985 160.501 186.991 160.453 186.987C160.405 186.984 160.358 186.971 160.315 186.95C160.271 186.929 160.233 186.899 160.201 186.863C160.169 186.827 160.145 186.785 160.129 186.74C160.114 186.694 160.107 186.646 160.11 186.598C160.128 186.319 160.584 179.759 163.785 177.321C164.849 176.511 166.094 176.25 167.486 176.538C168.945 176.842 170.035 177.61 170.723 178.813C172.64 182.172 170.771 187.777 170.69 188.014C170.666 188.087 170.619 188.15 170.557 188.194C170.494 188.239 170.42 188.263 170.343 188.263Z" fill="#CBD0D8"/>
<path d="M175.944 185.96L176.695 182.684L154.658 183.707L150.435 187.371L166.291 188.54L175.944 185.96Z" fill="url(#paint52_linear_32_3551)"/>
<path d="M176.695 182.684L194.778 225.43L183.243 240.749L172.401 201.747L173.385 185.166L176.695 182.684Z" fill="url(#paint53_linear_32_3551)"/>
<path d="M173.385 185.167L150.435 187.372C148.307 206.685 147.978 216.039 145.85 235.352C156.612 240.125 170.26 243.318 183.243 240.749C180.039 223.27 176.591 202.647 173.385 185.167Z" fill="url(#paint54_linear_32_3551)"/>
<path d="M159.195 189.034C159.107 189.034 159.023 189.003 158.956 188.946C158.89 188.889 158.846 188.81 158.833 188.724C158.791 188.448 157.829 181.941 160.432 178.875C161.298 177.856 162.457 177.332 163.879 177.317C165.379 177.298 166.598 177.815 167.529 178.844C170.122 181.713 169.499 187.589 169.471 187.838C169.46 187.934 169.411 188.022 169.335 188.083C169.259 188.144 169.163 188.172 169.066 188.161C168.969 188.15 168.881 188.102 168.82 188.026C168.76 187.95 168.732 187.853 168.742 187.756C168.749 187.698 169.356 181.958 166.984 179.335C166.201 178.469 165.154 178.032 163.887 178.049C162.671 178.062 161.723 178.487 160.994 179.349C158.603 182.163 159.55 188.547 159.56 188.611C159.575 188.707 159.55 188.805 159.493 188.884C159.435 188.962 159.349 189.014 159.253 189.029C159.234 189.032 159.214 189.034 159.195 189.034Z" fill="#CBD0D8"/>
<path d="M164.981 190.154L166.039 187.191L141.203 183.319L136.218 185.888L153.962 190.491L164.981 190.154Z" fill="url(#paint55_linear_32_3551)"/>
<path d="M166.039 187.191L183.563 231.965L169.594 244.047L159.964 204.439L162.156 188.833L166.039 187.191Z" fill="url(#paint56_linear_32_3551)"/>
<path d="M162.156 188.833L136.218 185.893C132.56 203.856 129.436 218.581 125.778 236.545C140.539 236.95 154.833 243.647 169.599 244.052C167.143 226.66 164.613 206.22 162.156 188.833Z" fill="url(#paint57_linear_32_3551)"/>
<path d="M153.57 190.441C153.508 190.441 153.447 190.424 153.392 190.394C153.338 190.364 153.292 190.32 153.26 190.267C153.227 190.214 153.208 190.154 153.205 190.092C153.201 190.03 153.214 189.968 153.241 189.912C153.279 189.834 157.098 182 154.865 179.105C154.087 178.095 152.594 177.806 150.428 178.248C147.536 178.834 145.566 180.094 144.578 181.992C142.873 185.268 144.646 189.42 144.664 189.462C144.703 189.551 144.705 189.652 144.67 189.742C144.634 189.833 144.564 189.906 144.475 189.944C144.386 189.983 144.285 189.985 144.195 189.95C144.104 189.914 144.031 189.844 143.992 189.755C143.913 189.573 142.064 185.248 143.926 181.657C145.02 179.551 147.159 178.162 150.283 177.529C152.747 177.03 154.484 177.411 155.446 178.661C157.954 181.917 154.066 189.901 153.899 190.24C153.868 190.301 153.821 190.352 153.763 190.387C153.705 190.423 153.638 190.441 153.57 190.441Z" fill="#CBD0D8"/>
<path d="M115.552 209.305C115.487 209.304 115.423 209.295 115.361 209.277L83.9197 199.73C83.7538 199.68 83.6146 199.566 83.5328 199.413C83.4511 199.26 83.4334 199.081 83.4837 198.915C83.534 198.749 83.6481 198.61 83.801 198.528C83.954 198.446 84.1331 198.429 84.299 198.479L115.617 207.988L214.889 198.321C214.974 198.313 215.061 198.322 215.143 198.347C215.225 198.372 215.301 198.413 215.368 198.467C215.434 198.522 215.489 198.589 215.529 198.665C215.57 198.741 215.595 198.824 215.603 198.909C215.611 198.995 215.603 199.081 215.578 199.163C215.553 199.245 215.512 199.322 215.457 199.388C215.403 199.454 215.335 199.509 215.26 199.549C215.184 199.59 215.101 199.615 215.015 199.623L115.615 209.305H115.552Z" fill="#97A6B7"/>
<path d="M202.983 243.08C202.95 243.08 202.917 243.078 202.884 243.073L165.135 237.281L107.732 242.806C107.56 242.823 107.387 242.77 107.254 242.66C107.12 242.55 107.035 242.391 107.019 242.218C107.002 242.045 107.055 241.873 107.165 241.739C107.275 241.606 107.434 241.521 107.607 241.504L165.091 235.971C165.145 235.964 165.199 235.964 165.253 235.971L203.082 241.775C203.244 241.802 203.39 241.888 203.491 242.017C203.592 242.146 203.642 242.308 203.629 242.471C203.617 242.634 203.544 242.787 203.424 242.899C203.304 243.011 203.147 243.074 202.983 243.076V243.08Z" fill="#CBD0D8"/>
<path d="M134.634 249.58C134.51 249.58 134.389 249.545 134.284 249.478C134.179 249.412 134.095 249.318 134.042 249.206L114.964 208.929C114.902 208.774 114.9 208.601 114.961 208.446C115.021 208.29 115.138 208.164 115.289 208.092C115.44 208.02 115.612 208.009 115.771 208.06C115.93 208.112 116.063 208.222 116.143 208.368L135.029 248.225L202.921 241.769C203.008 241.758 203.096 241.765 203.181 241.789C203.265 241.813 203.343 241.853 203.411 241.908C203.48 241.963 203.536 242.031 203.578 242.108C203.619 242.185 203.645 242.269 203.653 242.356C203.662 242.443 203.652 242.531 203.626 242.615C203.6 242.698 203.557 242.776 203.501 242.842C203.444 242.909 203.374 242.964 203.296 243.003C203.218 243.042 203.133 243.066 203.046 243.072L134.696 249.571C134.675 249.575 134.655 249.578 134.634 249.58Z" fill="#97A6B7"/>
<path d="M134.634 249.58C134.58 249.58 134.526 249.573 134.474 249.559L107.511 242.786C107.423 242.764 107.341 242.724 107.269 242.669C107.198 242.613 107.139 242.544 107.096 242.464L83.5352 199.414C83.4917 199.339 83.4638 199.255 83.453 199.169C83.4422 199.082 83.4489 198.995 83.4725 198.911C83.4961 198.827 83.5362 198.748 83.5905 198.68C83.6448 198.612 83.7122 198.555 83.7886 198.514C83.8651 198.472 83.9492 198.446 84.0359 198.437C84.1226 198.428 84.2102 198.436 84.2936 198.462C84.377 198.487 84.4544 198.529 84.5214 198.585C84.5884 198.641 84.6436 198.709 84.6837 198.787L108.107 241.59L134.793 248.291C134.945 248.332 135.076 248.427 135.164 248.558C135.251 248.688 135.289 248.846 135.27 249.002C135.25 249.158 135.176 249.302 135.059 249.407C134.943 249.513 134.792 249.573 134.635 249.576L134.634 249.58Z" fill="#97A6B7"/>
<path d="M122.492 223.954C122.43 223.954 122.368 223.945 122.308 223.928L92.6957 215.249C92.5349 215.195 92.4012 215.082 92.3227 214.932C92.2441 214.781 92.2268 214.607 92.2744 214.444C92.322 214.282 92.4308 214.144 92.5779 214.06C92.7249 213.976 92.8989 213.952 93.0632 213.993L122.557 222.643L210.076 215.01C210.162 215.003 210.248 215.012 210.33 215.038C210.412 215.064 210.488 215.105 210.553 215.16C210.619 215.216 210.674 215.283 210.713 215.359C210.753 215.435 210.777 215.519 210.785 215.604C210.792 215.69 210.783 215.776 210.757 215.858C210.731 215.94 210.69 216.016 210.634 216.082C210.579 216.147 210.512 216.202 210.436 216.241C210.359 216.281 210.276 216.305 210.191 216.313L122.548 223.957C122.529 223.957 122.511 223.956 122.492 223.954Z" fill="#97A6B7"/>
<path d="M129.725 239.222C129.666 239.222 129.607 239.214 129.55 239.199L101.181 231.251C101.096 231.23 101.015 231.193 100.944 231.14C100.874 231.088 100.814 231.022 100.77 230.946C100.725 230.87 100.696 230.786 100.685 230.698C100.674 230.611 100.68 230.523 100.704 230.438C100.727 230.353 100.768 230.274 100.823 230.205C100.878 230.136 100.946 230.079 101.024 230.038C101.101 229.996 101.186 229.97 101.274 229.962C101.362 229.954 101.45 229.964 101.534 229.991L129.787 237.906L205.793 231.257C205.879 231.25 205.965 231.259 206.047 231.285C206.129 231.311 206.205 231.352 206.271 231.407C206.337 231.463 206.391 231.53 206.431 231.606C206.47 231.682 206.495 231.766 206.502 231.851C206.51 231.937 206.5 232.023 206.475 232.105C206.449 232.187 206.407 232.263 206.352 232.329C206.297 232.394 206.229 232.449 206.153 232.488C206.077 232.528 205.994 232.552 205.908 232.56L129.783 239.22C129.764 239.222 129.745 239.222 129.725 239.222Z" fill="#97A6B7"/>
<path d="M148.59 248.25C148.449 248.25 148.312 248.205 148.199 248.12C148.086 248.036 148.003 247.918 147.963 247.783L135.794 206.957C135.77 206.875 135.761 206.788 135.77 206.703C135.779 206.618 135.805 206.535 135.846 206.459C135.887 206.384 135.942 206.317 136.009 206.263C136.075 206.209 136.152 206.168 136.234 206.144C136.317 206.119 136.403 206.111 136.488 206.12C136.574 206.129 136.657 206.155 136.732 206.196C136.808 206.236 136.874 206.292 136.928 206.359C136.983 206.425 137.023 206.502 137.048 206.584L149.216 247.411C149.24 247.493 149.249 247.58 149.24 247.665C149.231 247.75 149.206 247.833 149.165 247.909C149.124 247.984 149.069 248.051 149.002 248.105C148.936 248.159 148.859 248.2 148.776 248.224C148.716 248.242 148.653 248.251 148.59 248.25Z" fill="#97A6B7"/>
<path d="M162.052 246.972C161.899 246.972 161.751 246.918 161.633 246.82C161.516 246.722 161.436 246.586 161.409 246.436L154.109 205.071C154.089 204.985 154.088 204.896 154.104 204.809C154.12 204.722 154.153 204.639 154.202 204.565C154.251 204.491 154.314 204.428 154.388 204.38C154.462 204.331 154.546 204.299 154.633 204.283C154.72 204.268 154.809 204.27 154.895 204.29C154.981 204.311 155.063 204.348 155.134 204.4C155.205 204.453 155.265 204.519 155.31 204.596C155.355 204.672 155.384 204.756 155.395 204.844L162.693 246.208C162.708 246.293 162.706 246.38 162.687 246.464C162.668 246.548 162.633 246.628 162.583 246.698C162.533 246.769 162.47 246.828 162.397 246.874C162.324 246.92 162.243 246.951 162.158 246.965C162.122 246.97 162.087 246.972 162.052 246.972Z" fill="#97A6B7"/>
<path d="M177.234 245.25C177.066 245.25 176.906 245.186 176.784 245.071C176.663 244.956 176.59 244.799 176.581 244.632L174.281 203.561C174.276 203.475 174.288 203.389 174.317 203.308C174.345 203.227 174.389 203.152 174.446 203.088C174.504 203.024 174.573 202.972 174.65 202.935C174.728 202.898 174.812 202.876 174.897 202.871C174.983 202.866 175.069 202.879 175.15 202.907C175.231 202.935 175.306 202.979 175.37 203.037C175.434 203.094 175.486 203.163 175.523 203.241C175.56 203.318 175.582 203.402 175.587 203.488L177.887 244.559C177.897 244.732 177.837 244.902 177.722 245.032C177.606 245.161 177.443 245.239 177.27 245.249L177.234 245.25Z" fill="#97A6B7"/>
<path d="M191.618 243.633H191.583C191.41 243.624 191.247 243.546 191.131 243.418C191.015 243.289 190.955 243.119 190.964 242.946L193.153 201.214C193.156 201.128 193.176 201.043 193.213 200.965C193.249 200.887 193.301 200.817 193.365 200.759C193.43 200.702 193.505 200.657 193.586 200.629C193.668 200.601 193.755 200.59 193.841 200.596C193.926 200.6 194.01 200.622 194.088 200.659C194.166 200.696 194.235 200.747 194.293 200.811C194.35 200.875 194.395 200.949 194.423 201.03C194.452 201.111 194.464 201.197 194.46 201.283L192.271 243.01C192.263 243.177 192.191 243.336 192.07 243.452C191.948 243.568 191.786 243.633 191.618 243.633Z" fill="#97A6B7"/>
<path d="M126.479 247.532C126.356 247.532 126.235 247.497 126.131 247.431C126.026 247.366 125.943 247.272 125.889 247.161L106.22 206.28C106.155 206.125 106.151 205.951 106.211 205.793C106.27 205.636 106.388 205.508 106.539 205.435C106.691 205.362 106.865 205.35 107.025 205.402C107.185 205.454 107.319 205.565 107.399 205.713L127.071 246.593C127.119 246.693 127.141 246.803 127.134 246.914C127.128 247.024 127.094 247.131 127.035 247.225C126.976 247.318 126.895 247.396 126.798 247.449C126.701 247.503 126.593 247.531 126.482 247.532H126.479Z" fill="#97A6B7"/>
<path d="M115.551 244.788C115.43 244.788 115.31 244.754 115.207 244.69C115.103 244.626 115.02 244.535 114.965 244.426L94.0886 202.607C94.0502 202.53 94.0274 202.446 94.0214 202.361C94.0154 202.275 94.0263 202.189 94.0535 202.108C94.0807 202.026 94.1237 201.951 94.18 201.886C94.2363 201.821 94.3048 201.768 94.3816 201.73C94.4585 201.692 94.5421 201.669 94.6277 201.663C94.7134 201.657 94.7994 201.668 94.8808 201.695C94.9622 201.722 95.0375 201.765 95.1023 201.821C95.1672 201.878 95.2203 201.946 95.2586 202.023L116.136 243.845C116.186 243.945 116.209 244.055 116.204 244.167C116.198 244.278 116.165 244.386 116.106 244.48C116.048 244.575 115.966 244.653 115.869 244.707C115.772 244.762 115.663 244.791 115.551 244.791V244.788Z" fill="#97A6B7"/>
<path d="M139.171 287.377C139.088 287.377 139.007 287.362 138.93 287.331L100.037 271.894C99.9544 271.864 99.8786 271.818 99.8141 271.759C99.7496 271.699 99.6978 271.627 99.6617 271.547C99.6256 271.467 99.6059 271.381 99.6039 271.293C99.6019 271.205 99.6176 271.118 99.65 271.036C99.6825 270.955 99.731 270.881 99.7927 270.818C99.8544 270.756 99.928 270.706 100.009 270.673C100.09 270.639 100.177 270.623 100.265 270.623C100.353 270.624 100.44 270.643 100.52 270.678L139.262 286.054L186.289 280.309C188 280.104 189.612 279.393 190.916 278.267C192.221 277.14 193.16 275.651 193.613 273.988L219.335 180.61C219.888 178.61 221.046 176.831 222.65 175.515C224.253 174.199 226.225 173.411 228.293 173.258L241.94 172.268C242.11 172.262 242.275 172.322 242.401 172.436C242.527 172.549 242.604 172.707 242.616 172.876C242.629 173.045 242.575 173.212 242.466 173.342C242.358 173.472 242.203 173.555 242.035 173.573L228.388 174.562C226.588 174.695 224.874 175.381 223.48 176.526C222.085 177.67 221.078 179.218 220.596 180.957L194.875 274.335C194.353 276.247 193.272 277.961 191.771 279.256C190.27 280.551 188.416 281.369 186.448 281.605L139.255 287.369C139.227 287.374 139.199 287.376 139.171 287.377Z" fill="#97A6B7"/>
<path d="M220.8 170.131C220.8 170.131 217.42 167.178 214.242 168.221C213.789 168.371 212.988 168.682 212.566 169.485C212.11 170.353 212.276 171.482 212.851 172.195C213.673 173.21 215.251 173.212 216.785 171.858C216.65 171.823 215.814 172.049 215.591 171.299C215.591 171.299 215.428 171.145 215.543 170.789C215.947 169.531 220.5 170.12 220.8 170.131Z" fill="url(#paint58_linear_32_3551)"/>
</g>
<defs>
<linearGradient id="paint0_linear_32_3551" x1="12.6665" y1="66.1372" x2="86.3862" y2="66.1372" gradientUnits="userSpaceOnUse">
<stop stop-color="#AA80F9"/>
<stop offset="1" stop-color="#6165D7"/>
</linearGradient>
<linearGradient id="paint1_linear_32_3551" x1="148377" y1="19095.2" x2="199055" y2="19095.2" gradientUnits="userSpaceOnUse">
<stop stop-color="#AA80F9"/>
<stop offset="1" stop-color="#6165D7"/>
</linearGradient>
<linearGradient id="paint2_linear_32_3551" x1="148377" y1="16427.6" x2="199055" y2="16427.6" gradientUnits="userSpaceOnUse">
<stop stop-color="#AA80F9"/>
<stop offset="1" stop-color="#6165D7"/>
</linearGradient>
<linearGradient id="paint3_linear_32_3551" x1="8528.87" y1="18282" x2="56717.2" y2="18282" gradientUnits="userSpaceOnUse">
<stop stop-color="#AA80F9"/>
<stop offset="1" stop-color="#6165D7"/>
</linearGradient>
<linearGradient id="paint4_linear_32_3551" x1="8528.87" y1="15741.6" x2="56717.2" y2="15741.6" gradientUnits="userSpaceOnUse">
<stop stop-color="#AA80F9"/>
<stop offset="1" stop-color="#6165D7"/>
</linearGradient>
<linearGradient id="paint5_linear_32_3551" x1="22078.2" y1="16897.3" x2="409846" y2="16897.3" gradientUnits="userSpaceOnUse">
<stop stop-color="#AA80F9"/>
<stop offset="1" stop-color="#6165D7"/>
</linearGradient>
<linearGradient id="paint6_linear_32_3551" x1="107911" y1="14839.7" x2="202084" y2="14839.7" gradientUnits="userSpaceOnUse">
<stop stop-color="#AA80F9"/>
<stop offset="1" stop-color="#6165D7"/>
</linearGradient>
<linearGradient id="paint7_linear_32_3551" x1="1530.41" y1="14686.5" x2="1561.76" y2="14686.5" gradientUnits="userSpaceOnUse">
<stop stop-color="#AA80F9"/>
<stop offset="1" stop-color="#6165D7"/>
</linearGradient>
<linearGradient id="paint8_linear_32_3551" x1="147094" y1="11544.5" x2="149068" y2="3967.72" gradientUnits="userSpaceOnUse">
<stop stop-color="#AA80F9"/>
<stop offset="1" stop-color="#6165D7"/>
</linearGradient>
<linearGradient id="paint9_linear_32_3551" x1="111860" y1="3716.12" x2="112067" y2="7793.72" gradientUnits="userSpaceOnUse">
<stop stop-color="#AA80F9"/>
<stop offset="1" stop-color="#6165D7"/>
</linearGradient>
<linearGradient id="paint10_linear_32_3551" x1="172901" y1="14621.7" x2="173399" y2="10469.5" gradientUnits="userSpaceOnUse">
<stop stop-color="#AA80F9"/>
<stop offset="1" stop-color="#6165D7"/>
</linearGradient>
<linearGradient id="paint11_linear_32_3551" x1="244427" y1="13842.1" x2="244852" y2="20525.6" gradientUnits="userSpaceOnUse">
<stop stop-color="#AA80F9"/>
<stop offset="1" stop-color="#6165D7"/>
</linearGradient>
<linearGradient id="paint12_linear_32_3551" x1="53.8993" y1="222.809" x2="98.7461" y2="222.809" gradientUnits="userSpaceOnUse">
<stop stop-color="#FF9085"/>
<stop offset="1" stop-color="#FB6FBB"/>
</linearGradient>
<linearGradient id="paint13_linear_32_3551" x1="14.2994" y1="211.549" x2="85.7915" y2="211.549" gradientUnits="userSpaceOnUse">
<stop stop-color="#FFC444"/>
<stop offset="1" stop-color="#F36F56"/>
</linearGradient>
<linearGradient id="paint14_linear_32_3551" x1="4.25664" y1="249.013" x2="75.9737" y2="249.013" gradientUnits="userSpaceOnUse">
<stop stop-color="#E38DDD"/>
<stop offset="1" stop-color="#9571F6"/>
</linearGradient>
<linearGradient id="paint15_linear_32_3551" x1="244.107" y1="121.597" x2="40.849" y2="-139.45" gradientUnits="userSpaceOnUse">
<stop stop-color="#AB316D"/>
<stop offset="1" stop-color="#792D3D"/>
</linearGradient>
<linearGradient id="paint16_linear_32_3551" x1="224.437" y1="97.1549" x2="187.873" y2="50.1932" gradientUnits="userSpaceOnUse">
<stop stop-color="#FCB148"/>
<stop offset="0.05" stop-color="#FDBA46"/>
<stop offset="0.14" stop-color="#FFC244"/>
<stop offset="0.32" stop-color="#FFC444"/>
<stop offset="0.48" stop-color="#FDB946"/>
<stop offset="0.78" stop-color="#F99C4D"/>
<stop offset="0.87" stop-color="#F8924F"/>
<stop offset="1" stop-color="#F8924F"/>
</linearGradient>
<linearGradient id="paint17_linear_32_3551" x1="-70411.2" y1="77472.7" x2="62625.6" y2="-62078.2" gradientUnits="userSpaceOnUse">
<stop stop-color="#FCB148"/>
<stop offset="0.05" stop-color="#FDBA46"/>
<stop offset="0.14" stop-color="#FFC244"/>
<stop offset="0.32" stop-color="#FFC444"/>
<stop offset="0.48" stop-color="#FDB946"/>
<stop offset="0.78" stop-color="#F99C4D"/>
<stop offset="0.87" stop-color="#F8924F"/>
<stop offset="1" stop-color="#F8924F"/>
</linearGradient>
<linearGradient id="paint18_linear_32_3551" x1="47805.8" y1="5246.21" x2="27251.7" y2="5246.21" gradientUnits="userSpaceOnUse">
<stop stop-color="#FFC444"/>
<stop offset="1" stop-color="#F36F56"/>
</linearGradient>
<linearGradient id="paint19_linear_32_3551" x1="39935.1" y1="12700.8" x2="24579.9" y2="12700.8" gradientUnits="userSpaceOnUse">
<stop stop-color="#FFC444"/>
<stop offset="1" stop-color="#F36F56"/>
</linearGradient>
<linearGradient id="paint20_linear_32_3551" x1="3113.29" y1="1728.97" x2="3011.56" y2="1728.97" gradientUnits="userSpaceOnUse">
<stop stop-color="#FFC444"/>
<stop offset="1" stop-color="#F36F56"/>
</linearGradient>
<linearGradient id="paint21_linear_32_3551" x1="14188.1" y1="5779.16" x2="12123" y2="5779.16" gradientUnits="userSpaceOnUse">
<stop stop-color="#FFC444"/>
<stop offset="1" stop-color="#F36F56"/>
</linearGradient>
<linearGradient id="paint22_linear_32_3551" x1="1962.59" y1="1762.84" x2="1873.91" y2="1762.84" gradientUnits="userSpaceOnUse">
<stop stop-color="#FFC444"/>
<stop offset="1" stop-color="#F36F56"/>
</linearGradient>
<linearGradient id="paint23_linear_32_3551" x1="12556.5" y1="7052.02" x2="10183" y2="7052.02" gradientUnits="userSpaceOnUse">
<stop stop-color="#FFC444"/>
<stop offset="1" stop-color="#F36F56"/>
</linearGradient>
<linearGradient id="paint24_linear_32_3551" x1="-64091.9" y1="41340.3" x2="-30866.5" y2="41340.3" gradientUnits="userSpaceOnUse">
<stop stop-color="#FCB148"/>
<stop offset="0.05" stop-color="#FDBA46"/>
<stop offset="0.14" stop-color="#FFC244"/>
<stop offset="0.32" stop-color="#FFC444"/>
<stop offset="0.48" stop-color="#FDB946"/>
<stop offset="0.78" stop-color="#F99C4D"/>
<stop offset="0.87" stop-color="#F8924F"/>
<stop offset="1" stop-color="#F8924F"/>
</linearGradient>
<linearGradient id="paint25_linear_32_3551" x1="236.243" y1="99.7104" x2="249.62" y2="111.152" gradientUnits="userSpaceOnUse">
<stop stop-color="#311944"/>
<stop offset="1" stop-color="#6B3976"/>
</linearGradient>
<linearGradient id="paint26_linear_32_3551" x1="12839.1" y1="18540.5" x2="14563.7" y2="18945.5" gradientUnits="userSpaceOnUse">
<stop stop-color="#AB316D"/>
<stop offset="1" stop-color="#792D3D"/>
</linearGradient>
<linearGradient id="paint27_linear_32_3551" x1="228.16" y1="215.837" x2="257.637" y2="204.341" gradientUnits="userSpaceOnUse">
<stop stop-color="#40447E"/>
<stop offset="1" stop-color="#3C3B6B"/>
</linearGradient>
<linearGradient id="paint28_linear_32_3551" x1="228.16" y1="215.837" x2="257.637" y2="204.341" gradientUnits="userSpaceOnUse">
<stop stop-color="#40447E"/>
<stop offset="1" stop-color="#3C3B6B"/>
</linearGradient>
<linearGradient id="paint29_linear_32_3551" x1="63176.3" y1="61205.2" x2="72524.7" y2="65961.2" gradientUnits="userSpaceOnUse">
<stop stop-color="#FFC444"/>
<stop offset="1" stop-color="#F36F56"/>
</linearGradient>
<linearGradient id="paint30_linear_32_3551" x1="23339.6" y1="33552" x2="24057.9" y2="38367.5" gradientUnits="userSpaceOnUse">
<stop stop-color="#AB316D"/>
<stop offset="1" stop-color="#792D3D"/>
</linearGradient>
<linearGradient id="paint31_linear_32_3551" x1="135690" y1="238642" x2="164826" y2="261123" gradientUnits="userSpaceOnUse">
<stop stop-color="#40447E"/>
<stop offset="1" stop-color="#3C3B6B"/>
</linearGradient>
<linearGradient id="paint32_linear_32_3551" x1="82699.9" y1="194243" x2="106418" y2="215847" gradientUnits="userSpaceOnUse">
<stop stop-color="#40447E"/>
<stop offset="1" stop-color="#3C3B6B"/>
</linearGradient>
<linearGradient id="paint33_linear_32_3551" x1="160869" y1="102019" x2="203162" y2="119387" gradientUnits="userSpaceOnUse">
<stop stop-color="#FFC444"/>
<stop offset="1" stop-color="#F36F56"/>
</linearGradient>
<linearGradient id="paint34_linear_32_3551" x1="249.661" y1="134.985" x2="235.894" y2="104.603" gradientUnits="userSpaceOnUse">
<stop stop-color="#311944"/>
<stop offset="1" stop-color="#893976"/>
</linearGradient>
<linearGradient id="paint35_linear_32_3551" x1="231.259" y1="127.354" x2="240.968" y2="110.949" gradientUnits="userSpaceOnUse">
<stop stop-color="#311944"/>
<stop offset="1" stop-color="#A03976"/>
</linearGradient>
<linearGradient id="paint36_linear_32_3551" x1="138565" y1="95745" x2="177020" y2="110293" gradientUnits="userSpaceOnUse">
<stop stop-color="#FFC444"/>
<stop offset="1" stop-color="#F36F56"/>
</linearGradient>
<linearGradient id="paint37_linear_32_3551" x1="104389" y1="59743.4" x2="118374" y2="66929.3" gradientUnits="userSpaceOnUse">
<stop stop-color="#FFC444"/>
<stop offset="1" stop-color="#F36F56"/>
</linearGradient>
<linearGradient id="paint38_linear_32_3551" x1="31758.1" y1="11343.4" x2="34128.4" y2="11343.4" gradientUnits="userSpaceOnUse">
<stop stop-color="#311944"/>
<stop offset="1" stop-color="#A03976"/>
</linearGradient>
<linearGradient id="paint39_linear_32_3551" x1="25949.6" y1="27810.7" x2="26159.8" y2="27945" gradientUnits="userSpaceOnUse">
<stop stop-color="#AA80F9"/>
<stop offset="1" stop-color="#6165D7"/>
</linearGradient>
<linearGradient id="paint40_linear_32_3551" x1="26059.8" y1="28247" x2="26686.7" y2="28247" gradientUnits="userSpaceOnUse">
<stop stop-color="#AA80F9"/>
<stop offset="1" stop-color="#6165D7"/>
</linearGradient>
<linearGradient id="paint41_linear_32_3551" x1="10895.4" y1="12001.8" x2="11005.3" y2="12001.8" gradientUnits="userSpaceOnUse">
<stop stop-color="#40447E"/>
<stop offset="1" stop-color="#3C3B6B"/>
</linearGradient>
<linearGradient id="paint42_linear_32_3551" x1="29346" y1="27330.4" x2="29556.1" y2="27464.7" gradientUnits="userSpaceOnUse">
<stop stop-color="#AA80F9"/>
<stop offset="1" stop-color="#6165D7"/>
</linearGradient>
<linearGradient id="paint43_linear_32_3551" x1="29463.4" y1="27766.7" x2="30090.5" y2="27766.7" gradientUnits="userSpaceOnUse">
<stop stop-color="#AA80F9"/>
<stop offset="1" stop-color="#6165D7"/>
</linearGradient>
<linearGradient id="paint44_linear_32_3551" x1="12366.6" y1="11797.8" x2="12476.7" y2="11797.8" gradientUnits="userSpaceOnUse">
<stop stop-color="#40447E"/>
<stop offset="1" stop-color="#3C3B6B"/>
</linearGradient>
<linearGradient id="paint45_linear_32_3551" x1="157328" y1="8177.07" x2="170419" y2="8177.07" gradientUnits="userSpaceOnUse">
<stop stop-color="#40447E"/>
<stop offset="1" stop-color="#3C3B6B"/>
</linearGradient>
<linearGradient id="paint46_linear_32_3551" x1="28928.9" y1="29307.4" x2="29139.1" y2="29441.8" gradientUnits="userSpaceOnUse">
<stop stop-color="#AA80F9"/>
<stop offset="1" stop-color="#6165D7"/>
</linearGradient>
<linearGradient id="paint47_linear_32_3551" x1="29046.4" y1="29744" x2="29673.4" y2="29744" gradientUnits="userSpaceOnUse">
<stop stop-color="#AA80F9"/>
<stop offset="1" stop-color="#6165D7"/>
</linearGradient>
<linearGradient id="paint48_linear_32_3551" x1="12165.7" y1="12636.4" x2="12275.6" y2="12636.4" gradientUnits="userSpaceOnUse">
<stop stop-color="#40447E"/>
<stop offset="1" stop-color="#3C3B6B"/>
</linearGradient>
<linearGradient id="paint49_linear_32_3551" x1="31876.2" y1="28921" x2="32086.4" y2="29055.4" gradientUnits="userSpaceOnUse">
<stop stop-color="#AA80F9"/>
<stop offset="1" stop-color="#6165D7"/>
</linearGradient>
<linearGradient id="paint50_linear_32_3551" x1="31986" y1="29357.6" x2="32612.9" y2="29357.6" gradientUnits="userSpaceOnUse">
<stop stop-color="#AA80F9"/>
<stop offset="1" stop-color="#6165D7"/>
</linearGradient>
<linearGradient id="paint51_linear_32_3551" x1="13419.6" y1="12472.2" x2="13529.5" y2="12472.2" gradientUnits="userSpaceOnUse">
<stop stop-color="#40447E"/>
<stop offset="1" stop-color="#3C3B6B"/>
</linearGradient>
<linearGradient id="paint52_linear_32_3551" x1="58096.6" y1="-11345.2" x2="62720.1" y2="-17664.9" gradientUnits="userSpaceOnUse">
<stop stop-color="#AA80F9"/>
<stop offset="1" stop-color="#6165D7"/>
</linearGradient>
<linearGradient id="paint53_linear_32_3551" x1="134034" y1="136870" x2="157466" y2="173010" gradientUnits="userSpaceOnUse">
<stop stop-color="#AA80F9"/>
<stop offset="1" stop-color="#6165D7"/>
</linearGradient>
<linearGradient id="paint54_linear_32_3551" x1="155604" y1="150368" x2="141694" y2="155100" gradientUnits="userSpaceOnUse">
<stop stop-color="#AA80F9"/>
<stop offset="1" stop-color="#6165D7"/>
</linearGradient>
<linearGradient id="paint55_linear_32_3551" x1="50587.6" y1="3188.66" x2="56409.3" y2="-3269.26" gradientUnits="userSpaceOnUse">
<stop stop-color="#FF9085"/>
<stop offset="1" stop-color="#FB6FBB"/>
</linearGradient>
<linearGradient id="paint56_linear_32_3551" x1="31986.6" y1="109336" x2="26158.1" y2="111316" gradientUnits="userSpaceOnUse">
<stop stop-color="#FF9085"/>
<stop offset="1" stop-color="#FB6FBB"/>
</linearGradient>
<linearGradient id="paint57_linear_32_3551" x1="131878" y1="124002" x2="112692" y2="129997" gradientUnits="userSpaceOnUse">
<stop stop-color="#FF9085"/>
<stop offset="1" stop-color="#FB6FBB"/>
</linearGradient>
<linearGradient id="paint58_linear_32_3551" x1="20806.3" y1="7726.37" x2="20683.6" y2="8053.73" gradientUnits="userSpaceOnUse">
<stop stop-color="#311944"/>
<stop offset="1" stop-color="#A03976"/>
</linearGradient>
<clipPath id="clip0_32_3551">
<rect width="300" height="298.113" fill="white"/>
</clipPath>
</defs>
</svg>
