<svg width="279" height="300" viewBox="0 0 279 300" fill="none" xmlns="http://www.w3.org/2000/svg">
<g clip-path="url(#clip0_35_5048)">
<path d="M143.328 23.014C72.1602 20.9129 10.5135 72.5519 1.19535 140.309C-8.98362 214.393 47.064 281.05 116.027 291.726C201.807 305.005 285.008 228.182 277.537 144.842C271.909 82.0514 215.672 25.15 143.328 23.014Z" fill="#F4F7FA"/>
<path d="M149.275 217.959C135.057 218.744 107.958 161.93 126.892 131.699C134.792 119.085 146.718 117.474 151.758 101.412C156.257 87.0787 148.752 82.0265 151.109 66.0622C154.425 43.6141 174.332 19.279 192.669 21.146C201.869 22.0825 212.16 29.7658 215.134 40.683C217.515 49.4253 210.285 58.3171 212.843 60.0905C214.942 61.5451 219.199 55.6202 222.945 56.7241C228.469 58.353 232.282 75.0934 227.289 89.136C218.74 113.174 189.818 114.016 188.633 131.34C187.88 142.383 199.372 145.823 197.479 157.201C195.813 167.21 186.157 169.113 173.798 181.51C154.44 200.913 156.897 217.537 149.275 217.959Z" fill="url(#paint0_linear_35_5048)"/>
<g style="mix-blend-mode:soft-light" opacity="0.5">
<g style="mix-blend-mode:soft-light" opacity="0.5">
<path d="M152.876 230.447C152.741 230.486 152.598 230.485 152.464 230.443C152.331 230.401 152.212 230.321 152.124 230.212C152.036 230.103 151.982 229.97 151.968 229.831C151.955 229.691 151.984 229.551 152.05 229.428C152.05 228.998 151.768 227.606 151.441 226.009C149.599 217.025 144.707 193.161 149.568 155.188C155.681 107.43 174.74 55.3372 206.214 0.35767C206.26 0.276619 206.322 0.20551 206.396 0.148402C206.47 0.091295 206.554 0.0493078 206.644 0.0248381C206.735 0.000368482 206.829 -0.00610447 206.921 0.00578888C207.014 0.0176822 207.103 0.047709 207.184 0.0941547C207.265 0.1406 207.337 0.202555 207.394 0.276483C207.451 0.35041 207.493 0.434861 207.517 0.525015C207.542 0.615169 207.548 0.709259 207.536 0.801915C207.524 0.89457 207.494 0.983976 207.448 1.06503C173.633 60.1333 136.712 147.058 152.835 225.725C153.564 229.284 153.696 229.926 153.081 230.351C153.018 230.394 152.949 230.426 152.876 230.447Z" fill="white"/>
</g>
<g style="mix-blend-mode:soft-light" opacity="0.5">
<path d="M162.572 104.565C162.394 104.614 162.205 104.593 162.043 104.506C161.882 104.418 161.76 104.272 161.704 104.097C161.648 103.922 161.662 103.731 161.743 103.566C161.824 103.401 161.965 103.274 162.138 103.211C192.66 92.5382 210.757 81.606 220.571 74.3193C231.193 66.4248 234.646 60.9841 234.68 60.9303C234.779 60.7699 234.938 60.6556 235.122 60.6124C235.306 60.5693 235.499 60.6008 235.659 60.7002C235.82 60.7995 235.934 60.9585 235.977 61.1422C236.021 61.3259 235.989 61.5191 235.89 61.6795C235.748 61.9067 232.321 67.3374 221.536 75.3743C211.641 82.7468 193.386 93.7945 162.607 104.557L162.572 104.565Z" fill="white"/>
</g>
<g style="mix-blend-mode:soft-light" opacity="0.5">
<path d="M173.651 70.2455C173.505 70.2878 173.35 70.2825 173.207 70.2306C164.895 67.1889 159.169 56.8874 156.182 39.6229C153.979 26.8945 154.164 14.8784 154.167 14.7589C154.176 14.5745 154.257 14.401 154.391 14.275C154.526 14.149 154.705 14.0804 154.889 14.0836C155.074 14.0868 155.25 14.1617 155.38 14.2923C155.511 14.423 155.585 14.5992 155.588 14.7838C155.58 15.256 154.977 62.0432 173.692 68.8946C173.832 68.9461 173.953 69.0408 174.037 69.165C174.121 69.2893 174.163 69.4369 174.158 69.5866C174.153 69.7364 174.101 69.8807 174.009 69.9991C173.917 70.1174 173.79 70.2036 173.646 70.2455H173.651Z" fill="white"/>
</g>
<g style="mix-blend-mode:soft-light" opacity="0.5">
<path d="M149.523 164.453C149.421 164.483 149.314 164.489 149.209 164.472C149.105 164.455 149.005 164.414 148.918 164.354C137.424 156.391 131.868 142.478 129.231 132.208C126.385 121.128 126.228 111.782 126.228 111.683C126.226 111.494 126.298 111.312 126.43 111.177C126.561 111.042 126.741 110.964 126.93 110.962C127.119 110.959 127.301 111.032 127.436 111.164C127.571 111.295 127.648 111.475 127.651 111.664C127.651 111.755 127.805 120.964 130.614 131.888C133.191 141.912 138.6 155.479 149.725 163.186C149.836 163.262 149.923 163.369 149.976 163.492C150.028 163.616 150.045 163.752 150.023 163.885C150.002 164.017 149.943 164.141 149.854 164.242C149.765 164.343 149.649 164.416 149.52 164.453H149.523Z" fill="white"/>
</g>
</g>
<path d="M144.958 249.411C140.307 226.718 140.956 209.133 142.313 197.66C143.378 188.655 145.748 176.068 152.155 174.486C155.226 173.728 156.976 176.052 160.181 175.113C166.231 173.338 166.076 163.27 169.896 155.946C176.428 143.418 197.459 133.422 212.518 140.831C230.651 149.75 232.581 180.193 222.829 189.574C217.051 195.132 206.712 193.738 206.149 197.781C205.583 201.849 215.945 204.058 216.672 210.577C217.423 217.33 207.264 223.449 206.648 223.812C194.335 231.05 184.65 223.564 171.138 226.9C163.807 228.716 154.256 233.986 144.958 249.411Z" fill="url(#paint1_linear_35_5048)"/>
<path d="M144.958 249.411C140.307 226.718 140.956 209.133 142.313 197.66C143.378 188.655 145.748 176.068 152.155 174.486C155.226 173.728 156.976 176.052 160.181 175.113C166.231 173.338 166.076 163.27 169.896 155.946C176.428 143.418 197.459 133.422 212.518 140.831C230.651 149.75 232.581 180.193 222.829 189.574C217.051 195.132 206.712 193.738 206.149 197.781C205.583 201.849 215.945 204.058 216.672 210.577C217.423 217.33 207.264 223.449 206.648 223.812C194.335 231.05 184.65 223.564 171.138 226.9C163.807 228.716 154.256 233.986 144.958 249.411Z" fill="url(#paint2_linear_35_5048)"/>
<g style="mix-blend-mode:soft-light" opacity="0.8">
<g style="mix-blend-mode:soft-light" opacity="0.8">
<path d="M142.414 267.765L142.767 267.778C144.784 213.474 178.802 166.251 233.765 141.457L233.62 141.136C207.572 152.886 185.407 170.363 169.509 191.684C152.799 214.1 143.43 240.408 142.414 267.765Z" fill="white"/>
</g>
<g style="mix-blend-mode:soft-light" opacity="0.8">
<path d="M125.777 188.994C135.726 200.037 145.394 221.59 147.328 237.039L147.678 236.996C145.736 221.485 136.029 199.846 126.039 188.758L125.777 188.994Z" fill="white"/>
</g>
<g style="mix-blend-mode:soft-light" opacity="0.8">
<path d="M142.932 257.11L143.267 257.22C145.797 249.533 152.116 243.419 162.05 239.051C169.333 235.847 178.354 233.638 188.862 232.486L188.823 232.135C178.28 233.291 169.224 235.509 161.908 238.727C151.879 243.138 145.495 249.323 142.932 257.11Z" fill="white"/>
</g>
<g style="mix-blend-mode:soft-light" opacity="0.8">
<path d="M171.881 188.748L172.211 188.875C177.726 174.628 173.979 159.009 169.864 148.413L169.535 148.541C173.627 159.079 177.356 174.608 171.881 188.748Z" fill="white"/>
</g>
<g style="mix-blend-mode:soft-light" opacity="0.8">
<path d="M196.407 163.821L196.573 164.133C211.767 156.054 229.594 158.969 238.867 161.427L238.958 161.085C229.634 158.615 211.709 155.685 196.407 163.821Z" fill="white"/>
</g>
</g>
<path d="M158.18 55.1499L184.198 271.401C184.587 274.644 182.352 277.55 179.222 277.861L70.8561 289.757C64.2179 290.171 60.5835 286.779 60.174 283.331L32.8581 53.4194C32.4516 49.9912 35.7084 46.8858 42.3745 46.8858L151.726 49.1892C154.892 49.242 157.792 51.924 158.18 55.1499Z" fill="url(#paint3_linear_35_5048)"/>
<path d="M163.058 54.7773L189.218 272.11C189.609 275.369 187.368 278.287 184.225 278.604L71.8803 289.789C68.3584 290.14 65.1305 287.591 64.718 284.126L37.2497 53.0269C36.8402 49.5798 39.4275 46.8101 42.9882 46.8699L156.578 48.7867C159.756 48.8405 162.667 51.5364 163.058 54.7773Z" fill="url(#paint4_linear_35_5048)"/>
<path d="M160.925 66.7655L185.173 268.277C185.538 271.321 183.439 274.045 180.498 274.331L74.8409 284.602C71.5672 284.92 68.5644 282.541 68.1828 279.315L42.7977 65.833C42.4161 62.624 44.8181 60.0277 48.1248 60.0626L154.866 61.1993C157.838 61.2312 160.561 63.7359 160.925 66.7655Z" fill="url(#paint5_linear_35_5048)"/>
<path d="M104.267 54.6279C104.406 55.7856 103.57 56.7111 102.411 56.6962C101.253 56.6812 100.188 55.7298 100.049 54.5711C99.9107 53.4124 100.747 52.4859 101.909 52.5028C103.072 52.5198 104.129 53.4712 104.267 54.6279Z" fill="url(#paint6_linear_35_5048)"/>
<g style="mix-blend-mode:soft-light" opacity="0.5">
<g style="mix-blend-mode:soft-light" opacity="0.5">
<path d="M142.659 202.032C121.029 162.041 88.7164 150.07 78.9877 108.855C73.7244 86.5765 77.311 65.2562 83.3464 47.5513L42.9882 46.8699C39.4275 46.8101 36.8402 49.5798 37.2497 53.0269L64.718 284.126C65.1305 287.591 68.3584 290.14 71.8803 289.789L160.194 280.996C160.848 245.163 152.301 219.859 142.659 202.032Z" fill="white"/>
</g>
</g>
<g opacity="0.8">
<path opacity="0.8" d="M148.545 174.47C148.427 173.32 147.498 172.349 146.469 172.378L86.0084 173.988C84.9254 174.017 84.1493 175.06 84.2739 176.243L84.9713 182.836C85.0968 184.017 86.0751 184.952 87.1561 184.918L147.548 183.035C148.576 183.003 149.314 182.039 149.196 180.89L148.545 174.47Z" fill="white"/>
<path opacity="0.8" d="M144.052 188.602C143.935 187.45 143.006 186.534 141.974 186.568L94.0202 188.131C92.9453 188.166 92.1721 189.158 92.2957 190.335L95.6173 221.871C95.7408 223.043 96.7132 223.955 97.7802 223.904L145.549 221.637C146.577 221.588 147.316 220.616 147.2 219.468L144.052 188.602ZM130.065 212.574C130.218 214.056 129.255 215.212 127.917 215.272L114.386 215.869C113.031 215.93 111.809 214.863 111.652 213.369L110.088 198.259C109.932 196.765 110.905 195.428 112.262 195.379L125.822 194.893C127.163 194.845 128.376 196.088 128.529 197.577L130.065 212.574Z" fill="white"/>
<path opacity="0.8" d="M118.493 212.909C118.234 212.917 117.976 212.871 117.735 212.776C117.494 212.681 117.274 212.538 117.09 212.356L113.125 208.583C112.298 207.796 112.16 206.469 112.817 205.621C113.475 204.773 114.676 204.724 115.502 205.513L117.969 207.865L124.1 199.932C124.752 199.09 125.942 199.045 126.761 199.832C127.58 200.619 127.714 201.936 127.065 202.779L119.766 212.244C119.616 212.442 119.424 212.604 119.204 212.719C118.984 212.834 118.741 212.899 118.493 212.909Z" fill="white"/>
<path opacity="0.8" d="M146.839 109.311H72.1042C67.0112 109.311 63.1138 113.432 63.6737 118.676L65.8326 138.893C66.3906 144.12 71.1757 148.397 76.2467 148.315L150.669 147.119C155.415 147.043 158.893 142.864 158.387 137.834L156.415 118.342C155.911 113.296 151.604 109.311 146.839 109.311Z" fill="white"/>
</g>
<path d="M232.988 145.208C232.988 145.208 230.921 160.601 247.135 171.453L229.877 175.57C229.877 175.57 224.353 165.241 228.353 148.133L232.988 145.208Z" fill="url(#paint7_linear_35_5048)"/>
<path d="M229.95 148.132C229.95 148.132 229.021 145.841 229.171 144.803C229.322 143.765 231.782 142.39 233.455 140.965C235.129 139.541 233.393 142.398 233.003 143.048C232.614 143.699 231.245 144.672 231.441 146.883L229.95 148.132Z" fill="url(#paint8_linear_35_5048)"/>
<path d="M201.455 56.7453L141.684 136.672L204.753 183.836L264.524 103.91L201.455 56.7453Z" fill="white"/>
<path d="M203.141 88.0091L192.034 79.7022L200.341 68.5967L211.447 76.9026L203.141 88.0091ZM195.501 79.204L202.643 84.5421L207.983 77.4028L200.842 72.0627L195.501 79.204Z" fill="#D8DEE8"/>
<path d="M213.428 83.3285L209.721 88.2864L247.403 116.466L251.111 111.508L213.428 83.3285Z" fill="#D8DEE8"/>
<path d="M190.09 105.461L178.984 97.155L187.29 86.0485L198.397 94.3554L190.09 105.461ZM182.45 96.6548L189.59 101.995L194.93 94.8546L187.788 89.5155L182.45 96.6548Z" fill="#D8DEE8"/>
<path d="M200.378 100.78L196.67 105.738L234.353 133.918L238.061 128.96L200.378 100.78Z" fill="#D8DEE8"/>
<path d="M177.038 122.914L165.932 114.607L174.239 103.501L185.344 111.807L177.038 122.914ZM169.399 114.108L176.538 119.447L181.878 112.307L174.738 106.967L169.399 114.108Z" fill="#D8DEE8"/>
<path d="M187.326 118.233L183.618 123.191L221.301 151.371L225.009 146.413L187.326 118.233Z" fill="#D8DEE8"/>
<path d="M163.987 140.365L152.881 132.059L161.187 120.953L172.294 129.26L163.987 140.365ZM156.347 131.559L163.487 136.899L168.827 129.76L161.687 124.42L156.347 131.559Z" fill="#D8DEE8"/>
<path d="M174.274 135.684L170.566 140.642L208.249 168.822L211.957 163.864L174.274 135.684Z" fill="#D8DEE8"/>
<path d="M195.107 81.073L195.092 81.0611C194.949 80.9597 194.83 80.828 194.744 80.6755C194.658 80.5229 194.607 80.3531 194.594 80.1784L194.344 76.0678C194.335 75.9059 194.358 75.7438 194.412 75.5908C194.465 75.4378 194.549 75.2969 194.657 75.1761C194.765 75.0553 194.896 74.9571 195.042 74.8869C195.188 74.8167 195.347 74.776 195.509 74.7671C195.671 74.7582 195.833 74.7813 195.986 74.835C196.139 74.8888 196.28 74.9721 196.4 75.0803C196.521 75.1885 196.619 75.3194 196.69 75.4656C196.76 75.6118 196.801 75.7704 196.809 75.9323L196.966 78.6381L210.191 76.0159C210.514 75.952 210.848 76.0187 211.121 76.2013C211.394 76.384 211.583 76.6676 211.647 76.9898C211.711 77.312 211.645 77.6465 211.462 77.9195C211.279 78.1926 210.996 78.3819 210.674 78.4459L196.067 81.3201C195.899 81.3491 195.726 81.3421 195.561 81.2995C195.395 81.257 195.24 81.1798 195.107 81.073Z" fill="url(#paint9_linear_35_5048)"/>
<path d="M168.557 116.572L168.541 116.56C168.398 116.459 168.279 116.327 168.193 116.175C168.107 116.022 168.055 115.852 168.043 115.678L167.793 111.567C167.781 111.404 167.802 111.24 167.855 111.085C167.907 110.93 167.99 110.787 168.099 110.665C168.207 110.542 168.338 110.442 168.486 110.371C168.633 110.299 168.793 110.258 168.956 110.249C169.12 110.24 169.283 110.263 169.437 110.318C169.591 110.373 169.733 110.458 169.854 110.568C169.975 110.678 170.073 110.811 170.143 110.959C170.212 111.108 170.251 111.268 170.257 111.432L170.415 114.137L183.639 111.51C183.962 111.446 184.296 111.513 184.569 111.696C184.842 111.878 185.032 112.162 185.095 112.484C185.159 112.806 185.093 113.141 184.91 113.414C184.727 113.687 184.444 113.876 184.122 113.94L169.52 116.82C169.351 116.85 169.178 116.843 169.012 116.8C168.846 116.757 168.691 116.679 168.557 116.572Z" fill="url(#paint10_linear_35_5048)"/>
<path d="M155.652 133.827L155.636 133.815C155.494 133.713 155.375 133.582 155.289 133.429C155.203 133.277 155.151 133.107 155.138 132.932L154.888 128.822C154.879 128.66 154.902 128.498 154.956 128.345C155.01 128.192 155.093 128.051 155.201 127.93C155.309 127.809 155.44 127.711 155.587 127.641C155.733 127.571 155.891 127.53 156.053 127.521C156.215 127.512 156.377 127.535 156.53 127.589C156.683 127.643 156.824 127.726 156.945 127.834C157.066 127.942 157.164 128.073 157.234 128.22C157.304 128.366 157.345 128.524 157.354 128.686L157.51 131.391L170.735 128.765C171.054 128.708 171.383 128.778 171.651 128.961C171.92 129.144 172.105 129.424 172.168 129.743C172.232 130.061 172.167 130.391 171.989 130.663C171.811 130.934 171.534 131.125 171.217 131.194L156.615 134.074C156.446 134.103 156.273 134.096 156.107 134.054C155.941 134.011 155.786 133.934 155.652 133.827Z" fill="url(#paint11_linear_35_5048)"/>
<path d="M189.093 104.1C188.963 104.003 188.853 103.881 188.77 103.741C188.686 103.601 188.632 103.446 188.609 103.285L186.56 89.0731C186.533 88.9106 186.539 88.7443 186.577 88.5841C186.615 88.4238 186.685 88.2728 186.782 88.1398C186.879 88.0069 187.002 87.8947 187.143 87.8099C187.285 87.725 187.441 87.6692 187.604 87.6456C187.768 87.6221 187.934 87.6313 188.093 87.6728C188.253 87.7143 188.402 87.7872 188.533 87.8872C188.664 87.9872 188.774 88.1123 188.856 88.2552C188.938 88.3981 188.99 88.556 189.01 88.7195L191.061 102.932C191.096 103.175 191.058 103.422 190.952 103.643C190.846 103.864 190.678 104.048 190.467 104.173C190.256 104.298 190.013 104.358 189.769 104.345C189.524 104.332 189.289 104.247 189.093 104.1Z" fill="url(#paint12_linear_35_5048)"/>
<path d="M180.965 98.0188C180.769 97.8721 180.621 97.6706 180.539 97.4399C180.458 97.2091 180.447 96.9594 180.507 96.7222C180.567 96.485 180.697 96.271 180.878 96.1073C181.06 95.9435 181.287 95.8373 181.529 95.802L195.742 93.7497C196.067 93.7028 196.397 93.787 196.66 93.9837C196.923 94.1805 197.097 94.4736 197.144 94.7988C197.191 95.1239 197.107 95.4544 196.91 95.7174C196.714 95.9805 196.42 96.1546 196.095 96.2015L181.882 98.2529C181.722 98.2764 181.558 98.2678 181.4 98.2276C181.243 98.1874 181.095 98.1165 180.965 98.0188Z" fill="url(#paint13_linear_35_5048)"/>
<path d="M249.025 160.316C248.296 158.88 247.995 158.888 247.816 158.13C247.407 156.403 248.461 154.209 249.355 154.178C249.931 154.158 249.979 155.054 251.198 156.45C252.693 158.16 253.599 157.936 254.478 159.42C254.684 159.767 255.61 161.33 255.04 162.497C254.314 163.985 251.453 164.221 250.258 163.073C249.685 162.528 249.923 162.085 249.025 160.316Z" fill="url(#paint14_linear_35_5048)"/>
<path d="M251.759 161.652C251.759 161.652 251.161 164.824 251.587 167.405C251.97 169.736 256.289 172.158 257.117 172.852C257.945 173.547 254.925 174.3 252.148 173.937C249.372 173.574 241.781 171.148 240.627 169.79C239.474 168.432 241.97 169.103 244.072 168.846C246.173 168.589 248.177 165.07 248.238 163.273C248.299 161.476 251.759 161.652 251.759 161.652Z" fill="url(#paint15_linear_35_5048)"/>
<path d="M250.394 163.904C250.394 163.904 248.567 164.701 246.949 163.412C245.501 162.254 247.655 158.695 249.128 158.649C249.62 158.634 250.338 158.986 250.761 159.502C251.011 159.801 251.026 160.009 251.444 160.498C251.831 160.95 252 160.99 252.059 161.21C252.133 161.484 252.006 161.942 251.015 162.729C251.513 162.638 251.935 162.769 252.1 163.057C252.152 163.161 252.175 163.278 252.165 163.394C252.105 163.931 251.404 164.181 250.394 163.904Z" fill="url(#paint16_linear_35_5048)"/>
<path d="M204.194 152.984C204.194 152.984 202.909 152.805 203.309 150.349C203.623 148.424 203.386 147.777 202.931 148.119C202.475 148.46 202.413 149.572 202.413 149.572C202.413 149.572 200.755 148.158 200.072 146.306C199.39 144.454 198.951 146.013 198.805 146.94C198.659 147.866 199.78 150.742 200.414 151.278C201.048 151.814 201.974 154.178 201.974 154.178L204.194 152.984Z" fill="url(#paint17_linear_35_5048)"/>
<path d="M251.749 288.795C252.41 290.144 252.225 290.724 252.06 290.979C251.577 291.728 250.415 291.021 247.377 291.377C246.751 291.472 246.113 291.45 245.495 291.311C244.769 291.14 243.913 290.754 243.949 290.559C243.963 290.489 244.091 290.46 244.14 290.45C244.982 290.27 250.254 288.656 250.254 288.656L251.749 288.795Z" fill="url(#paint18_linear_35_5048)"/>
<path d="M252.158 285.832L251.688 288.849C251.688 288.849 250.392 289.765 250.051 288.649C249.807 287.852 249.813 285.693 249.813 285.693L252.158 285.832Z" fill="url(#paint19_linear_35_5048)"/>
<path d="M237.381 286.035L238.653 289.508L240.502 289.214L240.073 285.998L237.381 286.035Z" fill="url(#paint20_linear_35_5048)"/>
<path d="M239.229 291.421C240.126 290.36 240.923 290.456 241.084 289.727C241.211 289.155 240.859 288.451 240.33 288.184C239.586 287.809 238.683 288.395 238.48 288.527C237.096 289.423 237.473 290.833 236.169 291.444C235.905 291.567 235.489 291.697 235.051 292.107C234.864 292.283 234.403 292.714 234.511 293.012C234.636 293.357 235.459 293.345 236.241 293.334C237.18 293.32 237.649 293.314 238.1 293.035C238.726 292.641 238.539 292.241 239.229 291.421Z" fill="url(#paint21_linear_35_5048)"/>
<path d="M262.044 213.675C261.758 219.7 260.925 225.688 259.554 231.563C258.324 236.816 257.655 237.714 257.228 241.355C256.301 249.279 258.835 250.47 259.112 259.454C259.419 269.374 256.615 277.194 255.515 280.176C254.737 282.282 253.836 284.341 252.815 286.341C251.889 287.114 250.507 286.78 249.048 286.451C248.701 277.451 248.21 268.978 247.863 259.979C246.414 246.42 244.964 232.862 243.514 219.304L262.044 213.675Z" fill="url(#paint22_linear_35_5048)"/>
<path style="mix-blend-mode:multiply" opacity="0.3" d="M249.049 286.451C248.703 277.451 248.212 268.978 247.865 259.979C246.416 246.42 244.966 232.862 243.515 219.304L262.046 213.675C262.023 214.139 261.99 214.587 261.962 215.042C253.195 222.331 251.385 228.215 251.383 232.255C251.383 237.155 254.005 239.64 253.329 246.73C252.847 251.799 251.301 252.661 251.203 257.243C251.078 263.142 253.539 266.513 254.699 269.949C255.82 273.27 256.144 277.945 253.703 284.534C253.386 285.213 253.087 285.82 252.821 286.341C251.891 287.114 250.508 286.78 249.049 286.451Z" fill="url(#paint23_linear_35_5048)"/>
<path d="M251.566 218.918C246.008 225.725 242.838 232.088 241.006 236.546C238.805 241.909 237.209 245.929 237.709 251.136C238.259 256.865 240.859 258.924 242.584 263.809C244.258 268.548 245.075 275.837 240.707 286.685L237.412 287.824C236.682 284.893 235.502 280.509 233.735 275.286C230.236 264.938 226.748 258.128 225.806 256.013C222.484 248.565 222.149 235.267 235.974 209.61L251.566 218.918Z" fill="url(#paint24_linear_35_5048)"/>
<path d="M200.768 153.642L205.151 150.569C206.931 161.509 210.976 165.803 214.412 167.681C222.701 172.212 230.099 164.138 245.965 167.433C250.337 168.341 257.958 170.033 262.184 176.26C263.295 177.898 263.69 179.138 265.535 190.883C267.892 205.896 267.975 208.517 267.644 211.748C267.035 217.664 266.666 221.249 263.939 224.423C256.696 232.848 241.3 228.507 239.37 227.932C235.805 226.876 230.263 225.234 228.062 220.523C227.025 218.305 227.135 216.279 228.727 208.169C231.881 192.109 232.284 191.07 231.404 189.311C228.433 183.376 219.019 186.772 211.066 181.253C206.421 178.029 201.18 170.997 200.768 153.642Z" fill="url(#paint25_linear_35_5048)"/>
<path style="mix-blend-mode:multiply" opacity="0.3" d="M246.59 225.787C245.038 222.599 247.124 219.669 244.835 215.842C241.918 210.966 236.671 212.621 234.696 209.018C231.319 202.856 244.611 194.261 241.91 184.45C240.621 179.767 236.118 176.375 232.356 175.091C224.005 172.239 218.543 179.508 210.713 177.236C208.857 176.697 206.728 175.581 204.573 173.265C206.477 177.282 208.842 179.708 211.071 181.256C219.025 186.775 228.439 183.379 231.409 189.314C232.289 191.073 231.887 192.112 228.732 208.172C227.138 216.279 227.031 218.305 228.067 220.526C230.269 225.237 235.81 226.879 239.376 227.935C240.432 228.248 245.524 229.687 251.104 229.548C248.614 228.533 247.276 227.192 246.59 225.787Z" fill="url(#paint26_linear_35_5048)"/>
<path d="M74.8361 59.4051C74.8361 76.1893 61.3106 90.7011 44.5752 91.8199C27.7819 92.9417 14.127 80.1635 14.127 63.2746C14.127 46.3857 27.7819 31.8669 44.5752 30.8487C61.3106 29.8335 74.8361 42.6198 74.8361 59.4051Z" fill="#9D3060"/>
<path d="M78.4289 60.48C78.4289 77.2653 64.9034 91.776 48.168 92.8949C31.3747 94.0177 17.7197 81.2384 17.7197 64.3505C17.7197 47.4627 31.3747 32.9419 48.168 31.9237C64.9034 30.9085 78.4289 43.6947 78.4289 60.48Z" fill="url(#paint27_linear_35_5048)"/>
<path d="M47.0988 78.9052C46.4649 78.9545 45.8295 78.8296 45.2614 78.5439C44.6934 78.2582 44.2142 77.8226 43.8759 77.2842L32.4336 58.9109C31.3606 57.1893 31.9355 54.8262 33.7238 53.6436C35.5121 52.461 37.8205 52.8904 38.8915 54.612L46.8268 67.3643L57.2987 46.044C58.2382 44.1301 60.4958 43.2544 62.3399 44.0823C64.184 44.9102 64.9172 47.1349 63.9787 49.0478L50.4473 76.6257C50.1457 77.2444 49.6927 77.7768 49.1303 78.1736C48.5679 78.5704 47.9143 78.8186 47.2303 78.8952L47.0988 78.9052Z" fill="white"/>
<path d="M59.9696 295.086C59.9696 295.086 59.7475 296.854 59.8969 297.446C60.0463 298.037 65.1831 298.466 66.9276 298.259C68.6721 298.053 65.8885 296.272 64.7776 295.938C63.6668 295.604 59.9696 295.086 59.9696 295.086Z" fill="url(#paint28_linear_35_5048)"/>
<path d="M62.556 292.138L62.0141 295.684C62.0141 295.684 60.6332 296.305 59.9697 295.691L59.897 291.98L62.556 292.138Z" fill="url(#paint29_linear_35_5048)"/>
<path d="M33.5925 291.98C33.5925 291.98 34.6824 292.789 34.3895 293.758C34.0966 294.728 31.5551 298.609 29.7419 299.71C27.9287 300.811 28.4975 298.514 29.0256 297.087C29.5536 295.659 30.9006 292.504 31.4276 291.98C31.9546 291.456 33.5925 291.98 33.5925 291.98Z" fill="url(#paint30_linear_35_5048)"/>
<path d="M35.5532 288.084C35.0261 289.554 34.519 290.761 34.1225 291.652C33.2458 293.623 32.7666 294.363 32.2236 295.004C31.7494 295.562 30.6295 296.754 30.3307 296.555C30.0318 296.355 30.8447 294.905 32.4228 290.663C32.653 290.047 33.3773 288.084 33.3773 288.084H35.5542H35.5532Z" fill="url(#paint31_linear_35_5048)"/>
<path d="M73.3159 226.705C73.8699 232.147 73.9365 237.628 73.5152 243.083C72.8118 252.149 71.0006 257.878 68.733 267.54C67.3442 273.445 65.4732 282.136 63.7795 293.005C62.8616 293.536 61.7934 293.746 60.7429 293.603C60.0917 293.504 59.4693 293.266 58.9177 292.906C54.4753 279.33 55.7874 270.917 57.9314 265.675C58.845 263.441 59.9538 261.678 60.5456 258.244C61.3297 253.7 60.3603 251.16 58.9785 240.634C57.9931 233.132 58.1645 231.972 58.8191 230.847C61.4323 226.354 69.4404 226.438 73.3159 226.705Z" fill="url(#paint32_linear_35_5048)"/>
<path d="M58.0232 228.284C55.3014 242.339 52.6304 249.722 50.6089 253.897C49.1522 256.846 47.9045 259.893 46.8749 263.017C45.4801 267.233 44.9023 270.335 44.6054 271.7C43.6669 276.009 41.3475 282.299 35.1079 290.55C35.0302 290.596 33.9661 291.198 32.9489 290.662C32.5715 290.457 32.2664 290.14 32.0752 289.755C32.8911 281.866 33.8276 275.237 34.6406 270.121C34.811 269.048 35.5622 264.353 36.7398 258.15C37.201 255.723 37.8765 252.167 38.6855 248.514C39.6927 243.964 41.238 237.776 43.6191 230.36L58.0232 228.284Z" fill="url(#paint33_linear_35_5048)"/>
<path d="M60.3412 172.688C61.8855 171.26 64.8384 169.616 66.3189 165.792C66.7652 164.641 68.3443 160.563 66.02 157.444C64.6372 155.592 62.0678 154.335 59.8042 154.779C57.8695 155.16 57.5666 156.508 54.2789 159.22C52.9997 160.275 50.9423 161.972 48.6529 162.915C44.7306 164.532 42.3764 163.015 38.4371 163.184C33.5992 163.397 27.9762 166.097 25.2723 170.024C20.4662 176.99 27.4282 184.059 22.1639 192.223C20.4393 194.897 19.5895 194.297 15.5048 199.473C11.42 204.65 9.3687 207.244 9.73334 210.426C10.2384 214.833 14.9857 219.044 19.457 219.33C23.8247 219.61 26.6003 216.174 28.822 217.677C30.4051 218.746 29.4995 220.827 31.1802 223.327C33.3471 226.551 37.6062 227.193 38.2936 227.297C44.6778 228.26 53.2846 220.774 56.9409 211.905C63.5303 195.913 51.9496 180.444 60.3412 172.688Z" fill="url(#paint34_linear_35_5048)"/>
<path d="M86.5364 177.127C86.5802 172.663 76.4391 169.095 71.7994 167.946C64.5814 166.153 58.802 167.281 57.3982 167.578C48.3969 169.485 42.7908 174.886 40.6817 177.157C42.4092 178.282 47.1764 181.714 49.5386 188.227C50.2729 190.253 52.4438 197.179 49.3394 203.669C47.551 207.407 44.3869 210.213 41.9838 212.345C38.3793 215.544 36.5133 216.032 35.3088 218.899C33.9927 222.018 35.3187 223.54 33.6848 225.674C31.9304 227.965 29.8741 226.901 26.8992 229.22C23.8516 231.596 24.9365 233.551 22.1629 236.176C18.1339 239.99 12.7979 238.752 12.5438 240.468C12.3296 241.945 16.1304 243.947 19.3514 244.76C25.7385 246.368 31.3067 243.664 32.9665 242.836C37.5494 240.532 36.7613 239.04 40.2583 237.283C46.1144 234.342 50.1164 237.615 63.4536 237.952C70.6756 238.135 74.328 238.176 76.3285 235.732C78.1557 233.5 77.1953 231.05 76.0994 220.501C75.5773 215.479 75.389 210.427 75.0035 205.393C73.9155 191.153 73.8817 189.899 74.8481 187.931C78.3071 180.878 86.4975 181.133 86.5364 177.127Z" fill="url(#paint35_linear_35_5048)"/>
<g style="mix-blend-mode:multiply" opacity="0.3">
<path style="mix-blend-mode:multiply" opacity="0.3" d="M22.159 236.176C24.9327 233.551 23.8527 231.594 26.8953 229.22C29.8702 226.901 31.9265 227.967 33.681 225.674C35.3149 223.539 33.9888 222.017 35.3049 218.899C36.5134 216.035 38.3794 215.544 41.98 212.346C44.383 210.213 47.5472 207.407 49.3355 203.669C52.4399 197.18 50.269 190.254 49.5347 188.227C47.1726 181.714 42.4054 178.282 40.6778 177.157C40.8442 176.978 41.0395 176.774 41.2497 176.559C52.6332 178.123 59.2704 184.701 60.0913 186.649C61.9842 191.151 58.9844 192.805 58.9067 205.79C58.8699 211.996 59.5393 214.447 57.5259 217.037C55.2225 220 52.5684 219.083 49.2379 222.957C46.6794 225.933 47.0889 227.82 44.6998 229.074C42.1304 230.422 40.4935 228.851 37.5964 229.472C32.7545 230.505 31.7183 236.087 28.5193 239.141C26.0993 241.451 21.624 243.066 12.799 241.333C12.5998 241.034 12.5001 240.745 12.536 240.474C12.7891 238.752 18.1321 239.99 22.159 236.176Z" fill="url(#paint36_linear_35_5048)"/>
</g>
<path d="M56.6425 190.151C57.852 192.72 52.2918 198.706 46.1119 201.547C44.8526 202.127 35.8094 206.284 31.7794 202.286C28.4489 198.983 30.5989 192.151 31.366 189.712C35.1339 177.736 46.7087 171.644 51.5536 169.447C55.173 178.495 53.041 182.528 52.2021 183.787C51.3264 185.102 48.8805 187.865 46.2822 190.299C44.4551 192.011 43.3173 192.843 43.4708 193.11C43.661 193.442 45.803 192.812 54.122 188.766C55.0863 188.922 56.2291 189.273 56.6425 190.151Z" fill="url(#paint37_linear_35_5048)"/>
<path d="M91.4492 175.387L87.3645 195.711C87.3003 196.029 87.1445 196.322 86.9162 196.554C86.6879 196.785 86.397 196.945 86.0793 197.013L55.645 203.545C55.3911 203.599 55.128 203.593 54.8766 203.528C54.6253 203.463 54.3926 203.34 54.1972 203.169C54.0017 202.998 53.8489 202.784 53.7509 202.543C53.6528 202.303 53.6123 202.043 53.6325 201.784L55.2385 181.111C55.2646 180.761 55.4007 180.428 55.6274 180.16C55.854 179.891 56.1597 179.701 56.5008 179.617C61.3287 178.421 79.9133 173.963 89.7117 173.383C89.9679 173.367 90.2243 173.41 90.4611 173.509C90.6979 173.608 90.9086 173.761 91.0767 173.955C91.2449 174.149 91.366 174.379 91.4306 174.627C91.4952 174.875 91.5016 175.135 91.4492 175.387Z" fill="url(#paint38_linear_35_5048)"/>
<path d="M61.0934 160.541C61.0934 160.541 60.5186 165.131 58.8249 166.182C57.1312 167.233 54.3925 168.607 54.0916 168.979C53.7907 169.352 64.5844 170.513 69.9324 167.813C68.169 167.445 67.6898 167.315 67.6898 167.315C66.9007 167.11 66.1398 166.809 65.4242 166.418C64.4331 165.845 63.5822 165.058 62.9335 164.115L62.9525 161.573L61.0934 160.541Z" fill="url(#paint39_linear_35_5048)"/>
<path d="M60.8351 162.167C60.8351 162.167 61.94 163.682 63.6715 163.051C65.2227 162.486 64.2972 158.48 63.0668 158.023C62.6563 157.871 61.9031 157.938 61.399 158.253C61.0453 158.473 60.1038 159.647 60.6418 160.966C60.2493 160.852 59.9046 160.955 59.8179 161.149C59.7083 161.395 60.0401 161.73 60.1168 161.806C60.3127 161.999 60.5639 162.125 60.8351 162.167Z" fill="url(#paint40_linear_35_5048)"/>
<path style="mix-blend-mode:multiply" opacity="0.3" d="M64.0416 192.962C67.3104 192.04 70.0193 194.33 72.6255 192.519C75.2926 190.664 73.5521 187.494 76.3247 184.379C79.2906 181.048 83.0515 182.679 85.7963 179.643C86.8155 178.516 87.7321 176.679 87.746 173.548C88.4334 173.481 89.092 173.428 89.7146 173.391C89.9694 173.376 90.2242 173.419 90.4595 173.518C90.6948 173.617 90.9043 173.769 91.0718 173.961C91.2394 174.153 91.3605 174.382 91.4259 174.628C91.4914 174.875 91.4993 175.134 91.4492 175.384L87.3644 195.708C87.3006 196.027 87.1449 196.32 86.9166 196.551C86.6882 196.783 86.3972 196.943 86.0792 197.011L56.8306 203.287C58.8988 196.048 61.6545 193.635 64.0416 192.962Z" fill="url(#paint41_linear_35_5048)"/>
<path d="M89.5126 186.204C89.5126 186.204 91.4583 184.411 91.6655 182.319C91.8728 180.226 90.4112 178.567 88.9926 178.141C87.5739 177.716 86.8157 178.34 87.7681 180.396C88.7206 182.451 90.2319 183.783 89.5126 186.204Z" fill="url(#paint42_linear_35_5048)"/>
</g>
<defs>
<linearGradient id="paint0_linear_35_5048" x1="199.786" y1="48.4301" x2="134.925" y2="216.13" gradientUnits="userSpaceOnUse">
<stop stop-color="#FF9085"/>
<stop offset="1" stop-color="#FB6FBB"/>
</linearGradient>
<linearGradient id="paint1_linear_35_5048" x1="156362" y1="149351" x2="107087" y2="282288" gradientUnits="userSpaceOnUse">
<stop stop-color="#FFC444"/>
<stop offset="1" stop-color="#F36F56"/>
</linearGradient>
<linearGradient id="paint2_linear_35_5048" x1="211.866" y1="137.118" x2="150.685" y2="257.418" gradientUnits="userSpaceOnUse">
<stop stop-color="#FFC444"/>
<stop offset="1" stop-color="#F36F56"/>
</linearGradient>
<linearGradient id="paint3_linear_35_5048" x1="107.186" y1="162.746" x2="64.4799" y2="167.405" gradientUnits="userSpaceOnUse">
<stop stop-color="#444B8C"/>
<stop offset="1" stop-color="#26264F"/>
</linearGradient>
<linearGradient id="paint4_linear_35_5048" x1="221059" y1="134407" x2="-145221" y2="914837" gradientUnits="userSpaceOnUse">
<stop stop-color="#444B8C"/>
<stop offset="1" stop-color="#26264F"/>
</linearGradient>
<linearGradient id="paint5_linear_35_5048" x1="35.76" y1="156.365" x2="141.93" y2="178.68" gradientUnits="userSpaceOnUse">
<stop stop-color="#E38DDD"/>
<stop offset="1" stop-color="#9571F6"/>
</linearGradient>
<linearGradient id="paint6_linear_35_5048" x1="105.244" y1="46.2422" x2="-18.8635" y2="382.371" gradientUnits="userSpaceOnUse">
<stop stop-color="#311944"/>
<stop offset="1" stop-color="#893976"/>
</linearGradient>
<linearGradient id="paint7_linear_35_5048" x1="49513.1" y1="61554.2" x2="47443.4" y2="53277.3" gradientUnits="userSpaceOnUse">
<stop stop-color="#FF9085"/>
<stop offset="1" stop-color="#FB6FBB"/>
</linearGradient>
<linearGradient id="paint8_linear_35_5048" x1="231.702" y1="143.447" x2="232.416" y2="153.846" gradientUnits="userSpaceOnUse">
<stop stop-color="#F36F56"/>
<stop offset="1" stop-color="#FFC444"/>
</linearGradient>
<linearGradient id="paint9_linear_35_5048" x1="195.842" y1="73.7612" x2="207.928" y2="82.8257" gradientUnits="userSpaceOnUse">
<stop stop-color="#AA80F9"/>
<stop offset="1" stop-color="#6165D7"/>
</linearGradient>
<linearGradient id="paint10_linear_35_5048" x1="58206.6" y1="-2021.43" x2="60834.5" y2="-2021.43" gradientUnits="userSpaceOnUse">
<stop stop-color="#AA80F9"/>
<stop offset="1" stop-color="#6165D7"/>
</linearGradient>
<linearGradient id="paint11_linear_35_5048" x1="58113.9" y1="-576.726" x2="60738" y2="-576.726" gradientUnits="userSpaceOnUse">
<stop stop-color="#AA80F9"/>
<stop offset="1" stop-color="#6165D7"/>
</linearGradient>
<linearGradient id="paint12_linear_35_5048" x1="17615.4" y1="2003.22" x2="18074.9" y2="2347.84" gradientUnits="userSpaceOnUse">
<stop stop-color="#FF9085"/>
<stop offset="1" stop-color="#FB6FBB"/>
</linearGradient>
<linearGradient id="paint13_linear_35_5048" x1="64741.6" y1="45622.5" x2="63049" y2="44353" gradientUnits="userSpaceOnUse">
<stop stop-color="#FF9085"/>
<stop offset="1" stop-color="#FB6FBB"/>
</linearGradient>
<linearGradient id="paint14_linear_35_5048" x1="252.449" y1="161.222" x2="252.098" y2="150.648" gradientUnits="userSpaceOnUse">
<stop stop-color="#26264F"/>
<stop offset="1" stop-color="#444B8C"/>
</linearGradient>
<linearGradient id="paint15_linear_35_5048" x1="40167.5" y1="18880.6" x2="40031.9" y2="23370.2" gradientUnits="userSpaceOnUse">
<stop stop-color="#F36F56"/>
<stop offset="1" stop-color="#FFC444"/>
</linearGradient>
<linearGradient id="paint16_linear_35_5048" x1="2172.58" y1="7276.2" x2="1601.18" y2="7640.45" gradientUnits="userSpaceOnUse">
<stop stop-color="#F36F56"/>
<stop offset="1" stop-color="#FFC444"/>
</linearGradient>
<linearGradient id="paint17_linear_35_5048" x1="11190.1" y1="13575.4" x2="11439.8" y2="14068.5" gradientUnits="userSpaceOnUse">
<stop stop-color="#F36F56"/>
<stop offset="1" stop-color="#FFC444"/>
</linearGradient>
<linearGradient id="paint18_linear_35_5048" x1="3536.19" y1="8642.99" x2="3595.25" y2="7999.84" gradientUnits="userSpaceOnUse">
<stop stop-color="#444B8C"/>
<stop offset="1" stop-color="#26264F"/>
</linearGradient>
<linearGradient id="paint19_linear_35_5048" x1="1179.13" y1="10723.1" x2="1167.07" y2="9516.88" gradientUnits="userSpaceOnUse">
<stop stop-color="#FFC444"/>
<stop offset="1" stop-color="#F36F56"/>
</linearGradient>
<linearGradient id="paint20_linear_35_5048" x1="1184.52" y1="10679.6" x2="1172.46" y2="9473.24" gradientUnits="userSpaceOnUse">
<stop stop-color="#FFC444"/>
<stop offset="1" stop-color="#F36F56"/>
</linearGradient>
<linearGradient id="paint21_linear_35_5048" x1="2331.29" y1="15978.5" x2="2601.42" y2="14811" gradientUnits="userSpaceOnUse">
<stop stop-color="#444B8C"/>
<stop offset="1" stop-color="#26264F"/>
</linearGradient>
<linearGradient id="paint22_linear_35_5048" x1="11010.3" y1="163601" x2="20371.3" y2="214005" gradientUnits="userSpaceOnUse">
<stop stop-color="#311944"/>
<stop offset="1" stop-color="#893976"/>
</linearGradient>
<linearGradient id="paint23_linear_35_5048" x1="11010.3" y1="163601" x2="20371.3" y2="214005" gradientUnits="userSpaceOnUse">
<stop stop-color="#311944"/>
<stop offset="1" stop-color="#893976"/>
</linearGradient>
<linearGradient id="paint24_linear_35_5048" x1="200.395" y1="198022" x2="19484.8" y2="197519" gradientUnits="userSpaceOnUse">
<stop stop-color="#311944"/>
<stop offset="1" stop-color="#893976"/>
</linearGradient>
<linearGradient id="paint25_linear_35_5048" x1="156713" y1="136372" x2="168215" y2="187202" gradientUnits="userSpaceOnUse">
<stop stop-color="#FF9085"/>
<stop offset="1" stop-color="#FB6FBB"/>
</linearGradient>
<linearGradient id="paint26_linear_35_5048" x1="104137" y1="98352.7" x2="112530" y2="134482" gradientUnits="userSpaceOnUse">
<stop stop-color="#FF9085"/>
<stop offset="1" stop-color="#FB6FBB"/>
</linearGradient>
<linearGradient id="paint27_linear_35_5048" x1="10815.4" y1="38307.5" x2="47809.2" y2="38307.5" gradientUnits="userSpaceOnUse">
<stop stop-color="#FFC444"/>
<stop offset="1" stop-color="#F36F56"/>
</linearGradient>
<linearGradient id="paint28_linear_35_5048" x1="-17158.7" y1="9481.14" x2="-17183.1" y2="10518.8" gradientUnits="userSpaceOnUse">
<stop stop-color="#444B8C"/>
<stop offset="1" stop-color="#26264F"/>
</linearGradient>
<linearGradient id="paint29_linear_35_5048" x1="62.556" y1="293.97" x2="59.897" y2="293.97" gradientUnits="userSpaceOnUse">
<stop stop-color="#311944"/>
<stop offset="1" stop-color="#A03976"/>
</linearGradient>
<linearGradient id="paint30_linear_35_5048" x1="-15155.3" y1="23644.5" x2="-15359.2" y2="26284.7" gradientUnits="userSpaceOnUse">
<stop stop-color="#444B8C"/>
<stop offset="1" stop-color="#26264F"/>
</linearGradient>
<linearGradient id="paint31_linear_35_5048" x1="13585.5" y1="25206.9" x2="13866" y2="25206.9" gradientUnits="userSpaceOnUse">
<stop stop-color="#311944"/>
<stop offset="1" stop-color="#A03976"/>
</linearGradient>
<linearGradient id="paint32_linear_35_5048" x1="-40422.7" y1="195900" x2="-38196.6" y2="172996" gradientUnits="userSpaceOnUse">
<stop stop-color="#311944"/>
<stop offset="1" stop-color="#893976"/>
</linearGradient>
<linearGradient id="paint33_linear_35_5048" x1="-64035.8" y1="182605" x2="-62694.6" y2="161101" gradientUnits="userSpaceOnUse">
<stop stop-color="#311944"/>
<stop offset="1" stop-color="#893976"/>
</linearGradient>
<linearGradient id="paint34_linear_35_5048" x1="-149360" y1="149225" x2="-139797" y2="138497" gradientUnits="userSpaceOnUse">
<stop stop-color="#444B8C"/>
<stop offset="1" stop-color="#26264F"/>
</linearGradient>
<linearGradient id="paint35_linear_35_5048" x1="52099.9" y1="156622" x2="998.996" y2="184662" gradientUnits="userSpaceOnUse">
<stop stop-color="#FFC444"/>
<stop offset="1" stop-color="#F36F56"/>
</linearGradient>
<linearGradient id="paint36_linear_35_5048" x1="-118496" y1="109977" x2="-127468" y2="150341" gradientUnits="userSpaceOnUse">
<stop stop-color="#FFC444"/>
<stop offset="1" stop-color="#F36F56"/>
</linearGradient>
<linearGradient id="paint37_linear_35_5048" x1="-65312" y1="58217.6" x2="-69818.2" y2="79615.5" gradientUnits="userSpaceOnUse">
<stop stop-color="#FFC444"/>
<stop offset="1" stop-color="#F36F56"/>
</linearGradient>
<linearGradient id="paint38_linear_35_5048" x1="20432" y1="57312.7" x2="34815.7" y2="57312.7" gradientUnits="userSpaceOnUse">
<stop stop-color="#FF9085"/>
<stop offset="1" stop-color="#FB6FBB"/>
</linearGradient>
<linearGradient id="paint39_linear_35_5048" x1="-17007.7" y1="21058.7" x2="-16635.3" y2="21469.3" gradientUnits="userSpaceOnUse">
<stop stop-color="#311944"/>
<stop offset="1" stop-color="#A03976"/>
</linearGradient>
<linearGradient id="paint40_linear_35_5048" x1="-3707.34" y1="8358.37" x2="-3175.53" y2="8528.03" gradientUnits="userSpaceOnUse">
<stop stop-color="#311944"/>
<stop offset="1" stop-color="#A03976"/>
</linearGradient>
<linearGradient id="paint41_linear_35_5048" x1="19823.9" y1="56696.2" x2="31875.2" y2="56696.2" gradientUnits="userSpaceOnUse">
<stop stop-color="#FF9085"/>
<stop offset="1" stop-color="#FB6FBB"/>
</linearGradient>
<linearGradient id="paint42_linear_35_5048" x1="8765.36" y1="16016.2" x2="9310.42" y2="14541.9" gradientUnits="userSpaceOnUse">
<stop stop-color="#311944"/>
<stop offset="1" stop-color="#A03976"/>
</linearGradient>
<clipPath id="clip0_35_5048">
<rect width="278.005" height="300" fill="white"/>
</clipPath>
</defs>
</svg>
