<svg width="300" height="296" viewBox="0 0 300 296" fill="none" xmlns="http://www.w3.org/2000/svg">
<g clip-path="url(#clip0_35_5128)">
<path d="M70.6737 20.7573C60.8 34.8922 72.3775 57.809 57.7261 68.4406C43.4641 78.7888 25.9435 61.8267 12.5025 70.7345C-7.43591 83.9487 -3.79509 144.414 25.3566 181.982C34.1238 193.28 41.4495 197.677 44.6935 210.455C51.6602 237.891 27.176 254.213 31.8351 267.783C42.3261 298.337 203.667 323.978 268.408 232.149C298.644 189.263 303.167 127.334 276.153 80.2995C227.339 -4.69171 92.8293 -10.9592 70.6737 20.7573Z" fill="#F4F7FA"/>
<path d="M212.947 223.764C210.952 223.799 206.577 222.116 205.617 221.207C199.234 215.159 186.546 204.611 185.735 195.35C185.596 193.769 192.39 191.281 193.16 189.697C197.106 187.059 198.639 186.389 201.16 182.034C208.599 169.191 184.591 150.667 207.708 139.509C224.641 131.336 240.535 135.245 234.568 107.968C228.602 80.6912 243.059 27.2578 274.987 42.1969C293.311 50.7699 279.809 76.6997 290.944 92.7201C301.528 107.943 296.556 122.491 280.558 134.923C264.561 147.356 274.994 153.556 282.366 168.413C291.223 186.272 262.869 193.841 249.48 196.214C238.698 198.133 212.538 210.281 212.947 223.764Z" fill="url(#paint0_linear_35_5128)"/>
<g style="mix-blend-mode:soft-light">
<g style="mix-blend-mode:soft-light">
<path d="M196.037 209.034L195.798 208.683C249.785 171.778 276.024 106.84 265.99 34.9762L266.41 34.9174C271.165 68.976 267.599 102.763 256.096 132.624C244.003 164.019 223.235 190.439 196.037 209.034Z" fill="#FCFDFE"/>
</g>
<g style="mix-blend-mode:soft-light">
<path d="M286.901 175.416C269.274 172.372 241.128 176.361 224.16 184.312L223.98 183.928C241.016 175.949 269.274 171.945 286.97 175.004L286.901 175.416Z" fill="#FCFDFE"/>
</g>
<g style="mix-blend-mode:soft-light">
<path d="M206.553 201.673L206.225 201.402C212.427 193.893 214.594 183.536 212.667 170.621C211.254 161.15 207.713 150.55 202.141 139.113L202.523 138.927C208.114 150.402 211.667 161.044 213.087 170.558C215.033 183.593 212.835 194.062 206.553 201.673Z" fill="#FCFDFE"/>
</g>
<g style="mix-blend-mode:soft-light">
<path d="M257.565 128.322L257.224 128.069C268.186 113.313 286.492 107.102 299.919 104.49L300 104.91C286.647 107.503 268.442 113.676 257.565 128.322Z" fill="#FCFDFE"/>
</g>
<g style="mix-blend-mode:soft-light">
<path d="M267.199 87.3597L266.779 87.3901C265.252 66.7378 250.843 50.4612 242.39 42.598L242.678 42.283C251.174 50.1935 265.661 66.5593 267.199 87.3597Z" fill="#FCFDFE"/>
</g>
</g>
<path d="M227.037 174.935C225.364 175.553 221.182 175.424 220.108 174.941C212.944 171.725 199.139 166.576 195.725 159.009C195.142 157.717 200.135 153.617 200.316 152.055C202.865 148.669 203.959 147.652 204.801 143.242C207.284 130.224 181.587 121.689 197.781 105.468C209.641 93.5873 224.188 92.1941 211.121 70.9686C198.054 49.7431 194.475 0.433578 225.792 3.60932C243.764 5.43288 240.029 31.2692 254.137 41.4873C267.545 51.1982 267.645 64.9258 257.825 80.1211C248.005 95.3163 258.632 97.4653 269.226 107.819C281.952 120.256 260.286 134.997 249.699 140.948C241.183 145.738 222.716 163.692 227.037 174.935Z" fill="url(#paint1_linear_35_5128)"/>
<g style="mix-blend-mode:soft-light">
<g style="mix-blend-mode:soft-light">
<path d="M208.441 167.505L208.136 167.28C242.756 120.254 245.72 57.7827 216.076 0.173222L216.414 0C230.465 27.304 237.421 56.8316 236.531 85.3933C235.596 115.421 225.882 143.813 208.441 167.505Z" fill="#FCFDFE"/>
</g>
<g style="mix-blend-mode:soft-light">
<path d="M275.113 112.377C259.36 115.012 236.814 126.674 224.854 138.375L224.59 138.104C236.596 126.358 259.234 114.649 275.05 112.003L275.113 112.377Z" fill="#FCFDFE"/>
</g>
<g style="mix-blend-mode:soft-light">
<path d="M215.131 158.196L214.776 158.064C217.789 149.905 216.561 140.538 211.129 130.22C207.14 122.654 201.035 114.764 192.967 106.768L193.233 106.499C201.329 114.522 207.463 122.444 211.464 130.043C216.949 140.46 218.184 149.932 215.131 158.196Z" fill="#FCFDFE"/>
</g>
<g style="mix-blend-mode:soft-light">
<path d="M236.5 81.3347L236.138 81.2213C241.027 65.5515 254.624 54.9188 265.171 48.7584L265.362 49.086C254.873 55.2128 241.356 65.7804 236.5 81.3347Z" fill="#FCFDFE"/>
</g>
<g style="mix-blend-mode:soft-light">
<path d="M232.538 43.968L232.19 44.1192C224.812 27.1623 207.868 17.6928 198.425 13.5575L198.577 13.209C208.077 17.3674 225.113 26.8914 232.538 43.968Z" fill="#FCFDFE"/>
</g>
</g>
<path d="M124.387 251.306L123.563 76.6881L167.603 48.9799L217.68 62.1501L238.899 87.831L239.559 230.467L124.387 251.306Z" fill="url(#paint2_linear_35_5128)"/>
<path d="M44.3619 101.726L123.481 77.5469L124.301 251.306L43.7456 225.906L44.3619 101.726Z" fill="url(#paint3_linear_35_5128)"/>
<path d="M73.7505 168.554L56.5364 166.801L56.0493 114.274L73.2267 110.63L73.7505 168.554Z" fill="white"/>
<path d="M69.9925 169.303L59.4637 167.478L58.9766 117.298L70.7 115.023L69.9925 169.303Z" fill="url(#paint4_linear_35_5128)"/>
<path d="M219.384 59.0478L177.414 35.5714L165.401 46.5968L216.984 60.4346L249.836 101.873L250.41 99.881L219.384 59.0478Z" fill="url(#paint5_linear_35_5128)"/>
<path d="M177.472 35.8423L94.6925 66.8144L25.792 107.635L106.115 83.6033L165.965 46.3469L177.472 35.8423Z" fill="url(#paint6_linear_35_5128)"/>
<path d="M236.525 112.736L212.016 109.353L212.219 152.556L236.715 153.024L236.525 112.736Z" fill="white"/>
<path d="M178.055 105.767L132.913 100.478L133.152 151.244L178.274 152.131L178.055 105.767Z" fill="white"/>
<path d="M174.756 108.856L175.047 149.11L137.395 147.813L137.193 105.018L174.756 108.856Z" fill="url(#paint7_linear_35_5128)"/>
<g style="mix-blend-mode:multiply" opacity="0.3">
<path style="mix-blend-mode:multiply" opacity="0.3" d="M169.841 108.354L174.756 108.856L175.047 149.11L137.395 147.816L137.371 142.611C143.472 140.311 149.992 138.883 156.192 136.283C166.523 131.759 167.967 119.186 169.841 108.354Z" fill="url(#paint8_linear_35_5128)"/>
</g>
<path d="M178.431 173.56L133.288 173.464L133.152 225.709L178.274 220.242L178.431 173.56Z" fill="white"/>
<path d="M175.131 177.325L175.422 217.515L137.77 221.892L137.568 177.614L175.131 177.325Z" fill="url(#paint9_linear_35_5128)"/>
<g style="mix-blend-mode:multiply" opacity="0.3">
<path style="mix-blend-mode:multiply" opacity="0.3" d="M159.194 198.2C163.765 191.85 165.416 184.641 167.051 177.387L175.135 177.325L175.427 217.515L137.776 221.892L137.722 210.299C145.832 207.582 154.004 205.575 159.194 198.2Z" fill="url(#paint10_linear_35_5128)"/>
</g>
<path d="M234.323 115.792L234.582 150.031L215.396 149.42L215.226 113.348L234.323 115.792Z" fill="url(#paint11_linear_35_5128)"/>
<g style="mix-blend-mode:multiply" opacity="0.3">
<path style="mix-blend-mode:multiply" opacity="0.3" d="M222.991 138.158C228.502 131.82 229.964 123.46 229.313 115.154L234.323 115.796L234.582 150.035L215.396 149.424L215.373 144.614C218.171 142.818 220.765 140.753 222.991 138.158Z" fill="url(#paint12_linear_35_5128)"/>
</g>
<path d="M123.667 89.3302L123.61 76.9569L119.731 80.4707L111.231 85.029L123.363 89.4079L123.667 89.3302Z" fill="url(#paint13_linear_35_5128)"/>
<path d="M111.231 85.0291L110.441 85.4899L28.8989 108.602L43.7908 108.906L123.363 89.4079L111.231 85.0291Z" fill="url(#paint14_linear_35_5128)"/>
<path d="M239.007 101.245L249.231 101.747L238.912 89.4174L239.007 101.245Z" fill="url(#paint15_linear_35_5128)"/>
<path d="M192.667 79.2834L184.497 77.9469L184.422 61.8771L192.593 63.2996L192.667 79.2834Z" fill="#CA84E5"/>
<path d="M194.033 80.8833L183.145 79.0986L183.056 60.2603L193.945 62.15L194.033 80.8833ZM185.851 76.7889L191.303 77.6803L191.24 64.4397L185.788 63.4949L185.851 76.7889Z" fill="white"/>
<path d="M28.9628 108.605L25.6055 107.618L112.58 80.1767L165.358 46.5853L216.985 60.4346L218.817 62.7254L167.213 49.2802L118.931 80.7226L44.3681 104.331L28.9628 108.605Z" fill="white"/>
<path d="M216.985 60.4346L249.836 101.873L248.813 101.859L215.673 61.3679L216.985 60.4346Z" fill="white"/>
<path d="M151.555 105.626H149.303V149.908H151.555V105.626Z" fill="white"/>
<path d="M151.555 176.552H149.303V220.834H151.555V176.552Z" fill="white"/>
<path d="M263.172 231.768L262.852 164.975L239.885 138.946L210.261 168.227L210.611 242.196L221.318 241.157L224.809 239.185L248.475 230.409L263.172 231.768Z" fill="url(#paint16_linear_35_5128)"/>
<path d="M210.593 242.105L210.192 168.606L193.688 160.918L184.7 168.529L185.393 240.205L210.593 242.105Z" fill="url(#paint17_linear_35_5128)"/>
<path d="M178.121 167.437L178.131 169.499L210.227 169.348L240.594 140.33L263.707 166.131L267.583 166.113L267.579 165.336L241.012 137.105L178.121 167.437Z" fill="white"/>
<path d="M241.266 136.266L267.57 165.339L265.379 165.35L239.849 136.467L241.266 136.266Z" fill="url(#paint18_linear_35_5128)"/>
<path d="M178.121 167.437L209.702 167.288L241.137 136.331L210.2 136.477L178.121 167.437Z" fill="url(#paint19_linear_35_5128)"/>
<path d="M238.686 237.974L269.924 232.045C269.924 232.045 269.924 233.916 269.924 234.171L238.793 240.193L238.686 237.974Z" fill="#97A6B7"/>
<path d="M244.99 241.438L276.076 235.514C276.076 235.514 276.035 237.909 276.113 238.003L245.022 243.882L244.99 241.438Z" fill="#97A6B7"/>
<path d="M238.763 240.207L269.956 234.168L276.076 235.514L244.986 241.41L238.763 240.207Z" fill="url(#paint20_linear_35_5128)"/>
<path d="M282.035 239.113L251.966 245.583L244.989 243.872L276.112 238.025L282.028 239.141L282.035 239.113Z" fill="url(#paint21_linear_35_5128)"/>
<path d="M251.983 248.015L221.18 241.173L220.982 233.929L238.76 237.978C238.76 237.978 238.76 240.317 238.76 240.206L244.981 241.409V243.871L251.962 245.589L251.983 248.015Z" fill="url(#paint22_linear_35_5128)"/>
<path d="M282.035 239.113L251.966 245.583L251.971 248.023L282.038 241.188L282.035 239.113Z" fill="#97A6B7"/>
<path d="M253.555 228.884L269.924 232.045L238.776 238.019L221.126 233.881L253.555 228.884Z" fill="url(#paint23_linear_35_5128)"/>
<path d="M247.244 229.456L230.021 232.021V181.651L247.244 180.809V229.456Z" fill="#97A6B7"/>
<path d="M246.487 229.376L230.018 231.843L230.028 183.721L246.487 182.907V229.376Z" fill="#97A6B7"/>
<path d="M247.244 229.457L246.414 229.191L230.019 231.477L230.02 232.021L247.244 229.457Z" fill="#97A6B7"/>
<path d="M116.439 169.975L58.9795 167.805L32.3516 166.772L74.6325 174.522L116.439 169.975Z" fill="#97A6B7"/>
<path d="M74.5479 174.496L75.7436 174.371L75.4381 136.136L74.5479 135.842V174.496Z" fill="white"/>
<path d="M74.5474 135.842L73.4419 136.209L73.7925 174.328L74.5474 174.496V135.842Z" fill="#97A6B7"/>
<path d="M115.343 169.988L116.154 169.904L115.947 138.986L115.343 138.787V169.988Z" fill="white"/>
<path d="M115.343 138.787L114.592 139.037L114.831 169.874L115.343 169.988V138.787Z" fill="#97A6B7"/>
<path d="M52.7207 140.57L52.0215 140.401L52.5307 170.247L53.2235 170.032L52.7207 140.57Z" fill="white"/>
<path d="M52.0129 140.428L51.4282 140.668L51.9458 170.198L52.5221 170.296L52.0129 140.428Z" fill="#97A6B7"/>
<path d="M40.7587 142.577L40.1519 142.43L40.5928 167.993L41.1933 167.806L40.7587 142.577Z" fill="white"/>
<path d="M40.1443 142.453L39.6372 142.662L40.0855 167.95L40.5852 168.035L40.1443 142.453Z" fill="#97A6B7"/>
<path d="M32.7844 144.322L32.2983 144.205L32.6521 166.797L33.133 166.814L32.7844 144.322Z" fill="white"/>
<path d="M32.3833 144.224L31.9771 144.391L32.3361 166.735L32.7361 166.804L32.3833 144.224Z" fill="#97A6B7"/>
<path d="M74.6326 171.476L32.3013 166.761V168.239L74.6746 174.643L116.439 172.42V170.145L74.6326 171.476Z" fill="white"/>
<path opacity="0.5" d="M114.897 140.295L74.7764 137.424V174.665L115.343 169.988L114.897 140.295Z" fill="white"/>
<path opacity="0.5" d="M73.9124 137.431L32.4199 145.5L32.6456 166.798L73.9628 171.973L73.9124 137.431Z" fill="white"/>
<path d="M61.4386 156.411C61.4386 156.411 41.9737 122.712 15.6502 180.024C-4.8478 224.656 8.39897 274.31 55.822 287.934C103.245 301.559 177.31 274.042 154.061 254.655C104.746 213.515 67.3176 177.054 61.4386 156.411Z" fill="url(#paint24_linear_35_5128)"/>
<g style="mix-blend-mode:multiply" opacity="0.35">
<path style="mix-blend-mode:multiply" opacity="0.35" d="M38.844 186.784C37.5475 190.895 35.3197 202.411 35.9045 215.786C36.4294 227.716 35.3428 233.954 54.3248 242.632C60.8338 245.606 65.3302 255.044 75.2921 260.66C79.8064 263.205 96.8221 272.418 118.794 268.694C133.332 266.231 144.157 259.101 151.444 252.456C103.429 212.222 67.2126 176.687 61.4396 156.411C61.4396 156.411 54.3269 144.106 42.889 147.018C45.6637 150.112 48.7156 154.805 49.6163 161.113C50.8908 170.042 43.0937 173.294 38.844 186.784Z" fill="url(#paint25_linear_35_5128)"/>
</g>
<g style="mix-blend-mode:multiply" opacity="0.13">
<path style="mix-blend-mode:multiply" opacity="0.13" d="M131.722 274.377C109.295 286.765 71.8392 294.324 43.9337 273.593C18.0952 254.402 15.7982 222.263 14.9321 212.454C13.4266 195.313 16.7756 180.386 21.6048 168.347C19.6637 171.739 17.6774 175.61 15.6502 180.024C-4.84779 224.656 8.39897 274.31 55.8219 287.934C102.5 301.345 174.991 274.895 155.083 255.569C149.425 261.951 141.792 268.817 131.722 274.377Z" fill="url(#paint26_linear_35_5128)"/>
</g>
<path d="M96.3912 277.978C95.7267 277.978 95.06 277.97 94.385 277.956C83.3775 277.71 73.1784 275.463 64.0858 271.279C52.713 266.048 43.0356 257.758 35.3204 246.638C28.8062 237.245 24.9827 226.537 23.957 214.811C23.1371 205.436 24.0935 195.396 26.8 184.968C31.4056 167.219 39.6079 154.323 39.6856 154.195C39.7012 154.168 39.7222 154.144 39.7474 154.125C39.7725 154.106 39.8013 154.092 39.832 154.084C39.8626 154.077 39.8945 154.076 39.9256 154.081C39.9567 154.086 39.9864 154.098 40.013 154.115C40.0395 154.132 40.0623 154.154 40.0799 154.18C40.0975 154.207 40.1095 154.236 40.1154 154.267C40.1212 154.298 40.1206 154.33 40.1137 154.361C40.1068 154.391 40.0936 154.421 40.0751 154.446C39.9943 154.574 31.8308 167.418 27.2451 185.101C24.5544 195.477 23.6032 205.468 24.42 214.783C25.4394 226.424 29.2356 237.054 35.7015 246.383C43.3653 257.434 52.9796 265.672 64.2769 270.867C73.3159 275.025 83.4479 277.256 94.3923 277.501C113.034 277.921 127.755 272.342 127.902 272.287C127.931 272.274 127.962 272.268 127.993 272.267C128.024 272.267 128.055 272.273 128.084 272.285C128.113 272.297 128.139 272.315 128.161 272.338C128.183 272.36 128.2 272.387 128.211 272.416C128.222 272.445 128.227 272.476 128.226 272.507C128.225 272.539 128.218 272.569 128.205 272.598C128.191 272.626 128.172 272.651 128.149 272.672C128.126 272.693 128.098 272.709 128.069 272.719C127.929 272.764 114.164 277.977 96.3912 277.978Z" fill="#FFA6A4"/>
<path d="M193.136 288.675C192.485 287.575 191.816 283.303 194.771 283.097C197.743 282.887 199.521 282.196 204.038 279.947C208.556 277.698 208.972 280.561 202.447 284.392C195.921 288.223 194.063 290.24 193.136 288.675Z" fill="url(#paint27_linear_35_5128)"/>
<path d="M190.744 282.13L192.599 284.625C192.788 284.879 193.053 285.064 193.356 285.155C193.658 285.246 193.982 285.237 194.279 285.129C194.419 285.078 194.545 284.994 194.646 284.886C194.748 284.777 194.823 284.646 194.865 284.503C194.907 284.36 194.915 284.21 194.888 284.063C194.862 283.917 194.801 283.778 194.712 283.659L191.982 280.07L190.744 282.13Z" fill="url(#paint28_linear_35_5128)"/>
<path d="M82.0393 225.257C74.0479 229.682 83.8754 252.015 107.624 250.624C136.402 248.939 170.171 259.837 189.319 283.826C190.93 282.919 194.681 281.761 193.488 279.883C177.088 254.072 160.274 237.647 144.863 230.874C121.564 220.634 104.795 212.66 82.0393 225.257Z" fill="url(#paint29_linear_35_5128)"/>
<g style="mix-blend-mode:multiply" opacity="0.24">
<g style="mix-blend-mode:multiply" opacity="0.24">
<path d="M159.003 250.428C162.442 253.578 164.292 249.103 166.982 246.484C159.423 239.24 151.991 234.009 144.858 230.874C121.56 220.634 104.791 212.66 82.0344 225.257C74.0431 229.682 83.8705 252.015 107.619 250.624C116.207 250.122 125.24 250.765 134.196 252.514C142.358 249.564 150.469 240.489 159.003 250.428Z" fill="#552D63"/>
</g>
</g>
<path d="M162.548 236.268C162.443 234.762 161.885 233.002 165.352 232.559C167.871 232.236 171.982 232.852 175.711 233.463C180.937 234.32 181.454 237.671 173.474 237.997C168.249 238.207 162.69 238.408 162.548 236.268Z" fill="url(#paint30_linear_35_5128)"/>
<path d="M167.045 234.973C166.922 235.777 166.282 236.289 165.602 236.24C164.028 236.126 164.483 235.4 164.607 234.599C164.731 233.798 164.232 233.111 166.05 233.331C166.726 233.414 167.169 234.17 167.045 234.973Z" fill="url(#paint31_linear_35_5128)"/>
<path d="M147.487 224.364L149.559 224.483C149.559 224.483 153.384 225.696 163.498 230.999C165.718 231.881 167.399 239.284 160.593 238.083C153.787 236.882 144.483 240.123 144.483 240.123L147.487 224.364Z" fill="url(#paint32_linear_35_5128)"/>
<path d="M125.987 226.039C113.034 228.874 94.1554 228.041 90.2994 227.809C85.3652 227.513 70.3873 235.985 70.6319 240.425C70.9024 241.827 71.4127 243.172 72.1405 244.401C74.2275 247.889 78.3219 250.616 87.8764 252.14C100.708 254.187 113.235 252.447 121.614 250.662C133.994 246.463 152.559 237.644 153.604 232.295C155.775 221.2 141.334 222.684 125.987 226.039Z" fill="url(#paint33_linear_35_5128)"/>
<g style="mix-blend-mode:multiply" opacity="0.2">
<path style="mix-blend-mode:multiply" opacity="0.2" d="M99.5429 235.257C109.138 236.338 112.71 230.059 124.814 230.647C132.66 231.029 134.848 233.845 139.267 232.099C142.757 230.719 145.085 227.5 146.672 223.799C141.4 223.113 133.819 224.324 125.99 226.039C113.409 228.789 95.2386 228.085 90.6718 227.831C90.5364 227.823 87.8068 226.122 87.8068 226.122C87.8068 226.122 85.3313 226.903 83.5361 227.554C88.9711 232.189 96.0375 234.861 99.5429 235.257Z" fill="url(#paint34_linear_35_5128)"/>
</g>
<path d="M73.7129 244.491L72.1949 244.498C72.1949 244.498 66.8953 237.525 65.772 235.036C64.4072 231.998 85.9193 226.904 94.9048 219.709C104.346 212.15 94.1038 230.942 94.1038 230.942L73.7129 244.491Z" fill="url(#paint35_linear_35_5128)"/>
<path d="M93.3457 169.457C93.3457 169.457 104.273 175.744 110.737 192.628C115.597 205.324 128.374 199.122 128.374 199.122L130.908 204.565L119.327 208.449L94.111 216.186L99.3014 183.348L93.3457 169.457Z" fill="url(#paint36_linear_35_5128)"/>
<path d="M86.899 167.622C86.899 167.622 58.8003 154.141 52.1769 175.246C45.8222 195.476 47.8495 204.012 59.4785 227.02C60.6469 229.329 63.5245 230.379 63.6505 230.694C64.3287 232.403 65.0009 234.173 65.6672 236.004C86.9484 226.566 106.611 227.882 106.611 227.882C96.4042 207.243 97.2399 194.263 100.161 186.084C101.63 181.981 100.593 176.069 98.0042 171.884C95.3943 167.666 92.4495 167.318 86.899 167.622Z" fill="url(#paint37_linear_35_5128)"/>
<g style="mix-blend-mode:multiply" opacity="0.25">
<path style="mix-blend-mode:multiply" opacity="0.25" d="M93.0865 210.587C92.0429 209.367 86.6951 203.112 78.9956 200.771C76.3081 199.954 74.3837 199.931 70.9571 198.237C67.5304 196.542 66.3662 195.026 65.8832 194.288C64.6234 192.366 65.2659 191.034 64.257 188.819C63.1537 186.398 62.2298 188.723 60.3989 183.891C59.2798 180.936 58.3276 177.162 58.1533 172.448C57.1407 173.463 56.1906 174.54 55.3083 175.67C42.2389 192.363 47.844 204.005 59.473 227.017C60.6414 229.326 63.519 230.376 63.645 230.691C64.3232 232.4 64.9954 234.17 65.6617 236.001C86.9429 226.563 106.605 227.879 106.605 227.879C106.605 227.879 105.813 221.53 104.925 212.683C103.488 214.587 101.347 216.811 98.9981 216.592C96.7158 216.383 96.0302 214.03 93.0865 210.587Z" fill="url(#paint38_linear_35_5128)"/>
</g>
<path d="M79.5176 214.546C79.5176 214.546 81.4566 215.351 83.0618 215.294C84.667 215.238 84.5988 215.065 86.2858 215.444C87.9257 215.813 91.3492 216.001 90.1776 213.778C88.8726 211.304 85.3578 210.593 83.9741 211.42C82.6408 212.218 80.7795 212.358 80.7795 212.358L79.5176 214.546Z" fill="url(#paint39_linear_35_5128)"/>
<path d="M72.1438 169.775C72.1438 169.775 64.9452 149.029 42.0504 186.302C23.3298 216.78 73.769 227.604 79.3016 217.377C81.543 215.172 81.1671 211.898 81.1671 211.898C81.1671 211.898 79.5798 207.896 77.2292 206.908C68.1387 203.09 55.3077 206.068 59.548 195.806C64.3551 184.171 78.3777 172.249 72.1438 169.775Z" fill="url(#paint40_linear_35_5128)"/>
<path d="M64.8018 230.22C64.7835 230.22 64.7657 230.213 64.7516 230.201C64.7374 230.19 64.7278 230.174 64.7242 230.155C64.7206 230.137 64.7233 230.119 64.7319 230.103C64.7405 230.086 64.7545 230.074 64.7714 230.066C64.9939 229.976 87.2252 221.026 103.712 222.809C103.722 222.81 103.732 222.813 103.741 222.818C103.75 222.823 103.759 222.83 103.765 222.838C103.772 222.846 103.776 222.855 103.779 222.865C103.782 222.875 103.783 222.886 103.782 222.896C103.78 222.917 103.769 222.936 103.753 222.949C103.737 222.962 103.716 222.969 103.695 222.966C87.2441 221.19 65.0538 230.123 64.8312 230.21C64.822 230.215 64.8121 230.218 64.8018 230.22Z" fill="#AE87F9"/>
<path d="M84.2113 224.713C84.1317 224.722 84.0562 224.753 83.9937 224.803C83.9312 224.853 83.8843 224.92 83.8585 224.996C83.8522 225.018 83.8963 225.813 83.8932 225.836C83.8835 225.925 83.9044 226.015 83.9524 226.092C84.0005 226.168 84.0728 226.226 84.1577 226.256L98.9215 231.422L126.962 221.165L113.735 221.877L84.2113 224.713Z" fill="#26264F"/>
<path d="M84.2067 224.605C84.1177 224.617 84.0352 224.658 83.9724 224.722C83.9096 224.786 83.8703 224.869 83.8607 224.958C83.8511 225.048 83.8718 225.137 83.9196 225.213C83.9673 225.289 84.0393 225.347 84.1238 225.377L98.8876 230.543L126.924 220.286L113.697 220.998L84.2067 224.605Z" fill="#444B8C"/>
<path d="M98.2349 230.312L101.105 201.367C101.127 201.142 101.225 200.931 101.382 200.768C101.54 200.605 101.748 200.5 101.972 200.471L135.376 196.012C135.524 195.992 135.674 196.006 135.816 196.051C135.958 196.097 136.088 196.173 136.196 196.275C136.305 196.377 136.39 196.502 136.444 196.641C136.499 196.78 136.522 196.929 136.512 197.078L134.651 224.074C134.636 224.3 134.545 224.514 134.393 224.682C134.24 224.85 134.035 224.961 133.812 224.997L99.0873 230.618L98.2349 230.312Z" fill="url(#paint41_linear_35_5128)"/>
<path d="M98.9219 231.421L101.877 201.839C101.9 201.614 101.997 201.403 102.154 201.24C102.312 201.078 102.519 200.973 102.743 200.943L136.148 196.484C136.296 196.465 136.446 196.478 136.588 196.524C136.73 196.569 136.86 196.646 136.968 196.748C137.077 196.85 137.162 196.975 137.216 197.114C137.271 197.252 137.294 197.401 137.284 197.55L135.429 224.551C135.413 224.777 135.322 224.99 135.169 225.158C135.017 225.325 134.812 225.436 134.589 225.472L98.9219 231.421Z" fill="#26264F"/>
<path d="M98.9219 231.421L134.589 225.472C134.812 225.436 135.017 225.325 135.169 225.158C135.322 224.99 135.413 224.776 135.429 224.551L135.989 216.407C125.281 222.181 112.001 222.641 99.5917 224.771L98.9219 231.421Z" fill="#1F1F44"/>
<path d="M82.6219 153.612C82.6838 154.921 82.9368 161.927 79.8797 163.214C79.2162 163.492 78.0246 163.519 75.6426 163.57C74.0825 163.604 72.7849 163.57 71.8716 163.528C71.8138 164.683 71.8905 166.6 72.9214 168.499C75.82 173.825 83.3956 173.821 84.479 173.803C88.2993 173.74 91.1811 172.178 92.1785 171.622C93.411 170.935 94.555 170.101 95.5852 169.136C92.9183 167.257 90.0113 165.744 86.9419 164.638C86.9545 163.294 86.9668 161.951 86.9787 160.607C85.5306 158.276 84.0783 155.944 82.6219 153.612Z" fill="url(#paint42_linear_35_5128)"/>
<path style="mix-blend-mode:multiply" opacity="0.55" d="M86.6112 168.918C86.8789 169.121 88.545 170.34 90.7749 169.915C92.0033 169.67 93.1057 168.998 93.8876 168.019C92.9617 167.44 91.9706 166.864 90.8504 166.303C89.5854 165.673 88.2849 165.116 86.9556 164.637C86.9682 163.294 86.9804 161.951 86.9923 160.608C86.5437 159.889 86.0958 159.17 85.6485 158.451C83.6664 160.085 82.773 162.629 83.3704 164.96C84.0276 167.538 86.2322 168.725 86.6112 168.918Z" fill="url(#paint43_linear_35_5128)"/>
<path d="M94.0652 154.072C97.7396 152.208 98.2204 143.123 95.5003 141.654C94.104 140.9 93.1182 142.83 89.3776 143.141C85.0481 143.502 82.9737 141.2 81.3307 142.528C80.0089 143.597 80.0205 146.165 80.1937 147.34C80.3249 148.232 80.7806 149.891 80.9643 151.061C81.0798 151.796 81.1323 152.165 81.168 152.416C81.2225 152.809 81.2309 152.905 81.2866 153.207C81.5081 154.42 82.0425 156.538 83.5122 159.409C84.0563 158.683 84.6626 158.007 85.3242 157.388C85.6203 157.111 86.794 156.039 88.1777 155.326C90.9303 153.905 92.4127 154.909 94.0652 154.072Z" fill="url(#paint44_linear_35_5128)"/>
<path d="M81.3808 156.256C81.3808 156.256 82.0474 161 86.7349 162.673C90.9342 164.171 95.4821 155.279 93.7152 152.211C93.1263 151.187 91.5011 150.166 89.9138 149.951C88.9763 149.824 88.5427 150.049 87.0152 149.811C85.6053 149.593 85.3082 149.298 84.7864 149.454C84.1345 149.65 83.3565 150.486 83.0017 153.505C82.5639 152.381 81.7608 151.674 80.964 151.702C80.6842 151.726 80.4167 151.828 80.1913 151.996C79.1646 152.795 79.5415 154.542 81.3808 156.256Z" fill="url(#paint45_linear_35_5128)"/>
<path d="M109.683 48.1065C109.683 65.9189 84.4992 98.9036 72.95 113.106C70.0609 116.658 64.6448 116.796 61.7389 113.376C49.9996 99.5618 23.7056 66.5425 23.7056 48.1736C23.7056 24.4317 43.4162 5.46859 67.3555 5.81294C90.8916 6.15203 109.683 25.0847 109.683 48.1065Z" fill="url(#paint46_linear_35_5128)"/>
<path d="M111.203 48.1065C111.203 65.9189 86.0193 98.9036 74.4701 113.106C71.582 116.658 66.1648 116.796 63.2589 113.376C51.5197 99.5618 25.2256 66.5425 25.2256 48.1736C25.2256 24.4317 44.9362 5.46859 68.8755 5.81294C92.4117 6.15203 111.203 25.0847 111.203 48.1065Z" fill="url(#paint47_linear_35_5128)"/>
<path d="M92.6414 48.1211C92.6414 61.0467 82.0517 71.6237 68.8753 71.7424C55.575 71.8683 44.6987 61.3102 44.6987 48.1579C44.6987 35.0056 55.575 24.4317 68.8753 24.5367C82.0517 24.6343 92.6414 35.1946 92.6414 48.1211Z" fill="white"/>
<g style="mix-blend-mode:multiply" opacity="0.3">
<path style="mix-blend-mode:multiply" opacity="0.3" d="M68.6865 95.8654C71.4161 78.1484 83.1973 72.3806 81.1795 55.7754C78.8521 36.594 61.555 31.39 61.1351 14.2042C61.0758 11.5074 61.4259 8.81728 62.1734 6.22549C41.3636 9.12723 25.2256 26.7067 25.2256 48.1736C25.2256 66.5457 51.5197 99.5618 63.2589 113.376C64.9701 115.389 67.5527 116.169 69.9778 115.744C67.8929 108.048 67.8299 101.433 68.6865 95.8654Z" fill="url(#paint48_linear_35_5128)"/>
</g>
</g>
<defs>
<linearGradient id="paint0_linear_35_5128" x1="291.626" y1="94.6823" x2="227.353" y2="143.169" gradientUnits="userSpaceOnUse">
<stop stop-color="#E38DDD"/>
<stop offset="1" stop-color="#9571F6"/>
</linearGradient>
<linearGradient id="paint1_linear_35_5128" x1="278.565" y1="18.5159" x2="169.889" y2="153.024" gradientUnits="userSpaceOnUse">
<stop stop-color="#FFC444"/>
<stop offset="1" stop-color="#F36F56"/>
</linearGradient>
<linearGradient id="paint2_linear_35_5128" x1="293.749" y1="137.363" x2="131.627" y2="151.378" gradientUnits="userSpaceOnUse">
<stop offset="0.45" stop-color="#D8DEE8"/>
<stop offset="1" stop-color="white"/>
</linearGradient>
<linearGradient id="paint3_linear_35_5128" x1="41.9501" y1="168.257" x2="278.331" y2="157.189" gradientUnits="userSpaceOnUse">
<stop stop-color="#D8DEE8"/>
<stop offset="1" stop-color="white"/>
</linearGradient>
<linearGradient id="paint4_linear_35_5128" x1="32128.4" y1="73942.6" x2="48047.8" y2="73893.8" gradientUnits="userSpaceOnUse">
<stop stop-color="#E38DDD"/>
<stop offset="1" stop-color="#9571F6"/>
</linearGradient>
<linearGradient id="paint5_linear_35_5128" x1="208.149" y1="73.6579" x2="140.115" y2="-43.1862" gradientUnits="userSpaceOnUse">
<stop stop-color="#FF9085"/>
<stop offset="1" stop-color="#FB6FBB"/>
</linearGradient>
<linearGradient id="paint6_linear_35_5128" x1="386711" y1="49959.1" x2="606341" y2="49959.1" gradientUnits="userSpaceOnUse">
<stop stop-color="#FF9085"/>
<stop offset="1" stop-color="#FB6FBB"/>
</linearGradient>
<linearGradient id="paint7_linear_35_5128" x1="143545" y1="39792.2" x2="143731" y2="79282.6" gradientUnits="userSpaceOnUse">
<stop stop-color="#E38DDD"/>
<stop offset="1" stop-color="#9571F6"/>
</linearGradient>
<linearGradient id="paint8_linear_35_5128" x1="-49637.5" y1="38476.4" x2="-49637.5" y2="72082.2" gradientUnits="userSpaceOnUse">
<stop stop-color="#E38DDD"/>
<stop offset="1" stop-color="#9571F6"/>
</linearGradient>
<linearGradient id="paint9_linear_35_5128" x1="143315" y1="70825.2" x2="147269" y2="110370" gradientUnits="userSpaceOnUse">
<stop stop-color="#E38DDD"/>
<stop offset="1" stop-color="#9571F6"/>
</linearGradient>
<linearGradient id="paint10_linear_35_5128" x1="-49545.6" y1="71035.8" x2="-49545.6" y2="111221" gradientUnits="userSpaceOnUse">
<stop stop-color="#E38DDD"/>
<stop offset="1" stop-color="#9571F6"/>
</linearGradient>
<linearGradient id="paint11_linear_35_5128" x1="86181.1" y1="36938.6" x2="86309.7" y2="64228.8" gradientUnits="userSpaceOnUse">
<stop stop-color="#E38DDD"/>
<stop offset="1" stop-color="#9571F6"/>
</linearGradient>
<linearGradient id="paint12_linear_35_5128" x1="-12725" y1="35666.9" x2="-12725" y2="60281.2" gradientUnits="userSpaceOnUse">
<stop stop-color="#E38DDD"/>
<stop offset="1" stop-color="#9571F6"/>
</linearGradient>
<linearGradient id="paint13_linear_35_5128" x1="124.159" y1="93.7467" x2="114.393" y2="75.265" gradientUnits="userSpaceOnUse">
<stop stop-color="#FFC444"/>
<stop offset="0.86" stop-color="#F57A54"/>
<stop offset="1" stop-color="#F36F56"/>
</linearGradient>
<linearGradient id="paint14_linear_35_5128" x1="287193" y1="24182.1" x2="287104" y2="22365.1" gradientUnits="userSpaceOnUse">
<stop stop-color="#FFC444"/>
<stop offset="0.86" stop-color="#F57A54"/>
<stop offset="1" stop-color="#F36F56"/>
</linearGradient>
<linearGradient id="paint15_linear_35_5128" x1="49165.3" y1="14626.4" x2="47867.8" y2="12853.9" gradientUnits="userSpaceOnUse">
<stop stop-color="#FFC444"/>
<stop offset="1" stop-color="#F36F56"/>
</linearGradient>
<linearGradient id="paint16_linear_35_5128" x1="208258" y1="199529" x2="260088" y2="194681" gradientUnits="userSpaceOnUse">
<stop stop-color="#D8DEE8"/>
<stop offset="1" stop-color="white"/>
</linearGradient>
<linearGradient id="paint17_linear_35_5128" x1="185.342" y1="203.315" x2="148.131" y2="207.326" gradientUnits="userSpaceOnUse">
<stop stop-color="#D8DEE8"/>
<stop offset="0.47" stop-color="#EBEEF3"/>
<stop offset="1" stop-color="white"/>
</linearGradient>
<linearGradient id="paint18_linear_35_5128" x1="133701" y1="41831.4" x2="140986" y2="41797.1" gradientUnits="userSpaceOnUse">
<stop stop-color="#FFC444"/>
<stop offset="1" stop-color="#F36F56"/>
</linearGradient>
<linearGradient id="paint19_linear_35_5128" x1="224384" y1="54090" x2="265687" y2="23603.2" gradientUnits="userSpaceOnUse">
<stop stop-color="#FF9085"/>
<stop offset="1" stop-color="#FB6FBB"/>
</linearGradient>
<linearGradient id="paint20_linear_35_5128" x1="155884" y1="21748.6" x2="176552" y2="22416.8" gradientUnits="userSpaceOnUse">
<stop stop-color="#D8DEE8"/>
<stop offset="1" stop-color="white"/>
</linearGradient>
<linearGradient id="paint21_linear_35_5128" x1="154768" y1="22643.3" x2="175289" y2="23272.6" gradientUnits="userSpaceOnUse">
<stop stop-color="#D8DEE8"/>
<stop offset="1" stop-color="white"/>
</linearGradient>
<linearGradient id="paint22_linear_35_5128" x1="134248" y1="39201" x2="157212" y2="30844" gradientUnits="userSpaceOnUse">
<stop stop-color="#D8DEE8"/>
<stop offset="1" stop-color="white"/>
</linearGradient>
<linearGradient id="paint23_linear_35_5128" x1="204756" y1="32550.9" x2="232084" y2="33486.4" gradientUnits="userSpaceOnUse">
<stop stop-color="#D8DEE8"/>
<stop offset="1" stop-color="white"/>
</linearGradient>
<linearGradient id="paint24_linear_35_5128" x1="63069.5" y1="230022" x2="217721" y2="576629" gradientUnits="userSpaceOnUse">
<stop stop-color="#FFC444"/>
<stop offset="1" stop-color="#F36F56"/>
</linearGradient>
<linearGradient id="paint25_linear_35_5128" x1="62575.9" y1="187844" x2="203223" y2="470316" gradientUnits="userSpaceOnUse">
<stop stop-color="#FF9085"/>
<stop offset="1" stop-color="#FB6FBB"/>
</linearGradient>
<linearGradient id="paint26_linear_35_5128" x1="63069.3" y1="195521" x2="180159" y2="504317" gradientUnits="userSpaceOnUse">
<stop stop-color="#FF9085"/>
<stop offset="1" stop-color="#FB6FBB"/>
</linearGradient>
<linearGradient id="paint27_linear_35_5128" x1="192.664" y1="288.039" x2="206.21" y2="277.941" gradientUnits="userSpaceOnUse">
<stop stop-color="#40447E"/>
<stop offset="1" stop-color="#3C3B6B"/>
</linearGradient>
<linearGradient id="paint28_linear_35_5128" x1="7957.38" y1="12616.7" x2="12517.5" y2="19876" gradientUnits="userSpaceOnUse">
<stop stop-color="#FFC444"/>
<stop offset="1" stop-color="#F36F56"/>
</linearGradient>
<linearGradient id="paint29_linear_35_5128" x1="78.9973" y1="208.725" x2="205.228" y2="302.439" gradientUnits="userSpaceOnUse">
<stop stop-color="#311944"/>
<stop offset="1" stop-color="#6B3976"/>
</linearGradient>
<linearGradient id="paint30_linear_35_5128" x1="20011.8" y1="10997.3" x2="22735.9" y2="10529.6" gradientUnits="userSpaceOnUse">
<stop stop-color="#40447E"/>
<stop offset="1" stop-color="#3C3B6B"/>
</linearGradient>
<linearGradient id="paint31_linear_35_5128" x1="4704.9" y1="6928.47" x2="8768.18" y2="11982.1" gradientUnits="userSpaceOnUse">
<stop stop-color="#FFC444"/>
<stop offset="1" stop-color="#F36F56"/>
</linearGradient>
<linearGradient id="paint32_linear_35_5128" x1="25440.2" y1="33901.4" x2="45932.5" y2="31243.9" gradientUnits="userSpaceOnUse">
<stop stop-color="#311944"/>
<stop offset="1" stop-color="#6B3976"/>
</linearGradient>
<linearGradient id="paint33_linear_35_5128" x1="22.36" y1="241.67" x2="150.326" y2="237.404" gradientUnits="userSpaceOnUse">
<stop stop-color="#311944"/>
<stop offset="1" stop-color="#893976"/>
</linearGradient>
<linearGradient id="paint34_linear_35_5128" x1="79339.8" y1="25826.7" x2="100027" y2="2127.07" gradientUnits="userSpaceOnUse">
<stop stop-color="#311944"/>
<stop offset="1" stop-color="#6B3976"/>
</linearGradient>
<linearGradient id="paint35_linear_35_5128" x1="28202" y1="59874.4" x2="65395.2" y2="51245.6" gradientUnits="userSpaceOnUse">
<stop stop-color="#311944"/>
<stop offset="1" stop-color="#893976"/>
</linearGradient>
<linearGradient id="paint36_linear_35_5128" x1="143.852" y1="254.511" x2="104.072" y2="197.677" gradientUnits="userSpaceOnUse">
<stop stop-color="#AA80F9"/>
<stop offset="1" stop-color="#6165D7"/>
</linearGradient>
<linearGradient id="paint37_linear_35_5128" x1="58960.7" y1="167366" x2="58146.5" y2="132984" gradientUnits="userSpaceOnUse">
<stop stop-color="#AA80F9"/>
<stop offset="1" stop-color="#6165D7"/>
</linearGradient>
<linearGradient id="paint38_linear_35_5128" x1="65257.4" y1="150361" x2="65796.7" y2="118120" gradientUnits="userSpaceOnUse">
<stop stop-color="#AA80F9"/>
<stop offset="1" stop-color="#6165D7"/>
</linearGradient>
<linearGradient id="paint39_linear_35_5128" x1="16041.4" y1="13606.7" x2="19349.6" y2="12666.7" gradientUnits="userSpaceOnUse">
<stop stop-color="#FFC444"/>
<stop offset="1" stop-color="#F36F56"/>
</linearGradient>
<linearGradient id="paint40_linear_35_5128" x1="34311" y1="134813" x2="33034.8" y2="102188" gradientUnits="userSpaceOnUse">
<stop stop-color="#AA80F9"/>
<stop offset="1" stop-color="#6165D7"/>
</linearGradient>
<linearGradient id="paint41_linear_35_5128" x1="43279.5" y1="70070.8" x2="57684" y2="69514.9" gradientUnits="userSpaceOnUse">
<stop stop-color="#40447E"/>
<stop offset="1" stop-color="#3C3B6B"/>
</linearGradient>
<linearGradient id="paint42_linear_35_5128" x1="30706.5" y1="42289.4" x2="33203.4" y2="36019.9" gradientUnits="userSpaceOnUse">
<stop stop-color="#FFC444"/>
<stop offset="1" stop-color="#F36F56"/>
</linearGradient>
<linearGradient id="paint43_linear_35_5128" x1="11771.8" y1="18823.2" x2="11613.5" y2="16478" gradientUnits="userSpaceOnUse">
<stop stop-color="#FFC444"/>
<stop offset="1" stop-color="#F36F56"/>
</linearGradient>
<linearGradient id="paint44_linear_35_5128" x1="9623.7" y1="28936.2" x2="13843.3" y2="24771.7" gradientUnits="userSpaceOnUse">
<stop stop-color="#311944"/>
<stop offset="1" stop-color="#6B3976"/>
</linearGradient>
<linearGradient id="paint45_linear_35_5128" x1="19462.8" y1="23605.4" x2="17595.1" y2="28588.9" gradientUnits="userSpaceOnUse">
<stop stop-color="#FFC444"/>
<stop offset="1" stop-color="#F36F56"/>
</linearGradient>
<linearGradient id="paint46_linear_35_5128" x1="50164.6" y1="34344.5" x2="103083" y2="140834" gradientUnits="userSpaceOnUse">
<stop stop-color="#311944"/>
<stop offset="1" stop-color="#893976"/>
</linearGradient>
<linearGradient id="paint47_linear_35_5128" x1="20683.8" y1="63773.9" x2="91095.5" y2="63773.9" gradientUnits="userSpaceOnUse">
<stop stop-color="#FFC444"/>
<stop offset="1" stop-color="#F36F56"/>
</linearGradient>
<linearGradient id="paint48_linear_35_5128" x1="25476.5" y1="40383.2" x2="89161.1" y2="124451" gradientUnits="userSpaceOnUse">
<stop stop-color="#FF9085"/>
<stop offset="1" stop-color="#FB6FBB"/>
</linearGradient>
<clipPath id="clip0_35_5128">
<rect width="300" height="295.936" fill="white"/>
</clipPath>
</defs>
</svg>
