<svg width="300" height="299" viewBox="0 0 300 299" fill="none" xmlns="http://www.w3.org/2000/svg">
<g clip-path="url(#clip0_36_207)">
<path d="M263.905 256.361C256.097 264.41 249.109 269.142 243.76 272.713C191.588 307.549 131.949 297.508 113.509 294.077C83.7614 288.54 58.6489 284.634 37.0739 265.141C-11.9499 220.847 -9.56927 128.448 27.8934 71.2097C32.3353 64.4222 69.7393 8.97552 129.509 1.16303C130.971 0.971424 132.061 0.86326 133.012 0.762307C142.257 -0.217344 199.558 -5.38344 246.271 33.7573C252.959 39.3602 263.722 49.4657 273.701 64.8795C310.198 121.238 310.314 208.525 263.905 256.361Z" fill="#F4F7FA"/>
<path d="M189.118 143.709L123.273 135.659V38.5484L189.118 26.0756V143.709Z" fill="url(#paint0_linear_36_207)"/>
<path d="M269.433 138.592L189.118 143.709V26.0756L269.433 37.1639V138.592Z" fill="url(#paint1_linear_36_207)"/>
<g style="mix-blend-mode:soft-light">
<path d="M219.393 30.2549V46.7483L246.131 49.2463V33.9469L219.393 30.2549Z" fill="white"/>
</g>
<path d="M254.811 74.2578L258.852 83.941C259.125 84.5921 259.252 85.2956 259.222 86.0012C259.191 86.7068 259.006 87.397 258.678 88.0224L251.969 100.466L243.811 81.547C243.781 81.4814 243.768 81.4098 243.772 81.3381C243.776 81.2664 243.798 81.1967 243.834 81.1349C243.866 81.0755 243.915 81.0266 243.974 80.9941C244.033 80.9615 244.1 80.9468 244.167 80.9516L250.618 81.4512L251.259 81.5006L251.568 80.8733L254.809 74.2599L254.811 74.2578Z" fill="white"/>
<path d="M237.166 56.6261L226.551 73.4038C226.517 73.4624 226.468 73.5101 226.408 73.5415C226.348 73.5729 226.281 73.5866 226.214 73.581C226.143 73.5761 226.074 73.551 226.017 73.5087C225.959 73.4663 225.915 73.4085 225.889 73.342L222.929 66.7327L222.633 66.0734L221.965 66.0662L214.815 65.989L220.623 57.3565C221.407 56.1914 222.674 55.5558 224.011 55.6547L237.166 56.6261Z" fill="white"/>
<path d="M209.232 92.2314L228.662 93.8858C228.732 93.8926 228.799 93.9186 228.855 93.961C228.911 94.0034 228.954 94.0604 228.98 94.1258C229.01 94.194 229.024 94.2685 229.02 94.3432C229.016 94.4178 228.993 94.4903 228.955 94.5544L225.215 100.86L224.839 101.494L225.182 102.143L228.829 109.045L218.8 108.142C217.417 108.017 216.209 107.13 215.571 105.772L209.232 92.2387V92.2314Z" fill="white"/>
<g style="mix-blend-mode:multiply" opacity="0.3">
<path d="M254.811 74.2578L258.852 83.941C259.125 84.5921 259.252 85.2956 259.222 86.0012C259.191 86.7068 259.006 87.397 258.678 88.0224L251.969 100.466L243.811 81.547C243.781 81.4814 243.768 81.4098 243.772 81.3381C243.776 81.2664 243.798 81.1967 243.834 81.1349C243.866 81.0755 243.915 81.0266 243.974 80.9941C244.033 80.9615 244.1 80.9468 244.167 80.9516L250.618 81.4512L251.259 81.5006L251.568 80.8733L254.809 74.2599L254.811 74.2578Z" fill="white"/>
</g>
<path d="M236.968 92.2335L236.934 92.9072L236.873 94.0919L237.929 94.1619L251.557 95.0602L251.638 95.0653C252.873 95.1356 254.108 94.933 255.255 94.472L249.167 106.124C248.068 108.225 246.049 109.477 243.893 109.382H243.842L237.406 109.038L236.387 108.984L236.284 110.137L236.138 111.771L231.636 101.582L236.968 92.2356V92.2335Z" fill="white"/>
<g style="mix-blend-mode:multiply" opacity="0.3">
<path d="M237.166 56.6261L226.551 73.4038C226.517 73.4624 226.468 73.5101 226.408 73.5415C226.348 73.5729 226.281 73.5866 226.214 73.581C226.143 73.5761 226.074 73.551 226.017 73.5087C225.959 73.4663 225.915 73.4085 225.889 73.342L222.929 66.7327L222.633 66.0734L221.965 66.0662L214.815 65.989L220.623 57.3565C221.407 56.1914 222.674 55.5558 224.011 55.6547L237.166 56.6261Z" fill="white"/>
</g>
<g style="mix-blend-mode:multiply" opacity="0.3">
<path d="M209.232 92.2314L228.662 93.8858C228.732 93.8926 228.799 93.9186 228.855 93.961C228.911 94.0034 228.954 94.0604 228.98 94.1258C229.01 94.194 229.024 94.2685 229.02 94.3432C229.016 94.4178 228.993 94.4903 228.955 94.5544L225.215 100.86L224.839 101.494L225.182 102.143L228.829 109.045L218.8 108.142C217.417 108.017 216.209 107.13 215.571 105.772L209.232 92.2387V92.2314Z" fill="white"/>
</g>
<path d="M208.976 70.9295L219.233 71.835L223.751 81.6418L223.243 81.2658L222.348 80.6034L221.748 81.5882L213.789 94.6554C213.024 95.9166 212.495 97.3071 212.23 98.7584L206.279 86.4514C205.755 85.3583 205.514 84.151 205.579 82.9406C205.644 81.7302 206.013 80.5556 206.65 79.5249L210.418 73.5141L211.007 72.5756L210.166 71.8947L208.976 70.9295Z" fill="white"/>
<path d="M242.97 56.8311C245.025 57.0124 246.878 58.4062 247.812 60.4685L250.64 66.7162L251.085 67.7L251.967 67.2756L253.214 66.6761L247.96 75.5815L238.358 74.9222L238.888 74.6348L239.815 74.1311L239.345 73.0876L233.215 59.4693C232.655 58.2125 231.864 57.0721 230.883 56.1069L242.824 56.8208L242.972 56.8311H242.97Z" fill="white"/>
<path d="M285.229 272.139L177.29 279.73V121.638L285.229 129.23V272.139Z" fill="url(#paint2_linear_36_207)"/>
<path d="M177.289 279.73L88.7974 268.912V131.73L177.289 121.638V279.73Z" fill="url(#paint3_linear_36_207)"/>
<g style="mix-blend-mode:soft-light">
<path d="M215.5 124.325V149.042L251.667 150.878V126.869L215.5 124.325Z" fill="white"/>
</g>
<path d="M265.566 193.087L271.826 205.964C272.244 206.839 272.454 207.799 272.442 208.769C272.429 209.738 272.193 210.692 271.752 211.556L262.738 229.352L249.852 204.532C249.804 204.442 249.781 204.342 249.782 204.241C249.784 204.14 249.812 204.041 249.862 203.953C249.908 203.865 249.977 203.79 250.062 203.738C250.146 203.686 250.244 203.658 250.343 203.656L259.833 203.553L260.767 203.544L261.179 202.64L265.566 193.087Z" fill="white"/>
<path d="M238.315 169.856L223.251 195.12C223.2 195.209 223.126 195.283 223.038 195.335C222.949 195.387 222.848 195.414 222.745 195.414C222.639 195.416 222.534 195.388 222.443 195.333C222.352 195.278 222.278 195.199 222.23 195.105L217.108 185.911L216.593 184.984L215.547 185.046L204.267 185.707L212.706 172.445C213.258 171.57 214.025 170.852 214.934 170.358C215.843 169.864 216.864 169.612 217.898 169.626L238.319 169.849L238.315 169.856Z" fill="white"/>
<path d="M197.848 224.3L228.006 223.754C228.108 223.75 228.209 223.775 228.297 223.826C228.385 223.877 228.456 223.952 228.504 224.043C228.555 224.134 228.581 224.238 228.58 224.343C228.579 224.448 228.55 224.551 228.496 224.641L223.303 233.954L222.781 234.891L223.351 235.733L229.347 244.612L214.11 245.053C211.981 245.115 210.052 244.091 208.959 242.311L197.848 224.3Z" fill="white"/>
<g style="mix-blend-mode:multiply" opacity="0.3">
<path d="M265.566 193.087L271.826 205.964C272.244 206.839 272.454 207.799 272.442 208.769C272.429 209.738 272.193 210.692 271.752 211.556L262.738 229.352L249.852 204.532C249.804 204.442 249.781 204.342 249.782 204.241C249.784 204.14 249.812 204.041 249.862 203.953C249.908 203.865 249.977 203.79 250.062 203.738C250.146 203.686 250.244 203.658 250.343 203.656L259.833 203.553L260.767 203.544L261.179 202.64L265.566 193.087Z" fill="white"/>
</g>
<path d="M240.353 220.271L240.345 221.207L240.332 222.855L241.903 222.799L261.878 222.093L261.995 222.087C263.787 222.006 265.544 221.56 267.158 220.777L258.99 237.391C257.519 240.383 254.675 242.385 251.553 242.606L251.48 242.612L242.064 243.195L240.561 243.287L240.483 244.864L240.373 247.098L233.023 233.942L240.353 220.269V220.271Z" fill="white"/>
<g style="mix-blend-mode:multiply" opacity="0.3">
<path d="M238.315 169.856L223.251 195.12C223.2 195.209 223.126 195.283 223.038 195.335C222.949 195.387 222.848 195.414 222.745 195.414C222.639 195.416 222.534 195.388 222.443 195.333C222.352 195.278 222.278 195.199 222.23 195.105L217.108 185.911L216.593 184.984L215.547 185.046L204.267 185.707L212.706 172.445C213.258 171.57 214.025 170.852 214.934 170.358C215.843 169.864 216.864 169.612 217.898 169.626L238.319 169.849L238.315 169.856Z" fill="white"/>
</g>
<g style="mix-blend-mode:multiply" opacity="0.3">
<path d="M197.848 224.3L228.006 223.754C228.108 223.75 228.209 223.775 228.297 223.826C228.385 223.877 228.456 223.952 228.504 224.043C228.555 224.134 228.581 224.238 228.58 224.343C228.579 224.448 228.55 224.551 228.496 224.641L223.303 233.954L222.781 234.891L223.351 235.733L229.347 244.612L214.11 245.053C211.981 245.115 210.052 244.091 208.959 242.311L197.848 224.3Z" fill="white"/>
</g>
<path d="M195.404 193.61L211.751 193.72L219.579 207.214L218.765 206.746L217.329 205.922L216.481 207.401L205.222 227.045C204.153 228.901 203.451 230.945 203.154 233.065L192.605 216.469C190.681 213.443 190.647 209.584 192.517 206.419L197.959 197.209L198.809 195.767L197.402 194.874L195.404 193.606V193.61Z" fill="white"/>
<path d="M247.127 169.631C250.224 169.707 253.074 171.537 254.579 174.395L259.096 182.973L259.803 184.312L261.076 183.623L262.872 182.653L255.624 195.707L241.318 195.895L242.095 195.427L243.456 194.603L242.686 193.183L232.47 174.332C231.505 172.542 230.202 170.956 228.635 169.661L246.904 169.619H247.127V169.631Z" fill="white"/>
<path d="M96.9342 177.226C95.6589 180.251 93.2814 184.452 90.7535 189.29H144.704C136.463 174.055 125.684 158.361 134.084 128.616C138.025 114.657 150.209 89.3564 141.594 74.9068C131.779 58.4454 118.474 68.0936 112.854 55.0624C104.067 34.6958 83.8908 22.5598 66.0304 35.9031C48.4153 49.0692 54.5517 86.9604 85.7738 124.865C105.093 154.595 103.59 161.43 96.9342 177.226Z" fill="url(#paint4_linear_36_207)"/>
<g opacity="0.3">
<path opacity="0.3" d="M118.637 186.165C118.013 179.169 117.072 172.603 116.074 165.651L115.741 163.333C115.055 160.016 114.468 156.726 113.9 153.547C112.618 146.363 111.407 139.576 109.137 132.515C109.052 132.095 108.99 131.684 108.931 131.251C108.698 129.698 108.457 128.093 107.333 126.688L107.303 126.627C98.1226 88.8651 81.005 52.3666 56.4199 18.1416L56.6744 17.9593C81.2749 52.2059 98.4069 88.7291 107.594 126.517C108.751 127.982 109.008 129.691 109.235 131.2C109.3 131.632 109.36 132.039 109.441 132.436C111.707 139.501 112.925 146.297 114.209 153.492C114.776 156.671 115.363 159.959 116.051 163.278L116.384 165.605C117.383 172.562 118.326 179.132 118.95 186.136L118.637 186.165Z" fill="#FCFDFE"/>
<path opacity="0.3" d="M113.365 152.266C110.405 134.21 116.84 111.32 122.76 95.3003C129.172 77.9478 136.376 64.688 136.448 64.5561L136.723 64.7065C136.651 64.8384 129.456 78.0807 123.053 95.4125C117.146 111.399 110.724 134.231 113.679 152.219L113.365 152.266Z" fill="#FCFDFE"/>
<path opacity="0.3" d="M89.8119 75.3385C85.6038 56.3532 85.5801 35.453 85.5739 28.5851C85.5739 27.2717 85.5739 26.4033 85.542 26.2395L85.851 26.1839C85.884 26.3683 85.8861 27.0533 85.8871 28.5851C85.8943 35.4447 85.9159 56.3182 90.1178 75.2715L89.8119 75.3385Z" fill="#FCFDFE"/>
<path opacity="0.3" d="M101.158 105.03C92.2879 89.4327 56.3045 79.6743 55.9419 79.5774L56.0233 79.2746C56.3869 79.3776 92.496 89.1638 101.43 104.875L101.158 105.03Z" fill="#FCFDFE"/>
</g>
<path d="M73.5838 119.988C73.8743 144.775 85.8289 136.607 96.8534 139.054C109.575 157.462 110.775 174.541 91.7789 189.29L70.6119 186.123C62.7592 185.758 53.5437 183.358 54.0639 172.901C54.6521 161.073 57.4489 153.561 44.0994 147.753C30.75 141.945 25.0153 131.346 30.4214 119.289C36.1098 106.603 22.7665 89.5027 32.5177 81.0031C49.5097 66.194 73.2809 94.1784 73.5838 119.988Z" fill="url(#paint5_linear_36_207)"/>
<g opacity="0.3">
<path opacity="0.3" d="M78.8383 164.346C69.989 154.661 62.3477 143.938 56.0817 132.412C49.764 120.793 44.9492 108.536 41.7702 95.9842C39.9536 88.8246 38.675 81.5392 37.9453 74.1888L38.2636 74.1579C38.9922 81.4919 40.268 88.7611 42.0802 95.9049C45.253 108.431 50.0586 120.662 56.363 132.258C62.617 143.76 70.2431 154.461 79.0742 164.126L78.8383 164.346Z" fill="#FCFDFE"/>
<path opacity="0.3" d="M52.9963 179.124L52.8511 178.839C56.782 176.836 61.4197 175.274 66.6342 174.197C69.0535 173.692 71.5049 173.355 73.9708 173.189L73.9914 173.509C71.5404 173.673 69.1038 174.008 66.6991 174.51C61.5124 175.581 56.9015 177.134 52.9963 179.124Z" fill="#FCFDFE"/>
<path opacity="0.3" d="M60.2022 139.487C49.2725 128.913 26.002 129.88 25.7733 129.892L25.7578 129.573C25.9937 129.562 49.3951 128.587 60.4247 139.256L60.2022 139.487Z" fill="#FCFDFE"/>
<path opacity="0.3" d="M46.7238 111.892C43.4531 95.0262 56.098 75.529 56.2226 75.3394L56.4894 75.5156C56.3627 75.7093 43.792 95.0942 47.039 111.832L46.7238 111.892Z" fill="#FCFDFE"/>
</g>
<path d="M86.9472 287.821L27.3843 280.539V185.607L86.9472 181.412V287.821Z" fill="url(#paint6_linear_36_207)"/>
<path d="M159.599 282.912L86.9473 287.821V181.412L159.599 185.588V282.912Z" fill="url(#paint7_linear_36_207)"/>
<g style="mix-blend-mode:soft-light">
<path d="M113.335 182.928V227.273L137.628 228.08V184.325L113.335 182.928Z" fill="white"/>
</g>
<path d="M73.8884 225.701L77.8668 233.995C78.1382 234.56 78.2752 235.181 78.2669 235.809C78.2587 236.437 78.1056 237.054 77.8194 237.612L72.1403 248.551L64.539 232.737C64.512 232.682 64.4985 232.621 64.4996 232.56C64.5006 232.499 64.5163 232.439 64.5452 232.385C64.5697 232.334 64.6084 232.29 64.657 232.259C64.7055 232.228 64.7618 232.212 64.8192 232.212L70.3757 232.272L70.9392 232.278L71.1915 231.717L73.8884 225.701Z" fill="white"/>
<path d="M58.2017 212.247L50.519 227.094C50.4979 227.142 50.4634 227.183 50.4196 227.213C50.3758 227.242 50.3245 227.258 50.2718 227.26C50.2174 227.26 50.1642 227.244 50.1191 227.214C50.074 227.184 50.0393 227.14 50.0194 227.09L47.5615 222.013L47.3184 221.509L46.826 221.561L41.6836 222.096L45.5033 214.714C46.0318 213.692 46.9403 213.039 47.9375 212.969L58.2028 212.248L58.2017 212.247Z" fill="white"/>
<path d="M38.8901 242.505L52.8772 243.402C52.9318 243.407 52.984 243.427 53.0281 243.46C53.0722 243.492 53.1066 243.536 53.1275 243.587C53.1542 243.64 53.1681 243.699 53.1681 243.758C53.1681 243.817 53.1542 243.876 53.1275 243.929L50.5522 248.944L50.2967 249.44L50.5749 249.947L53.5622 255.389L46.1649 254.527C45.1791 254.412 44.2952 253.722 43.7956 252.684L38.8994 242.505H38.8901Z" fill="white"/>
<g style="mix-blend-mode:multiply" opacity="0.3">
<path d="M73.8884 225.701L77.8668 233.995C78.1382 234.56 78.2752 235.181 78.2669 235.809C78.2587 236.437 78.1056 237.054 77.8194 237.612L72.1403 248.551L64.539 232.737C64.512 232.682 64.4985 232.621 64.4996 232.56C64.5006 232.499 64.5163 232.439 64.5452 232.385C64.5697 232.334 64.6084 232.29 64.657 232.259C64.7055 232.228 64.7618 232.212 64.8192 232.212L70.3757 232.272L70.9392 232.278L71.1915 231.717L73.8884 225.701Z" fill="white"/>
</g>
<path d="M59.2914 241.89V242.442L59.2842 243.411L60.133 243.448L71.62 243.94H71.6911C72.787 243.977 73.878 243.779 74.8907 243.358L69.8739 253.324C68.9963 255.068 67.3223 256.07 65.5144 255.948H65.4732L60.2196 255.542L59.4068 255.479L59.3646 256.406L59.3048 257.715L55.4336 249.508L59.2945 241.893L59.2914 241.89Z" fill="white"/>
<g style="mix-blend-mode:multiply" opacity="0.3">
<path d="M58.2017 212.247L50.519 227.094C50.4979 227.142 50.4634 227.183 50.4196 227.213C50.3758 227.242 50.3245 227.258 50.2718 227.26C50.2174 227.26 50.1642 227.244 50.1191 227.214C50.074 227.184 50.0393 227.14 50.0194 227.09L47.5615 222.013L47.3184 221.509L46.826 221.561L41.6836 222.096L45.5033 214.714C46.0318 213.692 46.9403 213.039 47.9375 212.969L58.2028 212.248L58.2017 212.247Z" fill="white"/>
</g>
<g style="mix-blend-mode:multiply" opacity="0.3">
<path d="M38.8901 242.505L52.8772 243.402C52.9318 243.407 52.984 243.427 53.0281 243.46C53.0722 243.492 53.1066 243.536 53.1275 243.587C53.1542 243.64 53.1681 243.699 53.1681 243.758C53.1681 243.817 53.1542 243.876 53.1275 243.929L50.5522 248.944L50.2967 249.44L50.5749 249.947L53.5622 255.389L46.1649 254.527C45.1791 254.412 44.2952 253.722 43.7956 252.684L38.8994 242.505H38.8901Z" fill="white"/>
</g>
<path d="M37.8498 226.357H45.0606L48.7423 233.839L48.3519 233.566L47.6689 233.086L47.2682 233.892L42.1093 244.256C41.6254 245.237 41.3158 246.294 41.1946 247.381L36.6723 238.246C36.2777 237.433 36.0696 236.542 36.0631 235.638C36.0567 234.735 36.2522 233.841 36.6352 233.022L38.9365 228.242L39.3022 227.484L38.6986 227.017L37.8487 226.357H37.8498Z" fill="white"/>
<path d="M63.0019 211.715C64.7531 211.612 66.3838 212.599 67.2583 214.29L69.9305 219.449L70.3549 220.268L71.1244 219.808L72.2205 219.153L67.8702 227.385L59.8095 227.516L60.2298 227.238L60.9725 226.749L60.5512 225.908L55.143 215.092C54.6693 214.125 54.0054 213.264 53.1909 212.56L62.8741 211.729L62.9988 211.72L63.0019 211.715Z" fill="white"/>
<path d="M112.908 121.795C116.052 120.876 120.254 126.649 123.747 131.448C128.972 138.627 135.078 147.016 133.43 157.087C131.813 166.997 123.317 174.715 120.896 173.611C118.825 172.667 122.806 166.002 119.756 157.087C117.295 149.895 113.217 149.892 110.485 142.84C107.091 134.088 109.041 122.924 112.908 121.795Z" fill="white"/>
<path d="M114.463 167.439C130.656 171.37 141.321 177.681 147.55 182.144C150.926 184.563 152.486 186.072 153.327 188.271C158.123 200.804 133.481 219.753 130.855 221.737C129.707 219.063 128.56 216.388 127.413 213.713C129.96 199.737 134.199 195.352 137.746 194.048C138.739 193.684 140.405 193.292 140.372 192.822C140.296 191.712 130.936 193.294 121.992 190.022C113.072 186.758 104.111 178.501 105.716 173.041C106 172.045 107.227 169.164 114.463 167.439Z" fill="url(#paint8_linear_36_207)"/>
<path d="M130.164 259.043C130.164 259.043 128.657 259.58 128.652 260.772C128.647 261.964 130.179 267.215 131.845 269.081C133.512 270.946 133.658 268.163 133.555 266.369C133.452 264.576 133.016 260.564 132.604 259.787C132.193 259.01 130.164 259.043 130.164 259.043Z" fill="url(#paint9_linear_36_207)"/>
<path style="mix-blend-mode:multiply" opacity="0.3" d="M135.004 185.762C137.946 185.704 144.84 185.155 146.675 188.563C148.206 191.406 145.524 195.715 143.874 198.366C139.389 205.576 135.036 206.309 131.97 210.736C130.783 212.45 129.703 214.845 129.365 218.265C128.714 216.748 128.062 215.23 127.408 213.713C129.955 199.737 134.194 195.351 137.741 194.048C138.734 193.684 140.4 193.292 140.367 192.822C140.291 191.712 130.931 193.294 121.987 190.022C113.856 187.047 105.718 179.926 105.549 174.555C118.43 183.79 128.119 185.897 135.004 185.762Z" fill="url(#paint10_linear_36_207)"/>
<path d="M129.294 253.978C129.383 255.815 129.538 257.351 129.679 258.491C129.988 261.015 130.276 262.013 130.667 262.921C131.009 263.713 131.863 265.441 132.271 265.321C132.679 265.2 132.259 263.284 131.936 257.959C131.889 257.186 131.747 254.725 131.747 254.725L129.294 253.978Z" fill="url(#paint11_linear_36_207)"/>
<path d="M105.127 168.49C114.456 174.114 120.512 180.509 124.033 184.829C128.19 189.927 134.512 197.682 136.806 209.243C138.027 215.407 137.425 220.936 136.176 231.742C135.187 240.299 133.71 248.793 131.753 257.182L129.601 258.046C127.679 254.516 125.166 248.927 124.265 241.78C122.791 230.088 127.164 226.373 125.065 218.081C123.246 210.898 117.977 206.493 107.437 197.685C98.7782 190.447 90.7937 186.153 87.83 177.126C87.3262 175.594 86.9029 173.713 87.7187 171.99C89.4895 168.28 96.2544 166.984 105.127 168.49Z" fill="url(#paint12_linear_36_207)"/>
<path d="M96.024 121.321C98.4448 120.8 102.427 120.909 106.222 117.915C107.365 117.014 111.414 113.826 110.922 109.262C110.489 105.244 106.683 103.087 106.216 102.829C103.527 101.349 100.837 101.679 97.8617 102.086C93.9988 102.614 92.7111 103.67 90.0328 104.393C83.3915 106.183 81.1448 102.447 74.4583 102.762C65.9082 103.165 65.1717 109.477 57.9762 109.634C49.9041 109.812 48.3569 101.908 40.3868 100.569C29.3232 98.715 12.5846 110.62 12.9225 124.35C13.1172 132.282 19.0209 141.367 26.5635 144.094C30.959 145.685 35.7028 145.18 37.0564 148.039C38.0195 150.073 35.8532 151.644 36.0582 155.185C36.3219 159.754 40.2559 162.961 40.8915 163.479C46.789 168.286 60.0117 165.858 69.0408 159.056C85.322 146.793 82.8569 124.154 96.024 121.321Z" fill="url(#paint13_linear_36_207)"/>
<path d="M78.9777 120.834C85.2294 120.063 91.5183 119.634 97.8167 119.548C112.669 119.342 114.795 121.23 115.339 122.624C116.354 125.223 114.618 126.525 115.603 131.057C116.193 133.766 115.635 135.001 116.775 137.913C117.887 140.751 117.015 142.275 116.032 148.929C114.776 157.435 114.196 161.759 116.576 165.189C118.231 167.572 120.079 167.774 119.905 168.905C119.529 171.316 111.191 169.987 100.634 174.617C97.5787 175.956 94.7624 177.604 92.4065 178.993C86.8829 182.236 85.861 183.476 83.3032 184.945C75.2147 189.592 63.0633 190.039 56.695 184.42C54.3257 182.324 52.59 179.245 53.3687 178.117C54.4287 176.582 59.1704 180.075 63.5217 177.942C66.406 176.534 65.857 174.254 69.1874 171.569C73.1977 168.337 75.9862 170.031 78.7161 167.927C82.9746 164.647 81.038 156.793 79.842 143.625C79.16 136.048 78.8716 128.441 78.9777 120.834Z" fill="white"/>
<path d="M95.0507 117.775C93.0254 119.031 89.7507 120.673 89.385 121.119C89.0193 121.565 99.3051 123.325 105.702 120.097C105.702 120.097 106.694 119.546 102.837 118.775C102.013 118.61 102.176 117.012 102.286 115.359L101.516 113.927C101.516 113.927 97.0769 116.517 95.0507 117.775Z" fill="url(#paint14_linear_36_207)"/>
<path d="M100.746 112.362C100.746 112.362 99.9375 115.793 102.959 117.487C105.664 119.006 110.24 112.783 109.386 110.47C109.1 109.698 108.082 108.706 107.017 108.374C106.268 108.139 103.435 108.229 102.221 110.614C101.903 109.917 101.334 109.552 100.952 109.666C100.467 109.812 100.395 110.697 100.378 110.894C100.344 111.41 100.473 111.923 100.746 112.362Z" fill="url(#paint15_linear_36_207)"/>
<path style="mix-blend-mode:multiply" opacity="0.3" d="M104.763 166.993C101.705 168.261 101.292 171 97.0631 172.556C93.0281 174.038 91.6745 172.181 87.6509 173.411C81.6071 175.26 79.2965 181.091 78.3797 180.541C77.5422 180.037 78.3457 174.463 82.2303 170.845C86.6918 166.693 91.5015 168.594 94.3518 164.285C95.4623 162.608 96.3184 159.929 95.35 157.867C94.0366 155.073 90.6114 156.043 88.7902 153.732C85.5247 149.581 93.1651 142.092 91.0719 135.764C90.2355 133.238 87.5695 130.072 78.9937 127.953C79.1101 134.298 79.4758 139.599 79.8404 143.626C81.0364 156.794 82.973 164.648 78.7145 167.928C75.9846 170.032 73.1961 168.34 69.1858 171.57C65.8533 174.255 66.4045 176.535 63.5201 177.943C59.1688 180.07 54.4271 176.583 53.3671 178.118C52.5884 179.252 54.319 182.325 56.6934 184.421C63.0617 190.04 75.2131 189.592 83.3017 184.946C85.8595 183.477 86.8814 182.237 92.4049 178.994C94.7639 177.609 97.5772 175.957 100.633 174.618C108.041 171.369 114.353 171.054 117.591 170.322C111.164 166.035 107.247 165.964 104.763 166.993Z" fill="url(#paint16_linear_36_207)"/>
<path d="M131.278 172.443L97.6836 174.078C97.456 174.089 97.2344 174.156 97.038 174.271C96.8415 174.387 96.676 174.548 96.5556 174.742L95.6285 176.233C95.5239 176.402 95.467 176.595 95.464 176.793C95.461 176.991 95.512 177.187 95.6115 177.358C95.711 177.529 95.8553 177.671 96.0289 177.766C96.2025 177.862 96.3988 177.908 96.5968 177.901L132.18 176.545L131.278 172.443Z" fill="url(#paint17_linear_36_207)"/>
<path d="M166.218 153.731L131.512 154.404C131.008 154.414 130.515 154.555 130.081 154.813C129.648 155.071 129.289 155.437 129.04 155.876L117.022 177.021L153.677 175.561C154.172 175.541 154.654 175.398 155.08 175.145C155.506 174.892 155.863 174.537 156.118 174.112L167.253 155.509C167.36 155.329 167.418 155.123 167.419 154.913C167.42 154.703 167.365 154.497 167.26 154.315C167.154 154.134 167.002 153.984 166.819 153.881C166.636 153.778 166.428 153.727 166.218 153.731Z" fill="url(#paint18_linear_36_207)"/>
<path style="mix-blend-mode:multiply" opacity="0.3" d="M129.038 155.876C129.287 155.437 129.646 155.071 130.079 154.813C130.513 154.555 131.006 154.414 131.51 154.404L132.271 154.39C132.385 155.509 132.728 156.534 133.414 157.361C135.553 159.945 139.109 158.351 141.758 161.085C144.669 164.088 141.98 167.663 144.583 170.459C147.323 173.401 151.752 171.006 156.841 172.888L156.108 174.114C155.853 174.539 155.496 174.894 155.07 175.147C154.644 175.4 154.161 175.543 153.666 175.563L117.022 177.021L129.038 155.876Z" fill="url(#paint19_linear_36_207)"/>
<path d="M101.839 171.316L103.151 167.852C98.3183 166.527 91.6348 164.569 84.7793 162.119C83.0848 161.515 82.4657 160.732 82.0124 160.131C78.4976 155.47 87.4422 147.246 87.2815 136.576C87.1703 129.179 82.6861 120.719 78.7315 120.623C70.6965 120.427 52.9906 154.507 67.9058 169.052C75.3125 176.272 89.143 177.11 101.839 171.316Z" fill="white"/>
<path d="M103.15 167.852C106.184 166.24 109.816 167.892 110.052 168.003C111.029 168.467 111.915 169.103 112.669 169.879C112.78 170.031 114.095 171.854 113.616 172.438C113.232 172.907 111.744 172.519 109.955 171.408C108.894 171.258 107.82 171.232 106.753 171.33C104.297 171.556 103.172 172.332 102.281 171.663C101.628 171.172 101.405 170.136 101.64 169.365C101.891 168.535 102.637 168.125 103.15 167.852Z" fill="url(#paint20_linear_36_207)"/>
<path d="M260.452 294.286C257.019 294.014 252.623 293.059 248.409 290.303C243.847 287.316 237.902 281.191 239.456 277.324C240.035 275.882 241.702 274.645 243.165 274.765C245.328 274.939 245.581 277.946 249.345 281.217C250.041 281.821 253.633 284.947 255.418 283.895C256.306 283.372 256.569 281.921 256.423 280.818C256 277.593 252.063 277.098 248.277 273.607C244.44 270.068 241.24 263.893 243.069 259.719C244.121 257.32 246.9 255.425 248.727 255.958C249.508 256.186 250.003 256.823 252.374 261.946C254.32 266.15 254.753 267.375 256.007 267.773C257.299 268.186 259.304 267.67 260.069 266.397C262.057 263.083 253.467 258.191 252.687 248.918C252.338 244.762 253.462 238.603 257.225 237.277C259.769 236.385 263.393 237.748 264.704 240.083C265.885 242.186 264.45 243.769 265.352 248.496C265.625 249.93 266.187 252.882 267.375 253.036C268.769 253.218 270.328 249.455 270.689 248.538C273.403 241.636 270.291 238.09 272.852 234.74C274.847 232.129 279.189 231.079 282.63 232.399C285.639 233.554 288.047 236.555 288.208 239.666C288.372 242.832 285.71 245.983 280.385 252.285C277.859 255.273 275.853 257.294 275.965 260.264C276.021 261.712 276.594 263.75 277.632 263.935C279.922 264.347 281.048 255.128 286.473 253.704C289.255 252.976 292.702 254.408 294.219 256.911C296.073 259.978 294.837 264.328 292.498 266.611C289.451 269.594 286.328 267.327 280.598 270.531C278.055 271.952 274.06 274.975 274.645 277.475C274.9 278.564 276.041 279.63 277.293 279.772C280.1 280.091 281.027 275.491 285.539 273.469C288.79 272.012 293.286 272.17 294.353 274.003C295.861 276.591 290.506 282.467 287.657 285.064C284.212 288.21 276.099 294.162 260.452 294.286Z" fill="url(#paint21_linear_36_207)"/>
<path opacity="0.5" d="M261.994 292.812C261.539 285.119 266.636 269.449 270.338 262.041C273.965 254.792 277.435 243.325 277.47 243.209L277.696 243.277C277.661 243.393 274.185 254.88 270.549 262.146C266.853 269.531 261.772 285.144 262.223 292.798L261.994 292.812Z" fill="white"/>
<path d="M252.358 295.289C249.772 291.699 245.979 285.223 245.299 276.557C245.019 272.987 244.475 266.013 248.738 259.997C250.864 256.998 255.374 252.565 258.421 253.843C260.378 254.667 261.598 257.798 261.045 260.178C260.488 262.578 258.458 262.801 256.25 266.874C255.432 268.382 254.498 270.151 255.22 271.151C255.818 271.986 257.465 272.138 258.699 271.637C261.249 270.607 260.451 267.428 263.209 265.148C265.166 263.528 268.436 262.767 269.846 264.093C271.07 265.244 270.857 267.934 269.775 269.728C268.044 272.599 264.934 271.756 262.911 274.896C262.013 276.287 261.375 278.391 262.162 279.222C263.057 280.169 265.694 279.35 267.383 278.302C269.614 276.919 269.697 275.448 271.166 275.263C272.805 275.057 274.854 276.618 275.175 278.345C275.623 280.763 272.656 283.372 270.307 284.505C267.299 285.956 265.064 285.104 263.595 287.086C263.056 287.814 262.565 289.001 263.004 289.721C263.635 290.752 265.914 290.411 267.429 290.185C271.112 289.637 272.127 288.301 273.447 288.949C274.786 289.606 275.473 291.826 274.895 293.378C274.573 294.244 273.608 295.585 268.827 296.423C265.475 297.022 259.853 297.435 252.358 295.289Z" fill="url(#paint22_linear_36_207)"/>
</g>
<defs>
<linearGradient id="paint0_linear_36_207" x1="189.939" y1="34.1405" x2="117.675" y2="156.186" gradientUnits="userSpaceOnUse">
<stop stop-color="#FFC444"/>
<stop offset="0.31" stop-color="#FBA94A"/>
<stop offset="1" stop-color="#F36F56"/>
</linearGradient>
<linearGradient id="paint1_linear_36_207" x1="442579" y1="42396.5" x2="345943" y2="153826" gradientUnits="userSpaceOnUse">
<stop stop-color="#FFC444"/>
<stop offset="0.31" stop-color="#FBA94A"/>
<stop offset="1" stop-color="#F36F56"/>
</linearGradient>
<linearGradient id="paint2_linear_36_207" x1="609482" y1="201519" x2="428780" y2="409889" gradientUnits="userSpaceOnUse">
<stop stop-color="#FFC444"/>
<stop offset="0.31" stop-color="#FBA94A"/>
<stop offset="1" stop-color="#F36F56"/>
</linearGradient>
<linearGradient id="paint3_linear_36_207" x1="419547" y1="202102" x2="249826" y2="362547" gradientUnits="userSpaceOnUse">
<stop stop-color="#FFC444"/>
<stop offset="0.31" stop-color="#FBA94A"/>
<stop offset="1" stop-color="#F36F56"/>
</linearGradient>
<linearGradient id="paint4_linear_36_207" x1="104.142" y1="93.2606" x2="122.504" y2="186.905" gradientUnits="userSpaceOnUse">
<stop stop-color="#E38DDD"/>
<stop offset="1" stop-color="#9571F6"/>
</linearGradient>
<linearGradient id="paint5_linear_36_207" x1="42744.1" y1="177453" x2="95892.6" y2="61544.8" gradientUnits="userSpaceOnUse">
<stop stop-color="#E38DDD"/>
<stop offset="1" stop-color="#9571F6"/>
</linearGradient>
<linearGradient id="paint6_linear_36_207" x1="229861" y1="194159" x2="152971" y2="266848" gradientUnits="userSpaceOnUse">
<stop stop-color="#FFC444"/>
<stop offset="0.31" stop-color="#FBA94A"/>
<stop offset="1" stop-color="#F36F56"/>
</linearGradient>
<linearGradient id="paint7_linear_36_207" x1="325378" y1="193593" x2="242983" y2="288602" gradientUnits="userSpaceOnUse">
<stop stop-color="#FFC444"/>
<stop offset="0.31" stop-color="#FBA94A"/>
<stop offset="1" stop-color="#F36F56"/>
</linearGradient>
<linearGradient id="paint8_linear_36_207" x1="176.705" y1="194.588" x2="128.285" y2="194.588" gradientUnits="userSpaceOnUse">
<stop stop-color="#444B8C"/>
<stop offset="1" stop-color="#26264F"/>
</linearGradient>
<linearGradient id="paint9_linear_36_207" x1="17773" y1="21147.7" x2="17099.9" y2="24981.1" gradientUnits="userSpaceOnUse">
<stop stop-color="#444B8C"/>
<stop offset="1" stop-color="#26264F"/>
</linearGradient>
<linearGradient id="paint10_linear_36_207" x1="153.944" y1="196.41" x2="105.524" y2="196.41" gradientUnits="userSpaceOnUse">
<stop stop-color="#444B8C"/>
<stop offset="1" stop-color="#3E4177"/>
</linearGradient>
<linearGradient id="paint11_linear_36_207" x1="130.724" y1="266.774" x2="144.407" y2="217.619" gradientUnits="userSpaceOnUse">
<stop stop-color="#FFC444"/>
<stop offset="1" stop-color="#F36F56"/>
</linearGradient>
<linearGradient id="paint12_linear_36_207" x1="-120979" y1="144183" x2="-85031.1" y2="168505" gradientUnits="userSpaceOnUse">
<stop stop-color="#444B8C"/>
<stop offset="1" stop-color="#26264F"/>
</linearGradient>
<linearGradient id="paint13_linear_36_207" x1="114004" y1="59510.4" x2="147973" y2="106665" gradientUnits="userSpaceOnUse">
<stop stop-color="#444B8C"/>
<stop offset="1" stop-color="#26264F"/>
</linearGradient>
<linearGradient id="paint14_linear_36_207" x1="16046" y1="10518.5" x2="15770" y2="7618.59" gradientUnits="userSpaceOnUse">
<stop stop-color="#FFC444"/>
<stop offset="0.31" stop-color="#FBA94A"/>
<stop offset="1" stop-color="#F36F56"/>
</linearGradient>
<linearGradient id="paint15_linear_36_207" x1="9468.55" y1="10638.8" x2="8794.1" y2="8583.37" gradientUnits="userSpaceOnUse">
<stop stop-color="#FFC444"/>
<stop offset="0.31" stop-color="#FBA94A"/>
<stop offset="1" stop-color="#F36F56"/>
</linearGradient>
<linearGradient id="paint16_linear_36_207" x1="77.5443" y1="167.792" x2="124.176" y2="125.867" gradientUnits="userSpaceOnUse">
<stop stop-color="#FF9085"/>
<stop offset="1" stop-color="#FB6FBB"/>
</linearGradient>
<linearGradient id="paint17_linear_36_207" x1="95.4586" y1="175.167" x2="132.177" y2="175.167" gradientUnits="userSpaceOnUse">
<stop stop-color="#311944"/>
<stop offset="1" stop-color="#A03976"/>
</linearGradient>
<linearGradient id="paint18_linear_36_207" x1="57366" y1="37544.1" x2="82022.5" y2="37544.1" gradientUnits="userSpaceOnUse">
<stop stop-color="#311944"/>
<stop offset="1" stop-color="#A03976"/>
</linearGradient>
<linearGradient id="paint19_linear_36_207" x1="24444.6" y1="33549.9" x2="19881.8" y2="41513.5" gradientUnits="userSpaceOnUse">
<stop stop-color="#E38DDD"/>
<stop offset="1" stop-color="#9571F6"/>
</linearGradient>
<linearGradient id="paint20_linear_36_207" x1="13401.9" y1="9014.9" x2="12047.3" y2="11762.4" gradientUnits="userSpaceOnUse">
<stop stop-color="#FFC444"/>
<stop offset="0.31" stop-color="#FBA94A"/>
<stop offset="1" stop-color="#F36F56"/>
</linearGradient>
<linearGradient id="paint21_linear_36_207" x1="293.053" y1="221.705" x2="263.608" y2="277.892" gradientUnits="userSpaceOnUse">
<stop stop-color="#AA80F9"/>
<stop offset="1" stop-color="#6165D7"/>
</linearGradient>
<linearGradient id="paint22_linear_36_207" x1="79881.5" y1="111180" x2="65680.7" y2="123021" gradientUnits="userSpaceOnUse">
<stop stop-color="#E38DDD"/>
<stop offset="1" stop-color="#9571F6"/>
</linearGradient>
<clipPath id="clip0_36_207">
<rect width="300" height="298.084" fill="white"/>
</clipPath>
</defs>
</svg>
