<svg width="300" height="290" viewBox="0 0 300 290" fill="none" xmlns="http://www.w3.org/2000/svg">
<g clip-path="url(#clip0_36_282)">
<path d="M151.754 13.6814C151.754 13.6814 17.1678 -35.2522 29.1344 51.9659C41.1011 139.184 -51.6138 266.568 61.2854 280.576C174.185 294.584 276.616 273.306 287.084 228.3C297.551 183.294 323.51 71.0204 151.754 13.6814Z" fill="#F4F7FA"/>
<path d="M150.084 213.044C148.649 203.985 147.888 189.848 155.336 177.26C168.336 155.301 191.707 162.771 214.287 139.302C232.498 120.373 226.901 105.527 247.026 93.0024C250.394 90.9063 268.193 79.3638 281.323 86.4775C288.722 90.4861 291.357 98.6308 291.852 100.16C299.328 123.268 275.599 159.206 244.877 175.507C227.226 184.874 221.573 181.736 190.549 192.588C176.227 197.614 162.623 204.491 150.084 213.044Z" fill="url(#paint0_linear_36_282)"/>
<path d="M150.084 213.044C148.649 203.985 147.888 189.848 155.336 177.26C168.336 155.301 191.707 162.771 214.287 139.302C232.498 120.373 226.901 105.527 247.026 93.0024C250.394 90.9063 268.193 79.3638 281.323 86.4775C288.722 90.4861 291.357 98.6308 291.852 100.16C299.328 123.268 275.599 159.206 244.877 175.507C227.226 184.874 221.573 181.736 190.549 192.588C176.227 197.614 162.623 204.491 150.084 213.044Z" fill="url(#paint1_linear_36_282)"/>
<g style="mix-blend-mode:soft-light">
<g style="mix-blend-mode:soft-light">
<path d="M147.386 223.914L147.021 223.836C151.673 202.231 160.315 187.754 172.71 180.804C178.777 177.402 183.589 176.89 188.692 176.348C194.17 175.766 199.836 175.163 207.338 170.696C214.624 166.354 217.26 162.144 220.593 156.813C223.588 152.015 227.325 146.044 235.665 138.114C242.976 131.162 248.287 127.922 252.974 125.063C258.047 121.969 262.057 119.523 266.715 113.501C274.329 103.663 278.359 91.0091 278.693 75.8893L279.064 75.8983C278.728 91.0989 274.672 103.826 267.008 113.728C262.304 119.804 258.272 122.265 253.165 125.38C248.495 128.23 243.202 131.459 235.92 138.383C227.613 146.281 223.894 152.23 220.906 157.01C217.546 162.384 214.893 166.628 207.526 171.015C199.954 175.523 194.25 176.13 188.729 176.717C183.669 177.255 178.89 177.763 172.888 181.128C160.594 188.024 152.016 202.422 147.386 223.914Z" fill="white"/>
</g>
<g style="mix-blend-mode:soft-light">
<path d="M253.332 126.702C252.573 126.702 251.804 126.688 251.026 126.66L250.778 126.65L250.857 126.414C250.956 126.115 260.867 96.1705 249.9 83.6938L250.18 83.4482C260.765 95.4888 252.205 123.428 251.287 126.296C267.715 126.844 279.982 120.707 287.389 115.442C295.454 109.714 299.654 103.769 299.694 103.71L300 103.923C299.958 103.983 295.722 109.98 287.605 115.746C280.463 120.819 268.837 126.702 253.332 126.702Z" fill="white"/>
</g>
<g style="mix-blend-mode:soft-light">
<path d="M254.446 152.289C251.93 152.289 249.417 152.16 246.915 151.901C235.414 150.716 227.632 147.223 227.551 147.188L227.406 147.122L227.449 146.968C231.878 131.348 228.216 109.054 228.178 108.831L228.545 108.77C228.583 108.993 232.238 131.222 227.851 146.914C228.969 147.394 236.382 150.443 246.964 151.533C257.519 152.62 273.475 151.922 289.557 142.429L289.747 142.749C277.047 150.248 264.421 152.289 254.446 152.289Z" fill="white"/>
</g>
<g style="mix-blend-mode:soft-light">
<path d="M240.789 188.717C210.837 188.717 193.699 176.194 193.526 176.065L193.369 175.948L193.494 175.797C205.472 161.38 201.006 137.384 200.96 137.143L201.325 137.073C201.372 137.315 205.838 161.311 193.908 175.881C195.738 177.163 213.123 188.757 242.379 188.332L242.385 188.705C241.849 188.713 241.316 188.717 240.789 188.717Z" fill="white"/>
</g>
</g>
<path d="M181.068 194.794C188.578 189.459 196.804 185.212 205.503 182.181C225.256 175.329 234.26 179.512 242.658 171.237C251.353 162.672 245.817 154.14 256.221 144.581C257.096 143.777 268.265 133.779 278.279 137.594C285.287 140.265 287.968 148.264 289.227 152.017C294.11 166.584 291.062 188.709 275.485 199.528C260.712 209.784 242.138 204.719 236.241 203.073C225.894 200.178 223.465 196.124 212.944 193.497C200.153 190.305 188.619 192.529 181.068 194.794Z" fill="url(#paint2_linear_36_282)"/>
<path d="M33.2839 193.073C28.7324 193.229 24.143 191.965 20.4079 189.18C12.1364 183.022 11.246 171.831 18.4326 164.262L123.461 52.8693C126.897 49.252 131.864 47.2607 137.065 47.4025C142.242 47.5442 147.146 49.786 150.51 53.54L185.675 92.7528L225.634 48.8188C231.611 42.2461 241.963 41.8468 248.748 47.8586C255.49 53.8345 256.211 63.9416 250.367 70.4984L198.563 128.612C195.336 132.232 190.638 134.346 185.676 134.401C180.693 134.454 175.934 132.423 172.642 128.824L137.065 89.9441L47.9705 186.54C44.1456 190.654 38.7417 192.886 33.2839 193.073Z" fill="url(#paint3_linear_36_282)"/>
<path d="M261.545 78.9386L217.536 40.3247L274.011 21.3631H277.954L265.102 78.5913L261.545 78.9386Z" fill="url(#paint4_linear_36_282)"/>
<path d="M37.2307 193.073C32.6792 193.229 28.0897 191.965 24.3547 189.18C16.0831 183.022 15.1928 171.831 22.3794 164.262L127.404 52.8693C130.841 49.252 135.808 47.2607 141.009 47.4025C146.186 47.5442 151.09 49.786 154.454 53.54L189.619 92.7528L229.578 48.8188C235.554 42.2461 245.907 41.8468 252.691 47.8586C259.434 53.8345 260.155 63.9416 254.31 70.4984L202.507 128.612C199.28 132.232 194.582 134.346 189.62 134.401C184.637 134.454 179.877 132.423 176.586 128.824L141.009 89.9441L51.9143 186.54C48.0894 190.654 42.6855 192.886 37.2307 193.073Z" fill="url(#paint5_linear_36_282)"/>
<path d="M265.103 78.5913L221.48 40.3247L277.955 21.3631L265.103 78.5913Z" fill="url(#paint6_linear_36_282)"/>
<path d="M56.3887 129.509L35.3849 264.252C34.9857 266.847 36.8392 269.197 39.2028 269.086L144.331 264.124L56.3887 129.509Z" fill="url(#paint7_linear_36_282)"/>
<path d="M79.289 254.213C82.6088 244.097 85.9865 228.655 82.0319 211.51C77.4904 191.823 67.4292 187.884 58.396 166.839C45.5021 136.795 60.0929 115.036 46.7468 105.858C40.237 101.381 30.0011 101.378 23.6899 105.872C5.68948 118.697 10.6203 174.559 39.1879 196.357C52.1088 206.216 63.3827 205.041 73.0786 217.804C81.6476 229.077 80.9739 243.944 79.289 254.213Z" fill="url(#paint8_linear_36_282)"/>
<g style="mix-blend-mode:soft-light">
<g style="mix-blend-mode:soft-light">
<path d="M81.295 228.766C80.2116 224.509 78.7647 220.354 76.9701 216.345C72.8628 207.177 68.3292 202.134 62.5899 195.749C58.8419 191.579 54.5948 186.854 49.686 180.078C40.5031 167.401 37.6515 162.949 35.0962 155.768C30.0427 141.562 30.8182 128.823 31.7305 122.494C33.0226 113.526 36.0646 104.898 40.6838 97.1027L41.0042 97.2914C36.4103 105.044 33.3849 113.625 32.0998 122.544C31.1915 128.839 30.4199 141.509 35.4476 155.64C37.9868 162.776 40.8285 167.219 49.9874 179.856C54.8843 186.616 59.1244 191.335 62.8634 195.495C68.6247 201.904 73.1762 206.967 77.3075 216.187C79.1119 220.217 80.5665 224.394 81.6554 228.673L81.295 228.766Z" fill="white"/>
</g>
<g style="mix-blend-mode:soft-light">
<path d="M32.6769 145.77L32.4074 145.624C32.3545 145.595 27.0174 142.662 22.2763 136.693C17.8985 131.181 13.1413 121.879 15.3412 108.865L15.7075 108.927C13.5316 121.803 18.2368 131.008 22.5677 136.461C26.6601 141.611 31.1856 144.472 32.3175 145.145C32.6309 134.764 39.2865 128.043 44.8471 124.216C50.9188 120.037 57.0294 118.327 57.0903 118.306L57.1901 118.665C57.1302 118.681 51.0705 120.382 45.0508 124.528C39.5101 128.343 32.8675 135.073 32.6838 145.465L32.6769 145.77Z" fill="white"/>
</g>
<g style="mix-blend-mode:soft-light">
<path d="M34.1729 179.165C28.7739 179.165 22.4328 177.84 16.5747 173.276L16.8033 172.977C29.8789 183.158 45.4119 177.012 47.0638 176.312C44.4167 166.067 46.7643 158.504 49.2078 153.95C51.8698 148.992 55.2266 146.442 55.2605 146.417L55.4831 146.716C55.3513 146.816 42.3406 156.85 47.464 176.385L47.504 176.535L47.3612 176.6C47.2644 176.643 41.616 179.165 34.1729 179.165Z" fill="white"/>
</g>
<g style="mix-blend-mode:soft-light">
<path d="M46.2036 198.734C42.1562 198.734 37.3113 197.998 31.6758 195.939L31.8045 195.59C50.1563 202.294 60.0069 194.844 61.0928 193.951C56.6122 183.433 62.9334 166.448 62.9983 166.278L63.3466 166.409C63.2828 166.58 56.9586 183.561 61.4891 193.929L61.542 194.052L61.4422 194.142C61.3733 194.206 56.2459 198.734 46.2036 198.734Z" fill="white"/>
</g>
</g>
<path d="M112.055 262.594C113.179 255.798 113.824 245.186 108.293 235.696C98.6437 219.139 81.0556 224.631 64.22 206.893C50.6454 192.585 54.9214 181.466 39.8755 171.958C37.3572 170.367 24.055 161.608 14.1545 166.888C8.57787 169.861 6.55764 175.964 6.17835 177.109C0.446051 194.423 18.0821 221.526 41.0682 233.928C54.2746 241.052 58.5356 238.719 81.7762 247.031C92.5041 250.877 102.683 256.109 112.055 262.594Z" fill="url(#paint9_linear_36_282)"/>
<g style="mix-blend-mode:soft-light">
<g style="mix-blend-mode:soft-light">
<path d="M113.98 270.779C110.618 254.625 104.254 243.785 95.0676 238.555C90.587 236.002 87.0057 235.597 83.2137 235.168C79.0675 234.699 74.7815 234.214 69.1091 230.783C63.5904 227.445 61.6171 224.241 59.1187 220.184C56.8999 216.581 54.14 212.099 47.9466 206.128C42.5167 200.896 38.5641 198.443 35.0706 196.283C31.2478 193.915 28.2294 192.045 24.723 187.451C19.0126 179.965 16.0282 170.383 15.8535 158.955L16.2248 158.949C16.3995 170.294 19.358 179.81 25.0194 187.226C28.4829 191.765 31.4763 193.614 35.2663 195.966C38.7727 198.138 42.7463 200.6 48.2041 205.861C54.4315 211.863 57.2063 216.368 59.4351 219.988C61.9075 224.003 63.8599 227.175 69.3027 230.469C74.9042 233.856 79.1493 234.338 83.2557 234.802C87.0865 235.235 90.7047 235.645 95.2523 238.235C104.535 243.525 110.959 254.45 114.345 270.71L113.98 270.779Z" fill="white"/>
</g>
<g style="mix-blend-mode:soft-light">
<path d="M35.2722 197.28C12.2232 197.28 0.121773 180.092 0 179.912L0.306428 179.701C0.429199 179.879 12.851 197.487 36.439 196.889C35.6754 194.43 29.5578 173.663 37.516 164.733L37.7944 164.981C29.5099 174.274 36.7963 196.784 36.8672 197.01L36.945 197.247L36.6965 197.255C36.2204 197.272 35.7423 197.28 35.2722 197.28Z" fill="white"/>
</g>
<g style="mix-blend-mode:soft-light">
<path d="M34.372 216.487C26.8171 216.487 17.1811 214.932 7.51318 209.136L7.70383 208.816C19.7244 216.023 31.698 216.626 39.6242 215.863C47.4586 215.109 52.9843 212.912 53.9385 212.511C50.7445 200.698 53.5921 184.052 53.6211 183.885L53.9884 183.949C53.9585 184.116 51.0938 200.829 54.3397 212.569L54.3817 212.724L54.2359 212.789C54.178 212.815 48.309 215.401 39.6632 216.233C38.0522 216.388 36.2775 216.487 34.372 216.487Z" fill="white"/>
</g>
<g style="mix-blend-mode:soft-light">
<path d="M44.6168 243.911C44.0406 243.911 43.459 243.904 42.8721 243.892L42.8791 243.519C54.9565 243.781 64.2502 241.271 69.9216 239.121C75.3115 237.075 78.5405 234.958 79.2722 234.454C70.4147 223.432 73.8822 205.457 73.9221 205.275L74.2875 205.349C74.2515 205.528 70.782 223.504 79.6864 234.374L79.8111 234.525L79.6524 234.641C79.5207 234.737 66.7815 243.911 44.6168 243.911Z" fill="white"/>
</g>
</g>
<path d="M88.5537 287.435L34.6084 269.302L112.204 264.124L88.5537 287.435Z" fill="#D8DEE8"/>
<path d="M248.668 132.318L60.4249 126.496C57.679 126.411 55.8794 128.513 56.4124 131.187L86.9474 284.548C87.4804 287.227 90.1005 289.239 92.7905 289.046L277.22 275.717C279.307 275.567 280.614 273.54 280.148 271.192L253.367 136.69C252.899 134.341 250.799 132.384 248.668 132.318Z" fill="url(#paint10_linear_36_282)"/>
<path d="M249.685 132.318L61.4361 126.496C58.6902 126.411 56.8906 128.513 57.4236 131.187L87.9636 284.548C88.4966 287.227 91.1167 289.239 93.8057 289.046L278.236 275.717C280.324 275.567 281.63 273.54 281.163 271.192L254.383 136.69C253.915 134.341 251.814 132.384 249.685 132.318Z" fill="url(#paint11_linear_36_282)"/>
<g style="mix-blend-mode:multiply" opacity="0.3">
<path style="mix-blend-mode:multiply" opacity="0.3" d="M200.559 213.578C163.507 193.446 128.394 209.096 103.115 183.273C87.5488 167.372 84.6911 144.86 85.1572 127.228L61.4415 126.496C58.6956 126.411 56.896 128.513 57.429 131.187L87.964 284.548C88.497 287.226 91.1171 289.239 93.8061 289.045L253.826 277.482C236.338 239.516 216.619 222.304 200.559 213.578Z" fill="url(#paint12_linear_36_282)"/>
</g>
<path d="M271.938 270.61L97.2303 282.535C94.3277 282.734 91.499 280.545 90.9221 277.644L63.7198 141.028C63.1429 138.133 65.0803 135.837 68.0378 135.917L246.006 140.391C248.33 140.449 250.622 142.569 251.131 145.126L275.138 265.701C275.651 268.255 274.22 270.454 271.938 270.61Z" fill="#D8DEE8"/>
<path d="M272.721 270.556L98.2235 282.467C95.3289 282.666 92.4992 280.478 91.9232 277.583L64.738 141.05C64.1611 138.155 66.0964 135.868 69.0489 135.942L246.808 140.411C249.13 140.469 251.419 142.588 251.928 145.143L275.921 265.648C276.43 268.199 275.001 270.4 272.721 270.556Z" fill="url(#paint13_linear_36_282)"/>
<path d="M157.606 185.21L138.558 185.328C137.987 185.328 137.429 184.86 137.313 184.275L134.162 168.451C134.045 167.866 134.415 167.394 134.988 167.396L154.08 167.503C154.638 167.503 155.178 167.976 155.298 168.553L158.404 184.156C158.516 184.736 158.159 185.206 157.606 185.21ZM139.17 183.206L156.181 183.124L153.486 169.589L136.445 169.519L139.17 183.206Z" fill="#D8DEE8"/>
<path d="M181.673 185.06L163.235 185.175C162.682 185.175 162.137 184.714 162.026 184.139L158.926 168.568C158.811 167.993 159.168 167.529 159.724 167.532L178.206 167.632C178.746 167.632 179.276 168.098 179.389 168.666L182.446 184.02C182.56 184.594 182.212 185.054 181.673 185.06ZM163.821 183.087L180.29 183.008L177.639 169.691L161.144 169.622L163.821 183.087Z" fill="#D8DEE8"/>
<path d="M204.983 184.917L187.125 185.027C186.59 185.027 186.064 184.574 185.952 184.007L182.901 168.685C182.788 168.118 183.133 167.662 183.67 167.665L201.569 167.765C202.092 167.765 202.606 168.223 202.718 168.782L205.727 183.895C205.838 184.456 205.505 184.914 204.983 184.917ZM187.686 182.973L203.633 182.897L201.024 169.789L185.054 169.722L187.686 182.973Z" fill="#D8DEE8"/>
<path d="M227.575 184.777L210.271 184.884C209.753 184.884 209.241 184.438 209.131 183.886L206.128 168.808C206.017 168.25 206.349 167.801 206.869 167.804L224.214 167.904C224.721 167.904 225.221 168.355 225.331 168.902L228.293 183.78C228.398 184.325 228.074 184.774 227.575 184.777ZM210.807 182.859L226.26 182.785L223.688 169.883L208.207 169.818L210.807 182.859Z" fill="#D8DEE8"/>
<path d="M249.467 184.641L232.692 184.741C232.193 184.741 231.693 184.302 231.583 183.753L228.627 168.909C228.518 168.36 228.838 167.918 229.342 167.921L246.157 168.014C246.649 168.014 247.135 168.459 247.242 169L250.16 183.657C250.268 184.197 249.957 184.638 249.467 184.641ZM233.206 182.759L248.187 182.687L245.656 169.981L230.649 169.918L233.206 182.759Z" fill="#D8DEE8"/>
<path d="M111.323 207.091L91.0181 207.501C90.7093 207.496 90.4111 207.388 90.1714 207.193C89.9316 206.999 89.7644 206.729 89.6965 206.428L86.4386 190.058C86.3178 189.453 86.7151 188.96 87.326 188.954L107.679 188.784C108.278 188.784 108.851 189.26 108.97 189.855L112.182 205.986C112.3 206.586 111.916 207.079 111.323 207.091ZM91.6848 205.295L109.817 204.954L107.031 190.964L88.8651 191.14L91.6848 205.295Z" fill="#D8DEE8"/>
<path d="M136.958 206.575L117.324 206.974C116.735 206.986 116.161 206.514 116.043 205.919L112.839 189.829C112.721 189.23 113.103 188.748 113.694 188.743L133.373 188.58C133.949 188.58 134.509 189.047 134.626 189.633L137.785 205.496C137.902 206.079 137.532 206.563 136.958 206.575ZM117.961 204.799L135.494 204.469L132.752 190.711L115.185 190.882L117.961 204.799Z" fill="#D8DEE8"/>
<path d="M161.756 206.076L142.762 206.459C142.192 206.47 141.635 206.005 141.519 205.421L138.368 189.595C138.251 189.01 138.62 188.532 139.191 188.528L158.231 188.369C158.788 188.369 159.329 188.829 159.446 189.405L162.554 205.011C162.668 205.588 162.312 206.064 161.756 206.076ZM143.37 204.319L160.334 204L157.639 190.466L140.645 190.631L143.37 204.319Z" fill="#D8DEE8"/>
<path d="M185.76 205.592L167.374 205.963C166.822 205.973 166.282 205.516 166.167 204.94L163.073 189.369C162.958 188.793 163.313 188.323 163.871 188.318L182.302 188.166C182.841 188.166 183.369 188.618 183.482 189.186L186.539 204.541C186.642 205.117 186.298 205.581 185.76 205.592ZM167.957 203.861L184.377 203.554L181.725 190.237L165.276 190.395L167.957 203.861Z" fill="#D8DEE8"/>
<path d="M209.01 205.124L191.202 205.483C190.668 205.493 190.144 205.043 190.031 204.477L186.981 189.158C186.868 188.592 187.211 188.129 187.746 188.125L205.596 187.977C206.118 187.977 206.631 188.422 206.742 188.975L209.751 204.089C209.859 204.653 209.528 205.117 209.01 205.124ZM191.757 203.42L207.66 203.121L205.05 190.013L189.119 190.168L191.757 203.42Z" fill="#D8DEE8"/>
<path d="M231.532 204.671L214.276 205.017C213.759 205.027 213.249 204.584 213.139 204.027L210.136 188.947C210.025 188.389 210.356 187.934 210.875 187.93L228.174 187.789C228.679 187.789 229.178 188.228 229.288 188.778L232.251 203.657C232.356 204.207 232.037 204.661 231.532 204.671ZM214.81 202.983L230.22 202.694L227.651 189.792L212.213 189.941L214.81 202.983Z" fill="#D8DEE8"/>
<path d="M253.368 204.231L236.638 204.568C236.139 204.578 235.64 204.141 235.532 203.593L232.577 188.748C232.467 188.2 232.786 187.749 233.289 187.749L250.058 187.611C250.549 187.611 251.034 188.043 251.142 188.584L254.059 203.236C254.165 203.774 253.857 204.219 253.368 204.231ZM237.15 202.565L252.089 202.285L249.56 189.579L234.588 189.724L237.15 202.565Z" fill="#D8DEE8"/>
<path d="M115.617 228.66L95.3691 229.353C95.0618 229.353 94.7637 229.248 94.524 229.055C94.2843 228.863 94.1173 228.595 94.0506 228.295L90.7927 211.925C90.6719 211.32 91.0682 210.819 91.677 210.805L111.973 210.354C112.566 210.34 113.143 210.813 113.262 211.409L116.474 227.54C116.593 228.14 116.209 228.64 115.617 228.66ZM96.0329 227.127L114.115 226.535L111.329 212.544L93.2142 212.973L96.0329 227.127Z" fill="#D8DEE8"/>
<path d="M141.181 227.787L121.602 228.457C121.014 228.476 120.442 228.01 120.324 227.415L117.119 211.325C117.002 210.727 117.383 210.237 117.972 210.227L137.597 209.79C138.17 209.777 138.729 210.242 138.846 210.829L142.005 226.693C142.122 227.276 141.753 227.768 141.181 227.787ZM122.236 226.269L139.72 225.696L136.981 211.937L119.465 212.352L122.236 226.269Z" fill="#D8DEE8"/>
<path d="M165.911 226.942L146.969 227.589C146.401 227.609 145.845 227.15 145.729 226.565L142.578 210.741C142.461 210.156 142.829 209.672 143.398 209.659L162.386 209.235C162.941 209.223 163.484 209.682 163.598 210.258L166.705 225.863C166.819 226.44 166.464 226.923 165.911 226.942ZM147.575 225.438L164.493 224.88L161.798 211.346L144.852 211.746L147.575 225.438Z" fill="#D8DEE8"/>
<path d="M189.846 226.124L171.509 226.751C170.96 226.77 170.421 226.318 170.311 225.743L167.211 210.172C167.097 209.597 167.45 209.121 168.002 209.108L186.382 208.698C186.919 208.686 187.446 209.137 187.559 209.704L190.616 225.06C190.727 225.631 190.385 226.106 189.846 226.124ZM172.09 224.636L188.459 224.099L185.808 210.781L169.404 211.17L172.09 224.636Z" fill="#D8DEE8"/>
<path d="M213.03 225.332L195.272 225.939C194.739 225.957 194.216 225.513 194.104 224.941L191.053 209.623C190.94 209.057 191.282 208.588 191.816 208.576L209.617 208.176C210.137 208.165 210.649 208.608 210.761 209.167L213.769 224.28C213.881 224.847 213.55 225.314 213.03 225.332ZM195.827 223.858L211.687 223.338L209.077 210.231L193.189 210.607L195.827 223.858Z" fill="#D8DEE8"/>
<path d="M235.494 224.565L218.285 225.153C217.769 225.171 217.261 224.732 217.15 224.175L214.147 209.098C214.037 208.54 214.366 208.078 214.883 208.067L232.132 207.683C232.631 207.672 233.13 208.108 233.244 208.658L236.206 223.538C236.315 224.088 235.997 224.548 235.494 224.565ZM218.817 223.104L234.188 222.605L231.619 209.702L216.224 210.067L218.817 223.104Z" fill="#D8DEE8"/>
<path d="M257.268 223.82L240.585 224.391C240.086 224.408 239.587 223.977 239.482 223.428L236.527 208.583C236.417 208.035 236.735 207.58 237.236 207.569L253.958 207.197C254.447 207.186 254.931 207.616 255.039 208.158L257.957 222.81C258.064 223.351 257.756 223.804 257.268 223.82ZM241.098 222.375L255.992 221.886L253.463 209.18L238.538 209.533L241.098 222.375Z" fill="#D8DEE8"/>
<path d="M119.912 250.233L99.7197 251.207C99.4139 251.212 99.1159 251.11 98.8762 250.921C98.6365 250.731 98.4697 250.464 98.4041 250.165L95.1462 233.795C95.0255 233.191 95.4207 232.683 96.0276 232.661L116.268 231.926C116.859 231.904 117.435 232.37 117.553 232.967L120.764 249.097C120.883 249.695 120.502 250.201 119.912 250.233ZM100.38 248.966L118.412 248.122L115.627 234.131L97.5607 234.813L100.38 248.966Z" fill="#D8DEE8"/>
<path d="M145.405 248.999L125.88 249.941C125.294 249.969 124.723 249.51 124.605 248.915L121.401 232.825C121.282 232.226 121.663 231.727 122.25 231.709L141.82 231C142.392 230.979 142.95 231.437 143.067 232.024L146.227 247.887C146.342 248.473 145.975 248.971 145.405 248.999ZM126.511 247.737L143.946 246.92L141.208 233.165L123.74 233.823L126.511 247.737Z" fill="#D8DEE8"/>
<path d="M170.066 247.808L151.176 248.72C150.61 248.748 150.056 248.295 149.939 247.71L146.788 231.886C146.672 231.301 147.038 230.81 147.606 230.788L166.54 230.101C167.094 230.08 167.638 230.533 167.75 231.109L170.857 246.714C170.972 247.292 170.618 247.781 170.066 247.808ZM151.78 246.555L168.649 245.764L165.954 232.23L149.055 232.867L151.78 246.555Z" fill="#D8DEE8"/>
<path d="M193.938 246.656L175.652 247.539C175.104 247.565 174.567 247.12 174.455 246.541L171.361 230.97C171.246 230.395 171.599 229.912 172.148 229.892L190.477 229.226C191.013 229.207 191.539 229.651 191.652 230.219L194.709 245.575C194.813 246.149 194.471 246.631 193.938 246.656ZM176.23 245.41L192.559 244.644L189.908 231.327L173.549 231.944L176.23 245.41Z" fill="#D8DEE8"/>
<path d="M217.055 245.542L199.345 246.397C198.814 246.422 198.292 245.984 198.179 245.418L195.129 230.099C195.016 229.532 195.357 229.058 195.889 229.038L213.64 228.395C214.159 228.376 214.67 228.813 214.781 229.372L217.794 244.483C217.901 245.042 217.572 245.515 217.055 245.542ZM199.898 244.302L215.712 243.561L213.102 230.453L197.258 231.052L199.898 244.302Z" fill="#D8DEE8"/>
<path d="M239.453 244.458L222.293 245.287C221.778 245.312 221.271 244.88 221.16 244.323L218.158 229.245C218.047 228.687 218.375 228.22 218.89 228.202L236.092 227.577C236.591 227.559 237.09 227.99 237.2 228.54L240.163 243.418C240.273 243.968 239.952 244.434 239.453 244.458ZM222.822 243.226L238.146 242.508L235.577 229.604L220.225 230.183L222.822 243.226Z" fill="#D8DEE8"/>
<path d="M261.168 243.41L244.532 244.209C244.033 244.233 243.54 243.81 243.434 243.26L240.478 228.414C240.369 227.867 240.686 227.406 241.186 227.388L257.861 226.784C258.349 226.766 258.832 227.19 258.939 227.732L261.857 242.383C261.962 242.928 261.655 243.386 261.168 243.41ZM245.042 242.185L259.9 241.486L257.369 228.78L242.486 229.342L245.042 242.185Z" fill="#D8DEE8"/>
<path d="M124.207 271.799L104.071 273.056C103.766 273.067 103.468 272.969 103.228 272.781C102.988 272.594 102.822 272.327 102.758 272.029L99.5003 255.66C99.3795 255.055 99.7738 254.54 100.379 254.509L120.563 253.492C121.152 253.462 121.726 253.921 121.845 254.518L125.057 270.648C125.175 271.249 124.795 271.762 124.207 271.799ZM104.729 270.801L122.71 269.703L119.924 255.712L101.91 256.646L104.729 270.801Z" fill="#D8DEE8"/>
<path d="M149.628 270.211L130.157 271.426C129.572 271.463 129.002 271.01 128.884 270.416L125.681 254.325C125.563 253.726 125.942 253.227 126.528 253.195L146.043 252.211C146.614 252.182 147.17 252.634 147.287 253.221L150.446 269.085C150.563 269.671 150.197 270.175 149.628 270.211ZM130.786 269.212L148.173 268.151L145.434 254.393L128.015 255.291L130.786 269.212Z" fill="#D8DEE8"/>
<path d="M174.221 268.674L155.383 269.851C154.818 269.886 154.266 269.441 154.149 268.853L150.998 253.028C150.882 252.443 151.247 251.946 151.814 251.917L170.695 250.965C171.246 250.937 171.787 251.383 171.902 251.964L175.009 267.568C175.124 268.144 174.774 268.64 174.221 268.674ZM155.984 267.671L172.807 266.645L170.112 253.11L153.259 253.984L155.984 267.671Z" fill="#D8DEE8"/>
<path d="M198.025 267.187L179.791 268.326C179.244 268.361 178.708 267.922 178.593 267.346L175.499 251.775C175.384 251.199 175.735 250.71 176.283 250.683L194.561 249.761C195.095 249.734 195.62 250.173 195.733 250.74L198.785 266.103C198.898 266.667 198.558 267.154 198.025 267.187ZM180.364 266.183L196.647 265.185L193.995 251.868L177.683 252.713L180.364 266.183Z" fill="#D8DEE8"/>
<path d="M102.022 164.569L81.3321 164.418L80.4497 159.986L101.151 160.195L102.022 164.569Z" fill="url(#paint14_linear_36_282)"/>
<path d="M128.133 164.759L108.135 164.614L107.268 160.257L127.276 160.458L128.133 164.759Z" fill="url(#paint15_linear_36_282)"/>
<path d="M153.383 164.943L134.044 164.802L133.19 160.518L152.54 160.713L153.383 164.943Z" fill="url(#paint16_linear_36_282)"/>
<path d="M177.813 165.122L159.1 164.985L158.262 160.771L176.985 160.961L177.813 165.122Z" fill="url(#paint17_linear_36_282)"/>
<path d="M201.464 165.293L183.346 165.162L182.521 161.015L200.648 161.199L201.464 165.293Z" fill="url(#paint18_linear_36_282)"/>
<path d="M224.371 165.46L206.823 165.332L206.01 161.253L223.568 161.43L224.371 165.46Z" fill="url(#paint19_linear_36_282)"/>
<path d="M246.569 165.622L229.563 165.498L228.764 161.483L245.779 161.654L246.569 165.622Z" fill="url(#paint20_linear_36_282)"/>
<path d="M244.705 156.261L79.2499 153.963L77.582 145.585L243.212 148.761L244.705 156.261Z" fill="#D8DEE8"/>
<g style="mix-blend-mode:multiply" opacity="0.3">
<g style="mix-blend-mode:multiply" opacity="0.3">
<path d="M200.559 213.578C163.507 193.446 128.393 209.096 103.115 183.273C90.1508 170.031 85.9936 152.156 85.241 136.345L68.9444 135.936C66.0498 135.863 64.1534 138.106 64.7153 140.946L91.9435 277.682C92.5084 280.521 95.2803 282.665 98.124 282.473L251.231 272.023C234.412 237.848 215.83 221.876 200.559 213.578Z" fill="#D8DEE8"/>
</g>
</g>
<path d="M181.629 157.348C181.201 156.373 179.744 155.735 178.845 156.569C176.272 158.956 175.757 162.92 174.437 166.099C173.43 168.524 172.308 170.9 171.221 173.29C168.899 169.986 166.914 166.432 164.518 163.179C163.687 162.05 161.704 163.08 162.332 164.408C164.813 169.639 166.461 175.077 169.76 179.917C170.917 181.614 173.414 181.09 174.243 179.408C176.156 175.526 178.109 171.658 179.771 167.658C181.062 164.538 183.086 160.668 181.629 157.348Z" fill="url(#paint21_linear_36_282)"/>
<path d="M111.531 40.3477C112.639 40.9106 114.033 40.3936 114.642 39.1928C115.251 37.9921 114.847 36.5627 113.743 35.9988C113.686 35.9688 113.627 35.9449 113.568 35.9209C113.772 35.2655 113.928 34.5959 114.034 33.9177C114.098 33.9177 114.161 33.9177 114.226 33.9107C115.491 33.7979 116.495 32.635 116.468 31.3155C116.441 29.996 115.395 29.0138 114.13 29.1266C114.064 29.1326 113.999 29.1436 113.93 29.1545C113.799 28.5037 113.618 27.8639 113.388 27.2411C113.447 27.2072 113.505 27.1722 113.561 27.1323C114.644 26.3737 114.99 24.8775 114.334 23.7896C113.679 22.7016 112.27 22.4341 111.187 23.1907C111.132 23.2296 111.079 23.2715 111.028 23.3134C110.598 22.8385 110.128 22.4005 109.624 22.0039C109.66 21.945 109.695 21.8861 109.724 21.8232C110.333 20.6255 111.129 19.3109 110.012 18.7659C107.427 17.5033 106.319 18.5843 105.707 19.785C105.676 19.8469 105.648 19.9098 105.623 19.9737C105.005 19.8007 104.374 19.6801 103.736 19.6134C103.736 19.5465 103.743 19.4796 103.742 19.4137C103.715 18.0922 104.107 17.3775 102.838 17.3526C100.068 17.2987 99.1337 18.5004 99.1606 19.822C99.1606 19.8918 99.1676 19.9587 99.1746 20.0216C98.5361 20.204 97.9127 20.4356 97.3101 20.7143C97.2811 20.6554 97.2512 20.5965 97.2172 20.5396C96.5615 19.4517 95.1521 19.1842 94.0701 19.9407C92.9881 20.6973 92.6418 22.1955 93.2965 23.2835C93.3305 23.3394 93.3674 23.3913 93.4043 23.4432C92.9193 23.929 92.4706 24.4498 92.0619 25.0013C92.008 24.9674 91.953 24.9354 91.8962 24.9015C90.7872 24.3385 89.3938 24.8556 88.784 26.0563C88.1741 27.2571 88.5843 28.6874 89.6883 29.2504C89.7452 29.2793 89.8041 29.3043 89.8629 29.3272C89.6595 29.9864 89.5047 30.6596 89.3998 31.3415C89.3359 31.3415 89.2721 31.3415 89.2072 31.3485C87.9425 31.4612 86.9384 32.6241 86.9644 33.9436C86.9903 35.2631 88.0354 36.2453 89.303 36.1325C89.3699 36.1265 89.4347 36.1166 89.5026 36.1046C89.634 36.7553 89.8152 37.395 90.0446 38.018C89.9867 38.0519 89.9288 38.0879 89.8719 38.1268C88.79 38.8854 88.4436 40.3826 89.0994 41.4706C89.7551 42.5585 91.9251 43.0676 93.0071 42.305C93.063 42.2661 92.3533 41.9866 92.4082 41.9437C92.8384 42.4191 93.3078 42.8575 93.8116 43.2542C93.7766 43.3121 93.7417 43.372 93.7118 43.4339C93.1019 44.6317 93.5121 46.065 94.6161 46.6279C95.72 47.1909 97.1184 46.6738 97.7273 45.4731C97.7592 45.4102 97.7862 45.3473 97.8121 45.2844C98.4298 45.4569 99.0608 45.5774 99.6986 45.6448C99.6986 45.7106 99.6916 45.7775 99.6986 45.8444C99.7245 47.1659 100.772 48.1461 102.037 48.0333C103.303 47.9205 104.306 46.7577 104.28 45.4382C104.28 45.3693 104.273 45.3014 104.266 45.2385C104.904 45.0563 105.528 44.825 106.131 44.5468C106.16 44.6057 106.189 44.6646 106.223 44.7215C106.879 45.8095 108.288 46.076 109.371 45.3204C110.454 44.5648 110.799 43.0656 110.143 41.9776C110.11 41.9228 110.074 41.8698 110.035 41.8189C110.521 41.3328 110.97 40.8117 111.379 40.2598C111.419 40.2858 111.473 40.3187 111.531 40.3477ZM97.7063 40.5243C93.6798 38.4791 92.2106 33.2878 94.4234 28.928C96.6363 24.5681 101.696 22.6906 105.722 24.7358C109.749 26.781 111.218 31.9713 109.004 36.3312C106.79 40.691 101.733 42.5675 97.7063 40.5243Z" fill="url(#paint22_linear_36_282)"/>
<path d="M114.221 33.9117C115.487 33.7989 116.491 32.636 116.464 31.3165C116.437 29.997 115.391 29.0148 114.125 29.1276C114.059 29.1336 113.995 29.1446 113.926 29.1555C113.795 28.5047 113.614 27.8649 113.384 27.2421C113.443 27.2082 113.5 27.1732 113.556 27.1333C114.639 26.3747 115.979 24.5382 115.214 23.5281C113.765 21.6016 112.266 22.4351 111.183 23.1937C111.128 23.2326 111.075 23.2745 111.024 23.3164C110.593 22.8415 110.124 22.4035 109.62 22.0069C109.656 21.948 109.691 21.8891 109.72 21.8262C109.877 21.5221 109.97 21.1891 109.995 20.8477C110.019 20.5062 109.974 20.1633 109.861 19.8399C108.815 21.6805 107.784 23.529 106.767 25.3856C109.995 27.7382 111.013 32.3765 109.005 36.3321C107.308 39.6829 103.921 41.5644 100.621 41.3288C100.473 41.7111 100.328 42.0944 100.17 42.4727C99.7421 43.4998 99.256 44.5059 98.7729 45.51C99.0797 45.5679 99.3871 45.6132 99.6952 45.6458C99.6952 45.7116 99.6882 45.7785 99.6952 45.8454C99.7212 47.1669 100.524 48.2898 102.816 48.1681C104.085 48.1012 104.303 46.7587 104.277 45.4372C104.277 45.3683 104.27 45.3004 104.263 45.2375C104.901 45.0553 105.524 44.824 106.127 44.5458C106.156 44.6047 106.186 44.6636 106.22 44.7205C106.876 45.8085 109.15 46.2706 110.233 45.512C111.316 44.7534 110.796 43.0616 110.14 41.9736C110.107 41.9188 110.071 41.8658 110.032 41.8149C110.517 41.3288 110.966 40.8077 111.375 40.2558C111.429 40.2898 111.483 40.3227 111.541 40.3556C112.65 40.9186 114.043 40.4016 114.652 39.2008C115.261 38 114.858 36.5707 113.754 36.0068C113.696 35.9768 113.637 35.9529 113.578 35.9289C113.782 35.2734 113.938 34.6039 114.044 33.9256C114.093 33.9187 114.156 33.9167 114.221 33.9117Z" fill="url(#paint23_linear_36_282)"/>
<path d="M112.723 40.4834C113.832 41.0464 115.226 40.5293 115.835 39.3286C116.443 38.1278 116.04 36.6985 114.936 36.1345C114.878 36.1046 114.82 36.0806 114.761 36.0567C114.965 35.4012 115.121 34.7317 115.227 34.0534C115.29 34.0534 115.354 34.0534 115.418 34.0464C116.684 33.9336 117.688 32.7708 117.661 31.4513C117.634 30.1317 116.582 29.1456 115.318 29.2614C115.252 29.2674 115.187 29.2783 115.118 29.2893C114.987 28.6384 114.806 27.9987 114.576 27.3759C114.635 27.342 114.693 27.307 114.749 27.2671C115.832 26.5085 116.178 25.0123 115.522 23.9243C114.866 22.8364 113.458 22.5689 112.375 23.3255C112.319 23.3644 112.267 23.4063 112.216 23.4482C111.786 22.9733 111.316 22.5353 110.812 22.1387C110.848 22.0798 110.883 22.0209 110.912 21.958C111.522 20.7602 111.117 19.3279 110.013 18.764C108.91 18.2 107.511 18.7181 106.901 19.9188C106.87 19.9807 106.842 20.0436 106.816 20.1075C106.199 19.934 105.568 19.8134 104.93 19.7471C104.93 19.6803 104.937 19.6134 104.936 19.5475C104.909 18.226 103.862 17.2518 102.597 17.3596C101.333 17.4674 100.328 18.6342 100.354 19.9547C100.354 20.0236 100.361 20.0915 100.368 20.1544C99.73 20.3364 99.1067 20.5677 98.5039 20.8461C98.475 20.7872 98.4451 20.7293 98.4101 20.6724C97.7553 19.5844 96.346 19.3169 95.264 20.0735C94.182 20.8301 93.8347 22.3283 94.4904 23.4163C94.5244 23.4722 94.5613 23.5241 94.5982 23.576C94.1132 24.0618 93.6645 24.5826 93.2557 25.1341C93.2018 25.1001 93.1469 25.0672 93.09 25.0343C91.9811 24.4713 90.5877 24.9883 89.9779 26.1891C89.368 27.3899 89.7732 28.8202 90.8822 29.3831C90.9391 29.4121 90.998 29.436 91.0568 29.46C90.853 30.1158 90.6976 30.7857 90.5917 31.4643C90.5278 31.4643 90.4639 31.4643 90.3991 31.4712C89.1344 31.584 88.1303 32.7459 88.1563 34.0664C88.1822 35.3869 89.2302 36.3681 90.4949 36.2553C90.5618 36.2493 90.6266 36.2383 90.6945 36.2274C90.8229 36.8823 91.0018 37.5264 91.2295 38.1538C91.1716 38.1877 91.1137 38.2236 91.0568 38.2626C89.9749 39.0212 89.6285 40.5184 90.2843 41.6063C90.9401 42.6943 92.3484 42.9608 93.4304 42.2052C93.4863 42.1663 93.5382 42.1244 93.5901 42.0814C94.0206 42.5566 94.49 42.995 94.9935 43.392C94.9586 43.4499 94.9236 43.5098 94.8937 43.5717C94.2838 44.7694 94.6891 46.2017 95.798 46.7657C96.9069 47.3296 98.3003 46.8116 98.9092 45.6109C98.9411 45.548 98.9681 45.4851 98.994 45.4222C99.6116 45.5948 100.243 45.715 100.881 45.7815C100.881 45.8484 100.874 45.9153 100.876 45.9812C100.901 47.3027 101.949 48.2829 103.214 48.1701C104.48 48.0573 105.483 46.8945 105.457 45.5749C105.457 45.506 105.45 45.4382 105.443 45.3753C106.081 45.1931 106.705 44.9618 107.308 44.6836C107.336 44.7425 107.366 44.8004 107.4 44.8573C108.056 45.9452 109.464 46.2127 110.547 45.4561C111.63 44.6996 111.976 43.2013 111.32 42.1134C111.287 42.0575 111.25 42.0056 111.212 41.9537C111.698 41.4681 112.147 40.9473 112.556 40.3956C112.612 40.4245 112.666 40.4545 112.723 40.4834ZM98.8992 40.6591C94.8727 38.6149 93.4035 33.4236 95.6213 29.0637C97.8392 24.7039 102.894 22.8264 106.92 24.8716C110.947 26.9167 112.416 32.1081 110.202 36.4669C107.988 40.8258 102.926 42.7033 98.8992 40.6591Z" fill="url(#paint24_linear_36_282)"/>
<path d="M74.6764 73.5018C76.8493 74.6047 79.5782 73.5916 80.772 71.239C81.9658 68.8864 81.1713 66.0866 79.0013 64.9836C78.8885 64.9268 78.7737 64.8778 78.659 64.8319C79.0581 63.5477 79.3627 62.236 79.5703 60.9073C79.695 60.9073 79.8198 60.9073 79.9476 60.8933C82.4259 60.6717 84.3923 58.3979 84.3394 55.8028C84.2865 53.2076 82.2363 51.2952 79.7579 51.5108C79.6282 51.5228 79.5014 51.5437 79.3746 51.5657C79.1183 50.2905 78.7636 49.0371 78.3136 47.8167C78.4274 47.7508 78.5412 47.6819 78.652 47.6041C80.772 46.1189 81.4468 43.1863 80.1661 41.0553C78.8855 38.9243 76.1217 38.4003 74.0017 39.8865C73.8929 39.9624 73.791 40.0442 73.6902 40.128C72.8471 39.1968 71.9272 38.3381 70.9404 37.5608C71.0102 37.4461 71.0781 37.3303 71.14 37.2085C72.3378 34.8559 73.8949 32.2867 71.7059 31.2197C66.6414 28.7473 64.4674 30.8633 63.2737 33.2159C63.2118 33.3377 63.1579 33.4615 63.107 33.5853C61.8979 33.2468 60.6625 33.0108 59.4139 32.8796C59.4219 32.7488 59.4279 32.6181 59.4249 32.4803C59.373 29.8922 60.1415 28.4878 57.6542 28.4429C52.2283 28.3371 50.3987 30.6917 50.4506 33.2798C50.4506 33.4156 50.4646 33.5473 50.4776 33.6791C49.2271 34.0362 48.0061 34.4894 46.8254 35.0346C46.7685 34.9188 46.7096 34.804 46.6427 34.6932C45.3591 32.5622 42.5993 32.0381 40.4782 33.5244C38.3572 35.0106 37.6834 37.9411 38.9641 40.0731C39.0299 40.1819 39.1018 40.2838 39.1757 40.3846C38.2252 41.3367 37.3458 42.3572 36.5446 43.4379C36.4398 43.372 36.333 43.3071 36.2202 43.2502C34.0482 42.1473 31.3183 43.1594 30.1246 45.512C28.9308 47.8646 29.7253 50.6654 31.8952 51.7683C32.008 51.8252 32.1228 51.8731 32.2376 51.919C31.8383 53.2036 31.5337 54.5156 31.3263 55.8447C31.2015 55.8447 31.0768 55.8447 30.95 55.8577C28.4716 56.0793 26.5043 58.353 26.5582 60.9482C26.6121 63.5433 28.6613 65.4558 31.1397 65.2352C31.2694 65.2232 31.3962 65.2032 31.5229 65.1803C31.7796 66.4554 32.1343 67.7088 32.584 68.9293C32.4702 68.9962 32.3564 69.065 32.2456 69.1429C30.1256 70.6281 29.4508 73.5596 30.7314 75.6907C32.012 77.8217 36.2671 78.8128 38.3871 77.3266C38.4959 77.2508 37.1065 76.7018 37.2083 76.6189C38.0512 77.55 38.9711 78.4085 39.9582 79.1851C39.8883 79.2999 39.8195 79.4157 39.7586 79.5375C38.5608 81.8901 39.3593 84.6909 41.5293 85.7938C43.6992 86.8967 46.4311 85.8836 47.6249 83.532C47.6868 83.4102 47.7407 83.2865 47.7916 83.1627C49.0008 83.5003 50.2361 83.736 51.4847 83.8674C51.4767 83.9981 51.4707 84.1299 51.4737 84.2617C51.5256 86.8508 53.5768 88.7702 56.0551 88.5536C58.5335 88.3371 60.5009 86.0583 60.447 83.4632C60.447 83.3274 60.433 83.1956 60.419 83.0639C61.6695 82.707 62.8906 82.2538 64.0712 81.7084C64.1281 81.8242 64.187 81.939 64.2538 82.0498C65.5384 84.1818 68.2983 84.7048 70.4183 83.2196C72.5384 81.7344 73.2131 78.8019 71.9325 76.6708C71.8666 76.561 71.7948 76.4592 71.7219 76.3584C72.6718 75.4064 73.5508 74.3862 74.352 73.3061C74.4608 73.38 74.5606 73.4439 74.6764 73.5018ZM47.5969 73.8451C39.7117 69.8406 36.831 59.6716 41.1669 51.1305C45.5028 42.5895 55.4123 38.9143 63.2986 42.9198C71.1849 46.9254 74.0615 57.0934 69.7286 65.6324C65.3957 74.1715 55.4842 77.8546 47.5969 73.8451Z" fill="url(#paint25_linear_36_282)"/>
<path d="M79.9508 60.8933C82.4291 60.6717 84.3955 58.398 84.3426 55.8028C84.2897 53.2076 82.2395 51.2952 79.7611 51.5168C79.6314 51.5278 79.5046 51.5487 79.3778 51.5707C79.1215 50.2955 78.7668 49.0421 78.3168 47.8217C78.4306 47.7558 78.5444 47.687 78.6552 47.6091C80.7752 46.1239 83.3993 42.5336 81.9031 40.5453C79.0634 36.7723 76.1249 38.4053 74.0049 39.8915C73.8961 39.9674 73.7943 40.0492 73.6935 40.1331C72.8503 39.2019 71.9305 38.3431 70.9436 37.5658C71.0135 37.4511 71.0813 37.3353 71.1432 37.2135C71.4518 36.6176 71.6356 35.9651 71.6835 35.2958C71.7313 34.6265 71.6423 33.9545 71.4217 33.3208C69.3735 36.926 67.356 40.5476 65.369 44.1855C71.6573 48.7959 73.6635 57.8819 69.7309 65.6285C66.3961 72.1972 59.7715 75.8823 53.3005 75.4212C53.0121 76.1688 52.7286 76.9184 52.4192 77.663C51.5808 79.6742 50.6285 81.6436 49.6743 83.6109C50.2732 83.7247 50.8754 83.8132 51.4809 83.8764C51.473 84.0072 51.467 84.1389 51.47 84.2707C51.5219 86.8598 53.0929 89.0617 57.5845 88.8202C60.0699 88.6884 60.4971 86.0593 60.4452 83.4712C60.4452 83.3354 60.4312 83.2037 60.4172 83.0719C61.6678 82.715 62.8888 82.2618 64.0694 81.7164C64.1263 81.8322 64.1852 81.947 64.2521 82.0578C65.5367 84.1898 69.9914 85.0951 72.1114 83.6099C74.2315 82.1247 73.2154 78.8099 71.9307 76.6788C71.8649 76.569 71.793 76.4672 71.7201 76.3664C72.67 75.4144 73.549 74.3943 74.3502 73.3141C74.456 73.38 74.5628 73.4439 74.6746 73.5008C76.8476 74.6047 79.5765 73.5916 80.7702 71.239C81.964 68.8864 81.1695 66.0866 78.9995 64.9837C78.8868 64.9258 78.772 64.8779 78.6572 64.832C79.0563 63.5477 79.3609 62.236 79.5685 60.9073C79.6952 60.9063 79.82 60.9043 79.9508 60.8933Z" fill="url(#paint26_linear_36_282)"/>
<path d="M77.0133 73.7672C79.1853 74.8702 81.9152 73.8571 83.1089 71.5055C84.3027 69.1538 83.5082 66.3521 81.3383 65.2491C81.2255 65.1922 81.1107 65.1443 80.9959 65.0984C81.3951 63.8139 81.6996 62.5018 81.9072 61.1727C82.032 61.1727 82.1567 61.1727 82.2835 61.1588C84.7619 60.9382 86.7292 58.6634 86.6753 56.0683C86.6214 53.4731 84.5722 51.5597 82.0938 51.7813C81.9641 51.7923 81.8373 51.8132 81.7106 51.8352C81.4537 50.5618 81.099 49.31 80.6495 48.0912C80.7633 48.0243 80.8771 47.9554 80.9879 47.8776C83.1079 46.3923 83.7827 43.4598 82.5021 41.3288C81.2215 39.1978 78.4576 38.6738 76.3376 40.16C76.2288 40.2358 76.127 40.3177 76.0252 40.4015C75.1823 39.4701 74.2624 38.6113 73.2753 37.8343C73.3452 37.7205 73.414 37.6038 73.4749 37.482C74.6727 35.1304 73.8742 32.3296 71.7042 31.2267C69.5343 30.1237 66.8024 31.1358 65.6086 33.4884C65.5467 33.6102 65.4928 33.734 65.4419 33.8578C64.2329 33.5193 62.9975 33.2833 61.7488 33.1521C61.7568 33.0213 61.7628 32.8906 61.7598 32.7578C61.7079 30.1696 59.6567 28.2502 57.1783 28.4708C54.7 28.6914 52.7326 30.9662 52.7865 33.5613C52.7865 33.6961 52.8005 33.8288 52.8145 33.9606C51.564 34.3175 50.3429 34.7707 49.1623 35.316C49.1054 35.2012 49.0465 35.0865 48.9797 34.9747C47.696 32.8436 44.9352 32.3196 42.8152 33.8059C40.6951 35.2921 40.0204 38.2236 41.301 40.3546C41.3669 40.4634 41.4387 40.5652 41.5116 40.666C40.5614 41.6181 39.682 42.6382 38.8805 43.7183C38.7747 43.6525 38.6689 43.5876 38.5561 43.5307C36.3832 42.4327 33.6543 43.4409 32.4605 45.7925C31.2667 48.1441 32.0612 50.9458 34.2312 52.0488C34.344 52.1057 34.4588 52.1536 34.5735 52.1995C34.1743 53.484 33.8697 54.7961 33.6622 56.1252C33.5375 56.1252 33.4127 56.1252 33.286 56.1391C30.8076 56.3597 28.8402 58.6345 28.8941 61.2296C28.948 63.8248 30.9972 65.7372 33.4756 65.5216C33.6054 65.5097 33.7321 65.4897 33.8589 65.4667C34.1154 66.7419 34.4701 67.9953 34.9199 69.2157C34.8061 69.2826 34.6923 69.3515 34.5815 69.4293C32.4615 70.9146 31.7867 73.8461 33.0674 75.9781C34.348 78.1101 37.1118 78.6321 39.2318 77.1469C39.3406 77.0711 39.4425 76.9882 39.5433 76.9054C40.3867 77.836 41.3065 78.6944 42.2931 79.4716C42.2233 79.5864 42.1554 79.7021 42.0935 79.8249C40.8957 82.1765 41.6943 84.9773 43.8642 86.0802C46.0342 87.1832 48.7661 86.1711 49.9598 83.8185C50.0217 83.6967 50.0756 83.5729 50.1265 83.4492C51.3356 83.7872 52.571 84.023 53.8196 84.1538C53.8116 84.2846 53.8056 84.4163 53.8086 84.5531C53.8605 87.1413 55.9117 89.0607 58.3901 88.8391C60.8685 88.6175 62.8348 86.3437 62.7819 83.7486C62.7819 83.6138 62.7679 83.4811 62.7549 83.3493C64.0054 82.9922 65.2264 82.5391 66.4071 81.9939C66.464 82.1096 66.5229 82.2244 66.5898 82.3362C67.8734 84.4673 70.6332 84.9903 72.7543 83.505C74.8753 82.0198 75.5491 79.0873 74.2684 76.9563C74.2026 76.8475 74.1307 76.7447 74.0568 76.6439C75.0076 75.6923 75.887 74.6721 76.6879 73.5916C76.7947 73.6455 76.9005 73.7103 77.0133 73.7672ZM49.9339 74.1106C42.0486 70.1061 39.168 59.9371 43.5039 51.397C47.8398 42.8569 57.7483 39.1798 65.6356 43.1843C73.5228 47.1889 76.4015 57.3579 72.0656 65.8979C67.7297 74.438 57.8211 78.1151 49.9339 74.1106Z" fill="url(#paint27_linear_36_282)"/>
</g>
<defs>
<linearGradient id="paint0_linear_36_282" x1="259.878" y1="99.8786" x2="177.064" y2="219.39" gradientUnits="userSpaceOnUse">
<stop stop-color="#AA80F9"/>
<stop offset="1" stop-color="#6165D7"/>
</linearGradient>
<linearGradient id="paint1_linear_36_282" x1="293.236" y1="148.616" x2="149.147" y2="148.616" gradientUnits="userSpaceOnUse">
<stop stop-color="#FF9085"/>
<stop offset="1" stop-color="#FB6FBB"/>
</linearGradient>
<linearGradient id="paint2_linear_36_282" x1="-421568" y1="97850.7" x2="-545655" y2="179412" gradientUnits="userSpaceOnUse">
<stop stop-color="#E38DDD"/>
<stop offset="1" stop-color="#9571F6"/>
</linearGradient>
<linearGradient id="paint3_linear_36_282" x1="99.7388" y1="159.251" x2="-14.5937" y2="297.449" gradientUnits="userSpaceOnUse">
<stop stop-color="#F36F56"/>
<stop offset="1" stop-color="#FFC444"/>
</linearGradient>
<linearGradient id="paint4_linear_36_282" x1="81799.6" y1="108603" x2="16514.7" y2="191412" gradientUnits="userSpaceOnUse">
<stop stop-color="#F36F56"/>
<stop offset="1" stop-color="#FFC444"/>
</linearGradient>
<linearGradient id="paint5_linear_36_282" x1="63.823" y1="191.889" x2="268.079" y2="-12.367" gradientUnits="userSpaceOnUse">
<stop stop-color="#FFC444"/>
<stop offset="1" stop-color="#F36F56"/>
</linearGradient>
<linearGradient id="paint6_linear_36_282" x1="49639.6" y1="123525" x2="166739" y2="7967.67" gradientUnits="userSpaceOnUse">
<stop stop-color="#FFC444"/>
<stop offset="1" stop-color="#F36F56"/>
</linearGradient>
<linearGradient id="paint7_linear_36_282" x1="3548.41" y1="344861" x2="49874.9" y2="326351" gradientUnits="userSpaceOnUse">
<stop stop-color="#AA80F9"/>
<stop offset="1" stop-color="#6165D7"/>
</linearGradient>
<linearGradient id="paint8_linear_36_282" x1="16936.8" y1="157783" x2="122997" y2="315007" gradientUnits="userSpaceOnUse">
<stop stop-color="#FF9085"/>
<stop offset="1" stop-color="#FB6FBB"/>
</linearGradient>
<linearGradient id="paint9_linear_36_282" x1="-15.2077" y1="127.773" x2="155.004" y2="338.688" gradientUnits="userSpaceOnUse">
<stop stop-color="#E38DDD"/>
<stop offset="1" stop-color="#9571F6"/>
</linearGradient>
<linearGradient id="paint10_linear_36_282" x1="56.3185" y1="207.775" x2="280.243" y2="207.775" gradientUnits="userSpaceOnUse">
<stop stop-color="#EBEFF2"/>
<stop offset="1" stop-color="white"/>
</linearGradient>
<linearGradient id="paint11_linear_36_282" x1="483058" y1="241669" x2="682991" y2="705098" gradientUnits="userSpaceOnUse">
<stop stop-color="#AA80F9"/>
<stop offset="1" stop-color="#6165D7"/>
</linearGradient>
<linearGradient id="paint12_linear_36_282" x1="360875" y1="277775" x2="586616" y2="730833" gradientUnits="userSpaceOnUse">
<stop stop-color="#FF9085"/>
<stop offset="1" stop-color="#FB6FBB"/>
</linearGradient>
<linearGradient id="paint13_linear_36_282" x1="547464" y1="435988" x2="573273" y2="162248" gradientUnits="userSpaceOnUse">
<stop stop-color="#EBEFF2"/>
<stop offset="1" stop-color="white"/>
</linearGradient>
<linearGradient id="paint14_linear_36_282" x1="34985" y1="6830.98" x2="35055.5" y2="11424.7" gradientUnits="userSpaceOnUse">
<stop stop-color="#E38DDD"/>
<stop offset="1" stop-color="#9571F6"/>
</linearGradient>
<linearGradient id="paint15_linear_36_282" x1="39372.9" y1="6656.8" x2="39441.8" y2="11074.1" gradientUnits="userSpaceOnUse">
<stop stop-color="#E38DDD"/>
<stop offset="1" stop-color="#9571F6"/>
</linearGradient>
<linearGradient id="paint16_linear_36_282" x1="43284.4" y1="6489.58" x2="43351.7" y2="10739.3" gradientUnits="userSpaceOnUse">
<stop stop-color="#E38DDD"/>
<stop offset="1" stop-color="#9571F6"/>
</linearGradient>
<linearGradient id="paint17_linear_36_282" x1="46766.9" y1="6332.29" x2="46832.7" y2="10425" gradientUnits="userSpaceOnUse">
<stop stop-color="#E38DDD"/>
<stop offset="1" stop-color="#9571F6"/>
</linearGradient>
<linearGradient id="paint18_linear_36_282" x1="49865.7" y1="6180.7" x2="49930" y2="10123.5" gradientUnits="userSpaceOnUse">
<stop stop-color="#E38DDD"/>
<stop offset="1" stop-color="#9571F6"/>
</linearGradient>
<linearGradient id="paint19_linear_36_282" x1="52611.6" y1="6035.3" x2="52674.6" y2="9835.93" gradientUnits="userSpaceOnUse">
<stop stop-color="#E38DDD"/>
<stop offset="1" stop-color="#9571F6"/>
</linearGradient>
<linearGradient id="paint20_linear_36_282" x1="55043" y1="5897.49" x2="55104.6" y2="9563.97" gradientUnits="userSpaceOnUse">
<stop stop-color="#E38DDD"/>
<stop offset="1" stop-color="#9571F6"/>
</linearGradient>
<linearGradient id="paint21_linear_36_282" x1="162.678" y1="165.448" x2="181.716" y2="168.14" gradientUnits="userSpaceOnUse">
<stop stop-color="#AB316D"/>
<stop offset="1" stop-color="#792D3D"/>
</linearGradient>
<linearGradient id="paint22_linear_36_282" x1="138.296" y1="42.843" x2="103.668" y2="33.0443" gradientUnits="userSpaceOnUse">
<stop stop-color="#311944"/>
<stop offset="1" stop-color="#A03976"/>
</linearGradient>
<linearGradient id="paint23_linear_36_282" x1="24595" y1="12274" x2="18166.6" y2="11138.3" gradientUnits="userSpaceOnUse">
<stop stop-color="#311944"/>
<stop offset="1" stop-color="#A03976"/>
</linearGradient>
<linearGradient id="paint24_linear_36_282" x1="30465.4" y1="6491.12" x2="30640" y2="19995.8" gradientUnits="userSpaceOnUse">
<stop stop-color="#FF9085"/>
<stop offset="1" stop-color="#FB6FBB"/>
</linearGradient>
<linearGradient id="paint25_linear_36_282" x1="73610.1" y1="47252.2" x2="34118.2" y2="36513.4" gradientUnits="userSpaceOnUse">
<stop stop-color="#311944"/>
<stop offset="1" stop-color="#A03976"/>
</linearGradient>
<linearGradient id="paint26_linear_36_282" x1="44137.2" y1="43983.8" x2="19460.6" y2="39623" gradientUnits="userSpaceOnUse">
<stop stop-color="#311944"/>
<stop offset="1" stop-color="#A03976"/>
</linearGradient>
<linearGradient id="paint27_linear_36_282" x1="33315.5" y1="21525.9" x2="33986.1" y2="73359.9" gradientUnits="userSpaceOnUse">
<stop stop-color="#FF9085"/>
<stop offset="1" stop-color="#FB6FBB"/>
</linearGradient>
<clipPath id="clip0_36_282">
<rect width="300" height="289.058" fill="white"/>
</clipPath>
</defs>
</svg>
